<?xml version="1.0" standalone="no"?>
<!DOCTYPE svg PUBLIC "-//W3C//DTD SVG 20010904//EN"
 "http://www.w3.org/TR/2001/REC-SVG-20010904/DTD/svg10.dtd">
<svg version="1.0" xmlns="http://www.w3.org/2000/svg"
 width="1254.000000pt" height="1254.000000pt" viewBox="0 0 1254.000000 1254.000000"
 preserveAspectRatio="xMidYMid meet">

<g transform="translate(0.000000,1254.000000) scale(0.100000,-0.100000)"
fill="#000000" stroke="none">
<path d="M6075 12130 c-985 -62 -1960 -386 -2823 -939 -690 -441 -1281 -1023
-1749 -1721 -482 -721 -776 -1542 -880 -2460 -26 -226 -26 -926 0 -1160 80
-733 242 -1311 541 -1925 142 -292 266 -503 459 -780 333 -478 774 -935 1242
-1287 686 -516 1475 -874 2285 -1038 442 -89 698 -114 1185 -114 469 0 676 18
1080 95 1496 284 2812 1149 3644 2396 269 403 520 914 663 1346 285 867 368
1806 237 2677 -143 949 -513 1869 -1047 2600 -221 302 -583 694 -877 950 -387
336 -853 637 -1325 855 -578 268 -1149 423 -1805 491 -170 17 -651 26 -830 14z
m510 -374 c676 -19 1417 -214 2075 -547 850 -429 1568 -1065 2097 -1856 363
-544 616 -1153 772 -1864 126 -569 146 -1267 56 -1909 -87 -616 -298 -1267
-576 -1774 -365 -664 -819 -1203 -1395 -1652 -950 -741 -2201 -1134 -3457
-1084 -858 34 -1590 224 -2312 599 -352 183 -699 418 -1025 695 -146 124 -444
426 -574 581 -655 785 -1049 1640 -1200 2605 -52 331 -61 459 -61 875 0 256 4
428 13 500 73 620 214 1135 461 1674 332 727 806 1347 1426 1866 950 794 2097
1248 3275 1294 96 4 191 5 210 4 19 -1 116 -5 215 -7z"/>
<path d="M6185 11634 c-715 -29 -1474 -227 -2115 -549 -274 -139 -698 -399
-796 -489 -18 -17 -38 -32 -45 -34 -18 -4 -245 -189 -314 -255 -33 -32 -50
-53 -38 -46 17 10 26 10 48 -5 l27 -18 -23 -24 c-12 -13 -19 -24 -14 -24 5 0
-6 -16 -25 -35 -37 -39 -64 -48 -34 -12 10 12 0 4 -23 -17 -23 -22 -40 -42
-38 -46 2 -3 -50 -60 -116 -126 -65 -65 -119 -115 -119 -110 0 5 -7 3 -15 -4
-8 -7 -13 -16 -10 -20 3 -4 -37 -54 -88 -112 -185 -207 -355 -441 -517 -709
-75 -123 -309 -583 -325 -637 -4 -13 -19 -43 -34 -65 -91 -140 -242 -649 -297
-1007 -133 -858 -58 -1679 229 -2501 174 -499 429 -973 766 -1424 243 -326
600 -692 926 -951 664 -527 1386 -850 2254 -1009 449 -82 860 -110 1246 -85
1062 69 1975 402 2810 1027 185 138 323 260 525 462 311 311 524 586 632 814
15 31 26 57 24 57 -2 0 -68 -80 -147 -178 -282 -350 -441 -523 -704 -765 -604
-556 -1314 -947 -2124 -1168 l-124 -33 -33 39 c-18 22 -36 51 -39 65 -7 33 28
237 65 375 39 148 116 369 145 419 13 23 32 61 41 86 12 29 44 70 90 115 51
50 81 90 105 140 32 66 34 76 34 180 0 100 -2 115 -27 160 -48 91 -125 152
-228 181 l-45 12 46 1 c78 2 217 30 294 60 92 35 212 118 279 193 l53 58 52
-34 c191 -129 454 -20 514 214 16 61 15 60 136 74 l60 7 26 -51 c54 -107 156
-181 270 -195 103 -13 228 33 320 117 51 47 55 48 55 26 0 -30 30 -119 60
-178 31 -60 116 -147 171 -175 142 -72 316 -44 440 72 146 136 162 228 136
768 l-15 300 53 100 c177 337 346 678 360 729 37 127 4 277 -79 366 -18 19
-50 61 -70 92 -109 167 -300 237 -448 165 -88 -43 -132 -101 -231 -302 -48
-97 -89 -176 -91 -174 -2 2 -34 56 -71 119 -47 79 -91 138 -140 187 -83 83
-84 66 13 183 29 36 78 114 107 174 l54 109 93 -2 c161 -3 302 51 421 159 151
139 176 307 81 555 -21 53 -51 109 -73 135 -36 43 -37 46 -25 80 7 19 13 46
13 59 1 22 4 23 46 18 25 -4 71 -17 103 -29 45 -18 63 -33 88 -69 42 -63 84
-196 96 -304 17 -152 18 -159 31 -146 8 8 12 47 11 109 -1 108 -27 218 -70
304 -14 27 -24 52 -22 54 2 2 22 -1 43 -7 22 -6 76 -9 120 -7 86 5 137 25 208
81 21 16 40 28 42 25 2 -2 18 -79 34 -172 43 -235 68 -490 98 -976 6 -112 8
-119 14 -70 20 162 0 606 -41 900 -72 513 -219 1027 -425 1490 -227 509 -452
858 -829 1289 -411 469 -968 891 -1580 1198 -92 46 -166 86 -164 88 14 14 396
-168 537 -256 251 -156 454 -293 541 -364 30 -25 80 -64 110 -87 110 -84 268
-226 425 -383 399 -396 677 -789 936 -1320 281 -577 425 -1043 524 -1700 89
-590 100 -996 40 -1413 -145 -995 -520 -1826 -1174 -2597 -257 -303 -683 -676
-1030 -902 -273 -179 -614 -360 -880 -468 -436 -178 -987 -306 -1521 -355
-678 -61 -1509 42 -2195 274 -538 181 -1009 433 -1457 778 -212 163 -303 243
-483 423 -442 442 -801 943 -1070 1490 -168 342 -274 630 -370 1010 -29 116
-65 253 -79 306 -25 97 -68 341 -92 524 l-13 100 5 -142 c28 -799 288 -1652
712 -2333 358 -576 800 -1073 1317 -1482 135 -106 322 -239 405 -287 30 -18
78 -46 105 -63 155 -95 408 -219 640 -313 616 -249 1365 -388 2090 -388 318 0
471 11 770 54 535 76 933 194 1455 429 645 292 1246 738 1714 1275 291 333
603 820 782 1220 226 508 380 1079 451 1672 24 208 24 821 0 1039 -100 878
-370 1674 -814 2392 -205 333 -280 428 -543 692 -311 313 -426 416 -715 641
-159 124 -393 284 -575 393 -131 79 -505 262 -680 334 -445 182 -981 311
-1455 351 -137 11 -471 20 -590 15z m-398 -180 c-3 -3 -12 -4 -19 -1 -8 3 -5
6 6 6 11 1 17 -2 13 -5z m-74 -11 c-7 -2 -19 -2 -25 0 -7 3 -2 5 12 5 14 0 19
-2 13 -5z m-70 -10 c-7 -2 -19 -2 -25 0 -7 3 -2 5 12 5 14 0 19 -2 13 -5z
m-348 -63 c-11 -5 -29 -8 -40 -8 -16 0 -15 2 5 8 34 11 60 11 35 0z m1672 4
c-3 -3 -12 -4 -19 -1 -8 3 -5 6 6 6 11 1 17 -2 13 -5z m-1757 -24 c-34 -11
-60 -11 -35 0 11 5 29 8 40 8 16 0 15 -2 -5 -8z m233 -27 c-7 -2 -19 -2 -25 0
-7 3 -2 5 12 5 14 0 19 -2 13 -5z m-486 -39 c-3 -3 -12 -4 -19 -1 -8 3 -5 6 6
6 11 1 17 -2 13 -5z m2253 -30 c235 -37 484 -101 574 -146 74 -37 199 -160
243 -238 68 -121 92 -252 73 -393 -7 -50 -15 -97 -17 -104 -4 -9 -27 -13 -72
-13 -36 0 -106 -5 -156 -11 l-90 -10 -50 -53 c-27 -29 -77 -83 -109 -121 -80
-92 -134 -125 -202 -125 -80 0 -148 18 -193 51 -43 30 -61 36 -61 19 0 -38
120 -96 221 -107 32 -3 56 -10 53 -14 -10 -18 22 -8 71 20 62 36 142 114 215
209 62 81 75 88 204 98 l78 7 -27 -44 c-16 -24 -41 -60 -57 -79 -15 -19 -28
-39 -28 -45 1 -15 108 105 123 138 9 20 19 27 39 27 16 0 28 -2 28 -3 0 -13
-46 -133 -77 -203 l-38 -83 -100 -1 c-55 0 -130 -7 -166 -14 -146 -31 -299
-117 -413 -231 l-55 -54 -27 42 c-86 135 -270 216 -492 218 -58 0 -80 3 -67 9
11 5 15 9 9 9 -6 1 -17 12 -24 26 -7 14 -19 25 -27 25 -7 0 6 26 32 61 49 67
85 166 85 235 0 24 2 44 5 44 2 0 34 -11 70 -25 150 -56 246 -152 317 -317 23
-53 44 -95 47 -93 10 11 -25 137 -56 199 -65 129 -180 223 -319 262 l-62 17
-11 54 c-15 79 -67 170 -133 235 l-57 56 30 62 c75 158 239 339 367 403 77 38
74 38 302 1z m-2500 -48 c0 -6 -93 -37 -97 -32 -2 2 15 11 39 19 47 17 58 19
58 13z m-145 -56 c-22 -10 -44 -18 -50 -18 -5 0 8 8 30 19 22 10 45 18 50 18
6 0 -8 -9 -30 -19z m-75 -30 c-8 -5 -19 -10 -25 -10 -5 0 -3 5 5 10 8 5 20 10
25 10 6 0 3 -5 -5 -10z m3740 -80 c457 -188 840 -414 1225 -721 229 -183 371
-314 589 -546 l49 -52 -59 24 c-123 51 -280 26 -372 -59 -45 -41 -135 -168
-148 -208 -7 -23 -7 -23 -69 172 -15 46 -34 96 -43 110 -30 48 -87 102 -137
128 -43 23 -62 27 -135 27 -76 0 -91 -3 -139 -30 -66 -36 -110 -86 -158 -182
-21 -40 -41 -73 -44 -73 -3 0 -9 22 -12 49 -8 67 -57 170 -106 224 -60 64
-126 91 -226 92 -86 0 -141 -20 -197 -72 l-26 -25 -46 32 c-26 17 -71 43 -101
56 -30 14 -55 27 -55 29 0 2 15 39 34 82 18 44 44 112 57 151 17 54 27 71 38
68 9 -3 34 -7 57 -11 31 -5 52 -17 85 -51 56 -58 88 -59 58 -2 -10 19 -9 20
17 14 16 -4 38 -10 49 -13 17 -5 18 -4 7 10 -13 16 -177 71 -245 83 -33 6 -38
10 -33 28 57 231 6 458 -145 644 -28 35 -49 65 -47 66 21 19 68 35 88 30 14
-3 99 -36 190 -74z m-3580 60 c-8 -5 -19 -10 -25 -10 -5 0 -3 5 5 10 8 5 20
10 25 10 6 0 3 -5 -5 -10z m-260 -20 c-8 -5 -19 -10 -25 -10 -5 0 -3 5 5 10 8
5 20 10 25 10 6 0 3 -5 -5 -10z m-70 -30 c-19 -11 -39 -19 -45 -19 -5 0 6 8
25 19 19 11 40 19 45 19 6 0 -6 -8 -25 -19z m-300 -145 c0 -2 -13 -11 -30 -20
-38 -19 -40 -11 -2 9 31 17 32 18 32 11z m-180 -55 c-27 -21 -45 -26 -35 -9 6
9 41 27 55 28 3 0 -6 -8 -20 -19z m20 -35 c0 -2 -13 -11 -30 -20 -38 -19 -40
-11 -2 9 31 17 32 18 32 11z m-167 -53 c-10 -7 -30 -20 -45 -28 -23 -12 -27
-12 -32 1 -11 30 4 42 50 41 41 0 44 -2 27 -14z m12 -42 c-3 -5 -16 -15 -28
-21 -19 -9 -19 -8 3 10 28 23 34 26 25 11z m2606 -16 c10 -9 19 -28 19 -41 0
-19 5 -23 28 -21 15 1 33 -2 40 -6 16 -10 5 -27 -13 -20 -8 3 -35 -10 -61 -30
-57 -44 -89 -48 -82 -11 4 20 3 23 -8 14 -11 -9 -14 -6 -14 15 0 21 -5 26 -24
26 -24 0 -36 16 -36 50 0 46 108 63 151 24z m-2805 -25 c3 -6 16 -8 28 -5 16
4 12 -2 -14 -24 -19 -16 -48 -36 -65 -45 l-30 -16 24 21 c27 23 35 60 17 72
-6 5 -2 8 11 8 12 0 25 -5 29 -11z m2598 -30 c38 -30 34 -61 -14 -109 -41 -41
-80 -51 -120 -30 -45 24 -27 104 33 140 41 25 68 25 101 -1z m260 -50 c-4 -8
1 -9 16 -4 17 6 21 3 18 -10 -5 -28 -33 -41 -52 -25 -15 12 -15 14 0 31 19 21
29 25 18 8z m-2948 -17 c-2 -4 -26 -23 -53 -42 -26 -19 -42 -26 -34 -17 12 15
11 17 -3 17 -10 0 -14 5 -11 10 5 8 11 7 21 -1 11 -9 15 -8 20 5 3 9 14 16 24
16 11 0 22 5 25 10 3 6 8 10 11 10 3 0 3 -3 0 -8z m-141 -12 c3 -5 1 -10 -4
-10 -6 0 -11 5 -11 10 0 6 2 10 4 10 3 0 8 -4 11 -10z m35 -64 c0 -2 -8 -10
-17 -17 -16 -13 -17 -12 -4 4 13 16 21 21 21 13z m-97 -54 c-5 -12 -1 -11 20
3 49 32 28 9 -35 -39 -50 -38 -55 -40 -23 -11 32 30 36 36 17 32 -13 -3 -20
-1 -16 5 4 6 1 14 -7 19 -9 5 -2 7 18 7 23 -1 30 -5 26 -16z m67 -26 c0 -2 -8
-10 -17 -17 -16 -13 -17 -12 -4 4 13 16 21 21 21 13z m-212 -53 c9 -8 11 -20
6 -31 -4 -9 -7 -20 -6 -23 1 -7 -114 -110 -138 -124 -8 -4 -5 3 7 16 18 20 20
28 10 39 -9 10 -9 12 1 6 12 -7 15 0 15 37 0 9 3 17 7 17 3 0 6 10 6 22 -1 13
8 27 21 33 13 7 20 15 17 18 -4 3 4 5 17 4 13 -1 30 -7 37 -14z m42 -28 c-13
-14 -28 -25 -34 -25 -6 0 3 11 19 25 39 31 45 32 15 0z m1218 -20 c175 -52
186 -281 19 -367 -60 -30 -144 -22 -194 19 -84 67 -108 174 -58 258 27 47 61
73 120 91 52 17 53 17 113 -1z m1513 -122 c13 -16 12 -17 -3 -4 -10 7 -18 15
-18 17 0 8 8 3 21 -13z m-3001 -86 c0 -2 -10 -12 -22 -23 l-23 -19 19 23 c18
21 26 27 26 19z m3681 -121 c-10 -11 -3 -13 36 -10 55 4 42 -1 -36 -15 l-53
-9 27 24 c31 27 44 31 26 10z m-1249 -106 c37 -37 40 -44 35 -81 -9 -71 -84
-124 -146 -104 -38 12 -80 55 -87 89 -12 66 52 136 125 136 26 0 42 -9 73 -40z
m2713 -47 c159 -48 208 -176 104 -275 -54 -51 -95 -58 -156 -24 -64 36 -117
42 -188 22 -73 -22 -118 -51 -177 -113 -175 -188 -170 -501 10 -639 57 -43
110 -58 189 -51 47 3 74 12 111 36 27 17 62 34 79 37 66 13 133 -56 133 -136
0 -128 -160 -233 -355 -234 -199 0 -380 114 -477 300 -114 219 -112 495 4 718
50 95 188 241 279 294 143 84 305 108 444 65z m526 -26 c19 -12 42 -39 53 -60
18 -38 18 -41 -39 -610 -38 -376 -62 -582 -72 -600 -50 -97 -198 -84 -232 22
-14 45 -3 208 49 741 47 475 47 475 121 512 46 24 79 23 120 -5z m-1586 -37
c74 -35 147 -113 175 -185 43 -114 35 -255 -21 -372 -27 -56 -113 -143 -175
-178 l-51 -28 94 -136 c136 -198 153 -229 153 -279 0 -93 -59 -157 -137 -149
-24 3 -50 11 -60 18 -9 8 -76 104 -149 215 -74 110 -149 218 -168 240 l-35 39
-1 -253 c0 -271 -4 -292 -52 -326 -29 -21 -97 -20 -127 0 -51 36 -51 38 -51
693 l0 609 25 31 c31 36 56 45 200 71 152 27 309 23 380 -10z m2292 -47 c13
-9 30 -28 38 -43 7 -14 57 -199 110 -411 53 -211 126 -496 162 -634 45 -173
63 -259 58 -281 -8 -47 -41 -82 -86 -94 -33 -9 -46 -8 -83 9 -55 24 -67 46
-100 181 -14 57 -29 107 -33 111 -5 4 -89 21 -188 38 -99 17 -192 33 -207 36
-25 4 -28 1 -53 -76 -15 -44 -38 -93 -52 -109 -73 -87 -223 -7 -223 120 0 48
46 171 180 475 176 401 272 610 295 641 47 62 121 77 182 37z m-3187 -91 c102
-51 106 -206 7 -247 -24 -9 -362 -85 -382 -85 -2 0 -1 -17 1 -37 2 -21 6 -82
10 -136 l6 -99 26 7 c15 4 76 18 137 30 121 26 141 23 178 -26 35 -48 21 -159
-26 -197 -8 -7 -79 -28 -158 -48 l-144 -35 8 -117 c5 -64 10 -118 12 -120 2
-2 85 17 184 42 99 25 192 46 207 46 35 0 91 -57 99 -102 13 -68 -26 -153 -83
-182 -33 -17 -495 -127 -539 -129 -36 -1 -66 21 -82 61 -11 27 -76 809 -88
1057 -6 125 -5 135 16 168 33 54 57 63 356 131 173 40 207 42 255 18z m3975
-62 c38 -35 55 -73 55 -120 0 -22 -16 -190 -35 -373 -20 -183 -42 -393 -50
-467 -8 -74 -11 -138 -7 -141 4 -3 97 -41 206 -85 217 -86 258 -113 270 -178
4 -20 2 -53 -4 -75 -24 -90 -87 -123 -174 -92 -91 34 -482 188 -521 206 -42
21 -71 61 -80 114 -12 71 88 1128 110 1171 8 16 27 38 42 50 24 19 38 21 95
18 54 -3 72 -8 93 -28z m484 -370 c90 -134 152 -235 232 -378 l57 -103 -101
-168 -102 -168 -40 34 c-39 34 -153 93 -247 128 -35 13 -48 23 -48 38 0 20 50
507 71 690 6 54 8 117 5 140 l-7 42 52 -70 c28 -38 86 -122 128 -185z m-5494
158 c27 -24 42 -65 276 -757 70 -208 109 -339 109 -366 0 -58 -34 -106 -87
-125 -38 -13 -46 -12 -77 3 -19 9 -41 29 -49 44 -7 15 -54 154 -103 307 -74
233 -90 274 -96 250 -4 -16 -23 -121 -43 -234 -60 -350 -68 -383 -92 -407 -31
-32 -73 -30 -106 5 -29 30 -140 184 -285 394 -48 69 -88 125 -89 124 -1 -1 3
-160 10 -353 12 -388 12 -388 -48 -425 -45 -27 -89 -24 -118 11 -23 28 -24 38
-31 207 -17 453 -25 734 -28 910 -3 177 -2 194 16 213 21 23 47 27 76 11 16
-8 197 -274 418 -614 61 -94 72 -105 76 -85 3 13 31 166 61 339 86 491 93 522
117 547 27 29 60 29 93 1z m2826 -145 c16 -10 29 -21 29 -25 0 -15 60 -38 100
-38 l42 0 -7 -67 c-8 -75 -8 -76 -33 -79 -60 -9 -84 -18 -128 -49 -60 -43 -96
-45 -133 -7 -66 65 -36 203 57 264 33 22 37 22 73 1z m-4209 -299 c155 -45
290 -166 368 -329 65 -134 75 -183 74 -345 -1 -157 -21 -247 -83 -375 -96
-200 -273 -351 -471 -401 -38 -10 -104 -17 -161 -16 -225 0 -413 119 -513 324
-59 121 -71 181 -71 363 1 149 3 166 29 240 106 306 335 518 601 559 49 7 170
-4 227 -20z m7248 -378 c33 -68 82 -181 110 -250 l50 -125 -44 -41 c-24 -22
-53 -63 -66 -91 -26 -62 -50 -168 -50 -227 l0 -42 -25 16 c-30 19 -81 13 -116
-15 -17 -13 -46 -20 -96 -23 l-71 -4 29 34 c40 45 84 136 99 203 7 33 11 93 8
143 -4 75 -9 96 -41 158 l-37 72 64 111 c80 138 120 204 124 205 2 0 30 -56
62 -124z m-8366 -17 c80 -26 125 -70 133 -127 11 -82 -68 -182 -143 -182 -17
0 -49 7 -70 16 -27 11 -55 15 -91 11 -180 -19 -335 -237 -334 -470 0 -147 57
-276 149 -337 64 -42 107 -53 193 -48 97 5 164 36 253 119 62 57 74 64 111 64
52 0 92 -26 112 -72 35 -85 -35 -217 -163 -309 -131 -94 -247 -134 -389 -134
-209 0 -363 96 -463 288 -106 203 -118 443 -34 687 123 354 464 583 736 494z
m-933 -306 c-12 -20 -14 -14 -5 12 4 9 9 14 11 11 3 -2 0 -13 -6 -23z m7524
-3 c7 0 20 -24 30 -52 37 -116 121 -212 212 -243 l35 -12 -59 -33 c-102 -57
-242 -181 -321 -284 l-22 -29 -77 74 c-204 194 -426 307 -697 354 -107 18
-284 19 -383 1 -40 -7 -73 -11 -73 -10 0 2 5 25 10 51 l11 49 85 11 c84 12
211 60 235 89 9 11 20 6 56 -26 86 -76 242 -98 342 -48 l50 25 33 -34 c49 -51
127 -76 218 -71 111 7 203 63 251 152 15 29 29 44 37 41 8 -3 19 -5 27 -5z
m-2222 -134 c23 -8 59 -17 80 -21 20 -3 37 -10 37 -15 0 -22 -36 -100 -75
-160 -64 -101 -133 -168 -262 -260 -65 -46 -139 -101 -165 -122 -44 -37 -50
-39 -105 -36 l-58 3 -3 38 c-3 35 -22 54 -22 22 0 -9 -7 -29 -15 -45 -11 -22
-19 -27 -37 -22 -20 5 -21 4 -10 -11 12 -14 11 -21 -7 -50 -12 -19 -21 -37
-21 -41 0 -3 24 3 53 14 28 11 70 20 93 20 l41 0 -29 -61 c-47 -99 -60 -190
-53 -364 5 -121 3 -166 -10 -230 -21 -98 -65 -215 -85 -226 -75 -38 -172 -102
-216 -142 l-54 -49 0 93 c0 200 -76 433 -203 621 l-45 68 39 39 c21 21 39 44
39 50 0 23 -26 9 -53 -29 -16 -22 -32 -40 -36 -40 -4 0 -22 18 -39 39 -52 65
-215 194 -314 249 -151 84 -354 142 -495 142 -51 0 -53 1 -53 28 0 15 -3 36
-6 48 -5 19 0 22 48 28 74 10 131 40 178 94 l39 46 28 -26 c42 -41 94 -58 171
-58 81 0 142 19 194 60 29 24 47 30 83 30 44 0 418 81 624 136 52 13 109 35
126 48 29 23 32 23 60 8 42 -22 146 -19 218 6 71 25 127 69 163 126 l28 44 44
-38 c24 -22 62 -46 85 -54z m-5343 -12 c-16 -49 -21 -38 -8 16 6 24 13 39 16
32 2 -6 -2 -28 -8 -48z m9538 -8 c11 -26 105 -322 116 -370 6 -24 5 -27 -6
-19 -7 6 -25 13 -40 17 -24 5 -28 12 -28 39 0 18 -10 53 -22 77 -27 53 -63 70
-108 53 -29 -11 -29 -11 -23 21 16 80 73 206 94 206 3 0 11 -11 17 -24z
m-9526 -28 c-8 -8 -9 -4 -5 13 4 13 8 18 11 10 2 -7 -1 -18 -6 -23z m6626
-123 c120 -17 284 -69 386 -123 177 -92 366 -266 427 -393 39 -78 89 -226 110
-319 21 -99 24 -385 4 -501 -70 -418 -306 -789 -605 -952 -155 -84 -288 -98
-471 -48 -231 62 -444 202 -716 469 l-102 101 46 -72 c25 -40 38 -65 30 -57
-8 8 -43 60 -77 115 -78 123 -125 187 -194 265 -95 106 -146 262 -146 447 0
281 111 527 337 744 283 271 600 377 971 324z m1487 -50 c85 -23 149 -61 211
-128 109 -118 140 -234 91 -341 -31 -67 -114 -154 -183 -189 -64 -34 -42 -34
42 -1 111 45 200 143 234 261 10 34 20 44 53 60 103 46 303 -10 363 -102 39
-59 34 -154 -13 -252 -35 -74 -120 -180 -188 -233 -67 -52 -127 -105 -106 -94
9 5 12 3 7 -4 -4 -7 -13 -12 -19 -12 -20 0 -88 -50 -85 -63 5 -25 -177 -283
-257 -363 -131 -132 -270 -182 -433 -155 -62 11 -76 10 -83 -1 -12 -19 -5 43
16 132 26 116 31 304 11 439 -33 222 -131 458 -260 627 -20 26 -36 51 -36 55
0 18 126 153 203 219 163 139 290 181 432 145z m1380 -79 c10 -15 15 -40 13
-62 -3 -36 -6 -39 -61 -60 l-58 -23 6 62 c5 48 12 67 31 85 32 28 50 28 69 -2z
m-1089 -5 c23 -14 38 -36 53 -76 27 -71 26 -93 0 -38 -12 23 -39 63 -61 88
-43 49 -41 56 8 26z m224 -84 c106 -37 196 -45 269 -23 30 9 96 19 148 22 l95
7 -3 -29 c-4 -53 1 -71 26 -98 30 -32 82 -35 153 -8 41 16 55 17 97 7 67 -15
106 -37 144 -81 37 -42 51 -73 51 -115 0 -27 -6 -33 -56 -56 -74 -34 -149 -29
-249 17 -80 36 -171 60 -231 60 -38 0 -42 3 -59 39 -23 51 -88 114 -150 144
-92 45 -224 60 -289 33 l-33 -14 -12 57 c-7 31 -15 62 -18 70 -4 11 -1 12 13
6 11 -4 57 -21 104 -38z m-8703 11 c-3 -8 -6 -5 -6 6 -1 11 2 17 5 13 3 -3 4
-12 1 -19z m9390 -4 c15 -24 15 -29 2 -53 -32 -57 -119 -51 -119 9 0 65 82 96
117 44z m-3917 -49 c47 -20 95 -44 108 -53 l23 -18 -59 -78 c-144 -190 -232
-433 -232 -639 0 -40 -3 -48 -12 -39 -19 19 -76 14 -97 -7 -27 -27 -41 -83
-41 -167 l0 -71 -132 -5 c-73 -3 -142 -9 -152 -13 -17 -7 -18 -6 -11 11 4 10
19 55 32 99 24 76 25 89 19 265 -10 341 26 426 247 579 56 39 127 93 157 120
30 28 57 50 60 51 3 0 43 -16 90 -35z m4226 -28 c20 -18 33 -47 54 -129 20
-75 25 -109 17 -117 -7 -7 -17 6 -33 45 -12 30 -34 71 -49 90 -32 41 -109 94
-139 94 -48 0 40 38 91 39 20 1 42 -8 59 -22z m-9719 -99 c-2 -13 -4 -3 -4 22
0 25 2 35 4 23 2 -13 2 -33 0 -45z m-82 -63 c-10 -47 -20 -84 -22 -81 -2 2 3
43 13 90 9 48 19 84 22 81 3 -3 -3 -43 -13 -90z m3550 5 c185 -21 353 -88 506
-201 158 -117 266 -247 349 -421 77 -161 94 -241 95 -433 l0 -160 -32 -52
c-18 -29 -68 -125 -111 -215 -125 -259 -229 -413 -382 -568 -150 -151 -297
-248 -476 -315 -361 -135 -671 -57 -954 241 -247 260 -370 550 -370 872 0 201
34 344 123 517 52 101 154 238 169 229 7 -5 8 -3 3 6 -12 19 152 170 274 252
118 79 293 170 393 204 65 22 170 41 258 47 25 2 50 4 55 5 6 1 51 -3 100 -8z
m-3578 -167 c-6 -55 -5 -56 4 -15 6 23 15 40 20 37 5 -4 7 -11 4 -16 -4 -5 -2
-9 2 -9 15 0 33 23 34 45 0 11 2 16 5 10 2 -5 -2 -44 -10 -85 -11 -61 -14 -67
-15 -35 l-1 40 -21 -34 c-14 -24 -23 -31 -28 -22 -5 7 -11 -17 -15 -55 -4 -36
-4 -69 -1 -72 3 -3 5 6 5 20 0 31 9 41 27 27 10 -9 14 -5 19 20 4 17 8 30 10
28 3 -2 -6 -84 -18 -183 -20 -160 -23 -223 -23 -594 0 -431 7 -545 55 -899 11
-80 18 -146 16 -148 -2 -3 -11 26 -19 64 -139 617 -162 1252 -66 1861 14 86
24 95 16 15z m7802 -148 c0 -5 -8 6 -19 25 -11 19 -19 40 -19 45 0 6 8 -6 19
-25 11 -19 19 -39 19 -45z m69 -195 c0 -8 -6 1 -13 20 -7 19 -13 42 -13 50 0
8 6 -1 13 -20 7 -19 13 -42 13 -50z m1172 27 c0 -2 -12 -14 -27 -28 l-28 -24
24 28 c23 25 31 32 31 24z m-7298 -37 c119 -36 262 -150 372 -293 l55 -72 -20
-80 c-59 -248 -40 -513 56 -764 19 -52 33 -102 30 -111 -6 -20 -140 -110 -205
-139 -75 -33 -168 -44 -252 -32 -148 23 -270 103 -467 307 -110 114 -123 124
-158 125 -29 1 -32 3 -13 7 24 4 24 5 5 13 -14 6 -9 7 15 3 44 -8 39 -3 -80
77 -120 80 -247 206 -283 278 -28 58 -35 128 -17 175 31 83 143 148 255 148
86 1 110 -12 139 -75 48 -100 161 -189 271 -212 24 -5 20 -1 -22 24 -67 40
-153 125 -178 176 -30 61 -28 194 3 258 27 53 98 129 145 154 109 56 236 68
349 33z m7308 6 c0 -2 -8 -10 -17 -17 -16 -13 -17 -12 -4 4 13 16 21 21 21 13z
m257 -162 c-3 -53 -12 -88 -35 -138 -29 -62 -49 -88 -36 -48 5 13 4 14 -4 3
-6 -8 -8 -19 -6 -26 3 -6 -22 -41 -55 -77 -71 -77 -190 -143 -285 -158 -70
-11 -83 -7 -29 10 83 27 155 74 223 147 86 92 126 171 170 333 l34 124 13 -50
c8 -28 12 -79 10 -120z m-1430 124 c-3 -8 -6 -5 -6 6 -1 11 2 17 5 13 3 -3 4
-12 1 -19z m1213 9 c0 -2 -12 -14 -27 -28 l-28 -24 24 28 c23 25 31 32 31 24z
m76 -65 c-9 -17 -20 -33 -25 -36 -5 -4 0 12 12 33 25 46 36 48 13 3z m-1269
-54 c-3 -8 -6 -5 -6 6 -1 11 2 17 5 13 3 -3 4 -12 1 -19z m1053 7 c0 -5 -69
-35 -79 -34 -5 0 68 38 77 39 1 0 2 -2 2 -5z m-8741 -59 c45 -48 35 -147 -16
-167 -71 -27 -126 97 -72 165 25 32 59 33 88 2z m7698 -38 c-2 -13 -4 -5 -4
17 -1 22 1 32 4 23 2 -10 2 -28 0 -40z m1110 -25 c-9 -10 -31 -27 -49 -37 -40
-23 -35 -17 17 23 46 34 54 38 32 14z m-334 -99 l-17 -27 49 7 c28 5 47 5 43
1 -4 -4 -30 -9 -58 -10 l-51 -4 21 30 c26 36 37 39 13 3z m197 16 c-8 -5 -19
-10 -25 -10 -5 0 -3 5 5 10 8 5 20 10 25 10 6 0 3 -5 -5 -10z m-984 -165 c-9
-38 -13 -52 -10 -30 2 22 8 74 12 115 6 62 7 67 10 30 1 -25 -4 -76 -12 -115z
m-2733 48 c-13 -2 -33 -2 -45 0 -13 2 -3 4 22 4 25 0 35 -2 23 -4z m3470 0
c-7 -2 -19 -2 -25 0 -7 3 -2 5 12 5 14 0 19 -2 13 -5z m28 -27 c-11 -27 -24
-37 -16 -11 3 8 7 22 10 31 3 9 8 15 11 12 2 -3 0 -17 -5 -32z m-3314 18 l23
-6 -24 -19 c-13 -11 -29 -19 -35 -19 -6 0 -15 -8 -20 -18 -7 -14 -2 -21 31
-37 48 -23 73 -56 65 -87 -4 -13 2 -32 15 -50 11 -16 17 -32 14 -35 -3 -3 -29
1 -57 10 -28 10 -61 17 -73 17 -13 0 -44 11 -71 25 -27 13 -52 22 -56 20 -4
-3 -6 3 -5 13 0 9 -4 16 -11 15 -8 -2 -9 6 -2 30 5 17 9 33 9 34 0 8 64 33 87
34 l28 1 -25 7 -25 7 23 8 c13 4 28 19 34 32 11 24 32 29 75 18z m3253 -8 c0
-2 -8 -10 -17 -17 -16 -13 -17 -12 -4 4 13 16 21 21 21 13z m-3618 -13 c-6 -2
-10 -8 -7 -13 3 -5 -2 -15 -10 -24 -13 -12 -13 -19 -3 -35 9 -15 9 -25 0 -45
-18 -41 -186 -145 -235 -146 -15 0 -17 5 -11 23 4 12 7 31 6 42 -1 12 13 34
36 54 29 26 31 29 7 13 -35 -23 -130 -122 -165 -172 -14 -19 -44 -71 -68 -115
-56 -103 -45 -58 15 63 77 155 212 280 368 338 33 13 65 23 70 23 6 0 4 -3 -3
-6z m3541 -75 c-8 -14 -10 -19 -12 -43 0 -8 -4 -14 -8 -14 -5 1 -10 0 -13 -1
-37 -14 -39 -5 -4 31 39 40 51 49 37 27z m-2888 -96 c-2 -7 -1 -11 4 -8 5 3
15 -2 22 -12 10 -14 10 -15 0 -5 -8 7 -23 8 -41 3 -39 -11 -75 13 -60 41 6 11
8 24 5 29 -3 6 -1 10 6 10 8 0 5 8 -7 23 -10 12 3 2 29 -23 26 -24 45 -50 42
-58z m2891 13 c-6 -17 -26 -12 -26 6 0 6 5 7 10 4 6 -3 10 -1 10 6 0 7 3 10 6
6 4 -3 4 -13 0 -22z m25 -13 c-11 -16 -28 -35 -38 -43 -17 -13 -17 -13 -3 6
20 28 53 65 57 65 3 0 -5 -13 -16 -28z m-3256 -72 c-28 -12 -45 -12 -45 0 0 6
15 10 33 9 27 0 29 -2 12 -9z m2772 -6 c-3 -3 -12 -4 -19 -1 -8 3 -5 6 6 6 11
1 17 -2 13 -5z m86 -11 c-13 -2 -33 -2 -45 0 -13 2 -3 4 22 4 25 0 35 -2 23
-4z m-357 -80 c-14 -26 -25 -45 -26 -41 0 12 43 98 48 94 2 -2 -8 -26 -22 -53z
m-7329 22 c84 -55 73 -245 -17 -298 -96 -57 -191 33 -177 168 13 124 107 187
194 130z m4183 10 c0 -8 -4 -15 -10 -15 -5 0 -7 7 -4 15 4 8 8 15 10 15 2 0 4
-7 4 -15z m828 -34 c7 -4 14 -16 16 -25 1 -10 9 -22 17 -27 23 -14 -4 -9 -31
6 -14 8 -41 15 -60 15 -29 1 -31 3 -15 10 11 5 16 9 12 9 -5 1 -5 6 -2 11 7
12 45 13 63 1z m2695 -18 c-13 -2 -35 -2 -50 0 -16 2 -5 4 22 4 28 0 40 -2 28
-4z m-7299 -44 c-3 -5 1 -6 9 -3 8 3 20 -3 28 -12 8 -10 9 -15 2 -11 -14 9
-55 -22 -47 -35 11 -18 -4 -6 -37 29 -18 21 -25 30 -13 20 20 -16 22 -16 37 1
15 17 15 19 -1 37 -17 19 -17 19 5 1 13 -10 20 -23 17 -27z m4016 19 c-13 -5
-28 -7 -34 -4 -6 2 -3 5 7 5 9 1 17 5 17 11 0 5 7 7 17 3 14 -5 12 -8 -7 -15z
m443 -5 c-6 -16 -5 -17 13 -3 11 8 8 1 -7 -15 -15 -17 -32 -40 -38 -52 -28
-55 0 -143 56 -173 25 -13 28 -18 16 -29 -12 -11 -12 -15 1 -30 19 -21 20 -31
4 -31 -6 0 -20 -8 -32 -17 -19 -18 -19 -18 -3 7 37 54 4 79 -46 34 -18 -16
-25 -20 -15 -10 14 17 15 23 1 65 -8 25 -29 58 -46 73 -29 26 -30 29 -17 53 8
14 28 35 46 46 35 21 49 45 33 55 -6 4 -4 13 7 25 21 24 35 25 27 2z m-582
-12 c8 5 19 9 24 8 6 0 -1 -6 -15 -13 -27 -16 -66 -4 -54 16 5 7 11 6 19 -5 7
-11 16 -13 26 -6z m83 -27 c21 -21 20 -35 -6 -74 -31 -44 -53 -58 -75 -44 -46
29 -41 83 10 114 39 24 51 25 71 4z m688 -9 c9 -21 9 -29 -4 -41 -29 -29 -83
21 -57 52 18 22 48 16 61 -11z m213 -76 c2 -46 2 -76 -1 -66 -3 9 -10 17 -15
17 -5 0 -9 9 -9 21 0 11 4 17 10 14 6 -3 7 1 4 9 -3 9 -10 16 -14 16 -16 0
-20 34 -8 61 19 42 28 22 33 -72z m-730 58 c16 -22 21 -67 8 -67 -5 0 -20 20
-34 43 -23 39 -24 43 -7 44 10 1 25 -8 33 -20z m-4180 -37 c25 -29 26 -31 4
-13 -19 18 -28 20 -37 11 -9 -9 -11 -4 -9 20 1 17 4 28 7 24 3 -4 19 -23 35
-42z m3856 -12 c0 -25 48 -68 77 -71 12 0 22 -14 29 -36 9 -29 9 -33 -1 -19
-17 23 -43 6 -51 -35 -4 -17 -11 -36 -15 -42 -5 -5 -10 -21 -12 -35 -7 -41
-46 104 -51 188 -3 56 -1 72 10 72 7 0 13 -10 14 -22z m893 2 c7 0 17 -5 23
-11 9 -9 5 -17 -15 -33 -15 -12 -30 -20 -34 -18 -5 1 -22 -13 -39 -30 l-31
-33 26 33 c14 18 31 52 37 75 6 23 14 36 16 30 3 -7 10 -13 17 -13z m-4825
-45 c0 -5 -6 1 -14 15 -8 14 -14 30 -14 35 0 6 6 -1 14 -15 8 -14 14 -29 14
-35z m4305 9 c8 -21 8 -21 -9 -28 -11 -4 -14 1 -13 19 3 28 13 33 22 9z m997
-21 c-15 18 -9 33 8 23 5 -4 8 -16 6 -27 -3 -13 9 -35 33 -62 l36 -42 -38 35
c-21 19 -52 53 -69 75 l-31 40 34 -30 c19 -16 28 -22 21 -12z m-1034 5 c-3 -8
-6 -5 -6 6 -1 11 2 17 5 13 3 -3 4 -12 1 -19z m-3970 6 c-3 -3 -12 -4 -19 -1
-8 3 -5 6 6 6 11 1 17 -2 13 -5z m46 -11 c-7 -2 -19 -2 -25 0 -7 3 -2 5 12 5
14 0 19 -2 13 -5z m6557 -16 c0 -2 -15 -16 -32 -33 l-33 -29 29 33 c28 30 36
37 36 29z m1632 -7 c47 -13 114 -88 129 -144 23 -84 13 -108 -206 -551 l-208
-420 17 -290 c28 -489 30 -586 16 -630 -28 -87 -95 -145 -168 -145 -84 0 -152
61 -184 164 -5 17 -20 205 -33 417 l-23 386 -179 284 c-99 156 -214 336 -255
400 -42 64 -83 130 -92 147 -18 34 -21 108 -7 144 5 13 15 45 22 72 35 136
177 183 278 92 23 -21 132 -200 301 -494 69 -122 95 -160 102 -149 4 9 49 107
99 219 142 317 204 441 231 466 42 38 97 49 160 32z m-8203 -46 c9 -8 -27 -4
-60 7 -58 20 -56 30 1 13 30 -9 57 -18 59 -20z m44 -11 c-7 -2 -19 -2 -25 0
-7 3 -2 5 12 5 14 0 19 -2 13 -5z m3772 -58 c29 0 50 7 66 20 12 11 19 15 16
8 -4 -6 -3 -23 3 -37 6 -16 6 -27 0 -31 -20 -12 -9 -31 32 -58 23 -15 37 -27
32 -27 -6 0 -25 11 -44 25 -19 14 -44 25 -56 25 -26 0 -46 22 -39 42 5 13 -6
17 -57 21 -9 1 -15 3 -12 6 2 2 -6 16 -18 30 l-23 26 28 -25 c21 -18 40 -25
72 -25z m1375 -68 c24 -17 24 -17 -8 0 -18 10 -54 37 -80 61 l-47 43 55 -43
c31 -24 67 -51 80 -61z m-1075 49 c16 -6 17 -9 5 -16 -20 -13 2 -13 35 0 14 5
24 6 21 1 -7 -11 -87 -31 -118 -30 -17 1 -18 3 -6 6 16 4 16 7 3 27 -9 13 -13
31 -9 40 6 16 8 16 28 -2 11 -10 30 -22 41 -26z m2355 40 c0 -2 -8 -10 -17
-17 -16 -13 -17 -12 -4 4 13 16 21 21 21 13z m-6598 -62 c35 -18 59 -34 55
-34 -14 0 -101 47 -123 66 -11 11 -14 15 -7 11 6 -5 40 -24 75 -43z m4073 16
c3 -6 -1 -7 -9 -4 -18 7 -21 14 -7 14 6 0 13 -4 16 -10z m-3755 -25 c13 -14
21 -25 18 -25 -2 0 -15 11 -28 25 -13 14 -21 25 -18 25 2 0 15 -11 28 -25z
m3497 -17 c-3 -8 -6 -5 -6 6 -1 11 2 17 5 13 3 -3 4 -12 1 -19z m330 16 c-3
-3 -12 -4 -19 -1 -8 3 -5 6 6 6 11 1 17 -2 13 -5z m-336 -81 c5 9 16 14 23 11
8 -3 31 4 52 15 l39 21 11 -32 c8 -22 8 -37 2 -45 -6 -7 -8 -19 -5 -27 4 -10
1 -13 -7 -10 -7 3 -26 -10 -43 -29 l-30 -34 -21 31 c-21 32 -72 141 -72 154 1
4 10 -11 22 -32 17 -33 22 -37 29 -23z m-4365 -8 c62 -66 68 -179 13 -249 -19
-24 -113 -86 -131 -86 -11 0 -28 99 -28 168 0 87 15 139 50 174 37 37 56 35
96 -7z m777 28 c-7 -2 -19 -2 -25 0 -7 3 -2 5 12 5 14 0 19 -2 13 -5z m120 0
c-7 -2 -19 -2 -25 0 -7 3 -2 5 12 5 14 0 19 -2 13 -5z m3950 -28 c-30 -37 -53
-44 -76 -21 -7 8 -25 16 -38 19 -16 3 -12 5 16 6 32 2 72 12 123 30 2 1 -10
-15 -25 -34z m1173 -13 c-5 -4 -66 26 -66 33 0 3 16 -3 35 -12 19 -9 33 -18
31 -21z m-699 -9 c-3 -10 -5 -4 -5 12 0 17 2 24 5 18 2 -7 2 -21 0 -30z
m-4307 -19 l25 -27 -26 17 c-26 16 -27 16 -25 -1 0 -11 -5 -18 -16 -17 -14 1
-16 -2 -7 -18 17 -33 5 -29 -18 5 -35 51 -36 62 -11 74 27 12 44 5 78 -33z
m5050 16 c10 -5 55 -21 101 -34 46 -14 76 -25 67 -25 -21 -1 -167 45 -188 59
-19 13 -4 13 20 0z m126 -12 c9 -13 -1 -19 -19 -12 -24 9 -30 33 -6 27 11 -3
22 -10 25 -15z m1161 2 c18 -10 39 -29 47 -42 8 -13 84 -196 169 -408 85 -212
199 -493 253 -625 89 -217 98 -246 99 -305 0 -53 -5 -73 -27 -112 -49 -83
-126 -121 -199 -99 -52 16 -79 52 -134 180 -42 96 -51 110 -69 106 -12 -2
-113 -16 -226 -31 -113 -14 -208 -29 -211 -33 -3 -3 -16 -44 -28 -91 -44 -163
-76 -212 -147 -226 -105 -19 -221 103 -199 209 4 18 47 151 95 297 49 146 152
459 229 696 146 446 151 456 216 492 32 18 97 14 132 -8z m-5593 -61 c-16 -17
-38 -35 -49 -40 -11 -6 0 8 25 30 53 49 65 53 24 10z m4529 4 c-7 -2 -19 -2
-25 0 -7 3 -2 5 12 5 14 0 19 -2 13 -5z m360 0 c-7 -2 -19 -2 -25 0 -7 3 -2 5
12 5 14 0 19 -2 13 -5z m-5473 -71 c3 -3 -4 -2 -15 3 -11 4 -33 8 -50 9 -23 0
-29 -3 -27 -17 2 -9 -2 -17 -8 -17 -15 0 -12 26 5 40 8 6 20 8 27 4 7 -4 2 5
-12 21 -25 28 -24 28 25 -5 28 -18 52 -35 55 -38z m5263 61 c-18 -2 -48 -2
-65 0 -18 2 -4 4 32 4 36 0 50 -2 33 -4z m150 0 c-13 -2 -35 -2 -50 0 -16 2
-5 4 22 4 28 0 40 -2 28 -4z m-4830 -43 c-3 -11 -9 -20 -14 -20 -7 0 -7 18 0
48 1 2 5 1 10 -2 5 -3 7 -15 4 -26z m38 2 c-5 -9 -19 -26 -32 -37 -17 -15 -15
-10 7 17 32 41 40 48 25 20z m-681 -100 c0 -7 -56 36 -75 59 -11 12 1 5 28
-16 26 -22 47 -41 47 -43z m5467 42 c15 -11 36 -33 47 -48 20 -27 21 -41 24
-499 3 -402 1 -487 -14 -572 -51 -312 -230 -536 -479 -600 -122 -31 -274 -14
-379 43 -68 37 -164 128 -204 194 -45 76 -89 208 -101 308 -6 47 -11 267 -11
496 l0 411 23 44 c40 75 137 121 222 105 37 -7 97 -53 118 -90 9 -15 13 -152
17 -506 l5 -485 28 -57 c36 -74 78 -101 156 -101 71 0 148 38 185 92 55 79 58
118 54 655 l-3 491 27 47 c40 66 110 101 195 96 43 -3 71 -10 90 -24z m-1927
-4 c0 -5 -2 -10 -4 -10 -3 0 -8 5 -11 10 -3 6 -1 10 4 10 6 0 11 -4 11 -10z
m-3345 -10 c13 -6 15 -9 5 -9 -8 0 -22 4 -30 9 -18 12 -2 12 25 0z m188 -17
c-7 -2 -19 -2 -25 0 -7 3 -2 5 12 5 14 0 19 -2 13 -5z m217 3 c0 -2 -8 -10
-17 -17 -16 -13 -17 -12 -4 4 13 16 21 21 21 13z m-440 -83 c30 -11 31 -12 6
-8 -16 4 -43 13 -60 20 -23 11 -25 13 -6 8 14 -3 41 -12 60 -20z m3451 -115
c11 -13 24 -31 30 -41 9 -17 8 -18 -13 -12 -12 4 -39 19 -58 33 l-34 26 24 7
c14 4 27 7 28 8 2 1 12 -9 23 -21z m-3875 -32 c48 -22 78 -53 100 -101 5 -11
11 -263 14 -560 l5 -540 24 -53 c28 -63 99 -129 148 -138 93 -17 153 11 196
91 22 39 22 51 27 580 6 599 3 576 72 629 112 85 284 34 318 -94 9 -35 10
-165 2 -575 -11 -586 -12 -593 -79 -733 -98 -200 -321 -305 -554 -259 -251 49
-460 267 -540 562 -21 77 -22 100 -23 575 -1 494 -1 495 21 537 52 96 162 129
269 79z m4233 -84 c64 -22 135 -73 162 -114 17 -27 20 -45 16 -103 -9 -161
-147 -301 -236 -239 -21 15 -22 21 -16 85 l7 69 -28 11 c-41 16 -133 5 -185
-21 -95 -48 -180 -172 -216 -316 -23 -93 -23 -314 0 -401 47 -180 144 -276
277 -276 68 0 114 23 147 73 19 28 23 46 23 116 l0 84 -40 0 c-23 0 -53 6 -68
14 -35 18 -80 100 -88 157 -7 54 23 105 76 131 36 17 254 48 338 48 53 0 85
-21 103 -67 16 -41 11 -419 -6 -492 -22 -92 -69 -173 -137 -236 -115 -106
-219 -148 -373 -148 -258 -1 -461 140 -564 392 -54 131 -66 201 -65 386 0 209
20 300 96 455 44 90 64 118 137 191 193 193 438 270 640 201z m-2670 -69 c105
-17 186 -42 245 -77 64 -37 153 -138 187 -210 107 -228 21 -582 -167 -692
l-43 -25 26 -42 c14 -23 65 -103 113 -177 114 -176 120 -189 120 -252 -1 -114
-74 -198 -173 -198 -73 0 -104 40 -361 467 -54 90 -102 165 -107 169 -5 3 -9
-87 -9 -218 0 -196 -3 -228 -19 -264 -26 -57 -78 -87 -150 -87 -62 0 -102 17
-143 60 -58 60 -61 80 -69 433 -12 514 -11 987 2 1031 15 47 56 88 101 100 47
11 336 0 447 -18z m1686 -40 c13 -10 33 -35 44 -55 21 -35 21 -50 24 -520 2
-553 1 -564 -79 -728 -130 -265 -409 -390 -669 -300 -158 54 -276 187 -344
387 -40 119 -50 228 -57 648 -7 388 -6 402 13 447 21 46 68 90 111 103 40 12
119 7 151 -9 30 -16 71 -64 86 -101 4 -11 11 -234 15 -495 7 -505 9 -524 57
-581 95 -112 260 -80 324 63 l24 53 -3 455 c-3 516 0 541 57 602 61 66 179 80
246 31z m1926 -1758 c170 -60 230 -235 145 -421 -48 -105 -187 -214 -274 -214
-41 0 -63 17 -81 60 -9 24 -10 24 -10 3 -1 -17 -7 -23 -23 -23 -22 -1 -23 -1
-4 -15 25 -19 13 -19 -23 -1 -56 30 -141 148 -140 196 0 8 7 -2 15 -22 11 -25
21 -36 33 -33 10 2 25 -9 37 -26 18 -29 76 -54 82 -37 2 4 8 6 13 2 12 -7 16
8 23 89 5 52 4 67 -6 65 -17 -4 -11 29 13 67 16 25 19 27 19 10 1 -18 1 -19
11 -2 5 9 7 22 4 27 -3 6 -3 16 2 23 14 23 11 57 -6 58 -9 1 -5 5 9 9 22 7 21
8 -12 9 -23 1 -38 6 -39 14 0 10 -2 10 -6 0 -2 -7 -14 -13 -24 -13 -11 0 -18
-4 -15 -8 3 -5 -6 -15 -19 -22 -20 -11 -27 -11 -40 0 -8 7 -15 9 -16 4 0 -5
-5 2 -11 16 -6 14 -10 30 -9 35 1 6 -8 -1 -20 -15 -19 -23 -19 -22 3 19 23 44
101 121 122 121 6 0 2 -7 -9 -16 -11 -8 -20 -19 -20 -24 0 -5 -6 -15 -12 -21
-10 -10 -13 -10 -13 0 0 7 -4 9 -10 6 -12 -7 -14 -26 -2 -24 22 4 31 -3 26
-18 -4 -12 1 -10 14 6 12 15 25 22 36 18 9 -4 16 -3 16 2 0 11 46 31 72 31 16
0 18 3 9 13 -8 10 -6 19 9 35 18 19 18 21 2 25 -9 3 6 5 34 6 28 0 71 -6 95
-14z m-414 -307 c-3 -7 -5 -2 -5 12 0 14 2 19 5 13 2 -7 2 -19 0 -25z m-899
-234 c25 -18 29 -46 7 -64 -8 -7 -12 -16 -9 -21 3 -5 -6 -4 -19 2 -22 10 -29
6 -73 -36 -75 -72 -112 -97 -141 -97 -31 0 -63 33 -63 67 0 54 94 144 163 156
72 11 112 10 135 -7z m140 -40 c4 -29 -34 -61 -56 -48 -39 25 -19 77 27 72 17
-2 27 -10 29 -24z m-163 -54 c3 -6 -1 -7 -9 -4 -18 7 -21 14 -7 14 6 0 13 -4
16 -10z m163 -31 c4 -21 -63 -87 -95 -95 -13 -4 -39 0 -58 8 l-36 14 42 48
c40 46 43 47 93 44 38 -2 52 -7 54 -19z m908 -7 c6 -4 16 -18 23 -32 l12 -25
-20 23 c-27 31 -35 29 -42 -10 l-6 -33 -2 36 c-1 45 9 58 35 41z m154 -6 c0
-9 -30 -14 -35 -6 -4 6 3 10 14 10 12 0 21 -2 21 -4z m-53 -62 c-3 -3 -12 -4
-19 -1 -8 3 -5 6 6 6 11 1 17 -2 13 -5z m-2022 -74 c40 -45 -20 -105 -65 -65
-24 22 -25 34 -4 63 19 27 45 28 69 2z m1686 -140 c22 -12 26 -59 7 -78 -7 -7
-21 -12 -33 -12 -43 0 -61 53 -29 84 18 19 28 20 55 6z"/>
<path d="M7720 10611 c-54 -53 -52 -131 5 -188 89 -89 204 25 151 151 -29 70
-105 88 -156 37z"/>
<path d="M6942 10553 c-55 -47 -11 -130 56 -109 30 10 47 58 31 88 -22 42 -53
50 -87 21z"/>
<path d="M8274 10676 c-3 -9 -3 -28 0 -42 5 -20 12 -25 33 -22 34 4 52 31 37
56 -15 23 -62 28 -70 8z"/>
<path d="M8477 10544 c-11 -12 -8 -41 6 -53 19 -15 50 9 45 35 -3 19 -38 31
-51 18z"/>
<path d="M8690 10474 c-11 -12 -10 -18 3 -32 16 -15 18 -15 34 0 13 14 14 20
3 32 -7 9 -16 16 -20 16 -4 0 -13 -7 -20 -16z"/>
<path d="M8365 10446 c-17 -12 -17 -16 -5 -30 18 -22 64 -17 68 8 7 33 -31 46
-63 22z"/>
<path d="M8976 10389 c-32 -38 -33 -70 -2 -105 64 -75 177 6 132 94 -28 53
-90 59 -130 11z"/>
<path d="M9198 10236 c-47 -35 -40 -114 13 -141 39 -21 64 -19 95 9 58 50 21
146 -55 146 -20 0 -44 -6 -53 -14z"/>
<path d="M8427 10148 c-18 -7 -27 -16 -25 -27 4 -21 48 -21 62 1 15 25 -3 38
-37 26z"/>
<path d="M3480 10650 c0 -5 4 -10 9 -10 6 0 13 5 16 10 3 6 -1 10 -9 10 -9 0
-16 -4 -16 -10z"/>
<path d="M2978 10270 c-16 -29 -16 -30 1 -21 10 6 24 18 32 27 8 10 9 15 2 11
-6 -4 -13 -3 -15 3 -1 5 -11 -4 -20 -20z"/>
<path d="M6610 9534 c-77 -14 -70 7 -70 -195 l0 -181 53 7 c79 10 155 33 198
62 101 67 106 238 9 288 -32 16 -143 27 -190 19z"/>
<path d="M9033 9107 c-40 -100 -75 -189 -79 -198 -4 -14 10 -19 88 -32 138
-24 188 -30 188 -22 0 25 -109 416 -119 427 -3 4 -39 -75 -78 -175z"/>
<path d="M3350 8635 c-76 -22 -129 -55 -188 -120 -96 -104 -137 -228 -130
-386 3 -79 9 -104 34 -159 60 -126 155 -190 291 -198 146 -8 268 54 351 178
52 78 73 142 79 249 12 188 -64 344 -200 411 -77 37 -160 46 -237 25z"/>
<path d="M5680 7645 c0 -8 -11 -38 -25 -64 -25 -50 -66 -84 -117 -96 -25 -6
-40 -25 -20 -25 5 0 18 -9 30 -20 18 -17 22 -32 22 -76 l0 -55 51 43 51 43 54
-57 c44 -46 56 -54 61 -40 23 67 50 112 89 149 l46 42 -39 7 c-21 4 -61 15
-90 26 -43 16 -55 26 -72 62 -12 23 -21 47 -21 54 0 6 -4 14 -10 17 -5 3 -10
-1 -10 -10z"/>
<path d="M6010 7599 c0 -36 -5 -51 -25 -69 -32 -30 -32 -40 0 -40 31 0 75 -41
75 -70 0 -11 5 -20 11 -20 6 0 9 20 8 53 l-3 52 37 9 c44 11 47 21 10 31 -41
10 -71 32 -93 68 l-20 32 0 -46z"/>
<path d="M8347 7216 c-219 -79 -218 -398 2 -442 79 -16 181 49 221 140 22 50
38 166 22 166 -6 0 -14 -9 -17 -20 -7 -22 -53 -50 -84 -50 -25 0 -80 46 -92
77 -6 16 -4 35 5 58 33 77 117 73 167 -9 12 -20 19 -25 19 -14 0 10 -14 33
-31 52 -47 54 -132 70 -212 42z"/>
<path d="M7497 7036 c-40 -15 -77 -43 -77 -58 0 -5 15 2 33 16 59 45 124 25
99 -29 -7 -14 -18 -25 -27 -25 -9 0 -15 -9 -15 -23 0 -13 -8 -31 -18 -40 -19
-17 -62 -23 -62 -9 0 5 -7 17 -15 28 -14 17 -15 15 -9 -31 24 -190 213 -288
330 -171 93 92 77 242 -34 320 -34 24 -55 31 -105 33 -36 2 -78 -3 -100 -11z"/>
<path d="M8244 6626 c-97 -103 -240 -128 -370 -65 -43 20 -74 20 -74 0 0 -21
54 -72 103 -95 107 -53 226 -41 322 32 62 47 114 126 98 150 -18 29 -37 24
-79 -22z"/>
<path d="M10594 7505 c-8 -19 13 -45 35 -45 9 0 25 7 35 15 20 15 20 15 0 30
-25 19 -63 19 -70 0z"/>
<path d="M3655 6720 c-9 -16 -13 -30 -11 -30 3 0 12 14 21 30 9 17 13 30 11
30 -3 0 -12 -13 -21 -30z"/>
<path d="M4335 6733 c50 -6 65 -18 65 -53 0 -39 -53 -83 -89 -76 -22 5 -29 1
-42 -27 -20 -41 -54 -48 -70 -13 -17 37 12 80 47 72 23 -6 24 -5 14 14 -6 11
-8 30 -5 40 10 32 -2 23 -35 -25 -67 -98 -62 -206 14 -281 81 -82 196 -68 272
32 26 34 29 45 29 114 0 68 -3 81 -28 117 -37 53 -111 94 -168 91 l-44 -1 40
-4z"/>
<path d="M5020 6639 c-79 -36 -125 -96 -136 -182 -21 -151 118 -261 257 -203
79 33 134 106 148 195 7 47 -2 70 -15 37 -3 -8 -19 -20 -35 -26 -24 -10 -33
-10 -54 4 -20 13 -25 25 -25 56 0 35 -3 39 -27 42 -34 4 -42 32 -17 59 33 36
101 17 148 -43 14 -18 26 -28 26 -22 0 22 -44 67 -84 85 -54 24 -130 24 -186
-2z"/>
<path d="M4385 6249 c-13 -19 5 -74 40 -120 73 -101 231 -135 356 -77 94 43
165 121 130 142 -4 3 -41 -11 -81 -32 -67 -34 -79 -37 -159 -37 -105 0 -159
22 -224 89 -46 49 -52 52 -62 35z"/>
<path d="M1292 7035 c0 -16 2 -22 5 -12 2 9 2 23 0 30 -3 6 -5 -1 -5 -18z"/>
<path d="M9814 6348 l-19 -23 23 19 c21 18 27 26 19 26 -2 0 -12 -10 -23 -22z"/>
<path d="M6640 6049 c0 -5 5 -7 10 -4 6 3 10 8 10 11 0 2 -4 4 -10 4 -5 0 -10
-5 -10 -11z"/>
<path d="M6601 5944 c0 -11 3 -14 6 -6 3 7 2 16 -1 19 -3 4 -6 -2 -5 -13z"/>
<path d="M8997 4973 c-4 -6 -58 -195 -113 -395 -4 -14 1 -18 23 -18 32 0 224
28 230 33 3 4 -125 378 -131 385 -2 2 -6 0 -9 -5z"/>
<path d="M3960 4479 l0 -222 74 6 c115 8 172 44 201 126 33 93 10 200 -54 254
-38 31 -117 57 -178 57 l-43 0 0 -221z"/>
<path d="M7696 3208 c3 -5 3 -20 0 -33 -5 -21 -11 -24 -39 -20 l-32 5 30 -10
c16 -5 38 -20 48 -32 19 -23 19 -23 2 7 -18 30 -18 30 1 13 11 -10 35 -19 54
-20 29 -3 35 0 36 18 1 12 4 26 8 32 8 14 -18 28 -73 41 -26 5 -39 5 -35 -1z"/>
<path d="M7410 3095 c-10 -12 -9 -16 6 -21 11 -4 22 -9 26 -11 9 -4 -3 36 -12
42 -4 3 -13 -2 -20 -10z"/>
<path d="M7465 3050 c3 -5 8 -10 11 -10 2 0 4 5 4 10 0 6 -5 10 -11 10 -5 0
-7 -4 -4 -10z"/>
<path d="M7650 3050 c-9 -6 -10 -10 -3 -10 6 0 15 5 18 10 8 12 4 12 -15 0z"/>
<path d="M7620 3010 c0 -13 -7 -32 -17 -42 -9 -10 -14 -20 -12 -23 3 -2 17 11
32 30 23 28 24 35 12 45 -12 10 -15 9 -15 -10z"/>
<path d="M2780 10184 c-25 -25 -38 -42 -30 -39 14 7 87 85 78 85 -2 0 -24 -21
-48 -46z"/>
<path d="M2617 10032 c-15 -16 -27 -32 -27 -36 0 -5 14 6 30 24 17 18 29 34
27 36 -2 2 -16 -9 -30 -24z"/>
<path d="M2684 9989 c-19 -22 -19 -22 4 -10 12 6 22 16 22 21 0 15 -5 12 -26
-11z"/>
<path d="M2459 9863 l-24 -28 28 24 c25 23 32 31 24 31 -2 0 -14 -12 -28 -27z"/>
<path d="M10998 6743 c-8 -10 -33 -45 -55 -78 -45 -66 -192 -230 -207 -230 -5
0 -10 -9 -11 -20 -2 -11 -6 -28 -10 -37 -10 -24 27 -25 46 -1 20 24 132 95
225 141 44 22 94 52 110 65 36 30 129 165 120 174 -3 4 -38 -10 -77 -30 -80
-42 -89 -44 -89 -18 0 50 -25 65 -52 34z"/>
<path d="M10788 6609 c-27 -15 -21 -29 13 -29 23 0 30 4 27 17 -4 21 -18 25
-40 12z"/>
<path d="M10970 6180 c0 -13 7 -20 20 -20 13 0 20 7 20 20 0 13 -7 20 -20 20
-13 0 -20 -7 -20 -20z"/>
<path d="M10075 5919 c-51 -29 -60 -85 -20 -124 48 -49 125 -16 125 54 0 57
-58 96 -105 70z"/>
<path d="M10851 4656 c-16 -19 -11 -46 12 -60 25 -16 52 4 52 40 0 24 -5 30
-26 32 -14 2 -31 -4 -38 -12z"/>
<path d="M8744 3454 c-30 -87 -70 -167 -89 -182 -13 -11 -57 -29 -97 -41 -40
-12 -80 -25 -88 -28 -8 -3 7 -11 35 -18 70 -19 137 -49 156 -71 23 -26 35 -70
59 -209 29 -167 34 -168 55 -6 19 148 32 186 72 221 31 28 143 70 184 70 45 0
13 19 -65 39 -146 36 -150 40 -187 169 -21 74 -26 82 -35 56z"/>
<path d="M8320 3175 c-18 -22 -8 -50 19 -50 32 0 49 28 32 49 -17 20 -35 20
-51 1z"/>
<path d="M9260 3156 c-19 -23 -8 -61 18 -64 44 -7 67 32 36 62 -19 20 -38 20
-54 2z"/>
<path d="M8990 2987 c-19 -10 -25 -20 -25 -47 0 -62 64 -73 99 -17 12 20 1 43
-30 63 -15 11 -24 11 -44 1z"/>
<path d="M8381 2729 c-167 -31 -269 -228 -192 -376 39 -76 125 -133 202 -133
24 0 35 -10 65 -55 37 -56 48 -63 59 -45 17 28 187 166 248 202 56 32 66 42
56 54 -8 10 -36 14 -101 14 -84 0 -88 1 -79 19 18 34 24 126 11 167 -36 113
-145 175 -269 153z m127 -76 c71 -33 98 -119 67 -212 -9 -28 -21 -53 -26 -56
-5 -4 -5 5 1 19 5 14 6 26 2 26 -4 0 -2 4 4 8 6 4 15 18 19 32 6 20 3 19 -17
-10 -46 -68 -136 -96 -225 -71 -41 12 -61 -6 -43 -39 18 -34 5 -34 -23 0 -50
59 -50 176 0 238 67 83 151 106 241 65z m-48 -343 c-8 -5 -22 -10 -30 -10 -13
0 -13 1 0 10 8 5 22 10 30 10 13 0 13 -1 0 -10z"/>
<path d="M8240 2440 c0 -36 16 -58 23 -31 2 11 -1 28 -9 38 -12 17 -13 16 -14
-7z"/>
</g>
</svg>
