<?xml version="1.0" standalone="no"?>
<!DOCTYPE svg PUBLIC "-//W3C//DTD SVG 20010904//EN"
 "http://www.w3.org/TR/2001/REC-SVG-20010904/DTD/svg10.dtd">
<svg version="1.0" xmlns="http://www.w3.org/2000/svg"
 width="600.000000pt" height="600.000000pt" viewBox="0 0 600.000000 600.000000"
 preserveAspectRatio="xMidYMid meet">
<g transform="translate(0.000000,600.000000) scale(0.100000,-0.100000)"
fill="#000000" stroke="none">
<path d="M2855 5800 c-746 -60 -1504 -461 -1966 -1040 -228 -285 -358 -519
-463 -831 -96 -285 -139 -549 -138 -859 1 -551 149 -1053 442 -1494 114 -172
189 -266 329 -410 417 -428 933 -696 1536 -798 114 -20 167 -22 435 -22 335
-1 426 9 682 74 1206 305 2038 1380 2038 2635 0 628 -217 1254 -601 1735 -100
126 -302 330 -419 424 -382 306 -842 503 -1327 570 -136 19 -413 27 -548 16z
m475 -34 c30 -4 69 -8 85 -10 43 -6 191 -34 250 -47 28 -6 58 -12 67 -12 9 -1
14 -6 11 -11 -4 -5 0 -7 8 -4 8 3 26 0 40 -8 13 -7 36 -13 50 -14 14 0 34 -6
44 -14 11 -8 26 -11 34 -8 10 4 12 1 6 -8 -5 -9 -4 -11 3 -6 6 4 29 -2 51 -14
22 -11 48 -20 57 -20 9 0 42 -13 73 -29 31 -16 90 -46 131 -66 41 -21 78 -42
81 -47 3 -6 9 -9 13 -9 24 4 162 -80 151 -91 -3 -3 1 -5 7 -5 23 0 148 -94
148 -111 0 -13 2 -14 9 -4 6 10 19 4 52 -23 102 -85 188 -169 182 -178 -3 -6
-2 -7 4 -4 17 10 187 -169 176 -186 -3 -5 -1 -7 5 -3 11 7 102 -101 102 -121
0 -7 6 -13 13 -13 17 0 39 -38 31 -52 -4 -6 -3 -8 3 -5 5 3 25 -19 44 -49 19
-30 49 -78 67 -107 18 -28 30 -58 27 -65 -3 -7 -1 -11 4 -7 5 3 19 -16 32 -42
12 -27 28 -55 35 -63 7 -8 29 -55 49 -105 20 -49 42 -101 48 -115 5 -14 11
-28 12 -32 2 -5 4 -11 5 -15 1 -5 3 -12 4 -18 1 -5 10 -28 20 -50 11 -22 19
-52 20 -67 0 -14 3 -24 5 -22 7 7 41 -108 44 -148 1 -20 4 -34 6 -32 8 8 30
-88 36 -155 3 -35 10 -71 14 -80 8 -15 14 -58 27 -201 7 -73 6 -426 0 -450 -6
-20 -19 -139 -19 -167 1 -13 -3 -21 -7 -18 -5 3 -9 -3 -8 -12 0 -34 -11 -123
-21 -161 -5 -20 -15 -59 -22 -87 -22 -94 -60 -214 -86 -274 -8 -18 -16 -39
-17 -45 -1 -6 -11 -31 -22 -56 -11 -25 -34 -74 -50 -109 -16 -36 -39 -80 -51
-98 -12 -18 -20 -33 -17 -33 2 0 -2 -13 -11 -30 -9 -16 -19 -30 -24 -30 -4 0
-8 -6 -8 -13 0 -7 -9 -28 -21 -45 -55 -81 -62 -92 -62 -99 0 -4 -10 -20 -23
-35 -12 -14 -31 -39 -42 -54 -30 -41 -97 -127 -119 -151 -10 -11 -29 -33 -42
-47 -13 -15 -24 -31 -24 -37 0 -6 -4 -7 -10 -4 -5 3 -10 -1 -10 -10 0 -9 -5
-13 -11 -10 -6 4 -13 -3 -16 -15 -4 -15 -11 -20 -24 -17 -11 3 -16 0 -13 -8 3
-7 -2 -19 -11 -26 -9 -8 -24 -22 -33 -32 -9 -11 -27 -23 -40 -28 -13 -5 -21
-13 -17 -18 7 -12 -29 -33 -40 -23 -5 4 -5 2 -1 -5 4 -8 -22 -34 -71 -72 -43
-33 -86 -67 -95 -75 -10 -9 -20 -15 -23 -13 -2 1 -15 -7 -27 -18 -63 -56 -107
-81 -93 -52 4 6 -2 3 -12 -9 -22 -26 -106 -75 -238 -141 -158 -79 -195 -94
-217 -87 -13 4 -18 2 -14 -4 5 -9 -29 -28 -64 -34 -8 -2 -17 -5 -20 -8 -11
-12 -317 -90 -361 -93 -21 -1 -35 -5 -33 -8 2 -4 -6 -7 -19 -7 -12 0 -58 -5
-102 -11 -43 -6 -104 -14 -135 -18 -30 -4 -136 -7 -235 -7 -155 0 -216 3 -365
19 -27 3 -94 19 -125 30 -17 6 -17 5 -5 -5 13 -9 12 -10 -5 -6 -11 3 -43 10
-71 15 -82 16 -259 64 -262 73 -2 4 -10 4 -19 1 -12 -5 -14 -3 -8 6 6 10 2 11
-15 6 -17 -5 -21 -4 -15 5 5 9 4 11 -4 6 -14 -9 -103 23 -95 35 3 5 -2 6 -10
3 -8 -3 -24 0 -36 6 -12 6 -30 13 -40 15 -10 2 -38 16 -61 31 -24 15 -46 27
-49 27 -17 0 -40 11 -40 19 0 5 -4 7 -8 4 -5 -3 -24 5 -43 18 -19 13 -51 31
-71 41 -21 9 -35 21 -32 26 3 5 2 9 -3 8 -24 -4 -44 3 -64 24 -12 12 -19 15
-15 7 5 -9 2 -9 -7 2 -8 10 -17 15 -20 11 -4 -3 -7 -2 -7 3 0 6 -17 20 -38 32
-21 11 -46 30 -57 42 -10 11 -24 20 -32 20 -7 0 -13 5 -13 11 0 5 -4 8 -9 4
-5 -3 -13 0 -17 6 -5 8 -3 9 6 4 9 -5 11 -4 6 3 -4 7 -12 12 -18 12 -12 0 -88
59 -128 100 -14 14 -47 43 -73 64 -29 24 -46 45 -43 53 3 8 1 11 -4 8 -12 -8
-141 125 -134 137 3 5 1 7 -4 6 -14 -4 -152 165 -147 179 2 7 1 12 -4 10 -11
-3 -54 51 -73 93 -9 19 -26 45 -38 58 -11 12 -17 22 -13 22 4 0 4 4 -2 8 -25
18 -197 362 -199 398 0 12 -4 20 -8 18 -9 -6 -38 97 -31 109 3 6 1 7 -5 3 -7
-4 -13 -1 -13 8 -2 18 -3 25 -11 46 -19 49 -26 83 -21 97 4 10 2 14 -4 10 -9
-6 -38 110 -35 146 0 9 -3 15 -8 12 -5 -3 -8 3 -8 12 1 10 -4 47 -11 83 -22
120 -37 294 -35 420 2 181 11 345 24 420 6 36 12 81 14 100 4 41 10 69 37 170
11 41 25 93 30 115 5 22 16 54 23 70 8 17 24 60 35 97 12 38 34 96 50 130 17
34 27 66 24 71 -3 6 -1 7 5 3 7 -4 12 -1 12 8 0 9 9 25 20 36 11 11 19 21 18
23 -1 1 2 13 6 27 5 14 10 31 11 38 2 8 7 17 11 20 4 4 4 -1 1 -10 -13 -36 4
-17 19 22 9 22 20 40 25 40 5 0 9 7 9 15 0 16 70 125 81 125 4 0 9 10 13 23 3
12 19 37 37 55 17 17 28 32 24 32 -3 0 0 6 7 14 7 8 36 43 63 77 85 107 298
320 322 322 12 0 19 5 16 9 -6 11 77 87 95 88 6 0 12 4 12 9 0 5 25 26 55 46
30 21 55 42 55 47 0 5 4 7 8 4 5 -3 18 2 28 12 38 34 215 142 234 142 4 0 10
4 12 8 3 7 175 96 188 97 3 0 11 4 18 8 6 5 17 5 24 1 7 -4 8 -3 4 4 -4 7 -2
12 4 12 14 0 135 46 173 65 16 8 33 12 38 9 6 -3 21 2 35 11 14 9 47 20 72 25
26 5 88 20 137 34 50 15 108 28 130 31 22 2 65 9 95 15 30 5 82 12 115 15 32
3 61 7 63 10 6 5 420 -2 482 -9z"/>
<path d="M2858 5648 c-48 -10 -155 -21 -215 -22 -28 -1 -49 -4 -47 -8 6 -10
-42 -22 -55 -14 -5 4 -12 2 -16 -3 -3 -6 -27 -13 -53 -17 -26 -4 -58 -11 -72
-17 -14 -5 -38 -11 -53 -13 -16 -2 -34 -7 -40 -11 -6 -4 -20 -8 -30 -8 -10 -1
-22 -6 -25 -11 -8 -10 -31 -15 -74 -18 -16 0 -28 -4 -28 -9 0 -11 -109 -57
-137 -57 -14 0 -21 -4 -18 -10 3 -5 1 -10 -4 -10 -6 0 -32 -13 -58 -29 -27
-16 -60 -33 -75 -36 -16 -4 -28 -11 -28 -17 0 -5 -4 -6 -10 -3 -5 3 -10 1 -10
-6 0 -8 -5 -7 -17 2 -9 8 -14 9 -11 4 4 -6 4 -16 0 -22 -12 -18 -72 -44 -85
-37 -7 4 -9 4 -5 -1 11 -12 -11 -35 -27 -29 -7 3 -16 0 -21 -7 -5 -8 -3 -10 6
-4 9 5 11 4 6 -4 -4 -6 -12 -9 -17 -5 -6 3 -17 -3 -25 -15 -9 -12 -19 -19 -24
-16 -4 3 -21 -8 -37 -25 -26 -28 -51 -41 -38 -21 3 5 1 12 -4 15 -5 4 -8 -2
-7 -11 3 -16 -73 -83 -94 -83 -6 0 -10 -7 -10 -16 0 -11 -6 -14 -22 -9 -15 5
-20 4 -16 -6 3 -8 -4 -23 -15 -34 -11 -11 -16 -13 -12 -5 4 8 -2 5 -14 -7 -12
-13 -26 -23 -30 -23 -5 0 -11 -9 -14 -20 -3 -13 -11 -18 -20 -14 -10 3 -14 0
-14 -10 1 -8 -1 -15 -5 -15 -13 -1 -53 -45 -50 -54 1 -5 -2 -6 -7 -2 -6 3 -18
-6 -27 -20 -9 -13 -20 -22 -25 -19 -5 3 -8 2 -7 -3 5 -16 -35 -64 -49 -59 -8
3 -11 1 -8 -4 3 -5 -3 -20 -14 -32 -12 -12 -21 -28 -21 -35 0 -11 -5 -11 -23
-3 -20 10 -21 10 -4 -3 12 -10 14 -17 8 -22 -6 -3 -11 -3 -11 2 0 10 -27 -35
-36 -59 -3 -10 -10 -15 -15 -12 -5 3 -9 1 -9 -5 0 -16 -51 -86 -61 -84 -4 2
-6 -4 -2 -13 3 -8 2 -14 -3 -13 -19 3 -35 -1 -30 -9 3 -5 -1 -20 -9 -35 -7
-14 -11 -28 -7 -31 3 -3 1 -6 -5 -6 -6 0 -19 -20 -30 -45 -18 -46 -28 -55 -36
-32 -2 6 -2 0 0 -15 3 -17 0 -28 -7 -28 -6 0 -9 -4 -6 -9 3 -5 -1 -14 -9 -21
-8 -7 -13 -16 -10 -20 2 -4 -4 -16 -13 -26 -22 -23 -36 -54 -33 -72 1 -8 -10
-32 -24 -54 -15 -22 -28 -47 -30 -56 -9 -48 -18 -72 -26 -72 -5 0 -5 -7 -2
-17 4 -11 3 -14 -5 -9 -8 5 -10 1 -5 -10 4 -12 3 -15 -5 -10 -7 4 -10 2 -6 -7
3 -8 -4 -36 -14 -63 -11 -27 -23 -69 -27 -93 -5 -31 -10 -39 -16 -30 -6 10 -9
7 -9 -11 1 -61 -6 -95 -17 -93 -8 2 -12 -12 -12 -40 1 -43 -2 -67 -14 -147
-15 -96 -19 -161 -22 -315 -2 -149 2 -216 21 -376 4 -35 7 -72 8 -81 0 -10 4
-18 8 -18 4 0 7 -19 7 -42 -1 -58 3 -78 13 -72 4 3 8 -3 9 -13 1 -33 38 -183
48 -198 4 -5 7 -22 6 -37 0 -15 2 -25 6 -22 11 6 32 -54 26 -76 -3 -11 -2 -18
3 -15 8 5 21 -17 27 -49 2 -11 9 -26 16 -34 6 -8 11 -24 9 -35 -2 -12 1 -17 7
-13 10 7 16 -20 11 -53 -1 -9 4 -12 15 -7 14 5 16 2 13 -18 -4 -19 -1 -23 11
-19 13 5 14 3 4 -8 -7 -7 -13 -18 -13 -24 0 -5 4 -4 8 3 11 17 53 -62 46 -86
-5 -14 -4 -14 5 -2 8 12 11 11 17 -5 4 -11 18 -33 31 -49 20 -24 22 -31 11
-45 -12 -14 -11 -15 4 -2 16 12 18 11 18 -6 0 -11 11 -32 26 -48 14 -15 23
-30 20 -33 -3 -3 7 -16 22 -30 15 -13 21 -21 13 -17 -9 6 -12 4 -7 -4 4 -6 12
-9 17 -6 8 6 13 -8 10 -27 0 -5 5 -8 13 -8 8 0 18 -5 22 -12 5 -7 2 -9 -7 -4
-8 4 -3 -2 11 -14 14 -12 18 -18 10 -14 -8 4 -4 -4 10 -18 108 -112 104 -106
89 -124 -13 -16 -12 -16 9 -5 13 7 22 8 22 2 0 -6 16 -25 35 -44 19 -19 31
-38 27 -42 -4 -5 -1 -4 7 0 11 6 13 4 8 -9 -4 -10 -3 -15 3 -11 6 3 13 -1 16
-9 3 -9 10 -16 15 -16 21 0 91 -69 83 -81 -3 -5 2 -9 10 -9 9 0 16 -4 16 -9 0
-5 9 -11 20 -14 15 -4 18 -10 13 -24 -6 -16 -5 -16 10 -4 9 7 18 11 18 7 1 -3
2 -10 3 -15 2 -16 16 -25 16 -10 0 9 7 6 18 -8 9 -13 33 -31 52 -42 19 -10 35
-25 34 -33 -1 -8 8 -15 19 -15 11 -1 29 -11 42 -23 12 -11 25 -17 30 -13 4 5
5 0 1 -11 -5 -14 -2 -17 9 -12 9 3 18 -1 21 -8 3 -8 13 -14 22 -14 17 1 143
-72 169 -97 7 -8 29 -17 48 -21 19 -3 35 -10 35 -16 0 -5 3 -7 8 -5 13 8 54
-12 47 -24 -5 -6 0 -9 11 -8 20 3 84 -21 84 -32 0 -4 6 -6 13 -5 22 2 152 -46
164 -61 8 -11 16 -12 31 -4 14 7 24 6 40 -5 12 -8 27 -12 34 -8 6 4 8 3 5 -3
-4 -6 16 -13 50 -17 31 -4 63 -11 70 -17 7 -6 26 -9 43 -7 16 3 30 1 30 -3 0
-5 7 -5 17 -2 10 4 14 2 10 -4 -5 -7 5 -10 28 -9 19 1 35 -1 35 -4 0 -3 28 -6
63 -6 61 -2 137 -9 147 -14 12 -6 398 -4 393 3 -2 4 5 7 17 7 12 0 18 -4 15
-10 -4 -6 7 -10 27 -10 22 0 29 3 19 9 -21 13 7 20 43 10 16 -5 32 -6 35 -4 2
3 -1 5 -7 5 -7 0 -12 4 -12 9 0 5 16 5 38 0 49 -11 60 -11 42 2 -12 9 -11 10
8 6 12 -3 22 -1 22 4 0 4 7 6 15 3 8 -4 15 -1 15 6 0 9 11 10 35 6 19 -4 35
-3 35 2 0 4 16 9 36 10 20 2 45 7 55 12 10 6 32 10 49 10 20 0 29 4 24 11 -4
7 1 7 16 -1 20 -11 22 -10 17 4 -6 14 -1 17 26 14 22 -2 31 1 29 10 -1 8 2 11
7 8 5 -4 25 0 43 8 36 16 88 30 101 28 4 -1 7 3 7 8 0 6 9 10 19 10 11 0 22 4
25 9 3 5 22 12 41 15 19 4 35 11 35 16 0 6 8 10 18 10 11 0 27 9 37 20 10 11
21 17 26 15 4 -3 14 2 22 10 9 8 23 15 31 15 9 0 16 5 16 11 0 6 7 8 15 5 9
-3 18 1 21 9 4 8 10 12 16 9 5 -3 18 3 29 15 11 12 26 18 37 15 13 -5 14 -4 3
4 -15 11 2 27 19 17 6 -3 10 0 10 8 0 8 7 17 15 21 8 3 15 1 15 -4 0 -6 7 -10
15 -10 10 0 15 7 13 17 -2 12 2 17 12 15 8 -2 12 0 8 3 -4 4 4 17 18 27 14 11
28 18 31 14 9 -8 34 14 27 25 -3 5 3 6 12 2 10 -3 15 -2 12 3 -3 5 0 15 8 22
8 7 14 10 14 7 0 -6 1 -6 85 71 32 30 63 54 68 54 4 0 5 5 1 12 -5 8 -2 9 9 5
10 -4 17 -1 17 6 0 14 128 145 134 137 3 -3 8 -2 12 2 4 5 2 8 -5 8 -7 0 -9 5
-6 10 5 8 12 7 23 -2 15 -11 15 -11 5 3 -16 20 -5 33 15 16 13 -10 14 -8 8 11
-5 16 -3 24 8 28 9 3 13 10 10 16 -3 5 3 12 15 15 12 3 21 13 21 25 0 10 5 16
10 13 6 -3 10 -1 10 5 0 18 36 60 44 52 4 -3 4 1 1 9 -4 10 8 31 32 56 21 22
39 46 41 54 2 8 15 29 28 47 14 17 22 32 19 32 -4 0 3 13 14 29 11 15 25 41
31 56 10 27 11 27 25 9 14 -18 14 -17 5 9 -9 26 -6 31 14 28 5 -1 6 5 3 14 -8
20 10 68 22 60 6 -3 8 4 6 15 -2 11 0 20 6 20 5 0 9 9 9 21 0 11 4 17 10 14 5
-3 7 0 4 8 -3 8 2 17 10 20 9 4 16 17 16 29 0 32 25 100 33 91 4 -3 7 3 7 15
0 12 9 44 20 72 11 28 20 60 20 71 0 12 9 34 21 50 14 21 19 38 15 55 -4 14
-3 23 2 20 5 -3 9 7 10 22 0 15 10 72 21 127 31 147 32 153 36 235 1 41 8 144
14 229 7 93 8 157 2 160 -5 3 -11 51 -14 106 -4 95 -8 129 -23 185 -3 14 -10
50 -16 80 -5 30 -12 62 -15 70 -3 8 -5 27 -4 43 2 15 -3 27 -9 27 -6 0 -8 5
-5 11 4 5 -1 19 -11 30 -16 17 -16 19 -1 19 10 0 17 8 16 18 0 10 -3 12 -6 5
-9 -24 -23 -13 -23 16 0 17 -5 33 -10 36 -6 4 -8 11 -5 16 4 5 -1 21 -9 36 -8
16 -18 42 -22 58 -4 17 -8 33 -9 38 -2 4 -3 12 -4 18 0 5 -6 7 -13 3 -7 -4 -8
-3 -4 5 4 6 3 18 -4 26 -6 8 -10 24 -8 37 2 14 -2 22 -9 20 -12 -2 -17 11 -14
31 1 4 -5 15 -14 23 -8 9 -15 22 -15 30 0 8 -5 14 -11 14 -6 0 -8 8 -4 19 3
12 0 21 -10 25 -9 3 -14 10 -11 15 4 5 3 11 -2 13 -12 5 -73 118 -65 118 5 0
0 5 -9 11 -10 5 -18 15 -18 20 0 6 -9 22 -20 36 -11 14 -17 30 -13 36 3 6 1 7
-5 3 -7 -4 -12 -1 -12 8 0 9 -5 16 -12 16 -6 0 -9 3 -6 6 3 3 -4 16 -16 29
-12 13 -31 41 -42 62 -10 21 -22 40 -26 41 -5 2 -8 11 -8 20 0 8 -3 13 -6 9
-3 -3 -20 11 -37 31 -18 20 -37 40 -44 45 -7 4 -9 15 -6 24 4 11 2 14 -5 9
-12 -7 -87 69 -87 88 0 6 -7 11 -15 11 -8 0 -20 11 -27 25 -7 14 -13 21 -13
16 0 -6 -9 0 -21 12 -11 12 -17 27 -13 34 5 7 2 9 -8 5 -10 -3 -27 7 -47 29
-17 19 -36 34 -42 34 -6 0 -7 5 -4 10 4 6 3 9 -2 8 -13 -5 -53 28 -45 37 4 5
2 5 -4 2 -11 -6 -44 26 -44 42 0 5 -7 12 -16 15 -14 5 -15 4 -4 -9 15 -18 7
-20 -12 -2 -28 28 -126 96 -132 91 -3 -2 -4 -1 -1 2 2 4 -17 18 -43 32 -26 14
-50 30 -54 36 -5 6 -8 7 -8 1 0 -6 -3 -5 -8 1 -4 6 -27 22 -52 34 -25 13 -49
29 -55 36 -5 7 -21 14 -35 16 -14 2 -34 11 -44 20 -10 10 -23 15 -29 11 -5 -3
-12 -1 -16 4 -3 5 -32 20 -63 32 -32 13 -56 26 -54 30 2 3 -8 6 -23 7 -15 1
-52 12 -82 26 -30 14 -87 33 -126 44 -40 10 -73 21 -73 26 0 4 5 8 12 8 6 0 8
3 5 6 -4 4 -13 2 -21 -5 -15 -13 -60 -8 -79 8 -7 5 -28 9 -48 9 -20 0 -46 5
-57 11 -27 14 -35 14 -26 -1 4 -6 3 -8 -4 -4 -46 28 -488 54 -584 34z m525
-43 c276 -43 486 -109 732 -229 502 -246 880 -609 1163 -1117 109 -195 229
-568 269 -834 22 -150 25 -568 5 -715 -79 -570 -325 -1074 -715 -1468 -464
-470 -1108 -732 -1797 -732 -415 0 -770 80 -1135 255 -696 335 -1223 1002
-1379 1745 -45 217 -51 279 -51 565 0 306 10 384 75 632 200 753 734 1371
1473 1704 235 106 554 188 827 213 92 8 438 -4 533 -19z m-2522 -1158 c-10 -9
-11 -8 -5 6 3 10 9 15 12 12 3 -3 0 -11 -7 -18z m4646 -2089 c-3 -8 -6 -5 -6
6 -1 11 2 17 5 13 3 -3 4 -12 1 -19z"/>
<path d="M2923 5564 c7 -7 229 -6 236 2 2 2 -51 4 -119 4 -68 0 -121 -3 -117
-6z"/>
<path d="M2755 5550 c-23 -4 1 -5 55 -2 52 2 97 6 99 8 7 7 -112 2 -154 -6z"/>
<path d="M3203 5553 c15 -2 39 -2 55 0 15 2 2 4 -28 4 -30 0 -43 -2 -27 -4z"/>
<path d="M3538 5553 c7 -3 16 -2 19 1 4 3 -2 6 -13 5 -11 0 -14 -3 -6 -6z"/>
<path d="M3301 5546 c10 -9 79 -14 74 -5 -4 5 -22 9 -42 9 -20 0 -34 -2 -32
-4z"/>
<path d="M2600 5525 c-30 -7 -44 -13 -30 -14 14 0 50 6 80 14 69 17 25 17 -50
0z"/>
<path d="M3403 5533 c9 -2 23 -2 30 0 6 3 -1 5 -18 5 -16 0 -22 -2 -12 -5z"/>
<path d="M3453 5524 c3 -4 50 -15 104 -26 54 -11 156 -39 228 -63 71 -24 131
-42 134 -40 2 3 -5 7 -15 11 -10 3 -28 10 -39 14 -113 47 -437 129 -412 104z"/>
<path d="M3648 5523 c6 -2 18 -2 25 0 6 3 1 5 -13 5 -14 0 -19 -2 -12 -5z"/>
<path d="M3698 5513 c7 -3 16 -2 19 1 4 3 -2 6 -13 5 -11 0 -14 -3 -6 -6z"/>
<path d="M2470 5499 c-51 -14 -201 -59 -230 -70 -69 -24 -82 -30 -78 -35 3 -3
23 2 44 10 59 23 271 86 291 86 10 0 25 5 33 10 12 8 11 10 -5 9 -11 0 -36 -5
-55 -10z"/>
<path d="M2825 5504 c-616 -64 -1161 -338 -1606 -809 -99 -106 -150 -169 -232
-292 -83 -122 -233 -412 -225 -434 4 -9 9 -5 17 13 6 16 40 88 77 160 71 143
140 254 237 383 71 94 309 334 418 423 196 158 485 323 712 407 454 167 1004
186 1435 50 122 -39 156 -55 144 -67 -8 -8 -28 -5 -69 10 -182 67 -550 116
-798 105 -201 -8 -465 -61 -670 -133 -522 -184 -1000 -576 -1300 -1068 -60
-98 -36 -81 33 23 440 663 1165 1094 1924 1145 133 9 365 2 373 -10 3 -4 -9
-13 -25 -20 -39 -16 -118 -103 -150 -164 -20 -38 -29 -46 -45 -41 -79 25 -107
28 -159 16 -88 -20 -167 -90 -190 -171 -17 -58 -24 -157 -15 -203 9 -52 52
-117 77 -117 10 0 6 7 -11 20 -24 19 -57 95 -57 129 0 14 2 14 11 1 8 -11 9
-7 4 18 -8 41 9 42 24 1 7 -19 15 -28 22 -23 7 4 9 3 6 -3 -9 -14 87 -65 108
-57 8 3 15 2 15 -3 0 -9 85 -1 130 13 33 9 110 64 110 78 0 6 8 20 17 31 l16
20 -8 -20 c-3 -11 -8 -28 -11 -39 -4 -23 -34 -57 -44 -51 -4 3 -13 -2 -20 -10
-7 -8 -9 -15 -4 -15 4 0 -2 -9 -14 -20 -29 -27 -28 -38 1 -14 91 76 113 107
125 175 l7 39 50 -24 c62 -29 107 -78 133 -148 30 -83 32 -85 25 -43 -8 58
-40 129 -71 158 -32 30 -100 67 -123 67 -11 0 -21 15 -29 46 -8 28 -29 63 -52
87 l-38 41 32 53 c42 69 91 123 144 157 l42 27 108 -15 c123 -17 248 -47 292
-70 50 -26 120 -113 137 -169 16 -53 19 -114 9 -163 -5 -28 -8 -29 -66 -31
-90 -2 -101 -7 -148 -66 -57 -72 -90 -91 -143 -83 -23 4 -53 14 -65 22 -13 9
-26 13 -29 10 -11 -11 64 -46 100 -46 26 0 36 -4 31 -11 -19 -32 65 34 115 89
57 62 57 62 124 69 47 4 67 2 67 -5 0 -7 -12 -40 -26 -74 l-26 -63 -71 -1
c-60 0 -83 -5 -138 -33 -36 -18 -86 -52 -110 -77 -24 -24 -48 -44 -54 -44 -5
0 -4 4 4 9 35 22 -68 103 -154 121 -78 16 -169 4 -208 -29 -17 -14 -27 -20
-23 -13 7 12 4 12 -15 2 -36 -19 -79 -62 -79 -79 0 -14 -1 -14 -10 -1 -5 8
-10 12 -10 7 0 -4 -11 0 -25 9 -19 12 -37 15 -71 10 -39 -5 -45 -4 -35 8 13
15 -22 9 -166 -28 -99 -26 -163 -84 -163 -147 0 -36 -16 -38 -24 -4 -8 30 -60
65 -96 65 -32 0 -84 -32 -105 -64 -21 -31 -45 -123 -38 -142 3 -8 -2 -17 -11
-20 -9 -3 -16 -12 -16 -20 0 -26 -15 -13 -65 57 -68 97 -107 115 -179 85 -43
-18 -88 -92 -86 -138 3 -50 1 -52 -18 -35 -30 27 -105 56 -163 63 -66 8 -159
-14 -231 -53 -46 -25 -126 -102 -159 -152 -15 -24 -15 -24 -49 -5 -25 13 -57
18 -115 19 -71 0 -88 -4 -146 -32 -151 -75 -234 -207 -275 -440 -17 -99 -17
-105 1 -165 41 -142 122 -249 223 -296 46 -22 72 -27 137 -27 44 0 90 4 103 8
19 7 22 5 22 -18 0 -23 -2 -24 -20 -15 -37 20 -124 -5 -159 -46 -17 -19 -32
-42 -32 -52 -1 -9 -2 -24 -3 -32 -1 -8 3 -27 7 -42 7 -21 4 -33 -13 -56 -49
-66 -20 -146 83 -229 21 -17 109 -46 135 -44 12 0 22 -4 22 -10 0 -8 5 -7 15
1 12 10 15 10 15 -2 0 -8 11 -25 25 -38 13 -12 22 -27 18 -33 -3 -6 -1 -7 5
-3 7 4 12 2 12 -3 0 -6 7 -11 15 -11 8 0 15 -6 15 -14 0 -15 127 -69 163 -68
30 0 109 22 125 34 7 6 22 11 35 12 12 1 22 7 22 16 0 8 10 25 22 38 12 13 25
36 28 52 4 20 11 27 21 23 8 -3 14 -11 14 -17 0 -7 6 -18 12 -24 7 -7 13 -17
13 -22 0 -6 3 -9 7 -7 6 2 46 -44 45 -53 -2 -6 46 -57 53 -57 16 0 39 -16 34
-24 -3 -5 -2 -9 3 -8 15 2 53 -13 53 -22 0 -12 -17 -11 -42 2 -11 6 -18 7 -15
2 3 -4 -38 -8 -90 -8 -88 0 -96 -2 -114 -24 -19 -23 -20 -23 -33 -5 -8 10 -12
23 -9 29 4 5 3 7 -2 3 -4 -4 -16 1 -25 12 -22 25 -105 34 -126 13 -8 -8 -14
-12 -14 -8 0 4 -7 -1 -16 -9 -8 -9 -20 -13 -26 -10 -7 4 -8 2 -4 -5 4 -6 3
-17 -2 -24 -11 -15 -10 10 -11 -288 -2 -274 -5 -291 -61 -284 -16 2 -40 14
-52 26 -13 12 -16 18 -8 14 13 -8 13 -7 0 9 -12 15 -15 63 -15 265 -1 135 -5
259 -10 276 -10 35 -64 87 -84 80 -9 -3 -11 0 -7 10 4 12 -3 15 -33 15 -74 0
-129 -36 -167 -110 -16 -31 -18 -65 -18 -310 0 -187 3 -283 11 -300 9 -20 10
-2 6 87 -4 75 -2 117 5 125 7 9 7 19 2 28 -18 29 -6 375 12 348 7 -10 8 -10 6
2 -3 25 13 61 24 54 6 -4 9 -3 6 2 -7 10 17 36 25 27 3 -3 -3 -22 -14 -43 -18
-35 -19 -54 -16 -316 4 -278 6 -298 20 -321 5 -7 6 -17 3 -22 -3 -4 7 -28 23
-52 15 -24 26 -50 23 -58 -3 -8 0 -11 5 -8 14 9 71 -55 65 -72 -3 -10 1 -12
12 -8 10 4 25 -1 37 -12 23 -21 129 -50 169 -47 54 5 97 19 135 44 22 15 42
30 43 35 2 4 8 5 13 1 5 -3 8 -2 7 3 -1 4 10 27 25 50 15 24 27 47 27 53 0 6
5 8 11 5 5 -4 9 -17 8 -28 0 -12 0 -25 1 -29 1 -5 3 -12 4 -16 3 -21 41 -80
58 -91 26 -16 89 -16 119 0 13 7 27 12 32 11 4 -1 7 4 7 12 0 8 7 22 16 30 9
10 16 35 16 65 1 28 5 48 10 45 4 -3 8 -14 8 -25 0 -10 3 -19 8 -19 4 0 13
-15 21 -32 8 -18 21 -41 29 -50 8 -10 13 -18 10 -18 -4 0 7 -14 22 -30 20 -22
41 -32 74 -36 43 -6 48 -5 86 33 39 40 40 42 40 112 0 72 -15 109 -60 149 -8
7 -10 11 -4 8 6 -3 11 1 11 9 0 8 -4 12 -8 9 -4 -2 -13 5 -20 17 -9 18 -7 26
10 48 12 14 28 43 37 64 9 20 19 37 23 37 4 0 7 -35 7 -78 1 -90 13 -190 25
-198 5 -3 9 -12 9 -20 0 -22 70 -125 81 -118 5 3 7 -1 4 -8 -6 -16 99 -59 154
-64 88 -7 205 45 262 118 14 18 34 54 44 81 10 26 19 47 21 47 2 0 10 -12 18
-27 21 -42 96 -124 107 -117 5 3 9 0 9 -6 0 -6 5 -8 10 -5 6 3 10 3 10 -2 0
-21 65 -35 144 -31 67 3 92 9 128 31 25 14 48 23 52 20 3 -3 6 -2 6 3 0 6 9
20 20 32 34 37 70 110 77 157 3 25 8 45 12 45 5 0 39 -54 44 -70 5 -13 66 -64
97 -80 57 -28 261 -26 243 3 -3 6 -1 7 5 3 7 -4 27 4 45 18 19 14 37 24 40 21
4 -3 5 -2 3 1 -7 9 18 33 28 26 5 -3 6 0 2 6 -6 10 6 30 40 66 6 6 13 18 17
26 4 12 6 12 7 -2 2 -10 3 -22 4 -26 3 -19 62 -67 81 -66 11 0 39 10 61 22 41
21 65 55 79 114 7 29 9 29 116 43 l46 6 18 -46 c9 -26 23 -49 31 -52 8 -3 11
-9 8 -14 -3 -5 4 -9 15 -9 11 0 22 -4 25 -9 8 -13 75 4 104 26 67 50 78 143
29 241 -14 28 -24 52 -21 52 3 0 -4 17 -15 38 -11 20 -25 55 -32 76 -6 21 -29
74 -50 117 -40 81 -45 94 -31 85 4 -2 -11 34 -35 82 -23 48 -42 92 -43 98 0 6
-12 23 -26 38 -38 37 -95 36 -130 -2 -27 -28 -49 -80 -63 -142 -5 -19 -13 -46
-19 -60 -20 -48 -25 -65 -23 -79 1 -7 -2 -10 -8 -7 -6 4 -8 -2 -6 -13 2 -11
-4 -35 -14 -55 -10 -19 -27 -67 -37 -106 -25 -99 -32 -71 -33 134 -1 97 -6
185 -13 207 -10 34 -9 42 7 59 11 13 25 18 37 14 10 -3 18 -1 18 5 0 5 16 15
36 21 36 12 44 18 108 71 17 14 42 32 54 38 13 7 22 15 19 17 -2 3 8 18 24 35
15 16 35 50 45 75 12 31 20 41 25 32 5 -7 9 -8 9 -3 0 6 4 4 9 -4 16 -25 173
-32 213 -9 13 7 26 11 31 10 4 -1 7 3 7 9 0 5 5 7 12 3 7 -4 8 -3 4 4 -4 8 0
12 11 12 18 0 73 60 73 79 0 6 5 11 11 11 6 0 9 -3 7 -7 -3 -5 -10 -23 -17
-40 -7 -18 -17 -33 -23 -33 -5 0 -6 -4 -3 -10 3 -5 1 -10 -5 -10 -6 0 -9 -4
-6 -9 8 -12 -29 -43 -39 -34 -4 5 -6 3 -2 -2 3 -6 -1 -19 -9 -30 -8 -10 -14
-15 -14 -10 0 5 -6 0 -14 -11 -10 -13 -28 -20 -63 -21 -61 -3 -74 -5 -68 -11
3 -3 -3 -11 -13 -19 -10 -9 -11 -11 -2 -7 13 7 13 5 2 -9 -17 -20 -52 -87 -57
-107 -2 -8 -4 -19 -6 -25 -8 -27 14 -106 32 -115 10 -6 19 -17 19 -24 0 -8 7
-19 15 -26 8 -7 12 -17 8 -24 -3 -6 -2 -8 2 -3 8 7 65 -73 65 -92 0 -5 7 -14
15 -21 8 -7 12 -17 8 -24 -3 -6 -3 -8 2 -4 4 4 31 -29 60 -74 58 -87 60 -95
70 -293 6 -123 15 -164 39 -193 50 -59 138 -59 188 1 15 18 28 26 28 20 0 -7
5 -13 11 -13 7 0 8 4 2 13 -5 6 -7 51 -4 99 3 47 3 84 0 82 -3 -2 -7 55 -8
127 -1 94 2 136 11 147 10 12 10 14 1 8 -7 -4 -13 -2 -13 3 0 6 4 11 8 11 5 0
18 22 30 50 12 28 27 50 33 50 5 0 8 4 5 9 -3 4 1 17 9 27 8 10 15 25 15 32 0
7 10 29 23 50 13 20 32 57 42 82 11 25 25 51 32 58 13 13 12 96 0 109 -4 3 -7
15 -7 25 0 11 -4 16 -10 13 -5 -3 -10 1 -10 9 0 8 -10 22 -22 31 -13 8 -23 20
-23 27 0 6 -7 12 -16 13 -9 2 -29 6 -45 9 -51 11 -88 -22 -134 -121 -23 -48
-50 -105 -61 -125 -10 -20 -19 -44 -19 -52 0 -27 -19 -18 -35 17 -18 38 -48
90 -55 97 -16 14 -50 70 -50 80 0 7 -14 28 -31 47 -16 19 -28 38 -25 41 9 8
56 -39 50 -49 -3 -5 2 -9 11 -9 9 0 19 -9 22 -20 3 -11 9 -20 13 -20 4 0 10
-8 14 -17 12 -36 43 -78 59 -81 11 -2 21 7 29 25 7 15 15 30 18 33 3 3 18 31
33 62 34 70 86 118 127 118 17 0 30 -5 30 -11 0 -6 8 -8 19 -4 23 7 61 -14 61
-33 0 -7 5 -10 10 -7 6 3 13 -2 17 -12 4 -10 15 -27 25 -37 10 -11 18 -24 18
-30 0 -5 6 -17 14 -25 21 -23 27 -99 11 -138 -8 -18 -11 -33 -8 -33 4 0 -2 -7
-13 -15 -10 -8 -14 -15 -9 -15 6 0 6 -3 0 -8 -6 -4 -23 -33 -38 -65 -15 -32
-31 -56 -36 -53 -4 3 -7 -7 -5 -23 2 -18 -4 -39 -16 -54 -11 -14 -20 -30 -20
-36 0 -7 -10 -25 -22 -42 -20 -26 -22 -42 -21 -117 0 -48 3 -121 6 -162 6 -89
-2 -202 -14 -194 -5 3 -9 -2 -9 -10 0 -21 -42 -64 -85 -86 -32 -16 -55 -18
-119 -11 -4 1 -5 8 -2 17 3 8 2 12 -4 9 -15 -9 -50 4 -50 19 0 8 -7 19 -15 26
-8 7 -12 16 -9 21 3 5 0 17 -6 26 -9 15 -10 14 -5 -7 6 -24 5 -24 -9 -6 -11
13 -12 24 -6 37 13 23 13 38 0 19 -8 -13 -10 -12 -10 3 0 11 -8 17 -22 17 -22
0 -63 -19 -43 -20 6 0 2 -5 -8 -11 -9 -5 -22 -7 -27 -4 -6 3 -10 -1 -10 -11 0
-12 -6 -15 -25 -12 -13 3 -22 1 -19 -3 3 -5 -12 -9 -33 -8 -35 1 -36 2 -13 10
22 7 20 8 -10 5 -30 -3 -40 2 -70 33 -33 35 -36 40 -39 60 -2 14 -94 6 -119
-10 -12 -8 -22 -24 -22 -36 0 -13 -5 -23 -11 -23 -5 0 -8 -4 -5 -9 3 -5 -9
-23 -27 -41 -42 -41 -112 -50 -145 -20 -30 29 -53 25 -108 -17 -27 -21 -51
-38 -54 -38 -3 0 -4 -3 -3 -7 4 -10 -55 -35 -98 -42 -19 -3 -51 -9 -73 -15
-44 -11 -104 -4 -126 14 -8 7 -27 15 -41 19 -15 3 -37 17 -50 31 -24 25 -59
34 -59 14 0 -5 -5 -7 -12 -3 -8 5 -9 2 -5 -9 4 -10 1 -17 -5 -17 -6 0 -9 -3
-5 -6 9 -9 -36 -55 -50 -50 -6 3 -10 -1 -7 -7 6 -16 -32 -49 -88 -79 -35 -18
-59 -22 -128 -22 -96 0 -163 10 -155 24 4 6 -1 7 -11 3 -13 -5 -15 -3 -9 7 6
9 4 11 -4 5 -8 -5 -28 9 -56 39 -24 25 -47 46 -52 46 -4 0 -32 -26 -63 -57
-64 -66 -90 -87 -90 -76 0 4 -4 4 -8 -2 -15 -21 -80 -47 -101 -40 -13 4 -21 2
-21 -5 0 -23 -130 -2 -167 26 -18 14 -33 22 -33 18 0 -4 -9 1 -20 11 -11 10
-17 22 -13 28 3 5 1 7 -5 3 -6 -3 -16 -1 -24 6 -7 7 -22 14 -33 16 -16 2 -17
1 -6 -7 12 -8 12 -12 2 -25 -7 -9 -17 -13 -22 -10 -5 3 -6 -1 -3 -9 5 -14 -35
-47 -66 -55 -33 -8 -110 -1 -110 10 0 4 -6 8 -13 8 -8 0 -33 23 -57 51 -43 51
-44 52 -61 31 -9 -12 -19 -19 -23 -17 -3 3 -4 2 -1 -1 8 -12 -43 -44 -70 -44
-14 0 -24 -4 -21 -9 15 -23 -95 19 -122 47 -17 17 -33 28 -36 25 -3 -4 -6 -1
-6 7 0 9 -3 10 -13 1 -8 -6 -17 -9 -20 -6 -4 3 -5 2 -3 -1 6 -8 -21 -35 -54
-55 -14 -9 -53 -21 -87 -29 -51 -10 -74 -10 -130 1 -37 7 -71 17 -74 22 -4 5
-15 7 -25 4 -15 -3 -10 -8 21 -23 32 -15 62 -19 145 -19 114 1 157 15 211 69
l27 26 16 -25 c9 -13 34 -34 56 -45 72 -37 152 -21 204 40 22 27 29 31 37 19
5 -8 9 -16 9 -19 0 -9 45 -56 70 -73 28 -20 119 -23 153 -6 34 18 68 52 78 78
l9 23 33 -32 c53 -53 103 -73 192 -78 65 -3 91 0 137 18 62 23 149 95 174 141
l15 29 42 -42 c23 -23 67 -53 97 -67 46 -22 69 -26 145 -26 76 0 99 4 145 26
61 28 151 114 171 160 l12 30 26 -25 c54 -51 117 -71 226 -71 90 1 106 4 153
28 30 16 73 47 96 71 42 42 43 42 65 25 78 -63 211 -12 242 92 9 29 17 39 33
39 12 0 31 3 43 6 17 5 24 -1 37 -28 9 -18 35 -46 58 -61 69 -45 151 -34 219
30 l27 24 6 -34 c3 -18 20 -55 36 -81 68 -107 209 -113 297 -13 50 57 56 97
48 308 l-7 185 102 199 c102 198 102 199 98 261 -3 55 -9 68 -48 120 -65 85
-72 92 -113 109 -67 28 -126 15 -174 -37 -12 -12 -41 -63 -64 -111 l-42 -88
-31 57 c-17 31 -49 75 -72 97 l-42 41 38 43 c21 24 48 67 61 96 l24 54 46 -5
c133 -13 268 102 269 228 0 36 -40 147 -62 170 -15 15 -17 28 -12 56 6 32 9
35 33 29 78 -19 112 -69 135 -196 l14 -74 1 60 c0 42 -7 78 -23 118 l-24 58
21 -8 c42 -15 107 -5 144 23 19 14 36 24 37 23 2 -2 10 -42 19 -89 20 -107 37
-284 40 -422 1 -60 5 -108 10 -108 10 0 9 184 -3 325 -58 669 -358 1276 -835
1684 -355 304 -773 504 -1220 582 -116 20 -463 34 -570 23z m1113 -220 c296
-121 596 -326 817 -556 109 -114 147 -158 137 -158 -4 0 1 -7 11 -15 14 -10
16 -18 9 -31 -6 -11 -7 -27 -2 -40 5 -12 7 -24 4 -27 -7 -7 -14 -66 -19 -162
-3 -49 -8 -91 -13 -92 -9 -4 -7 -87 3 -102 11 -19 -1 -24 -25 -11 -19 10 -20
16 -14 93 3 45 7 90 7 99 1 9 4 15 7 13 4 -2 7 27 8 65 0 39 5 78 10 87 6 10
6 26 1 40 -5 14 -4 25 2 29 7 4 6 10 -1 19 -6 7 -10 17 -9 21 3 20 -14 54 -27
54 -7 0 -11 6 -8 14 4 9 -5 20 -23 29 -49 25 -79 27 -132 11 -42 -12 -58 -24
-86 -62 -19 -26 -35 -53 -35 -59 0 -32 -18 -8 -33 45 -34 120 -80 158 -189
153 -36 -1 -82 -42 -109 -98 l-22 -46 -12 45 c-24 97 -78 141 -163 135 -35 -2
-59 -10 -75 -25 -20 -19 -24 -19 -42 -5 -11 8 -35 21 -53 29 l-32 14 19 38
c10 20 24 54 30 74 11 34 15 37 39 32 15 -4 40 -18 56 -33 28 -26 28 -26 21
-3 -6 22 -5 23 15 12 12 -6 24 -9 27 -6 7 7 -37 24 -98 39 l-46 11 9 45 c16
85 -13 196 -69 261 -29 33 -33 44 -22 51 22 14 35 11 127 -27z m-885 -130 c73
-37 107 -88 107 -159 0 -53 -16 -88 -57 -127 -108 -102 -307 -62 -342 70 -31
115 72 231 207 232 29 0 67 -7 85 -16z m143 -179 c-3 -20 -16 -31 -16 -13 0
13 8 28 16 28 1 0 1 -7 0 -15z m662 -242 c20 -10 46 -33 58 -50 l22 -33 12 31
c17 41 47 59 95 59 30 0 47 -6 62 -22 31 -34 34 -56 23 -161 -5 -53 -15 -140
-20 -193 -6 -52 -13 -108 -16 -122 -10 -42 10 -14 31 43 26 72 146 346 164
374 8 13 30 30 48 37 28 12 38 12 67 0 19 -8 41 -25 49 -38 9 -12 37 -117 63
-233 53 -239 61 -272 64 -265 1 3 3 23 4 45 14 168 29 316 37 347 12 48 54 78
109 78 57 0 95 -22 113 -67 14 -35 13 -56 -9 -253 -13 -118 -24 -218 -24 -222
0 -4 25 -16 55 -27 31 -12 73 -30 94 -40 21 -11 47 -18 58 -15 11 3 25 -1 32
-10 15 -18 8 -20 -20 -6 -23 13 -24 3 -4 -24 35 -46 3 -160 -50 -184 -32 -15
-43 -12 -227 60 -69 27 -129 57 -132 65 -6 14 -8 14 -24 -1 -32 -28 -73 -30
-112 -4 -27 19 -38 36 -53 85 l-18 61 -60 6 c-33 4 -66 9 -73 12 -7 3 -16 -13
-24 -41 -10 -37 -19 -49 -44 -59 -40 -17 -81 -4 -110 35 l-22 29 -21 -20 c-11
-11 -34 -22 -50 -26 -40 -7 -98 31 -105 70 l-5 28 -25 -27 c-45 -48 -98 -69
-175 -69 -86 0 -150 30 -213 98 l-42 46 0 -30 c0 -71 -45 -130 -98 -130 -45 0
-82 39 -139 146 l-43 79 7 -87 c7 -101 -5 -141 -48 -163 -42 -22 -67 -18 -100
14 -16 16 -29 24 -29 17 0 -29 -49 -55 -155 -81 -138 -33 -200 -41 -209 -26
-5 7 -19 -1 -40 -24 -25 -26 -42 -35 -65 -35 -67 0 -78 16 -116 165 -26 101
-25 102 -45 -69 -13 -116 -41 -148 -101 -116 -20 11 -70 85 -119 177 -34 63
-33 65 -20 -102 6 -84 5 -117 -5 -142 -35 -83 -147 -64 -161 28 l-7 40 -22
-54 c-38 -96 -95 -158 -185 -203 -47 -24 -67 -28 -140 -29 -73 0 -93 4 -142
28 -32 16 -58 33 -58 38 0 5 -4 9 -10 9 -5 0 -10 -14 -10 -32 0 -79 -86 -180
-186 -218 -114 -42 -236 -19 -315 60 -56 56 -81 102 -103 191 -20 81 -20 138
-1 214 49 193 192 328 350 329 68 1 134 -26 150 -62 12 -27 25 -29 25 -4 0 26
49 99 99 149 133 132 345 139 463 16 15 -16 41 -53 58 -83 18 -30 30 -48 27
-39 -10 31 -19 238 -13 273 8 42 45 71 79 62 30 -7 228 -288 214 -303 -6 -5
-14 6 -111 152 -78 118 -110 143 -141 112 -14 -14 -16 -39 -14 -172 1 -85 0
-157 -3 -160 -3 -3 -21 21 -41 52 -76 123 -156 175 -269 174 -117 0 -247 -88
-303 -206 -15 -33 -32 -67 -36 -76 -16 -34 -19 -86 -9 -159 16 -114 25 -150
41 -150 5 0 9 -7 9 -15 0 -22 104 -115 129 -115 6 0 11 -4 11 -9 0 -4 11 -6
25 -3 17 3 27 -1 31 -12 3 -9 11 -13 17 -9 6 4 32 8 57 10 25 2 54 5 65 6 28
3 114 55 148 88 36 36 118 179 110 192 -4 6 -1 7 7 2 10 -6 12 -4 7 8 -3 9 -2
19 3 22 5 3 9 -14 8 -39 0 -30 6 -54 21 -75 31 -44 58 -49 90 -17 25 26 26 29
26 158 0 79 4 132 10 134 11 3 75 -79 75 -96 0 -6 23 -34 52 -62 43 -42 53
-47 60 -34 5 9 15 13 21 10 7 -4 9 -4 5 1 -4 4 -4 13 1 19 5 6 14 45 20 86 13
80 29 130 41 130 7 0 51 -128 54 -155 1 -5 11 -20 23 -31 12 -12 20 -24 18
-26 -2 -2 6 -10 18 -17 20 -13 21 -13 9 1 -10 13 -10 16 0 15 38 -1 58 4 58
17 0 7 7 19 15 26 8 7 16 24 16 39 2 23 2 24 6 4 2 -13 9 -23 14 -23 6 0 7 -5
3 -12 -5 -8 -2 -9 9 -5 10 3 17 3 17 -2 0 -10 148 15 173 30 14 7 23 7 35 -3
13 -11 14 -11 7 1 -6 11 -4 13 9 8 10 -4 25 1 38 13 12 11 27 20 32 20 12 0
46 55 46 74 0 27 -26 66 -51 76 -21 9 -43 7 -109 -11 -90 -25 -100 -21 -92 30
4 29 44 57 62 46 18 -11 88 34 98 63 25 72 -22 117 -104 100 -56 -12 -74 -6
-74 26 0 40 30 66 78 68 23 1 42 5 42 10 0 5 4 6 10 3 15 -9 68 22 75 45 4 11
10 18 15 15 19 -12 3 49 -21 78 -33 39 -62 40 -208 3 -149 -37 -145 -29 -137
-211 3 -82 8 -179 11 -215 3 -36 7 -96 9 -135 l4 -70 -16 35 c-8 19 -16 51
-17 70 -1 19 -8 125 -15 235 -7 110 -10 212 -7 227 12 47 47 61 243 103 76 16
83 16 117 0 19 -9 42 -30 50 -47 l15 -31 7 43 c14 84 77 114 240 115 82 0 106
-4 133 -20 36 -22 79 -79 90 -119 7 -26 7 -26 42 21 96 129 260 184 378 126z
m335 -145 c6 -4 20 -2 31 4 18 10 18 9 -2 -17 -12 -15 -19 -31 -17 -35 3 -5 1
-11 -5 -15 -5 -3 -10 -15 -10 -26 0 -10 -4 -19 -9 -19 -5 0 -12 -18 -16 -40
-4 -24 -11 -37 -17 -34 -6 4 -8 23 -3 48 3 22 8 69 9 102 3 67 18 107 24 64 2
-14 9 -28 15 -32z m-1293 12 c27 -27 26 -75 -1 -94 -12 -8 -61 -22 -111 -32
l-90 -19 6 -29 c3 -15 6 -46 6 -68 0 -34 3 -39 18 -33 9 3 41 11 71 17 51 11
55 10 73 -11 43 -54 13 -95 -86 -118 l-66 -15 0 -59 c0 -32 4 -59 8 -59 5 0
42 9 83 20 125 33 153 24 147 -46 -4 -52 -32 -68 -177 -102 -157 -37 -155 -39
-165 109 -28 381 -32 456 -25 476 6 16 25 27 76 42 154 45 205 49 233 21z
m1623 -80 c-3 -11 0 -20 6 -20 6 0 20 9 31 20 11 11 20 18 20 16 0 -2 3 -13 6
-23 5 -15 4 -15 -5 -3 -7 9 -11 10 -11 3 0 -6 5 -15 10 -18 6 -4 9 -14 6 -23
-3 -10 -6 -41 -7 -69 -2 -29 -5 -57 -9 -63 -7 -12 -26 43 -36 105 -3 22 -10
44 -15 50 -12 12 -12 45 0 45 5 0 7 -9 4 -20z m-2113 -18 c19 -26 126 -330
144 -407 14 -63 -13 5 -74 185 -34 102 -69 193 -78 203 -22 25 -64 18 -79 -13
-6 -14 -14 -43 -18 -65 -21 -128 -26 -155 -36 -200 -6 -27 -12 -58 -12 -67 -1
-10 -6 -19 -12 -22 -7 -2 -10 8 -7 28 5 45 41 253 54 309 17 77 78 103 118 49z
m2587 -62 c70 -103 118 -182 141 -227 l20 -38 -50 -82 c-49 -79 -50 -81 -69
-62 -16 16 -72 45 -123 63 -20 7 -20 27 9 278 7 64 11 127 8 140 -8 31 3 19
64 -72z m-2717 50 c-5 -16 -11 -34 -15 -40 -3 -5 -7 -28 -7 -50 0 -22 -5 -40
-10 -40 -6 0 -8 -9 -5 -20 3 -11 1 -23 -4 -26 -5 -3 -9 -22 -10 -42 0 -20 -4
-45 -8 -55 -6 -17 -8 -17 -18 5 -5 12 -11 26 -12 31 0 4 -10 16 -21 27 -24 24
-28 49 -4 29 13 -10 19 -8 40 14 13 14 24 33 24 42 0 8 4 15 8 15 4 0 9 15 10
33 1 17 6 41 11 52 5 11 12 28 15 38 9 30 15 19 6 -13z m239 -85 c1 -33 3 -72
5 -87 6 -49 -10 -30 -29 35 -32 105 -32 110 -10 129 19 15 20 15 26 0 3 -10 7
-44 8 -77z m-125 76 c19 -30 176 -511 176 -538 0 -43 -39 -71 -74 -55 -18 8
-29 29 -46 84 -12 40 -31 106 -43 145 -12 40 -24 73 -27 73 -3 0 -16 -68 -29
-151 -24 -153 -41 -196 -73 -184 -13 5 -51 56 -140 188 -26 38 -50 72 -53 75
-3 4 -3 -72 1 -169 6 -157 5 -176 -10 -192 -18 -18 -61 -23 -70 -9 -10 16 -15
107 -22 374 -6 242 -5 268 10 274 9 3 23 1 30 -5 15 -13 98 -135 182 -269 l52
-83 11 53 c5 29 22 125 37 213 15 88 32 166 37 173 11 14 43 16 51 3z m-479
-78 c-4 -10 -6 -58 -6 -108 l2 -90 -24 27 c-13 15 -27 25 -31 21 -3 -3 -6 -1
-6 5 0 10 11 15 30 14 3 0 6 22 6 49 1 28 7 61 14 74 15 29 26 34 15 8z m-153
-147 c62 -30 106 -75 140 -144 31 -62 33 -74 33 -167 0 -92 -3 -106 -32 -168
-65 -138 -182 -213 -318 -205 -83 6 -136 30 -187 86 -90 100 -106 289 -36 427
18 35 78 104 114 132 81 61 204 78 286 39z m3430 -153 c11 -27 35 -81 52 -122
l32 -73 -27 -28 c-29 -29 -49 -85 -49 -139 0 -29 -2 -32 -15 -21 -11 9 -22 10
-42 2 -16 -6 -46 -13 -68 -16 -34 -6 -38 -5 -23 7 56 45 78 171 41 245 l-19
39 45 77 c25 42 47 76 49 76 1 0 12 -21 24 -47z m-1976 -58 c9 -19 21 -35 26
-35 5 0 7 -4 3 -10 -8 -12 67 -50 100 -50 14 0 42 9 62 20 21 11 34 20 29 20
-4 0 -1 11 8 25 9 14 14 30 10 36 -3 6 8 3 25 -5 17 -9 31 -20 31 -25 0 -5 10
-12 23 -16 27 -9 24 -8 67 -26 19 -9 57 -17 84 -17 26 -1 53 -5 59 -9 6 -3 7
-1 3 5 -5 8 3 12 23 12 16 0 36 6 43 13 17 16 69 50 71 45 14 -27 26 -43 33
-44 5 0 22 -6 38 -13 30 -12 81 -7 104 11 13 11 46 -8 37 -21 -2 -4 1 -8 8 -9
7 0 30 -5 52 -11 25 -6 43 -7 49 -1 6 6 21 10 34 10 13 0 21 4 18 9 -5 7 17
63 30 79 6 9 114 -22 112 -32 -3 -18 38 -100 61 -120 12 -11 37 -20 55 -20 19
-1 32 -4 30 -8 -2 -4 1 -10 7 -14 8 -4 9 -3 5 4 -4 7 3 16 17 23 21 10 35 7
84 -16 32 -16 64 -28 71 -28 6 0 12 -3 12 -7 0 -3 40 -19 90 -34 49 -16 87
-32 85 -36 -8 -13 43 -4 60 10 12 10 18 10 33 -1 14 -11 15 -11 5 1 -10 10 -7
19 12 42 13 16 27 45 31 66 4 20 11 40 16 43 5 3 2 14 -8 23 -11 12 -13 21 -6
28 24 24 44 -113 23 -166 -15 -38 -47 -77 -55 -68 -4 3 -4 -1 0 -11 4 -11 1
-17 -7 -18 -22 -2 -52 -6 -74 -10 -21 -3 -92 17 -111 32 -6 5 -15 5 -19 1 -5
-4 -6 0 -3 9 4 9 1 16 -7 16 -7 0 -11 -6 -8 -14 4 -9 0 -11 -11 -7 -9 3 -16 9
-16 13 0 4 -10 7 -22 8 l-23 2 22 -17 c31 -24 72 -125 43 -107 -5 3 -10 14
-10 25 0 19 -59 99 -74 99 -5 1 -18 12 -30 24 -20 22 -30 24 -99 22 -59 -2
-77 1 -77 11 0 8 -9 13 -22 11 -15 -1 -22 3 -20 11 1 8 -2 11 -7 8 -14 -9 -50
32 -68 76 -8 21 -23 40 -34 43 -22 7 -70 -28 -85 -60 -5 -11 -19 -20 -31 -20
-11 0 -24 -3 -28 -6 -9 -9 -79 8 -83 20 -2 6 -10 11 -18 11 -8 0 -28 7 -44 15
-26 14 -29 14 -24 0 5 -12 -3 -15 -38 -15 -50 0 -108 17 -108 31 0 5 -18 8
-39 7 -21 -2 -37 -6 -34 -11 6 -10 -42 -27 -77 -27 -16 0 -31 -4 -34 -9 -6 -8
-19 -6 -86 17 -8 3 -19 4 -24 3 -4 -1 -20 6 -33 15 -18 11 -23 12 -18 3 4 -8
-5 0 -20 16 -14 17 -24 24 -20 18 3 -7 1 -13 -4 -13 -44 0 50 -56 110 -66 78
-13 81 -14 76 -34 -3 -11 -1 -20 4 -20 5 0 9 8 9 19 0 15 10 20 47 26 26 4 65
16 85 26 38 19 38 19 67 -2 38 -28 110 -36 149 -17 27 14 30 13 51 -8 27 -28
90 -39 135 -24 32 10 79 53 88 80 7 22 34 -2 58 -53 19 -40 35 -57 66 -73 l41
-21 -46 -24 c-25 -13 -70 -50 -100 -81 l-54 -58 -42 39 c-196 181 -463 222
-686 105 -133 -70 -244 -197 -290 -331 -34 -99 -32 -233 4 -297 14 -25 21 -46
16 -46 -5 0 -9 4 -9 10 0 5 -23 17 -50 27 -38 13 -49 22 -44 33 4 8 6 32 5 53
-2 31 1 37 19 37 11 0 20 5 20 10 0 18 -39 11 -50 -9 -5 -11 -10 -39 -10 -63
l0 -43 -47 0 c-27 0 -62 -3 -80 -7 l-31 -7 16 32 c12 23 18 70 22 172 6 163
16 188 95 245 115 83 215 199 215 252 0 10 16 26 39 38 41 21 93 78 84 93 -3
4 -13 1 -24 -9 -10 -9 -16 -21 -13 -25 3 -5 -3 -6 -12 -2 -11 4 -15 3 -10 -5
7 -12 -27 -35 -38 -25 -3 3 -6 2 -6 -4 0 -15 -79 -10 -108 6 -13 7 -21 19 -18
26 3 10 -4 13 -27 11 -22 -2 -32 -8 -32 -19 0 -9 -9 -24 -19 -34 -13 -13 -17
-14 -12 -3 4 8 -1 4 -12 -9 -19 -24 -22 -24 -145 -21 -16 1 -34 -4 -42 -10
-15 -13 -122 -43 -150 -42 -11 1 -23 -4 -27 -11 -6 -9 -8 -9 -8 1 0 10 -5 9
-22 -2 -13 -8 -35 -13 -50 -11 -16 2 -30 -1 -34 -6 -3 -5 -20 -9 -37 -10 -39
-1 -69 -11 -68 -24 0 -6 -8 -9 -17 -8 -9 1 -25 -3 -35 -8 -12 -7 -23 -7 -32 1
-33 27 -125 35 -109 9 3 -6 -3 -13 -15 -16 -12 -3 -21 -9 -21 -15 0 -5 -10 -3
-22 3 -21 11 -22 11 -10 -4 11 -13 10 -15 -7 -10 -12 3 -18 10 -15 15 4 6 -4
8 -18 6 -14 -1 -33 3 -41 11 -21 17 -47 7 -47 -18 0 -11 -8 -25 -17 -30 -10
-6 -14 -11 -10 -11 5 0 -2 -14 -14 -31 l-22 -31 21 11 c25 13 52 61 52 91 0
25 11 26 32 1 19 -23 76 -36 113 -27 27 7 59 34 67 57 3 9 10 7 25 -8 12 -12
35 -24 51 -28 36 -8 105 9 122 30 7 8 25 15 41 15 15 0 96 16 179 35 83 19
153 35 155 35 2 0 11 7 19 15 12 12 20 13 35 5 48 -25 150 9 176 61 l15 28 26
-24 c15 -14 42 -27 60 -31 39 -7 40 -13 18 -57 -31 -62 -67 -99 -160 -168 -99
-74 -144 -88 -144 -46 -1 20 -2 19 -17 -8 -8 -16 -23 -39 -32 -49 -15 -18 -15
-19 4 -12 24 10 85 25 85 21 0 -1 -8 -17 -17 -36 -13 -25 -19 -70 -24 -169 -7
-164 -23 -211 -79 -240 -20 -10 -51 -31 -69 -45 l-31 -27 0 49 c0 116 -60 259
-148 355 -101 109 -206 163 -342 177 -57 5 -65 9 -71 31 l-7 25 -1 -27 c-1
-25 -5 -28 -37 -28 -38 0 -134 -37 -134 -51 0 -5 -12 -7 -27 -4 -21 4 -23 3
-9 -3 18 -8 18 -9 2 -15 -26 -10 -38 -9 -31 4 10 16 -61 -17 -100 -47 -19 -14
-32 -30 -29 -35 3 -5 -1 -6 -9 -3 -30 11 -204 -219 -194 -257 2 -9 -2 -16 -9
-16 -8 0 -14 5 -14 11 0 22 -115 125 -169 152 -46 23 -61 25 -105 19 -28 -3
-58 -7 -66 -7 -8 0 -20 -5 -27 -10 -7 -5 -17 -7 -23 -3 -5 3 -10 -1 -10 -10 0
-8 -10 -20 -22 -26 -13 -5 -31 -27 -41 -47 -16 -33 -22 -38 -53 -37 -19 1 -34
-2 -34 -7 0 -4 -12 -8 -26 -8 -16 0 -23 4 -18 12 5 7 3 8 -7 3 -19 -12 -49
-14 -49 -3 0 5 -4 7 -9 3 -5 -3 -13 -1 -16 5 -4 6 -14 10 -23 8 -46 -7 -204
114 -187 142 4 6 1 9 -6 8 -6 -2 -14 3 -17 11 -2 8 0 11 6 7 6 -3 14 -2 17 4
4 6 3 10 -2 9 -20 -4 -31 3 -41 26 -9 19 -9 25 0 25 7 0 4 6 -5 13 -9 6 -17
26 -19 42 -2 17 -7 33 -13 37 -7 5 -7 8 0 8 6 0 10 29 8 75 -1 41 2 77 6 80 5
2 7 -6 6 -18 -8 -71 49 -267 78 -267 4 0 5 -5 2 -10 -3 -6 1 -13 9 -16 9 -3
16 -13 16 -21 0 -8 4 -12 9 -9 5 3 15 -4 24 -17 23 -34 114 -76 172 -79 56 -2
141 8 158 19 7 4 18 8 26 9 7 2 23 12 35 23 21 19 24 21 48 21 6 0 8 3 5 6 -4
4 8 23 25 42 17 20 39 55 49 78 l19 42 40 -20 c51 -26 145 -36 220 -25 72 11
187 98 249 188 l24 34 28 -27 c39 -40 97 -39 141 1 32 29 33 31 31 104 -2 47
2 79 10 88 7 8 11 13 10 10 -1 -2 3 -9 10 -17 29 -32 36 -42 31 -46 -10 -11
46 -49 79 -55 29 -4 42 -1 64 19 29 25 33 34 37 83 2 17 4 35 5 40 2 13 31
-43 31 -60 0 -21 61 -59 94 -59 38 0 108 33 100 46 -4 6 1 8 12 4 11 -3 34 -2
51 3 21 6 35 5 43 -2 10 -9 11 -9 6 0 -6 11 10 17 84 28 54 8 149 40 168 56
14 12 21 12 42 2 29 -15 69 -16 90 -3 9 6 17 5 22 -3 5 -8 8 -7 8 5 0 20 33
41 46 30 5 -4 3 0 -4 9 -10 14 -10 18 3 22 11 5 13 16 8 52 -7 54 0 57 23 10z
m2082 -202 c10 -26 52 -161 52 -168 0 -2 -9 -1 -20 2 -11 3 -20 14 -20 25 0
51 -56 80 -79 41 -22 -39 -13 -5 24 85 21 49 29 52 43 15z m-1412 -54 c283
-39 493 -255 536 -549 10 -64 9 -91 -5 -160 -36 -184 -133 -317 -285 -393 -80
-39 -90 -42 -189 -45 -114 -5 -170 6 -248 45 -106 52 -199 144 -267 263 -14
25 -44 66 -67 91 -132 150 -109 391 54 567 91 99 202 162 318 181 73 12 67 12
153 0z m770 -44 c79 -41 127 -122 110 -189 -9 -35 -52 -84 -95 -106 -20 -10
-30 -19 -23 -20 21 0 85 36 109 62 12 13 30 41 39 63 9 22 21 43 28 47 40 26
164 -13 185 -58 16 -36 14 -52 -13 -109 -26 -55 -61 -94 -137 -151 -27 -21
-49 -42 -49 -47 0 -5 -23 -42 -51 -83 -90 -130 -151 -168 -256 -162 -44 3 -60
1 -52 -7 17 -17 130 -11 172 9 21 11 60 41 85 67 41 43 82 63 82 41 0 -10 -47
-81 -74 -110 -33 -37 -114 -74 -165 -75 -25 -1 -67 4 -92 11 l-46 14 19 56
c57 169 20 384 -93 548 l-31 46 63 64 c71 72 145 114 199 114 20 0 58 -11 86
-25z m623 -27 c11 -31 6 -42 -29 -55 -29 -11 -29 -11 -23 21 11 56 37 73 52
34z m-304 -44 c39 3 85 8 104 12 30 6 33 5 27 -13 -4 -13 1 -29 12 -43 18 -22
21 -23 65 -10 55 15 95 3 127 -38 30 -37 26 -67 -10 -82 -35 -14 -63 -11 -144
20 -33 12 -70 20 -82 17 -17 -3 -24 2 -28 19 -13 52 -117 101 -192 90 -39 -5
-44 -3 -44 13 0 11 -3 26 -6 35 -5 12 4 11 48 -6 43 -16 67 -19 123 -14z m221
11 c8 -20 -13 -45 -38 -45 -24 0 -34 26 -18 45 16 19 49 19 56 0z m142 -34
c15 -9 44 -110 35 -124 -3 -5 -13 9 -23 30 -19 42 -62 83 -89 84 -12 0 -11 2
4 9 26 11 57 12 73 1z m-2946 -82 c144 -30 289 -144 357 -279 42 -85 67 -197
57 -259 -7 -45 -104 -244 -156 -321 -89 -132 -209 -228 -342 -275 -67 -24 -89
-27 -160 -23 -70 3 -93 9 -146 38 -35 18 -89 59 -121 89 -182 178 -244 422
-160 633 50 127 177 259 320 333 134 69 236 88 351 64z m2658 -212 c1 -59 -83
-163 -158 -195 -60 -25 -126 -36 -114 -19 4 7 18 29 30 49 17 26 41 45 86 66
66 31 109 75 121 125 7 26 8 26 21 10 7 -10 14 -26 14 -36z m-68 -9 c-12 -19
-39 -44 -60 -56 -59 -33 -72 -27 -19 9 26 17 57 43 70 59 29 36 35 30 9 -12z
m-3466 -43 c42 -25 116 -94 141 -132 12 -18 13 -32 4 -73 -24 -113 -3 -298 44
-389 14 -28 14 -34 0 -61 -66 -128 -224 -162 -350 -75 -61 42 -106 102 -85
115 9 6 25 -1 47 -21 92 -81 199 -102 290 -57 72 35 82 42 88 55 3 9 -6 7 -27
-4 -17 -10 -42 -25 -57 -33 -16 -9 -52 -15 -96 -15 -88 0 -130 23 -236 129
-65 65 -81 76 -110 76 -48 1 -111 32 -142 71 -30 38 -36 32 -11 -10 21 -36 73
-68 131 -82 44 -11 123 -69 123 -91 0 -14 -94 -9 -142 8 -89 30 -167 122 -153
182 3 15 12 35 20 45 13 18 16 16 49 -20 37 -41 128 -97 148 -91 6 2 -12 19
-40 37 -59 37 -128 109 -143 148 -21 55 12 109 80 132 41 13 101 5 101 -15 0
-35 111 -125 152 -124 7 1 0 8 -17 17 -92 48 -126 125 -91 206 41 98 177 132
282 72z m3572 -55 c-7 -95 -83 -185 -180 -211 -62 -16 -79 -5 -21 15 73 24
133 92 161 183 12 38 22 77 22 88 1 19 1 19 11 1 6 -10 9 -44 7 -76z m-67 -28
c-6 -2 -8 -8 -5 -13 8 -13 -24 -61 -36 -54 -6 3 -7 -1 -4 -9 4 -11 0 -16 -10
-16 -9 0 -16 -8 -16 -17 0 -15 -2 -16 -10 -3 -8 13 -10 13 -10 -1 0 -27 -45
-50 -127 -65 -7 -1 -13 4 -13 12 0 8 5 14 10 14 6 0 10 10 10 23 0 16 6 23 21
24 27 2 105 39 114 53 4 6 16 8 28 5 12 -2 16 -2 9 1 -9 4 -4 15 15 38 16 18
30 28 32 22 2 -5 -1 -12 -8 -14z m-1776 -136 c147 -68 227 -293 164 -461 -24
-65 -74 -141 -112 -169 -24 -18 -29 -19 -37 -6 -6 9 -6 16 0 18 6 2 10 8 10
13 0 5 -14 2 -32 -7 -42 -22 -165 -22 -237 0 -69 20 -76 19 -26 -4 22 -10 56
-19 75 -20 19 -1 27 -4 18 -7 -10 -2 -18 -9 -18 -14 0 -15 -49 -10 -91 11 -98
47 -168 123 -190 205 -16 58 -6 171 21 240 31 80 123 173 200 203 79 30 188
30 255 -2z m261 -287 c9 -15 30 -34 46 -43 16 -10 25 -22 22 -28 -4 -6 -3 -8
3 -5 12 7 66 -27 56 -36 -3 -4 1 -7 10 -7 8 0 28 -7 44 -14 34 -18 61 -28 88
-33 11 -2 32 -7 48 -11 l27 -7 -24 -26 -25 -27 -1 -251 c0 -138 -5 -261 -10
-274 -18 -43 -39 -60 -71 -59 -65 2 -68 16 -72 330 l-2 203 -33 29 c-29 25
-41 29 -78 26 -29 -2 -53 -11 -68 -25 -12 -12 -26 -18 -30 -14 -4 5 -6 3 -5
-2 2 -6 -3 -21 -10 -34 -12 -21 -16 -225 -8 -362 l2 -36 -30 22 c-19 14 -41
22 -58 20 -15 -2 -25 0 -22 6 4 5 12 9 18 9 24 1 77 108 77 157 0 24 -48 101
-71 113 -23 13 -19 22 32 77 19 21 36 41 37 46 1 4 15 34 30 67 16 33 24 60
19 60 -8 0 -8 3 -1 10 13 13 8 143 -6 185 l-11 30 31 -35 c16 -19 37 -47 46
-61z m-767 -26 c-8 -41 -6 -85 5 -128 14 -52 19 -65 28 -65 5 0 6 -4 3 -10 -3
-5 -1 -10 5 -10 6 0 8 -5 5 -10 -4 -6 -1 -9 7 -8 7 2 12 -3 11 -9 -2 -7 2 -13
7 -13 6 0 10 -8 8 -17 -2 -10 2 -18 7 -18 18 -2 65 -28 65 -37 0 -4 3 -7 8 -6
4 1 24 -9 44 -21 l38 -23 -53 -52 c-28 -29 -53 -59 -55 -67 -2 -7 -8 -18 -14
-24 -7 -7 -9 4 -6 36 5 40 1 51 -21 78 -32 37 -97 67 -115 52 -7 -6 -16 -8
-19 -4 -4 3 -18 -3 -30 -15 -13 -12 -27 -19 -31 -15 -4 4 -4 -1 0 -11 5 -14 4
-17 -5 -12 -6 4 -11 4 -9 -1 1 -4 -2 -124 -6 -265 -8 -247 -9 -257 -30 -277
-24 -23 -76 -25 -76 -4 0 7 -4 13 -9 13 -17 0 -23 60 -25 284 -3 211 -4 224
-24 244 -30 30 -56 42 -91 42 -41 0 -48 17 -11 25 16 4 30 11 30 16 0 5 8 9
18 9 11 0 29 9 42 20 13 11 26 20 30 20 3 0 21 14 39 32 27 26 34 29 43 17 8
-11 9 -10 4 4 -8 25 44 82 57 64 6 -8 7 -6 3 6 -3 11 2 24 14 34 11 10 20 22
20 28 0 6 9 16 20 23 12 7 19 16 16 21 -3 4 4 18 14 29 11 12 25 33 30 47 15
39 18 30 9 -22z m2379 10 c12 -16 31 -37 42 -48 45 -47 40 -66 -78 -296 l-109
-214 8 -190 c10 -211 5 -240 -42 -280 -62 -51 -136 -22 -158 61 -5 22 -11 125
-13 229 l-4 190 -49 75 c-27 41 -58 91 -71 110 -12 19 -47 75 -78 123 -32 49
-62 99 -67 110 -7 17 -8 12 -3 -18 3 -22 13 -49 23 -60 9 -11 23 -32 31 -47 7
-16 17 -28 22 -28 5 0 7 -4 4 -9 -3 -5 0 -11 7 -14 7 -3 22 -23 32 -46 11 -22
23 -41 28 -41 4 0 7 -9 7 -21 0 -11 5 -17 10 -14 6 3 10 1 10 -5 0 -6 11 -26
25 -44 14 -18 25 -38 25 -43 0 -6 6 -16 14 -22 14 -12 28 -71 17 -71 -3 0 -68
96 -143 212 -144 220 -159 256 -123 292 9 8 21 30 27 48 17 50 47 78 84 78 42
0 68 -31 164 -200 41 -71 77 -130 80 -130 3 0 36 70 74 156 76 170 99 200 151
190 16 -3 40 -18 53 -33z m-759 -117 c5 -6 44 -97 86 -201 88 -218 125 -305
166 -391 38 -80 33 -140 -18 -190 -59 -59 -117 -42 -159 47 -23 48 -32 58 -49
54 -11 -3 -51 -10 -90 -15 -38 -6 -70 -12 -71 -13 -1 -1 -9 -25 -18 -53 -16
-50 -44 -85 -78 -97 -31 -11 -75 12 -93 50 -20 42 -14 53 12 19 20 -25 31 -29
70 -27 27 1 73 49 73 76 0 11 9 35 20 53 15 25 27 32 52 33 18 0 60 2 92 2
l59 2 21 -40 c29 -57 46 -72 87 -80 32 -6 39 -3 67 30 20 22 32 46 31 63 -1
26 -1 26 -10 -5 -15 -53 -79 -89 -116 -65 -13 8 -63 104 -63 121 0 14 -19 13
-140 -2 -81 -11 -95 -15 -98 -32 -8 -51 -35 -116 -52 -125 -49 -26 -120 9
-120 59 0 31 216 698 233 720 24 29 84 33 106 7z m-339 -51 c-7 -9 -15 -13
-19 -10 -3 3 1 10 9 15 21 14 24 12 10 -5z m-31 -30 c13 -13 17 -57 21 -273 3
-141 2 -259 -1 -262 -3 -3 -12 -23 -19 -45 -49 -153 -145 -235 -278 -235 -110
0 -180 47 -234 155 -17 33 -27 47 -23 31 10 -45 46 -115 66 -130 10 -7 16 -16
12 -19 -3 -4 1 -7 10 -7 9 0 21 -8 26 -17 6 -10 11 -15 11 -11 0 4 15 0 33
-10 37 -21 169 -24 189 -4 7 7 19 12 27 12 23 0 109 86 133 133 11 23 27 59
34 81 l14 41 -6 -40 c-14 -103 -101 -226 -187 -266 -56 -25 -167 -25 -222 0
-48 22 -100 78 -129 140 -19 43 -21 66 -24 320 -2 151 -1 285 3 298 7 29 60
63 98 63 16 0 38 -10 52 -25 l25 -24 0 -228 c0 -197 2 -233 18 -263 35 -70
117 -74 164 -7 23 31 23 38 23 293 0 248 1 263 20 284 11 12 29 26 40 31 27
12 85 3 104 -16z m-2319 -25 c0 -5 -5 -10 -11 -10 -5 0 -7 5 -4 10 3 6 8 10
11 10 2 0 4 -4 4 -10z m-413 -104 l28 -24 5 -279 c5 -303 8 -315 66 -341 37
-18 60 -15 91 12 l28 24 5 277 5 277 29 25 c39 33 100 27 134 -13 l23 -27 -3
-321 c-3 -311 -4 -322 -26 -367 -96 -195 -348 -199 -481 -9 -68 98 -71 118
-68 448 l2 294 28 24 c38 33 96 33 134 0z m2004 -26 c54 -15 109 -81 109 -132
0 -68 -47 -140 -102 -153 -36 -9 -78 31 -78 75 0 27 -3 30 -29 30 -38 0 -89
-43 -112 -95 -10 -22 -19 -33 -19 -25 0 25 43 97 73 120 34 27 97 36 97 13 0
-8 7 -30 16 -49 17 -35 29 -38 78 -18 19 7 66 97 66 127 0 30 -17 10 -24 -27
-4 -22 -20 -46 -42 -65 -29 -26 -38 -29 -55 -20 -17 9 -20 17 -15 45 6 30 4
34 -18 40 -53 13 -128 -33 -162 -99 -32 -61 -38 -234 -10 -298 23 -56 69 -89
121 -89 55 0 85 33 85 91 0 36 -2 39 -29 39 -21 0 -36 8 -50 29 -44 62 -17
114 65 125 27 4 67 9 90 12 71 10 79 -11 74 -186 -2 -87 -17 -132 -57 -179
-48 -57 -113 -85 -193 -85 -125 1 -222 69 -270 191 -27 71 -38 215 -21 292 44
208 233 341 412 291z m-1266 -34 c75 -16 111 -34 154 -79 49 -51 70 -121 60
-197 -11 -79 -51 -156 -93 -181 l-34 -20 56 -82 c99 -148 116 -220 65 -277
-32 -36 -78 -42 -116 -17 -21 14 -147 213 -147 233 0 4 -7 15 -16 25 -10 11
-12 19 -5 23 10 6 61 -63 61 -83 0 -5 3 -11 8 -13 4 -1 23 -29 42 -60 19 -32
38 -58 43 -58 4 0 5 -5 2 -10 -4 -6 -3 -10 2 -9 4 1 16 -1 26 -6 9 -4 32 -4
51 -1 26 5 38 15 50 40 21 44 20 71 0 31 -21 -40 -42 -55 -75 -55 -34 0 -49
19 -153 189 l-76 125 0 -117 c0 -112 -1 -119 -25 -142 -42 -43 -112 -28 -143
30 -9 16 -11 17 -12 4 -1 -53 89 -100 140 -74 33 17 40 32 50 105 l7 55 2 -63
c1 -70 -17 -125 -47 -141 -30 -16 -84 -13 -110 5 -48 33 -49 45 -48 432 l1
364 24 19 c19 15 39 19 110 19 47 -1 113 -7 146 -14z m304 -9 c-13 -6 -28 -9
-34 -8 -5 2 -7 0 -3 -4 3 -4 0 -22 -8 -40 -8 -19 -14 -48 -14 -64 0 -16 -4
-32 -8 -35 -5 -3 -9 0 -9 7 0 22 -35 87 -44 81 -5 -3 -9 0 -9 6 0 14 -26 41
-33 34 -2 -3 -7 2 -11 11 -5 15 0 16 36 10 48 -8 46 -8 71 -6 10 0 16 5 12 10
-3 5 9 11 27 13 44 5 57 -3 27 -15z m501 -24 c21 -27 21 -34 18 -283 -3 -255
-3 -255 -30 -311 -66 -133 -187 -194 -316 -158 -65 18 -139 94 -170 174 -16
44 -21 51 -17 25 3 -19 21 -66 40 -105 20 -38 33 -62 30 -52 -3 10 -1 15 5 12
6 -3 10 -13 10 -21 0 -8 6 -14 14 -14 8 0 18 -5 22 -12 5 -7 3 -8 -6 -3 -9 5
-11 4 -6 -4 4 -6 13 -11 19 -10 7 2 30 -3 53 -9 48 -14 74 -16 129 -8 22 2 43
5 47 5 4 1 13 8 21 16 8 8 21 16 28 17 10 2 58 53 97 103 5 6 15 35 24 65 14
47 17 50 17 23 1 -49 -38 -139 -83 -190 -55 -62 -122 -93 -206 -93 -104 1
-179 48 -229 145 -33 65 -39 125 -41 389 -1 273 1 281 59 306 37 15 85 0 104
-34 8 -14 14 -100 17 -261 6 -269 10 -289 75 -301 37 -7 87 15 101 43 5 10 11
131 14 270 5 249 5 252 29 277 35 38 101 37 131 -1z m375 -175 c10 -24 24 -47
32 -51 7 -5 11 -13 8 -18 -4 -5 -11 -7 -16 -4 -14 9 -66 -26 -78 -52 -13 -28
-15 -143 -3 -143 5 0 15 -11 22 -25 7 -13 21 -27 32 -31 23 -7 23 -21 -1 -29
-25 -8 -66 12 -80 39 -8 14 -10 15 -6 3 2 -10 1 -15 -5 -12 -32 20 -44 170
-21 254 11 39 70 111 90 111 4 0 15 -19 26 -42z m-960 -170 c-15 -59 -56 -127
-83 -136 -22 -7 -12 19 23 62 31 38 62 121 67 181 0 11 3 5 5 -12 2 -18 -3
-61 -12 -95z m941 -63 c3 -14 12 -25 18 -25 21 0 59 -41 48 -52 -11 -11 -41 2
-61 25 -17 21 -32 77 -20 77 5 0 11 -11 15 -25z m250 -125 c-15 -111 -77 -194
-173 -230 -68 -25 -128 -25 -195 0 -59 23 -92 48 -132 101 -28 38 -80 159 -68
159 4 0 20 -26 37 -57 43 -83 123 -160 162 -155 13 2 25 -3 28 -10 4 -11 21
-12 81 -7 41 4 82 13 90 20 8 6 17 9 20 6 3 -3 14 2 25 11 78 69 101 104 115
177 10 53 17 42 10 -15z"/>
<path d="M3961 5106 c-9 -10 -8 -16 3 -25 10 -9 16 -8 25 3 9 10 8 16 -3 25
-10 9 -16 8 -25 -3z"/>
<path d="M4057 5043 c-12 -11 -8 -23 8 -23 8 0 15 7 15 15 0 16 -12 20 -23 8z"/>
<path d="M4157 5014 c-8 -8 1 -24 14 -24 5 0 9 7 9 15 0 15 -12 20 -23 9z"/>
<path d="M4000 4992 c0 -14 11 -21 26 -15 8 3 11 9 8 14 -7 11 -34 12 -34 1z"/>
<path d="M4300 4970 c-28 -28 -11 -63 28 -58 21 2 28 9 30 30 5 39 -30 56 -58
28z m27 -37 c-3 -3 -11 -2 -17 2 -9 6 -9 10 1 16 14 8 27 -7 16 -18z"/>
<path d="M4060 4930 c0 -5 5 -10 10 -10 6 0 10 5 10 10 0 6 -4 10 -10 10 -5 0
-10 -4 -10 -10z"/>
<path d="M4407 4898 c-24 -13 -21 -55 4 -69 18 -9 25 -7 41 9 16 16 18 24 9
40 -13 25 -33 32 -54 20z m33 -31 c0 -8 -7 -14 -15 -14 -11 0 -12 4 -4 14 6 7
13 13 15 13 2 0 4 -6 4 -13z"/>
<path d="M4025 4849 c-4 -6 -5 -12 -2 -15 7 -7 37 7 37 17 0 13 -27 11 -35 -2z"/>
<path d="M2943 5131 c-14 -14 -24 -16 -31 -9 -14 14 -70 -26 -83 -59 -7 -20
-5 -28 13 -44 13 -10 25 -18 28 -19 12 0 70 41 70 50 0 15 23 8 42 -13 16 -18
18 -18 43 7 15 15 32 23 38 20 9 -5 9 -4 0 6 -9 10 -16 9 -34 -4 -30 -20 -57
-22 -40 -3 13 16 5 27 -21 27 -30 0 -18 34 14 38 18 2 31 -4 42 -19 8 -13 19
-20 22 -16 4 4 13 2 21 -4 9 -9 13 -8 13 0 0 6 -4 11 -8 11 -5 0 -22 11 -38
25 -35 30 -63 32 -91 6z m-14 -45 c9 -10 5 -19 -16 -40 -14 -15 -34 -25 -42
-24 -20 4 -27 44 -11 64 16 18 54 18 69 0z"/>
<path d="M3122 4990 c0 -14 2 -19 5 -12 2 6 2 18 0 25 -3 6 -5 1 -5 -13z"/>
<path d="M3095 4920 c-3 -11 -18 -29 -32 -40 -14 -11 -21 -20 -15 -20 12 0 62
57 62 71 0 16 -8 10 -15 -11z"/>
<path d="M3715 4733 c-54 -11 -115 -40 -162 -77 -29 -23 -52 -45 -53 -49 0
-12 -53 -87 -61 -87 -4 0 -11 18 -17 41 -16 62 -51 106 -104 129 -53 23 -94
25 -187 9 -84 -15 -100 -23 -117 -65 -15 -36 -16 -66 -11 -412 2 -189 3 -194
25 -213 15 -11 21 -23 16 -31 -6 -10 -5 -10 7 -2 8 7 27 10 42 8 24 -2 31 2
43 31 8 20 14 67 14 110 0 53 4 75 13 75 23 0 38 -18 72 -87 9 -17 25 -39 36
-49 10 -9 19 -24 19 -33 0 -14 2 -14 10 -1 5 8 10 10 10 5 0 -6 12 -12 27 -13
47 -4 90 67 71 118 -5 13 -27 49 -49 78 -23 29 -39 56 -36 58 2 3 24 -22 48
-55 50 -68 65 -77 44 -27 -8 19 -18 60 -21 91 -5 42 -9 53 -16 41 -11 -20 -68
-50 -68 -37 0 12 70 81 82 81 5 0 7 3 5 8 -3 4 -1 16 3 27 5 13 10 -8 15 -60
4 -44 13 -95 20 -112 8 -18 11 -33 7 -33 -3 0 -1 -5 6 -12 15 -15 16 -31 0
-22 -7 4 -8 3 -4 -5 4 -6 11 -9 16 -6 4 3 23 -13 40 -35 30 -38 90 -80 90 -63
0 5 5 1 10 -7 12 -20 191 -22 198 -2 2 6 15 12 28 12 13 0 23 3 22 8 -2 4 9
23 25 43 33 44 34 69 3 96 -47 41 -57 42 -114 16 -45 -21 -58 -23 -86 -13 -40
13 -70 43 -90 91 -34 82 28 229 104 247 33 8 80 10 80 2 0 -4 22 -7 50 -6 37
2 55 8 70 24 12 12 18 22 14 22 -3 0 -2 6 3 13 16 20 -4 74 -36 96 -34 25
-116 42 -156 34z m134 -38 c45 -23 57 -54 37 -93 -19 -36 -56 -50 -92 -33
-109 49 -234 -58 -234 -201 0 -135 113 -219 212 -158 41 25 53 25 78 0 70 -70
-43 -172 -173 -157 -126 15 -214 108 -237 251 -29 180 69 348 235 403 49 16
132 10 174 -12z m-512 -31 c36 -26 73 -99 73 -144 0 -80 -46 -160 -113 -197
-16 -8 -12 -18 42 -98 34 -49 61 -99 61 -112 0 -26 -41 -73 -63 -73 -23 0 -43
22 -116 132 -39 58 -75 109 -81 113 -7 4 -10 -37 -10 -124 0 -128 0 -131 -25
-147 -23 -15 -27 -15 -48 -1 -23 15 -24 23 -30 159 -12 253 -9 452 7 474 33
44 249 58 303 18z m-169 -449 c-3 -3 -9 2 -12 12 -6 14 -5 15 5 6 7 -7 10 -15
7 -18z"/>
<path d="M3153 4563 c-22 -4 -23 -9 -23 -94 0 -49 2 -89 5 -89 2 0 27 5 54 11
106 23 140 136 50 168 -32 11 -46 12 -86 4z m108 -54 c9 -22 9 -36 1 -54 -13
-29 -65 -57 -95 -53 -19 3 -22 10 -25 56 -3 60 7 79 46 84 43 5 60 -2 73 -33z"/>
<path d="M3160 4460 c0 -27 3 -50 6 -50 3 0 21 7 40 16 61 29 53 84 -12 84
l-34 0 0 -50z m56 19 c3 -6 1 -16 -5 -22 -9 -9 -14 -8 -21 3 -9 15 -4 30 10
30 5 0 12 -5 16 -11z"/>
<path d="M4007 4713 c-25 -7 -54 -71 -56 -125 0 -26 -8 -103 -16 -171 -8 -68
-17 -165 -21 -215 -4 -51 -11 -92 -16 -92 -5 0 5 -15 24 -34 18 -19 35 -32 37
-30 2 2 12 -1 21 -6 13 -7 27 -3 52 14 l35 23 36 -33 c60 -55 108 -44 132 30
9 27 15 31 54 34 27 2 41 0 37 -6 -9 -15 25 -23 68 -18 26 3 36 1 37 -10 3
-27 4 -32 12 -40 4 -4 7 -20 7 -36 0 -21 7 -32 25 -40 13 -6 23 -14 21 -17 -2
-3 13 -6 34 -6 21 0 37 2 36 5 -4 7 28 34 44 38 7 2 10 -3 7 -12 -7 -17 68
-60 85 -50 7 5 8 2 3 -6 -6 -10 -4 -12 8 -7 9 3 27 -3 41 -14 14 -11 26 -17
26 -14 0 4 6 3 13 -3 12 -10 17 -12 38 -12 5 0 7 -5 3 -12 -4 -6 -3 -8 3 -5 6
4 33 0 59 -8 62 -19 56 -19 89 9 22 19 28 32 28 65 0 56 -17 71 -125 117 -50
22 -93 45 -96 53 -4 12 0 65 23 281 2 14 6 63 10 110 7 82 6 86 -20 113 -20
21 -35 27 -70 27 -78 0 -92 -42 -111 -324 -8 -126 -29 -243 -34 -191 -1 11 -2
24 -1 28 1 4 -5 14 -13 22 -7 8 -39 119 -71 247 -31 128 -63 243 -71 255 -17
26 -53 38 -90 29 -29 -8 -54 -56 -193 -377 -26 -58 -47 -96 -56 -96 -19 0 -19
13 5 247 11 107 20 200 20 208 0 7 -11 24 -25 37 -23 24 -47 29 -88 18z m73
-23 c26 -26 25 -40 -5 -344 -27 -267 -32 -286 -83 -286 -38 0 -62 27 -62 69 0
53 48 524 55 543 6 16 40 36 63 37 6 1 21 -8 32 -19z m329 -37 c18 -14 37 -78
96 -313 41 -162 77 -305 81 -317 9 -31 -38 -77 -69 -67 -28 8 -38 25 -58 93
l-15 55 -99 18 c-54 10 -101 15 -104 12 -3 -3 -12 -24 -21 -46 -8 -23 -23 -46
-32 -52 -26 -16 -69 4 -84 39 -15 38 -9 58 115 340 109 248 136 282 190 238z
m381 -73 c25 -25 26 -60 1 -282 -11 -95 -21 -188 -23 -207 l-3 -33 104 -43
c107 -44 131 -62 131 -101 0 -29 -30 -65 -55 -66 -26 -2 -285 99 -305 118 -19
18 -17 86 10 358 11 109 20 207 20 217 0 29 36 59 70 59 17 0 39 -9 50 -20z
m-417 -487 c-7 -2 -19 -2 -25 0 -7 3 -2 5 12 5 14 0 19 -2 13 -5z"/>
<path d="M4323 4366 c-18 -44 -35 -88 -38 -97 -5 -14 5 -18 62 -27 37 -5 69
-8 71 -7 1 1 -7 36 -19 76 -12 41 -23 86 -26 102 -3 15 -8 29 -12 31 -3 2 -20
-33 -38 -78z m57 -48 c14 -57 5 -72 -40 -61 -40 9 -42 16 -19 70 26 63 43 60
59 -9z"/>
<path d="M4329 4316 l-16 -44 29 -4 c15 -3 30 -3 31 -1 5 4 -17 93 -23 93 -3
0 -12 -20 -21 -44z"/>
<path d="M3883 4523 c-37 -39 -76 -43 -109 -12 -69 65 -204 -81 -174 -189 25
-93 99 -123 172 -69 31 23 74 17 98 -14 15 -19 17 -8 33 147 10 92 16 168 15
168 -2 1 -17 -13 -35 -31z m-100 -55 c-2 -4 9 -6 24 -4 43 5 57 10 65 21 15
21 20 -30 10 -90 -7 -34 -12 -74 -12 -89 0 -24 -3 -26 -27 -20 -34 8 -42 14
-19 14 9 0 15 4 12 9 -3 4 -2 21 3 38 10 35 -6 63 -33 59 -10 -1 -29 7 -43 20
-30 28 -55 22 -92 -24 -23 -27 -29 -43 -27 -73 2 -21 9 -47 17 -56 12 -16 11
-15 -8 1 -13 10 -20 22 -18 27 3 4 1 10 -5 14 -34 21 15 165 57 165 7 0 13 4
13 9 0 17 44 17 66 1 12 -8 20 -18 17 -22z m-16 -68 c17 -13 33 -18 46 -14 16
5 19 3 14 -11 -4 -9 -7 -28 -7 -41 0 -16 -6 -24 -17 -24 -10 0 -33 -9 -51 -20
-40 -24 -50 -25 -74 -3 -23 21 -23 60 2 101 23 37 50 41 87 12z m-60 -146 c-3
-3 -12 -4 -19 -1 -8 3 -5 6 6 6 11 1 17 -2 13 -5z"/>
<path d="M3708 4303 c7 -3 16 -2 19 1 4 3 -2 6 -13 5 -11 0 -14 -3 -6 -6z"/>
<path d="M2960 4487 c0 -26 -40 -49 -107 -63 -112 -23 -113 -23 -113 -43 0
-18 3 -18 55 -5 48 13 58 13 85 -1 40 -21 58 -79 41 -135 -13 -43 -39 -62
-101 -75 -62 -12 -70 -16 -70 -35 0 -17 3 -17 53 -3 28 9 56 19 62 24 15 15
72 10 89 -7 15 -14 16 1 16 170 0 102 -2 186 -5 186 -3 0 -5 -6 -5 -13z m-21
-84 c-8 -9 -9 -14 -4 -11 13 8 14 -37 1 -49 -5 -4 -6 -3 -3 4 4 6 -5 21 -19
32 -15 12 -21 21 -15 21 7 0 10 4 7 8 -2 4 7 9 21 10 23 2 24 0 12 -15z m9
-191 c-1 -17 -6 -29 -14 -29 -17 0 -17 0 -2 32 14 32 17 32 16 -3z"/>
<path d="M1014 4075 c-55 -27 -129 -93 -139 -125 -4 -11 -10 -20 -14 -20 -4 0
-14 -18 -21 -40 -7 -22 -17 -40 -22 -40 -6 0 -8 -5 -6 -12 3 -7 -1 -35 -7 -63
-24 -101 -1 -217 59 -307 28 -42 86 -86 126 -96 56 -14 101 -17 140 -9 25 4
55 9 68 11 12 1 29 11 38 22 8 10 12 12 8 4 -7 -15 47 30 73 60 42 48 54 150
21 171 -27 18 -73 9 -104 -20 -71 -67 -150 -80 -204 -35 -44 37 -60 75 -60
139 0 66 15 106 61 161 l35 41 78 -1 c70 -1 80 1 96 21 10 12 21 19 25 15 3
-4 5 -2 4 3 -2 6 1 20 5 33 10 28 -23 84 -59 100 -45 21 -144 14 -201 -13z
m191 1 c65 -27 70 -93 10 -132 -21 -14 -31 -15 -51 -5 -34 15 -59 14 -97 -5
-96 -48 -145 -205 -98 -310 47 -102 169 -121 260 -38 46 41 84 45 107 9 22
-33 6 -80 -44 -127 -82 -79 -210 -109 -306 -73 -177 68 -224 365 -87 556 81
114 209 165 306 125z"/>
<path d="M1243 3893 c-23 -24 -77 -31 -88 -13 -3 6 -18 10 -32 10 -72 0 -139
-100 -131 -191 6 -60 30 -97 74 -115 47 -20 93 -6 146 41 33 30 46 36 74 33
35 -4 41 0 25 17 -17 19 -35 91 -40 165 l-6 75 -22 -22z m-91 -41 c15 -15 51
-15 66 0 16 16 21 8 28 -43 3 -24 12 -57 18 -74 10 -26 10 -32 -6 -47 -10 -10
-18 -15 -19 -10 -5 35 -2 58 6 64 6 5 5 8 -2 8 -7 0 -13 7 -13 15 0 8 -5 15
-11 15 -5 0 -8 4 -5 9 3 5 -9 7 -26 6 -18 -2 -43 1 -56 6 -16 6 -29 6 -37 -1
-6 -5 -16 -6 -20 -2 -5 4 -5 2 -1 -5 4 -7 -4 -18 -20 -26 -17 -9 -23 -17 -15
-21 7 -5 8 -13 2 -24 -5 -9 -9 -20 -10 -24 -1 -5 -4 -7 -8 -5 -14 4 -4 68 18
111 28 56 80 79 111 48z m65 -114 c9 -34 8 -39 -14 -54 -16 -10 -22 -21 -18
-32 3 -9 3 -13 -1 -10 -4 4 -16 1 -28 -7 -25 -18 -68 -19 -84 -3 -16 16 -15
83 2 116 13 26 19 28 74 27 l59 0 10 -37z m-175 -92 c7 4 8 2 4 -5 -10 -15
-26 -4 -25 17 1 15 2 15 6 -1 2 -9 9 -14 15 -11z"/>
<path d="M1574 4121 c-78 -35 -124 -117 -124 -220 0 -68 19 -110 66 -149 34
-28 46 -32 97 -32 64 0 99 14 138 57 42 45 61 91 62 152 0 73 -16 120 -56 159
-57 55 -113 65 -183 33z m149 -28 c60 -31 88 -163 52 -248 -46 -108 -174 -148
-252 -77 -44 39 -54 66 -56 136 -1 51 4 71 25 107 15 24 36 51 48 59 13 8 28
20 34 26 28 27 95 25 149 -3z"/>
<path d="M1581 4074 c-39 -21 -75 -72 -91 -131 -22 -86 27 -174 106 -189 56
-10 122 26 152 86 70 139 -42 297 -167 234z m120 -33 c27 -26 50 -90 42 -120
-4 -14 -6 -32 -4 -40 1 -8 -2 -10 -10 -5 -9 5 -10 2 -6 -10 4 -10 3 -15 -3
-11 -5 3 -7 19 -3 35 8 44 -13 86 -54 105 -34 16 -36 16 -64 -4 -15 -12 -33
-21 -39 -21 -6 0 -8 -4 -5 -10 3 -5 1 -10 -4 -10 -6 0 -11 -7 -11 -16 0 -8 -5
-12 -11 -8 -8 4 -9 -7 -5 -37 5 -38 4 -42 -8 -26 -24 31 3 123 49 169 40 40
99 44 136 9z m-17 -83 c30 -42 11 -136 -29 -152 -29 -11 -72 -7 -84 8 -33 40
-18 130 26 155 31 18 71 13 87 -11z m21 -148 c-10 -11 -21 -18 -23 -15 -6 6
31 44 37 39 2 -2 -4 -13 -14 -24z"/>
<path d="M5145 3989 c-4 -6 -5 -12 -2 -15 2 -3 7 2 10 11 7 17 1 20 -8 4z"/>
<path d="M4068 3933 c7 -3 16 -2 19 1 4 3 -2 6 -13 5 -11 0 -14 -3 -6 -6z"/>
<path d="M3629 3840 l-24 -20 29 3 c30 4 45 20 28 31 -6 3 -21 -3 -33 -14z"/>
<path d="M2828 3823 c6 -2 18 -2 25 0 6 3 1 5 -13 5 -14 0 -19 -2 -12 -5z"/>
<path d="M4387 3773 l-17 -38 20 24 c11 13 20 29 20 37 0 22 -5 17 -23 -23z"/>
<path d="M2245 3740 c-3 -6 1 -7 9 -4 18 7 21 14 7 14 -6 0 -13 -4 -16 -10z"/>
<path d="M2712 3638 c-10 -28 -22 -40 -47 -49 -33 -12 -33 -13 -15 -26 15 -10
18 -21 14 -39 -7 -29 6 -31 31 -4 17 19 19 19 37 4 10 -10 18 -12 18 -7 0 18
-29 36 -46 29 -17 -6 -44 9 -44 25 0 5 6 9 14 9 8 0 22 10 30 22 15 21 17 21
28 5 7 -10 25 -21 41 -25 l27 -7 -27 -38 c-20 -29 -24 -40 -15 -49 9 -9 12 -7
12 11 0 12 14 36 30 53 17 16 30 30 30 32 0 1 -12 3 -27 4 -40 3 -71 28 -75
59 -3 27 -4 27 -16 -9z"/>
<path d="M2875 3637 c4 -19 1 -29 -10 -33 -21 -8 -19 -24 3 -24 11 0 24 -10
31 -22 11 -22 11 -22 8 4 -3 22 1 29 22 37 23 8 24 9 4 10 -12 1 -31 13 -43
29 l-21 27 6 -28z"/>
<path d="M2676 3623 c-6 -14 -5 -15 5 -6 7 7 10 15 7 18 -3 3 -9 -2 -12 -12z"/>
<path d="M1916 3579 c-14 -16 -29 -36 -33 -42 -12 -19 -89 -77 -102 -77 -6 0
-11 -4 -11 -9 0 -9 -57 -27 -72 -23 -5 1 -8 -3 -8 -9 0 -6 -9 -9 -20 -6 -11 3
-20 2 -20 -2 0 -18 -146 1 -190 24 -32 16 -45 9 -54 -29 -6 -26 -5 -28 8 -17
9 8 16 20 16 27 0 17 0 17 39 -2 45 -22 139 -29 211 -15 98 19 203 90 252 169
l20 33 24 -22 c13 -12 24 -18 24 -12 0 13 -33 43 -47 43 -6 0 -23 -14 -37 -31z"/>
<path d="M741 3524 c0 -11 3 -14 6 -6 3 7 2 16 -1 19 -3 4 -6 -2 -5 -13z"/>
<path d="M2736 3434 c-9 -24 -7 -28 9 -14 17 14 20 30 6 30 -5 0 -12 -7 -15
-16z"/>
<path d="M1670 3345 c0 -9 5 -15 11 -13 6 2 11 8 11 13 0 5 -5 11 -11 13 -6 2
-11 -4 -11 -13z"/>
<path d="M3813 3773 c9 -2 23 -2 30 0 6 3 -1 5 -18 5 -16 0 -22 -2 -12 -5z"/>
<path d="M3855 3760 c-3 -5 3 -10 14 -10 40 0 20 -20 -21 -22 -24 -1 -54 -2
-67 -3 -14 0 -26 -6 -29 -13 -2 -7 -11 -12 -21 -12 -19 0 -73 -47 -90 -78 -15
-27 -14 -92 1 -92 6 0 19 -7 28 -15 23 -21 87 -27 124 -11 17 7 36 14 41 16
42 12 65 23 65 31 0 5 6 9 13 9 17 0 68 60 61 71 -3 5 -1 9 4 9 15 0 6 42 -11
52 -21 11 -22 38 -2 38 8 0 15 -4 15 -10 0 -5 12 -13 28 -16 33 -8 204 -95
214 -109 5 -6 8 -6 8 2 0 29 -136 105 -264 148 -82 27 -102 30 -111 15z m85
-75 c26 -24 25 -48 -2 -79 -61 -67 -225 -110 -268 -71 -47 43 1 125 92 159 57
21 150 16 178 -9z"/>
<path d="M3475 3640 c-3 -6 1 -7 9 -4 18 7 21 14 7 14 -6 0 -13 -4 -16 -10z"/>
<path d="M3510 3623 c-110 -72 -195 -222 -205 -362 -5 -68 3 -80 11 -15 10 90
32 164 48 164 5 0 7 3 3 6 -9 9 21 64 58 105 18 20 34 41 36 46 2 5 24 24 48
41 45 33 46 44 1 15z"/>
<path d="M3984 3446 c-44 -19 -64 -53 -64 -104 0 -35 6 -49 29 -73 33 -33 58
-36 101 -14 35 18 47 38 65 108 12 45 11 53 -1 60 -8 5 -12 12 -10 16 3 4 0 8
-7 9 -7 1 -28 4 -47 7 -20 3 -49 -1 -66 -9z m120 -39 c8 -12 5 -21 -8 -36 -23
-25 -34 -26 -58 -4 -39 35 -7 98 36 69 11 -7 24 -20 30 -29z m-119 -7 c-3 -5
-1 -10 5 -10 6 0 9 -4 5 -9 -8 -13 56 -60 73 -54 11 5 12 2 4 -14 -26 -49 -64
-59 -102 -27 -30 26 -42 76 -20 89 6 4 7 11 4 17 -4 7 -2 8 4 4 7 -4 12 -2 12
3 0 6 5 11 11 11 5 0 7 -4 4 -10z"/>
<path d="M4332 3450 c0 -8 4 -26 8 -40 6 -20 8 -21 8 -5 0 11 -3 29 -8 40 -5
12 -8 14 -8 5z"/>
<path d="M4350 3344 c0 -21 5 -46 10 -54 8 -11 9 -1 5 34 -7 62 -15 73 -15 20z"/>
<path d="M3551 3351 c-11 -11 -22 -17 -25 -13 -11 10 22 -77 40 -108 31 -52
96 -66 132 -27 43 46 37 118 -14 152 -34 22 -109 20 -133 -4z m65 -3 c4 -6 0
-16 -8 -22 -8 -6 -17 -19 -21 -29 -9 -24 -31 -17 -35 12 -5 35 47 67 64 39z
m66 -20 c24 -38 27 -54 13 -81 -7 -14 -11 -27 -9 -30 2 -2 -13 -4 -33 -5 -26
-1 -43 5 -57 20 -19 21 -19 21 2 39 12 9 22 20 22 24 0 9 34 54 41 55 4 0 13
-10 21 -22z"/>
<path d="M4355 3213 c-7 -68 -35 -194 -45 -208 -4 -5 -11 -21 -15 -34 -25 -83
-137 -221 -215 -265 -25 -14 -39 -26 -32 -26 40 0 170 118 214 195 65 116 91
197 103 323 7 85 -1 98 -10 15z"/>
<path d="M3944 3169 c-41 -46 -129 -63 -172 -33 -27 18 -49 10 -31 -13 33 -39
116 -56 162 -32 36 19 77 62 77 81 0 24 -13 23 -36 -3z"/>
<path d="M3707 3107 c-3 -8 1 -14 8 -14 7 0 11 6 8 14 -3 7 -6 13 -8 13 -2 0
-5 -6 -8 -13z"/>
<path d="M3490 2886 c0 -2 8 -10 18 -17 15 -13 16 -12 3 4 -13 16 -21 21 -21
13z"/>
<path d="M3550 2819 c43 -34 67 -43 30 -11 -19 17 -39 31 -45 31 -5 0 1 -8 15
-20z"/>
<path d="M3620 2766 c0 -8 121 -78 126 -74 2 3 -18 17 -46 32 -27 15 -52 31
-55 36 -6 10 -25 14 -25 6z"/>
<path d="M4185 2760 c-3 -6 1 -7 9 -4 18 7 21 14 7 14 -6 0 -13 -4 -16 -10z"/>
<path d="M3800 2670 c8 -5 22 -9 30 -9 10 0 8 3 -5 9 -27 12 -43 12 -25 0z"/>
<path d="M5205 3600 c3 -5 8 -10 11 -10 2 0 4 5 4 10 0 6 -5 10 -11 10 -5 0
-7 -4 -4 -10z"/>
<path d="M5070 3585 c0 -10 7 -15 18 -13 21 4 19 22 -2 26 -10 2 -16 -3 -16
-13z"/>
<path d="M2295 3510 c-16 -4 -25 -8 -20 -9 6 -1 0 -6 -12 -11 -50 -20 -31
-117 28 -147 121 -60 208 -62 238 -4 20 36 -28 131 -66 131 -7 0 -13 4 -13 9
0 7 -108 43 -121 40 -2 -1 -17 -5 -34 -9z m99 -31 c50 -12 112 -64 121 -101
16 -61 -82 -77 -179 -28 -88 45 -107 80 -64 120 24 22 59 25 122 9z"/>
<path d="M2440 3410 c0 -5 5 -10 11 -10 5 0 7 5 4 10 -3 6 -8 10 -11 10 -2 0
-4 -4 -4 -10z"/>
<path d="M1930 3397 c-100 -99 -102 -101 -155 -232 -52 -129 -14 -368 81 -510
24 -36 41 -71 38 -77 -5 -7 -2 -8 6 -3 8 5 19 1 29 -12 65 -79 199 -127 291
-104 29 7 21 9 -42 8 -64 0 -86 5 -132 27 -68 34 -173 144 -210 221 -58 122
-70 173 -69 290 0 102 2 116 33 185 37 84 76 145 117 183 15 14 46 41 68 61
22 20 35 36 30 36 -6 0 -44 -33 -85 -73z"/>
<path d="M2022 3195 c-34 -51 -33 -101 4 -140 50 -54 144 -9 144 69 0 44 -40
92 -87 105 -31 9 -34 7 -61 -34z m84 10 c8 -20 -13 -45 -38 -45 -10 0 -21 -7
-24 -15 -9 -22 -34 -18 -34 5 0 11 7 20 15 20 8 0 15 8 15 18 0 10 3 22 7 25
12 13 54 7 59 -8z m29 -45 c-3 -5 -2 -10 2 -10 5 0 9 -10 10 -21 3 -31 -36
-79 -63 -79 -21 0 -54 24 -54 38 1 14 27 42 40 42 6 0 23 9 37 20 28 22 37 25
28 10z"/>
<path d="M2055 3080 c18 -20 35 -26 35 -12 0 4 -12 12 -26 19 -26 12 -26 12
-9 -7z"/>
<path d="M2404 3176 c-43 -19 -64 -53 -64 -101 0 -53 31 -85 83 -85 47 0 84
32 107 92 17 45 17 47 -4 72 -26 32 -78 42 -122 22z m111 -30 c20 -29 10 -58
-19 -54 -13 2 -22 12 -24 26 -2 12 -10 22 -18 22 -8 0 -14 7 -14 15 0 25 57
19 75 -9z m-68 -40 c13 -13 13 -17 3 -12 -8 4 -6 0 4 -8 11 -9 23 -16 27 -16
4 0 10 -8 13 -17 4 -10 4 -14 0 -10 -4 3 -19 -2 -35 -13 -29 -22 -58 -22 -83
-1 -27 22 -15 104 12 87 6 -3 14 -1 18 5 4 8 3 9 -4 5 -7 -4 -12 -1 -12 7 0
24 14 29 27 10 7 -10 20 -27 30 -37z"/>
<path d="M2456 3053 c-6 -14 -5 -15 5 -6 7 7 10 15 7 18 -3 3 -9 -2 -12 -12z"/>
<path d="M2748 2977 c-3 -19 -2 -25 4 -19 6 6 8 18 6 28 -3 14 -5 12 -10 -9z"/>
<path d="M2097 2973 c35 -95 149 -121 228 -51 42 36 37 55 -8 28 -44 -27 -119
-26 -163 1 -19 11 -34 25 -34 30 0 5 -7 9 -15 9 -9 0 -12 -6 -8 -17z"/>
<path d="M2697 2860 c-14 -27 -24 -50 -22 -50 8 0 58 91 53 96 -3 2 -17 -18
-31 -46z"/>
<path d="M2635 2758 c-16 -24 -62 -76 -103 -117 -41 -40 -64 -68 -52 -61 44
23 200 204 187 216 -2 3 -17 -15 -32 -38z"/>
<path d="M2385 2532 c-27 -15 -68 -35 -90 -44 l-40 -17 40 6 c22 3 42 9 45 13
3 3 30 20 60 38 67 39 55 42 -15 4z"/>
<path d="M3107 3072 c-30 -18 -35 -43 -12 -62 8 -7 12 -16 9 -21 -3 -5 1 -9 8
-10 7 0 22 -3 33 -5 41 -11 60 -9 57 5 -2 9 4 12 15 9 15 -4 19 1 20 25 0 20
-2 25 -8 16 -7 -11 -9 -11 -9 2 0 39 -73 65 -113 41z m98 -53 c0 -19 -6 -25
-28 -27 -33 -4 -77 21 -77 44 0 23 40 34 75 20 22 -9 30 -19 30 -37z"/>
<path d="M2905 3018 c-29 -22 -85 -95 -85 -110 0 -4 5 -8 10 -8 6 0 10 7 10
15 0 8 10 23 22 35 12 11 18 20 12 21 -5 0 0 4 11 8 11 5 20 14 20 22 1 8 6
13 13 12 7 -2 12 2 12 8 0 5 5 7 12 3 7 -4 8 -3 4 4 -9 15 -9 16 -41 -10z"/>
<path d="M2975 3000 c-3 -6 1 -7 9 -4 18 7 21 14 7 14 -6 0 -13 -4 -16 -10z"/>
<path d="M2906 2889 c-32 -26 -32 -62 1 -67 13 -2 24 -13 27 -27 8 -33 50 -44
76 -20 39 35 20 98 -35 121 -43 17 -37 18 -69 -7z m49 -10 c8 -12 -22 -49 -40
-49 -20 0 -26 28 -9 45 18 17 40 20 49 4z m44 -41 c10 -25 -3 -48 -25 -48 -17
0 -18 24 -2 50 16 25 17 25 27 -2z"/>
<path d="M3186 2888 c-30 -42 -11 -98 32 -98 47 0 89 73 62 105 -19 23 -76 19
-94 -7z m94 -14 c0 -8 -6 -14 -13 -14 -19 0 -27 10 -20 25 6 17 33 8 33 -11z
m-38 -28 c4 3 5 -2 4 -13 -3 -17 -8 -19 -36 -14 -11 1 -14 44 -3 55 4 3 12 -3
18 -14 6 -11 14 -18 17 -14z"/>
<path d="M3392 2789 c-1 -20 -4 -58 -7 -85 -5 -45 -4 -47 6 -16 5 19 8 57 6
85 -2 37 -4 42 -5 16z"/>
<path d="M3165 2750 c-20 -22 -102 -29 -122 -9 -8 8 -13 7 -18 -1 -4 -6 -3
-16 2 -21 13 -13 77 -23 105 -16 26 7 68 42 68 57 0 16 -16 11 -35 -10z"/>
<path d="M3356 2609 c-11 -21 -17 -41 -14 -44 3 -3 13 13 23 35 24 52 16 60
-9 9z"/>
<path d="M2845 2540 c19 -22 74 -55 79 -48 2 2 -20 18 -48 36 -35 24 -45 27
-31 12z"/>
<path d="M3301 2529 c-13 -17 -21 -32 -18 -35 7 -8 47 37 47 53 0 17 -1 17
-29 -18z"/>
<path d="M5140 2705 c0 -14 -45 -115 -100 -225 l-100 -200 11 -198 c13 -224
10 -262 -28 -292 -36 -28 -69 -25 -104 9 -16 16 -29 27 -29 25 0 -17 25 -46
52 -60 28 -15 34 -15 69 1 59 27 63 46 54 280 -7 208 -2 258 31 296 8 8 19 31
25 50 7 19 18 41 25 49 7 8 13 18 13 23 2 17 30 75 40 81 6 4 9 12 6 17 -4 5
-2 9 4 9 5 0 12 14 16 30 4 17 11 30 16 30 6 0 7 5 4 10 -3 6 -1 10 4 10 14 0
14 67 1 75 -6 4 -10 -5 -10 -20z"/>
<path d="M4276 2289 c-15 -56 -25 -103 -23 -105 9 -9 117 9 117 20 0 13 -56
175 -62 182 -3 2 -17 -41 -32 -97z m63 -26 c11 -29 17 -53 12 -53 -5 0 -15 20
-22 44 -7 25 -16 43 -20 41 -3 -3 -12 -26 -19 -52 -8 -27 -15 -41 -17 -31 -4
17 34 115 41 107 3 -2 14 -28 25 -56z"/>
<path d="M4611 2034 c0 -11 3 -14 6 -6 3 7 2 16 -1 19 -3 4 -6 -2 -5 -13z"/>
<path d="M1104 1872 c7 -38 56 -142 68 -142 4 0 8 -7 8 -16 0 -8 5 -12 11 -9
6 4 9 1 7 -7 -2 -7 2 -15 7 -17 6 -1 16 -7 23 -13 6 -6 12 -7 12 -2 0 4 6 1
13 -8 16 -21 105 -49 158 -50 27 0 37 -3 28 -9 -8 -5 -11 -9 -7 -9 13 0 123
55 130 65 5 6 8 6 8 1 0 -15 50 55 71 99 10 22 18 49 18 60 0 11 -9 -2 -19
-29 -78 -198 -341 -209 -471 -19 -18 25 -41 67 -51 92 -16 39 -18 41 -14 13z"/>
<path d="M1894 2145 l1 -105 38 0 c54 0 102 47 93 91 -3 18 -2 28 4 24 5 -3 4
8 -2 26 -13 37 -61 69 -104 69 l-30 0 0 -105z m104 53 c33 -32 27 -38 -18 -17
-21 10 -46 19 -55 19 -16 0 -20 12 -8 24 11 11 56 -3 81 -26z m-23 -42 c33
-34 22 -84 -17 -82 -20 1 -23 7 -26 47 -2 38 0 46 15 46 10 0 23 -5 28 -11z"/>
<path d="M3730 5500 c-9 -6 -10 -10 -3 -10 6 0 15 5 18 10 8 12 4 12 -15 0z"/>
<path d="M3768 5493 c6 -2 10 -8 8 -12 -3 -4 12 -7 32 -8 l37 -1 -35 13 c-33
13 -70 20 -42 8z"/>
<path d="M3850 5460 c0 -5 3 -9 8 -9 21 4 32 -2 26 -13 -4 -7 -4 -10 1 -6 4 4
15 3 24 -3 9 -6 3 0 -12 15 -29 27 -47 33 -47 16z"/>
<path d="M3946 5429 c3 -5 0 -9 -7 -9 -22 0 -1 -13 26 -15 36 -4 39 9 4 22
-16 6 -27 7 -23 2z"/>
<path d="M4005 5390 c4 -6 10 -8 15 -5 4 2 19 -5 34 -16 14 -11 26 -18 26 -14
0 6 58 -23 70 -35 3 -3 37 -21 77 -41 40 -20 69 -40 65 -44 -4 -5 -1 -5 6 -1
6 4 12 2 12 -4 0 -6 10 -14 23 -19 12 -5 42 -25 67 -45 25 -20 49 -36 53 -36
5 0 14 -6 22 -12 7 -7 58 -49 114 -92 92 -72 125 -107 86 -92 -8 3 -15 2 -15
-3 0 -5 9 -11 20 -14 11 -3 18 -1 14 4 -11 18 17 8 38 -13 13 -13 26 -22 30
-21 5 2 8 -3 8 -11 0 -8 9 -18 21 -21 11 -4 18 -9 16 -11 -3 -3 15 -25 39 -49
24 -25 41 -51 38 -58 -3 -8 3 -20 13 -27 15 -12 16 -12 6 0 -16 17 -17 34 -3
25 6 -4 17 -23 26 -43 11 -27 17 -33 23 -23 7 11 12 8 22 -10 7 -13 13 -26 13
-29 1 -3 4 -4 8 -3 4 2 5 -3 2 -11 -3 -8 -1 -17 5 -21 6 -3 11 -1 11 6 0 10 3
10 12 1 10 -10 10 -15 1 -20 -8 -5 -6 -14 8 -31 10 -13 19 -18 19 -11 0 16 27
-5 42 -33 7 -15 7 -22 -3 -28 -7 -4 -10 -11 -7 -14 4 -4 13 -1 21 6 13 12 9
21 -25 69 -21 30 -51 69 -66 85 -15 17 -36 44 -46 60 -35 55 -336 347 -352
341 -8 -3 -13 -2 -10 3 3 4 -5 17 -17 28 -77 68 -365 253 -393 253 -8 0 -14 4
-14 8 0 10 -149 82 -169 82 -6 0 -9 -5 -6 -10z m1045 -831 c0 -6 -4 -7 -10 -4
-5 3 -10 11 -10 16 0 6 5 7 10 4 6 -3 10 -11 10 -16z"/>
<path d="M2090 5371 c-25 -9 -54 -23 -65 -29 -11 -6 -54 -27 -95 -47 -105 -51
-196 -108 -181 -113 7 -2 18 3 24 11 7 8 32 24 57 37 25 12 52 26 60 31 16 10
110 55 205 100 67 31 64 38 -5 10z"/>
<path d="M2976 5383 c-11 -11 -6 -23 9 -23 8 0 15 4 15 9 0 13 -16 22 -24 14z"/>
<path d="M3306 5370 c-31 -20 -64 -70 -47 -70 6 0 13 -10 16 -23 5 -20 12 -23
61 -22 36 0 54 4 54 13 0 6 7 12 15 12 9 0 18 7 21 15 4 8 9 13 14 10 10 -6
32 44 24 57 -4 6 -12 0 -20 -15 -14 -26 -87 -67 -120 -67 -59 1 -55 62 6 92
19 10 28 18 20 18 -8 0 -28 -9 -44 -20z"/>
<path d="M3972 5366 c26 -13 44 -27 40 -31 -4 -5 -1 -5 6 -1 7 4 19 2 27 -4 9
-7 15 -8 15 -3 0 6 -26 22 -59 37 -71 32 -95 33 -29 2z"/>
<path d="M3095 5320 c-3 -6 1 -13 10 -16 19 -8 30 0 20 15 -8 14 -22 14 -30 1z"/>
<path d="M4083 5313 c9 -9 20 -13 24 -9 4 4 1 11 -7 16 -25 16 -35 11 -17 -7z"/>
<path d="M4120 5303 c0 -4 23 -20 50 -34 28 -15 50 -24 50 -20 0 5 -22 20 -50
35 -27 15 -50 24 -50 19z"/>
<path d="M2960 5240 c0 -5 7 -10 15 -10 8 0 15 5 15 10 0 6 -7 10 -15 10 -8 0
-15 -4 -15 -10z"/>
<path d="M4245 5235 c11 -9 29 -21 40 -26 l20 -10 -20 16 c-11 9 -29 21 -40
26 l-20 10 20 -16z"/>
<path d="M4310 5193 c0 -4 39 -33 87 -63 48 -30 99 -66 115 -79 16 -13 31 -22
33 -19 5 5 -90 80 -125 98 -14 7 -27 16 -30 20 -10 13 -80 51 -80 43z"/>
<path d="M1639 5124 c-160 -109 -395 -317 -490 -435 -19 -23 -53 -64 -76 -92
-24 -28 -41 -53 -38 -55 3 -3 6 -3 8 -1 10 15 87 110 112 139 62 72 239 239
247 234 5 -3 7 -2 6 3 -4 12 34 53 49 53 7 0 13 5 13 10 0 6 5 10 11 10 7 0
24 13 40 29 15 17 69 57 119 91 81 54 100 70 85 70 -2 0 -41 -25 -86 -56z"/>
<path d="M3160 5156 c0 -2 8 -10 18 -17 15 -13 16 -12 3 4 -13 16 -21 21 -21
13z"/>
<path d="M2320 5112 c-22 -17 -23 -23 -12 -46 9 -21 19 -26 45 -26 50 0 84 43
54 68 -26 22 -63 24 -87 4z m64 -8 c9 -3 16 -12 16 -20 0 -17 -52 -32 -58 -16
-2 7 -8 10 -13 6 -5 -3 -9 1 -9 10 0 22 33 32 64 20z"/>
<path d="M4396 5089 c3 -5 12 -9 20 -9 8 0 14 -4 14 -10 0 -5 5 -10 11 -10 8
0 8 4 0 14 -13 16 -54 29 -45 15z"/>
<path d="M3692 5078 c-21 -21 -15 -75 10 -92 28 -20 33 -20 52 0 19 18 21 75
4 92 -7 7 -21 12 -33 12 -12 0 -26 -5 -33 -12z m53 -18 c11 -18 -7 -61 -24
-58 -21 4 -26 33 -9 52 15 18 25 20 33 6z"/>
<path d="M3320 5045 c-17 -20 -5 -45 20 -45 11 0 23 7 26 15 6 15 -11 45 -26
45 -4 0 -13 -7 -20 -15z"/>
<path d="M3270 5016 c0 -2 7 -7 16 -10 8 -3 12 -2 9 4 -6 10 -25 14 -25 6z"/>
<path d="M4577 5002 c10 -10 32 -26 48 -36 24 -14 22 -11 -10 18 -41 36 -70
50 -38 18z"/>
<path d="M3841 4984 c0 -11 3 -14 6 -6 3 7 2 16 -1 19 -3 4 -6 -2 -5 -13z"/>
<path d="M2010 4969 c-107 -22 -125 -193 -25 -235 59 -24 103 -18 140 19 19
19 37 46 41 60 10 44 -5 98 -37 128 -32 30 -67 38 -119 28z m75 -35 c68 -32
70 -118 5 -162 -57 -38 -117 -15 -140 53 -14 43 0 79 42 105 40 24 50 25 93 4z"/>
<path d="M2026 4898 c-15 -20 -14 -24 6 -45 26 -28 55 -27 74 2 32 48 -48 90
-80 43z m71 -8 c11 -17 10 -21 -8 -30 -27 -15 -49 -6 -49 19 0 33 39 41 57 11z"/>
<path d="M1822 4944 c4 -21 22 -23 26 -1 2 10 -3 17 -13 17 -10 0 -15 -6 -13
-16z"/>
<path d="M3804 4907 c-36 -41 -47 -57 -36 -57 11 0 66 69 60 76 -3 2 -13 -6
-24 -19z"/>
<path d="M3730 4899 c0 -5 5 -7 10 -4 6 3 10 8 10 11 0 2 -4 4 -10 4 -5 0 -10
-5 -10 -11z"/>
<path d="M4710 4896 c0 -5 30 -36 66 -70 37 -33 70 -70 75 -81 5 -14 8 -15 8
-5 1 9 -33 49 -74 90 -41 41 -75 71 -75 66z"/>
<path d="M3430 4876 c0 -3 9 -10 20 -16 11 -6 20 -8 20 -6 0 3 -9 10 -20 16
-11 6 -20 8 -20 6z"/>
<path d="M2383 4858 c2 -7 10 -13 17 -13 7 0 15 6 18 13 2 7 -5 12 -18 12 -13
0 -20 -5 -17 -12z"/>
<path d="M3488 4853 c7 -3 16 -2 19 1 4 3 -2 6 -13 5 -11 0 -14 -3 -6 -6z"/>
<path d="M1865 4840 c4 -6 11 -8 16 -5 14 9 11 15 -7 15 -8 0 -12 -5 -9 -10z"/>
<path d="M4745 4810 c10 -11 20 -20 23 -20 3 0 -3 9 -13 20 -10 11 -20 20 -23
20 -3 0 3 -9 13 -20z"/>
<path d="M2176 4746 c-4 -19 -18 -51 -32 -71 -32 -47 -24 -57 10 -13 14 19 28
53 32 76 8 50 -1 57 -10 8z"/>
<path d="M1797 4749 c-53 -12 -122 -44 -189 -87 -57 -37 -70 -52 -44 -52 8 0
17 -12 20 -26 l7 -26 19 25 c29 37 138 77 210 77 107 0 160 -36 160 -110 0
-32 23 -42 34 -14 9 24 7 28 -7 16 -10 -8 -13 -5 -15 15 -9 113 -193 146 -347
62 -29 -16 -55 -26 -58 -22 -32 31 192 138 298 142 21 1 41 4 44 6 8 8 -92 3
-132 -6z"/>
<path d="M2432 4740 c-12 -12 -22 -32 -22 -45 0 -31 36 -65 71 -65 35 0 79 36
79 64 0 56 -85 86 -128 46z m90 -7 c26 -24 23 -59 -8 -80 -24 -15 -29 -15 -53
-2 -32 18 -39 54 -15 80 21 23 51 24 76 2z"/>
<path d="M4830 4726 c0 -2 8 -10 18 -17 15 -13 16 -12 3 4 -13 16 -21 21 -21
13z"/>
<path d="M4890 4664 c0 -6 7 -19 15 -30 8 -10 14 -14 14 -9 0 6 -6 19 -14 29
-8 11 -15 15 -15 10z"/>
<path d="M1482 4609 c-12 -5 -65 -12 -117 -15 l-95 -7 2 -41 c1 -37 2 -38 5
-8 2 18 9 30 14 27 5 -4 9 -1 9 6 0 8 5 7 17 -2 9 -8 14 -9 11 -3 -4 6 7 10
28 11 20 1 52 4 71 8 32 6 35 4 29 -12 -6 -13 -1 -12 21 7 15 14 30 26 32 28
13 7 -7 8 -27 1z"/>
<path d="M2059 4601 c-21 -16 -22 -22 -11 -45 13 -28 49 -35 70 -14 18 18 14
56 -7 68 -25 13 -25 13 -52 -9z m41 -27 c0 -9 -7 -14 -17 -12 -25 5 -28 28 -4
28 12 0 21 -6 21 -16z"/>
<path d="M4995 4530 c10 -11 20 -20 23 -20 3 0 -3 9 -13 20 -10 11 -20 20 -23
20 -3 0 3 -9 13 -20z"/>
<path d="M1495 4529 c-5 -8 -4 -10 3 -5 6 4 24 0 39 -8 28 -15 28 -15 -17 -11
-30 3 -40 1 -30 -5 11 -7 3 -10 -27 -11 -24 -1 -46 -2 -50 -4 -5 -1 -21 -5
-38 -10 -16 -4 -34 -11 -40 -15 -5 -4 -20 -10 -32 -12 -19 -5 -23 -1 -26 26
-3 26 -4 24 -5 -11 -1 -23 -5 -49 -9 -59 -5 -12 5 -8 33 14 42 33 116 56 222
67 34 4 62 10 62 15 0 24 -73 49 -85 29z"/>
<path d="M987 4479 c-20 -28 -37 -54 -37 -59 0 -4 -4 -10 -8 -12 -12 -4 -83
-128 -74 -128 4 0 19 23 34 50 16 28 33 50 39 50 5 0 7 5 4 10 -3 6 -1 10 4
10 6 0 11 5 11 11 0 7 16 34 36 61 19 28 34 52 32 53 -2 2 -20 -18 -41 -46z"/>
<path d="M5060 4511 c0 -5 5 -13 10 -16 6 -3 10 -2 10 4 0 5 -4 13 -10 16 -5
3 -10 2 -10 -4z"/>
<path d="M5020 4495 c0 -4 13 -24 28 -44 16 -20 32 -45 37 -56 4 -12 9 -15 12
-8 2 7 -14 35 -36 63 -23 29 -41 49 -41 45z"/>
<path d="M1742 4478 c-21 -21 -15 -68 11 -77 44 -17 86 39 57 75 -15 17 -52
18 -68 2z m51 -32 c3 -8 0 -17 -8 -19 -15 -7 -25 1 -25 20 0 17 26 17 33 -1z"/>
<path d="M2164 4455 c-17 -13 -16 -14 14 -4 33 11 41 19 19 19 -7 0 -22 -7
-33 -15z"/>
<path d="M5127 4453 c4 -11 3 -14 -5 -9 -7 4 -12 3 -12 -3 0 -5 9 -9 19 -8 16
1 18 5 10 19 -12 23 -20 24 -12 1z"/>
<path d="M5143 4413 c-15 -5 -17 -23 -4 -23 5 0 11 7 15 15 3 8 4 15 3 14 -1
0 -8 -3 -14 -6z"/>
<path d="M5165 4355 c4 -11 10 -28 12 -37 3 -10 9 -18 14 -18 5 0 2 15 -7 33
-19 38 -30 50 -19 22z"/>
<path d="M1260 4350 c0 -5 5 -10 10 -10 6 0 10 5 10 10 0 6 -4 10 -10 10 -5 0
-10 -4 -10 -10z"/>
<path d="M5116 4346 c7 -18 34 -22 34 -4 0 6 -3 8 -7 5 -3 -4 -12 -2 -20 5
-11 8 -12 7 -7 -6z"/>
<path d="M5202 4283 c22 -51 82 -162 85 -159 5 5 -75 166 -83 166 -3 0 -4 -3
-2 -7z"/>
<path d="M851 4254 c0 -11 3 -14 6 -6 3 7 2 16 -1 19 -3 4 -6 -2 -5 -13z"/>
<path d="M5175 4240 c4 -14 14 -34 21 -45 13 -18 14 -18 14 -1 0 10 -10 30
-21 44 l-21 27 7 -25z"/>
<path d="M816 4195 c-17 -26 -66 -133 -66 -144 1 -6 75 131 84 155 8 22 0 17
-18 -11z"/>
<path d="M5240 4122 c0 -15 71 -174 76 -169 2 2 -14 44 -36 93 -22 49 -40 83
-40 76z"/>
<path d="M5290 4106 c0 -13 52 -127 57 -123 4 5 -37 108 -49 122 -4 5 -8 5 -8
1z"/>
<path d="M727 4008 c-8 -18 -17 -44 -21 -58 -3 -14 6 -1 19 29 14 29 24 55 22
58 -3 2 -11 -11 -20 -29z"/>
<path d="M5356 3945 c3 -17 13 -46 21 -65 8 -19 21 -56 29 -82 8 -27 17 -48
19 -48 9 0 -9 68 -38 140 -33 83 -42 100 -31 55z"/>
<path d="M731 3933 c-19 -38 -72 -213 -95 -318 -42 -191 -51 -279 -51 -510 0
-179 5 -246 23 -360 44 -276 113 -492 233 -735 228 -458 596 -844 1029 -1080
269 -146 509 -222 885 -282 127 -20 525 -17 660 6 298 48 495 109 731 226 343
169 647 416 850 690 71 96 128 189 120 197 -2 3 -9 -4 -15 -15 -6 -12 -43 -60
-83 -109 -366 -450 -762 -723 -1273 -878 -75 -23 -121 -32 -123 -25 -2 6 -11
17 -19 26 -14 14 -14 24 1 102 19 98 69 256 99 317 11 22 40 61 63 86 66 72
80 144 42 219 -76 150 -312 89 -326 -84 -5 -63 10 -116 42 -147 19 -18 23 -30
19 -58 -4 -27 0 -40 14 -52 24 -22 60 -30 88 -19 l22 8 -16 -43 c-10 -28 -18
-40 -23 -32 -5 8 -7 5 -6 -8 3 -38 -14 -105 -28 -105 -8 0 -14 -10 -13 -22 0
-22 1 -22 9 -3 9 20 9 20 9 -1 1 -11 -3 -24 -9 -30 -5 -5 -10 -38 -12 -72 -2
-53 0 -66 16 -78 11 -7 18 -15 15 -18 -6 -5 -141 -26 -279 -42 -74 -9 -193
-14 -292 -12 -92 1 -170 -1 -174 -5 -4 -4 -14 -7 -23 -6 -12 0 -11 3 4 9 15 7
8 9 -25 7 -25 -2 -56 0 -70 5 -13 5 -65 11 -115 14 -49 3 -94 9 -99 15 -6 5
-22 9 -38 9 -25 0 -52 8 -104 32 -11 5 -24 8 -30 7 -24 -4 -38 1 -27 12 8 8
26 7 67 -5 31 -9 89 -21 128 -27 40 -5 102 -14 138 -20 155 -23 311 -36 299
-24 -3 2 -56 9 -119 15 -63 6 -132 15 -155 20 -38 9 -290 56 -348 65 -15 3
-26 1 -23 -4 3 -5 -3 -11 -14 -14 -10 -3 -20 -1 -22 4 -4 12 -141 60 -156 54
-7 -3 -10 0 -7 5 3 6 2 10 -4 10 -6 0 -67 27 -136 60 -68 33 -127 60 -130 60
-3 0 -13 8 -24 18 -10 9 -40 29 -67 45 -129 73 -302 214 -479 392 -38 38 -83
80 -98 92 -26 20 -30 52 -5 37 7 -4 8 -2 4 5 -6 9 -11 9 -22 0 -11 -9 -14 -9
-14 0 0 10 -38 63 -100 138 -6 7 -10 17 -10 23 0 5 -5 10 -11 10 -5 0 -17 16
-25 36 -8 20 -40 79 -70 131 -30 51 -54 104 -54 117 0 13 -7 39 -15 57 -16 34
-16 32 0 -41 21 -92 -115 227 -160 377 -71 231 -105 466 -105 713 0 254 30
448 110 708 36 118 41 141 21 105z m2998 -2401 c38 -19 71 -72 71 -115 0 -85
-88 -185 -167 -188 -24 -2 -24 -2 -5 -6 12 -2 22 -9 22 -14 0 -16 -28 -10 -42
9 -7 10 -20 21 -29 24 -9 4 -30 23 -45 44 -24 30 -29 47 -29 93 0 127 118 208
224 153z m-135 -327 c7 -20 45 -19 68 2 10 9 21 13 24 10 10 -10 -25 -57 -51
-69 -33 -15 -75 12 -75 47 0 27 24 35 34 10z"/>
<path d="M3615 1514 c-74 -25 -75 -73 -1 -78 14 0 22 -6 19 -13 -3 -7 -9 -13
-13 -13 -7 0 -19 -44 -26 -100 -1 -13 1 -31 6 -40 7 -10 9 0 10 33 0 94 56
162 100 122 11 -10 23 -15 27 -12 3 4 0 7 -8 7 -8 0 0 9 16 20 18 12 24 20 15
20 -9 0 -20 -4 -26 -10 -5 -5 -15 -6 -24 0 -11 7 -8 11 13 21 15 7 27 16 27
20 0 13 -33 20 -40 9 -5 -8 -9 -7 -13 3 -8 21 -40 26 -82 11z m56 -15 c16 -8
18 -13 8 -25 -13 -16 -69 -19 -69 -4 0 6 -4 10 -10 10 -5 0 -7 -7 -3 -16 4
-11 2 -15 -7 -12 -26 8 -21 28 12 42 42 18 45 18 69 5z"/>
<path d="M3670 1416 c0 -2 7 -7 16 -10 8 -3 12 -2 9 4 -6 10 -25 14 -25 6z"/>
<path d="M5320 3919 c0 -5 5 -7 10 -4 6 3 10 8 10 11 0 2 -4 4 -10 4 -5 0 -10
-5 -10 -11z"/>
<path d="M684 3903 c-3 -10 -10 -29 -16 -43 -7 -18 -6 -22 1 -14 12 11 33 74
25 74 -3 0 -7 -8 -10 -17z"/>
<path d="M5355 3833 c14 -37 64 -221 81 -301 10 -46 20 -79 22 -73 9 26 -89
391 -105 391 -3 0 -2 -8 2 -17z"/>
<path d="M651 3814 c0 -11 3 -14 6 -6 3 7 2 16 -1 19 -3 4 -6 -2 -5 -13z"/>
<path d="M627 3741 c-4 -17 -3 -21 5 -13 5 5 8 16 6 23 -3 8 -7 3 -11 -10z"/>
<path d="M5436 3705 c3 -22 10 -44 15 -50 11 -11 3 35 -13 70 -5 13 -6 7 -2
-20z"/>
<path d="M5457 3618 c-3 -12 -2 -28 2 -37 6 -10 9 -4 9 22 0 42 -3 46 -11 15z"/>
<path d="M586 3584 c-4 -20 -5 -38 -3 -40 3 -3 8 11 11 32 4 20 5 38 3 40 -3
3 -8 -11 -11 -32z"/>
<path d="M666 3463 c-30 -167 -40 -367 -27 -560 11 -167 34 -339 47 -352 3 -3
3 10 0 29 -6 39 -19 158 -22 205 -1 17 -5 122 -9 234 -5 153 -4 202 5 196 6
-4 10 -17 8 -29 -6 -47 53 -73 85 -38 35 38 9 112 -39 112 -13 0 -24 5 -24 10
0 6 -5 10 -12 10 -9 0 -9 -3 -1 -11 6 -6 9 -18 6 -25 -7 -19 -33 -18 -33 2 0
8 4 13 8 10 5 -3 6 8 4 24 -2 16 1 58 7 94 14 79 23 176 17 176 -2 0 -11 -39
-20 -87z m65 -223 c31 -17 23 -90 -10 -90 -37 0 -52 41 -31 81 12 22 15 23 41
9z"/>
<path d="M5489 3460 c8 -50 16 -88 19 -86 6 7 -20 176 -27 176 -4 0 0 -41 8
-90z"/>
<path d="M572 3510 c0 -14 2 -19 5 -12 2 6 2 18 0 25 -3 6 -5 1 -5 -13z"/>
<path d="M5090 3420 c0 -5 5 -10 11 -10 5 0 7 5 4 10 -3 6 -8 10 -11 10 -2 0
-4 -4 -4 -10z"/>
<path d="M5462 3405 c0 -16 2 -22 5 -12 2 9 2 23 0 30 -3 6 -5 -1 -5 -18z"/>
<path d="M548 3395 c-3 -14 -2 -28 2 -30 4 -3 10 9 12 25 5 36 -8 40 -14 5z"/>
<path d="M5475 3315 c4 -33 13 -107 20 -165 l13 -105 -4 85 c-4 98 -21 230
-30 239 -4 3 -3 -21 1 -54z"/>
<path d="M5512 3325 c-1 -22 3 -58 7 -80 8 -34 9 -36 9 -10 0 17 -3 53 -8 80
-7 49 -7 49 -8 10z"/>
<path d="M538 3310 c-3 -16 -1 -30 4 -30 4 0 8 14 8 30 0 17 -2 30 -4 30 -2 0
-6 -13 -8 -30z"/>
<path d="M528 3157 c-6 -117 14 -493 28 -506 4 -3 3 21 -1 54 -4 33 -10 175
-14 315 -6 236 -7 246 -13 137z"/>
<path d="M5167 3236 c6 -10 8 -27 6 -37 -9 -31 4 -21 16 13 6 17 8 29 5 25 -4
-4 -14 -1 -22 6 -13 10 -14 9 -5 -7z"/>
<path d="M5228 3178 c-25 -35 -60 -76 -77 -92 -39 -37 -30 -54 12 -22 18 13
55 35 83 49 47 24 124 98 124 120 0 5 -16 -1 -36 -12 -20 -12 -38 -21 -39 -19
-1 2 -6 11 -11 21 -9 15 -17 8 -56 -45z m66 3 c3 -5 -7 -17 -22 -27 -30 -20
-55 -27 -46 -13 3 5 10 7 15 4 5 -4 9 0 9 7 0 27 33 48 44 29z"/>
<path d="M5533 3130 c0 -41 2 -58 4 -37 2 20 2 54 0 75 -2 20 -4 3 -4 -38z"/>
<path d="M5156 3161 c-3 -5 1 -11 9 -15 9 -3 15 0 15 9 0 16 -16 20 -24 6z"/>
<path d="M5061 3054 c0 -11 3 -14 6 -6 3 7 2 16 -1 19 -3 4 -6 -2 -5 -13z"/>
<path d="M5080 3044 c-6 -14 -10 -30 -10 -35 0 -6 -4 -8 -8 -5 -4 2 -9 -7 -10
-20 -1 -14 -7 -34 -13 -45 -6 -12 -8 -23 -6 -26 8 -7 32 44 48 97 7 25 18 48
24 52 6 5 6 8 -3 8 -7 0 -17 -12 -22 -26z"/>
<path d="M5530 3005 c0 -25 -5 -64 -11 -88 -9 -31 -9 -61 -1 -112 l10 -70 -5
89 c-4 65 -3 87 6 82 8 -5 11 15 11 68 0 42 -2 76 -5 76 -3 0 -5 -20 -5 -45z"/>
<path d="M801 2966 c-39 -22 -62 -66 -55 -109 6 -39 34 -103 34 -79 0 7 5 10
10 7 6 -4 8 -10 5 -15 -3 -4 7 -7 23 -6 42 2 92 52 92 93 0 81 -56 137 -109
109z m59 -26 c24 -13 35 -67 20 -105 -14 -36 -26 -45 -63 -45 -23 0 -31 7 -43
36 -33 78 21 149 86 114z"/>
<path d="M5250 2954 c0 -8 5 -12 10 -9 6 3 10 10 10 16 0 5 -4 9 -10 9 -5 0
-10 -7 -10 -16z"/>
<path d="M5532 2865 c0 -16 2 -22 5 -12 2 9 2 23 0 30 -3 6 -5 -1 -5 -18z"/>
<path d="M4900 2850 c-6 -11 -8 -20 -6 -20 3 0 10 9 16 20 6 11 8 20 6 20 -3
0 -10 -9 -16 -20z"/>
<path d="M4804 2808 c-7 -22 19 -52 40 -45 17 6 29 34 23 51 -10 24 -54 21
-63 -6z m41 -8 c3 -5 -1 -10 -10 -10 -9 0 -13 5 -10 10 3 6 8 10 10 10 2 0 7
-4 10 -10z"/>
<path d="M5500 2758 c0 -20 -2 -48 -4 -64 -2 -16 -1 -20 2 -9 l4 20 9 -20 c5
-12 6 3 3 40 -7 69 -14 85 -14 33z"/>
<path d="M772 2723 c-6 -2 -10 -9 -6 -14 3 -5 1 -9 -4 -9 -5 0 -15 -18 -22
-40 -7 -22 -17 -40 -23 -40 -5 0 -2 -11 7 -25 9 -14 16 -31 15 -38 -3 -26 4
-82 8 -61 3 15 12 22 27 22 33 0 72 28 86 63 31 73 -27 167 -88 142z m58 -35
c22 -24 27 -77 10 -109 -12 -21 -68 -54 -78 -45 -3 4 -6 35 -6 70 -1 50 3 69
18 85 24 26 30 26 56 -1z"/>
<path d="M1024 2700 c10 -54 70 -109 153 -141 37 -14 25 -3 -29 26 -23 13 -42
29 -40 35 1 6 -1 9 -6 6 -14 -8 -28 7 -57 59 -26 48 -27 48 -21 15z"/>
<path d="M1200 2626 c0 -8 4 -17 9 -20 5 -4 7 3 4 14 -6 23 -13 26 -13 6z"/>
<path d="M5487 2624 c-13 -46 -16 -100 -7 -114 8 -11 9 -8 4 13 -4 18 -2 27 6
27 9 0 10 11 6 38 -5 27 -4 33 3 22 13 -18 14 -1 2 19 -7 11 -10 10 -14 -5z"/>
<path d="M562 2610 c-1 -14 5 -52 13 -85 7 -33 14 -49 14 -35 0 14 -6 52 -13
85 -8 33 -14 49 -14 35z"/>
<path d="M890 2500 c-13 -8 -13 -11 1 -25 13 -14 17 -14 27 -2 16 19 -7 40
-28 27z"/>
<path d="M5461 2493 c-1 -12 4 -25 9 -28 12 -7 12 2 0 30 -8 19 -9 19 -9 -2z"/>
<path d="M612 2480 c0 -14 2 -19 5 -12 2 6 2 18 0 25 -3 6 -5 1 -5 -13z"/>
<path d="M5450 2443 c0 -10 -12 -56 -26 -103 -15 -47 -27 -97 -28 -111 -1 -15
-6 -33 -12 -40 -16 -22 -76 -180 -70 -187 3 -3 0 -10 -8 -16 -8 -6 -36 -54
-63 -106 -27 -52 -57 -107 -67 -122 -10 -16 -15 -35 -12 -45 6 -14 10 -11 26
15 11 18 19 36 19 40 -4 23 3 42 15 42 16 0 30 27 27 54 -2 13 1 16 11 10 7
-4 10 -4 6 1 -4 4 0 14 10 22 9 8 11 12 5 8 -16 -8 -16 -3 -2 29 7 14 16 23
20 20 5 -3 6 2 3 11 -4 10 -2 15 7 13 14 -3 15 2 18 50 0 13 5 21 10 18 11 -7
23 22 15 35 -3 5 -1 9 5 9 6 0 14 12 17 28 4 15 13 39 20 54 8 14 15 40 16 57
1 17 6 31 10 31 4 0 7 10 6 23 -1 28 5 50 16 59 10 7 20 118 11 118 -3 0 -5
-8 -5 -17z"/>
<path d="M629 2418 c4 -28 6 -29 9 -9 2 13 0 27 -5 32 -6 6 -7 -3 -4 -23z"/>
<path d="M596 2413 c4 -16 12 -46 19 -68 7 -22 16 -53 19 -69 4 -15 10 -26 13
-23 3 3 -3 32 -12 64 -9 32 -22 73 -27 91 -12 39 -21 43 -12 5z"/>
<path d="M650 2340 c0 -11 4 -20 9 -20 5 0 7 9 4 20 -3 11 -7 20 -9 20 -2 0
-4 -9 -4 -20z"/>
<path d="M890 2340 c0 -5 5 -10 10 -10 6 0 10 5 10 10 0 6 -4 10 -10 10 -5 0
-10 -4 -10 -10z"/>
<path d="M670 2270 c0 -11 4 -20 9 -20 5 0 7 9 4 20 -3 11 -7 20 -9 20 -2 0
-4 -9 -4 -20z"/>
<path d="M650 2239 c-1 -30 116 -308 144 -341 9 -10 16 -22 16 -26 0 -13 60
-121 71 -127 5 -4 9 1 9 9 0 8 -6 19 -12 23 -19 12 -60 91 -54 102 3 5 -1 11
-9 14 -18 7 -55 79 -55 107 0 12 -4 19 -9 16 -5 -3 -11 2 -14 12 -22 73 -86
229 -87 211z"/>
<path d="M5197 2233 c-4 -3 -7 -12 -7 -20 0 -15 26 -18 34 -4 7 11 -18 33 -27
24z"/>
<path d="M695 2210 c12 -40 53 -130 60 -130 3 0 -2 17 -11 38 -9 20 -21 51
-26 67 -14 38 -33 60 -23 25z"/>
<path d="M760 2065 c0 -14 59 -133 69 -140 6 -3 -6 27 -26 67 -37 77 -43 87
-43 73z"/>
<path d="M1023 1965 c0 -27 2 -38 4 -22 2 15 2 37 0 50 -2 12 -4 0 -4 -28z"/>
<path d="M845 1890 c10 -30 50 -96 66 -105 13 -9 0 17 -43 84 -18 28 -27 36
-23 21z"/>
<path d="M3966 1765 c-11 -8 -16 -18 -13 -22 4 -3 16 3 27 15 23 25 15 29 -14
7z"/>
<path d="M920 1760 c0 -6 11 -23 25 -38 14 -15 23 -33 20 -40 -3 -8 0 -10 7
-6 8 5 9 2 5 -10 -4 -10 -3 -15 3 -11 5 3 14 -4 21 -17 6 -12 23 -33 37 -47
l25 -26 -19 30 c-52 82 -115 175 -119 175 -3 0 -5 -5 -5 -10z"/>
<path d="M896 1718 c20 -34 104 -157 122 -178 12 -14 54 -65 95 -115 70 -84
254 -270 322 -324 17 -13 -19 25 -80 84 -60 59 -109 112 -107 117 1 5 -1 7 -6
4 -5 -3 -24 13 -43 36 -19 23 -45 53 -59 68 -30 31 -80 96 -80 105 0 3 -13 18
-28 33 -33 31 -98 123 -94 135 1 4 -2 7 -7 7 -5 0 -13 9 -16 20 -3 11 -11 20
-16 20 -6 0 -7 -6 -3 -12z"/>
<path d="M5122 1672 c-10 -15 -23 -34 -27 -42 -8 -13 -7 -13 8 -1 19 15 23 1
5 -17 -7 -7 -9 -12 -6 -12 4 0 20 20 36 44 23 34 27 46 17 50 -8 3 -22 -7 -33
-22z m14 -14 c-9 -12 -16 -19 -16 -15 0 11 24 47 28 42 2 -2 -3 -14 -12 -27z"/>
<path d="M1091 1674 c0 -11 3 -14 6 -6 3 7 2 16 -1 19 -3 4 -6 -2 -5 -13z"/>
<path d="M4175 1631 c-10 -48 -42 -80 -86 -87 -42 -7 -54 -24 -16 -24 12 0 36
-9 53 -19 28 -17 33 -27 46 -98 16 -85 15 -85 34 33 6 41 33 71 71 80 55 12
58 17 13 26 -56 12 -78 31 -86 74 -8 45 -21 51 -29 15z m12 -60 c-3 -12 1 -18
12 -17 9 0 15 -5 13 -13 -2 -8 3 -11 13 -8 8 4 15 4 15 2 0 -7 -54 -55 -62
-55 -13 0 -9 18 5 23 6 2 5 3 -4 2 -20 -3 -49 12 -49 25 0 6 8 10 18 10 15 0
15 -2 2 -11 -13 -9 -13 -10 0 -6 8 2 15 10 16 18 0 17 14 49 21 49 3 0 3 -8 0
-19z"/>
<path d="M5040 1555 c-23 -31 -38 -60 -35 -65 3 -5 0 -8 -7 -5 -7 2 -29 -17
-49 -43 -27 -36 -33 -50 -24 -59 9 -8 15 -5 24 9 9 15 9 18 0 13 -7 -5 -10 -3
-7 6 3 8 12 13 20 11 9 -1 18 5 22 13 3 9 2 13 -4 10 -6 -3 -10 -1 -10 4 0 10
13 15 25 9 9 -6 32 37 27 51 -4 10 -1 13 12 8 10 -4 16 -2 15 6 -1 6 -1 19 0
27 1 13 2 13 12 0 8 -12 9 -11 7 5 -2 11 2 19 9 18 6 -2 11 6 10 17 -1 11 -2
20 -4 20 -1 0 -21 -25 -43 -55z"/>
<path d="M1070 1555 c1 -14 38 -61 43 -55 3 3 -6 19 -19 35 -13 17 -24 26 -24
20z"/>
<path d="M3977 1515 c-8 -18 11 -31 25 -17 11 11 3 32 -12 32 -4 0 -10 -7 -13
-15z"/>
<path d="M4431 1506 c-12 -14 -5 -26 16 -26 15 0 18 26 4 34 -5 3 -14 0 -20
-8z"/>
<path d="M1144 1457 c14 -19 23 -37 19 -40 -3 -4 1 -7 10 -7 9 0 24 -13 34
-30 9 -16 21 -30 26 -30 4 0 5 -6 1 -12 -5 -10 -4 -10 6 -1 10 9 1 26 -46 82
-60 71 -96 98 -50 38z"/>
<path d="M2781 1432 c-8 -15 -7 -23 4 -32 22 -18 57 -3 53 23 -4 29 -43 35
-57 9z"/>
<path d="M3007 1444 c-9 -10 2 -24 19 -24 8 0 14 7 14 15 0 15 -21 21 -33 9z"/>
<path d="M3227 1444 c-8 -8 1 -24 14 -24 5 0 9 7 9 15 0 15 -12 20 -23 9z"/>
<path d="M1914 1419 c-9 -15 11 -33 30 -26 9 4 13 13 10 22 -7 17 -30 20 -40
4z"/>
<path d="M4292 1408 c2 -15 10 -23 23 -23 30 0 27 39 -3 43 -20 3 -23 0 -20
-20z"/>
<path d="M2190 1375 c0 -8 7 -15 15 -15 8 0 15 7 15 15 0 8 -7 15 -15 15 -8 0
-15 -7 -15 -15z"/>
<path d="M3350 1375 c0 -9 5 -15 11 -13 6 2 11 8 11 13 0 5 -5 11 -11 13 -6 2
-11 -4 -11 -13z"/>
<path d="M1624 1366 c-8 -21 3 -36 27 -36 15 0 20 6 17 22 -4 27 -35 37 -44
14z"/>
<path d="M4825 1303 c-58 -62 -162 -150 -341 -291 -20 -15 -22 -19 -7 -12 37
17 38 11 3 -15 -39 -29 -59 -33 -39 -8 13 15 12 15 -8 5 -27 -15 -39 -32 -22
-32 10 0 10 -3 1 -12 -10 -10 -14 -10 -20 0 -6 9 -21 4 -58 -20 -75 -48 -246
-130 -371 -179 -62 -23 -111 -45 -108 -47 2 -2 40 10 85 27 91 34 94 35 85 21
-11 -18 8 -11 110 40 55 27 90 47 78 44 -29 -7 -30 2 -2 17 16 8 23 8 29 -1 5
-8 22 -2 56 20 27 18 38 29 25 25 -16 -5 -21 -4 -17 4 4 6 13 11 20 11 8 0 19
7 26 15 14 17 45 21 34 4 -3 -6 4 -5 16 3 12 7 30 18 39 23 46 28 81 57 76 65
-6 10 92 90 109 89 6 0 0 -8 -14 -17 -28 -19 -93 -80 -70 -65 56 35 194 153
180 153 -5 0 -10 5 -10 11 0 6 7 8 16 5 8 -3 13 -2 10 3 -3 4 6 19 19 31 17
16 25 19 25 10 0 -8 15 1 35 20 19 18 32 37 29 42 -3 4 2 8 10 8 8 0 18 5 22
12 4 7 3 8 -4 4 -7 -4 -12 -2 -12 3 0 6 9 11 20 11 14 0 20 6 18 18 -2 10 2
16 10 14 8 -1 11 2 7 8 -10 16 -16 11 -90 -67z m-5 -38 c-13 -14 -27 -25 -31
-25 -11 0 34 50 45 50 5 0 -1 -11 -14 -25z m-145 -129 c-22 -19 -41 -33 -43
-31 -6 5 61 64 73 65 5 0 -8 -15 -30 -34z m-391 -271 c-10 -8 -23 -14 -29 -14
-5 0 -1 6 9 14 11 8 24 15 30 15 5 0 1 -7 -10 -15z m-159 -80 c-38 -19 -77
-34 -85 -34 -8 0 17 15 55 34 39 18 77 33 85 33 8 0 -16 -15 -55 -33z"/>
<path d="M2945 1347 c-101 -49 -157 -134 -163 -249 -7 -112 53 -214 154 -264
48 -23 63 -26 128 -22 69 5 156 38 156 60 0 12 -7 10 -43 -9 -18 -9 -35 -18
-39 -19 -5 -1 -9 -2 -10 -4 -18 -14 -168 -15 -168 0 0 3 -14 11 -30 18 -17 8
-27 18 -24 24 4 7 2 8 -5 4 -7 -5 -20 2 -31 16 -11 12 -23 28 -28 33 -17 21
-41 94 -32 100 5 3 10 -5 12 -17 2 -13 8 -23 14 -23 6 0 28 -14 49 -32 42 -36
94 -48 178 -41 108 9 209 121 209 233 l0 40 10 -34 c5 -19 8 -45 5 -58 -2 -12
0 -20 4 -17 5 3 9 -10 8 -28 0 -28 -2 -30 -10 -13 -8 17 -8 16 -4 -7 5 -28
-12 -78 -27 -78 -4 0 -8 -9 -8 -21 0 -11 -4 -17 -10 -14 -5 3 -10 -1 -10 -9 0
-9 -5 -16 -12 -16 -9 0 -9 -3 0 -12 17 -17 35 3 67 74 24 54 27 70 23 137 -5
86 -28 141 -82 194 -75 75 -191 97 -281 54z m205 -38 c92 -52 120 -156 69
-255 -66 -129 -254 -153 -352 -45 -41 46 -53 100 -37 162 37 140 196 208 320
138z"/>
<path d="M2990 1293 c-11 -8 -25 -11 -32 -7 -7 4 -8 3 -4 -4 4 -7 3 -12 -3
-12 -6 0 -15 -17 -20 -37 -9 -30 -7 -40 6 -55 21 -24 44 -23 77 3 14 11 26 17
26 14 0 -4 12 1 27 10 32 21 83 29 83 13 0 -6 -10 -19 -22 -29 -11 -11 -17
-19 -12 -19 21 1 41 27 48 61 5 30 3 38 -11 44 -10 5 -24 7 -31 6 -8 -1 -20 3
-27 9 -21 17 -82 19 -105 3z m90 -18 c13 -15 5 -38 -12 -33 -6 2 -26 -11 -46
-30 -40 -36 -76 -39 -79 -7 -4 29 20 55 64 70 49 18 58 18 73 0z m70 -20 c0
-8 -9 -15 -20 -15 -11 0 -20 7 -20 15 0 8 9 15 20 15 11 0 20 -7 20 -15z"/>
<path d="M3065 1170 c3 -5 14 -10 23 -10 15 0 15 2 2 10 -20 13 -33 13 -25 0z"/>
<path d="M3201 1124 c-2 -64 -81 -129 -174 -145 -41 -6 -41 -7 -7 -8 94 -2
205 96 187 166 -3 11 -5 6 -6 -13z"/>
<path d="M2852 1090 c0 -14 2 -19 5 -12 2 6 2 18 0 25 -3 6 -5 1 -5 -13z"/>
<path d="M2866 1047 c3 -10 9 -15 12 -12 3 3 0 11 -7 18 -10 9 -11 8 -5 -6z"/>
<path d="M2890 1024 c0 -14 44 -44 62 -44 7 1 0 8 -17 17 -16 9 -33 21 -37 27
-6 8 -8 8 -8 0z"/>
<path d="M1290 1295 c19 -19 38 -35 42 -35 5 0 -6 16 -23 35 -18 19 -37 35
-43 35 -5 0 5 -16 24 -35z"/>
<path d="M1780 1315 c0 -8 7 -15 15 -15 8 0 15 7 15 15 0 8 -7 15 -15 15 -8 0
-15 -7 -15 -15z"/>
<path d="M1990 1315 c0 -8 5 -15 10 -15 6 0 10 7 10 15 0 8 -4 15 -10 15 -5 0
-10 -7 -10 -15z"/>
<path d="M2190 1282 c-42 -43 -39 -82 18 -177 7 -11 16 -32 22 -47 22 -63 91
-73 131 -18 26 36 30 167 6 203 -24 37 -59 58 -106 64 -35 5 -44 2 -71 -25z
m98 -7 c31 -1 72 -51 72 -87 0 -38 -45 -88 -79 -88 -27 0 -70 35 -75 61 -2 8
-8 25 -13 39 -6 14 -7 34 -3 45 8 23 49 47 64 38 5 -4 21 -7 34 -8z m77 -182
c-21 -88 -84 -96 -128 -17 -5 8 6 10 36 7 34 -4 46 -1 61 16 26 29 39 26 31
-6z"/>
<path d="M2217 1242 c-9 -18 -1 -47 13 -47 20 0 25 41 6 48 -9 4 -17 3 -19 -1z"/>
<path d="M2270 1240 c0 -5 7 -10 15 -10 8 0 15 5 15 10 0 6 -7 10 -15 10 -8 0
-15 -4 -15 -10z"/>
<path d="M2310 1190 c0 -5 7 -10 16 -10 8 0 12 5 9 10 -3 6 -10 10 -16 10 -5
0 -9 -4 -9 -10z"/>
<path d="M2246 1182 c-10 -17 7 -52 25 -52 14 0 19 7 19 30 0 23 -5 30 -19 30
-11 0 -22 -4 -25 -8z"/>
<path d="M3983 1296 c-73 -33 -98 -143 -44 -196 42 -42 76 -48 127 -20 76 40
98 133 47 190 -33 37 -84 47 -130 26z m102 -41 c50 -50 17 -142 -59 -161 -57
-14 -106 50 -86 112 24 70 99 96 145 49z"/>
<path d="M4029 1252 c-12 -6 -14 -14 -7 -40 8 -28 13 -33 35 -30 15 2 28 8 30
15 3 7 -3 9 -17 6 -30 -8 -44 16 -23 39 16 18 10 22 -18 10z"/>
<path d="M3961 1145 c16 -16 83 -24 96 -11 4 3 -10 6 -31 6 -21 0 -47 5 -59
11 -21 11 -21 10 -6 -6z"/>
<path d="M2444 1279 c-10 -17 13 -36 27 -22 12 12 4 33 -11 33 -5 0 -12 -5
-16 -11z"/>
<path d="M1890 1245 c-10 -12 -9 -16 5 -21 23 -9 40 10 22 25 -11 9 -17 8 -27
-4z"/>
<path d="M1385 1205 c26 -24 44 -48 41 -53 -3 -6 2 -16 12 -23 15 -13 16 -12
4 3 -10 13 -10 17 0 21 8 3 -5 22 -37 50 -64 59 -81 61 -20 2z"/>
<path d="M2630 1235 c0 -8 5 -15 10 -15 6 0 10 7 10 15 0 8 -4 15 -10 15 -5 0
-10 -7 -10 -15z"/>
<path d="M2618 1160 c-19 -15 -21 -22 -12 -37 14 -23 57 -28 73 -9 16 19 9 41
-18 55 -15 8 -24 6 -43 -9z m50 -23 c4 -20 -25 -34 -40 -19 -15 15 -1 44 19
40 10 -2 19 -11 21 -21z"/>
<path d="M1500 1111 c42 -40 124 -101 171 -127 12 -7 26 -17 32 -23 16 -16 32
-14 18 2 -6 8 -8 17 -4 21 4 4 1 5 -7 2 -8 -4 -27 2 -41 11 -72 48 -86 58
-109 78 -14 12 -43 34 -65 50 l-40 28 45 -42z"/>
<path d="M4167 1142 c-15 -2 -25 -7 -22 -12 3 -4 15 -6 28 -4 12 2 15 1 7 -2
-8 -4 -17 -10 -20 -13 -3 -4 -25 -23 -49 -44 -32 -26 -47 -34 -52 -25 -4 7
-10 10 -13 7 -3 -3 0 -14 8 -24 13 -18 16 -17 57 24 24 23 61 51 82 62 20 11
37 21 37 23 0 7 -35 11 -63 8z"/>
<path d="M2705 1100 c-3 -5 -1 -10 4 -10 6 0 11 5 11 10 0 6 -2 10 -4 10 -3 0
-8 -4 -11 -10z"/>
<path d="M3390 1095 c-7 -9 -8 -15 -2 -15 5 0 12 7 16 15 3 8 4 15 2 15 -2 0
-9 -7 -16 -15z"/>
<path d="M3429 1083 c-16 -29 -3 -56 29 -61 27 -4 47 30 33 57 -17 30 -47 32
-62 4z m49 -20 c4 -25 -22 -37 -38 -17 -10 11 -10 17 0 29 17 20 34 14 38 -12z"/>
<path d="M3510 1100 c0 -5 5 -10 11 -10 5 0 7 5 4 10 -3 6 -8 10 -11 10 -2 0
-4 -4 -4 -10z"/>
<path d="M1491 1082 c-1 -7 -5 -10 -11 -7 -5 3 -10 3 -10 -2 1 -17 77 -61 91
-52 11 7 9 9 -7 9 -21 0 -47 23 -57 50 -4 10 -6 11 -6 2z"/>
<path d="M2630 1080 c0 -5 9 -10 20 -10 11 0 20 5 20 10 0 6 -9 10 -20 10 -11
0 -20 -4 -20 -10z"/>
<path d="M3551 1064 c0 -11 3 -14 6 -6 3 7 2 16 -1 19 -3 4 -6 -2 -5 -13z"/>
<path d="M2524 1035 c-4 -9 -2 -21 4 -27 16 -16 47 -5 47 17 0 26 -42 34 -51
10z"/>
<path d="M3515 1040 c-3 -5 -1 -10 4 -10 6 0 11 5 11 10 0 6 -2 10 -4 10 -3 0
-8 -4 -11 -10z"/>
<path d="M1561 996 c16 -16 144 -96 152 -96 13 0 -24 29 -38 30 -6 0 -22 11
-36 24 -26 24 -62 46 -75 46 -4 0 -5 -2 -3 -4z"/>
<path d="M1906 982 c-3 -5 1 -9 9 -9 8 0 12 4 9 9 -3 4 -7 8 -9 8 -2 0 -6 -4
-9 -8z"/>
<path d="M2274 965 c-7 -18 3 -35 21 -35 15 0 24 19 18 38 -6 17 -32 15 -39
-3z"/>
<path d="M1764 927 c16 -14 63 -42 103 -61 41 -20 71 -41 68 -46 -3 -6 1 -7
10 -4 8 4 21 2 28 -3 6 -5 39 -20 72 -33 33 -13 65 -26 70 -30 6 -3 36 -15 67
-25 31 -10 54 -23 51 -28 -3 -6 -1 -7 5 -3 7 4 28 2 49 -3 70 -20 45 -3 -34
22 -72 23 -185 67 -260 102 -17 8 -33 15 -36 15 -4 0 -140 74 -196 107 -24 14
-24 13 3 -10z"/>
<path d="M2008 933 c7 -3 16 -2 19 1 4 3 -2 6 -13 5 -11 0 -14 -3 -6 -6z"/>
<path d="M2040 916 c0 -2 7 -7 16 -10 8 -3 12 -2 9 4 -6 10 -25 14 -25 6z"/>
<path d="M1764 871 c4 -5 27 -21 53 -35 35 -20 49 -24 57 -15 8 9 8 10 -2 5
-7 -4 -18 -3 -25 2 -22 18 -89 53 -83 43z"/>
<path d="M2165 860 c3 -5 8 -10 11 -10 2 0 4 5 4 10 0 6 -5 10 -11 10 -5 0 -7
-4 -4 -10z"/>
<path d="M2198 843 c7 -3 16 -2 19 1 4 3 -2 6 -13 5 -11 0 -14 -3 -6 -6z"/>
<path d="M2268 823 c7 -3 16 -2 19 1 4 3 -2 6 -13 5 -11 0 -14 -3 -6 -6z"/>
<path d="M3330 810 c0 -5 5 -10 10 -10 6 0 10 5 10 10 0 6 -4 10 -10 10 -5 0
-10 -4 -10 -10z"/>
<path d="M1902 794 c10 -10 20 -16 22 -13 3 3 -5 11 -17 18 -21 13 -21 12 -5
-5z"/>
<path d="M1970 763 c8 -3 27 -12 42 -19 20 -10 29 -11 34 -2 4 6 3 8 -3 5 -6
-4 -19 0 -29 8 -10 8 -28 14 -39 14 -14 0 -16 -2 -5 -6z"/>
<path d="M3503 743 c9 -2 23 -2 30 0 6 3 -1 5 -18 5 -16 0 -22 -2 -12 -5z"/>
<path d="M2080 717 c14 -8 36 -17 50 -21 l25 -7 -25 14 c-14 8 -36 17 -50 21
l-25 7 25 -14z"/>
<path d="M3955 710 c-3 -5 -2 -10 4 -10 5 0 13 5 16 10 3 6 2 10 -4 10 -5 0
-13 -4 -16 -10z"/>
<path d="M3885 685 c-20 -9 -36 -10 -47 -4 -13 7 -18 6 -18 -4 0 -8 -10 -19
-22 -26 -23 -11 -23 -11 2 -5 14 4 27 9 30 13 3 3 15 7 27 8 28 3 94 31 73 31
-8 0 -28 -6 -45 -13z"/>
<path d="M2170 680 c8 -5 22 -9 30 -9 10 0 8 3 -5 9 -27 12 -43 12 -25 0z"/>
<path d="M2335 669 c-5 -6 -4 -10 1 -7 5 3 61 -5 124 -18 63 -13 124 -23 135
-23 17 1 -50 17 -226 55 -16 4 -30 1 -34 -7z"/>
<path d="M3750 665 c-14 -8 -19 -14 -12 -15 8 0 10 -5 6 -12 -4 -8 -3 -10 2
-5 5 5 7 11 4 14 -3 3 9 11 25 18 17 7 23 14 15 14 -8 0 -26 -6 -40 -14z"/>
<path d="M2235 660 c11 -5 27 -9 35 -9 9 0 8 4 -5 9 -11 5 -27 9 -35 9 -9 0
-8 -4 5 -9z"/>
<path d="M3593 636 c-112 -24 -143 -37 -60 -26 56 8 178 37 186 45 7 7 -15 4
-126 -19z"/>
<path d="M2330 635 c25 -8 52 -15 60 -15 30 1 -13 17 -60 24 l-45 6 45 -15z"/>
<path d="M3698 623 c6 -2 18 -2 25 0 6 3 1 5 -13 5 -14 0 -19 -2 -12 -5z"/>
<path d="M2411 616 c4 -4 16 -9 28 -11 13 -2 30 -6 39 -9 9 -3 40 -8 67 -12
28 -3 69 -9 93 -14 23 -4 42 -5 42 -1 0 3 -48 14 -107 24 -60 10 -121 21 -138
24 -16 3 -27 3 -24 -1z"/>
<path d="M2623 613 c3 -5 23 -10 43 -11 21 -2 36 -1 33 2 -9 10 -81 18 -76 9z"/>
<path d="M2718 603 c7 -3 16 -2 19 1 4 3 -2 6 -13 5 -11 0 -14 -3 -6 -6z"/>
<path d="M3420 604 c-8 -2 -49 -8 -90 -14 l-75 -9 88 5 c49 3 98 9 110 14 20
8 20 9 2 8 -11 0 -27 -2 -35 -4z"/>
<path d="M3580 600 l-25 -8 25 0 c14 0 34 3 45 8 l20 9 -20 -1 c-11 0 -31 -4
-45 -8z"/>
<path d="M2763 593 c9 -2 23 -2 30 0 6 3 -1 5 -18 5 -16 0 -22 -2 -12 -5z"/>
<path d="M2838 583 c18 -2 45 -2 60 0 15 2 0 4 -33 4 -33 0 -45 -2 -27 -4z"/>
<path d="M3425 575 c-33 -7 -49 -13 -35 -13 14 -1 54 5 90 12 36 8 52 14 35
14 -16 -1 -57 -6 -90 -13z"/>
<path d="M3008 573 c46 -2 118 -2 160 0 42 1 5 3 -83 3 -88 0 -123 -2 -77 -3z"/>
<path d="M2718 563 c6 -2 18 -2 25 0 6 3 1 5 -13 5 -14 0 -19 -2 -12 -5z"/>
<path d="M2760 561 c0 -14 190 -23 360 -18 85 3 172 6 192 6 20 0 39 5 42 10
4 6 -14 7 -51 3 -75 -9 -468 -9 -510 0 -18 4 -33 4 -33 -1z"/>
<path d="M2190 5520 c-9 -6 -10 -10 -3 -10 6 0 15 5 18 10 8 12 4 12 -15 0z"/>
<path d="M1880 5389 c0 -5 5 -7 10 -4 6 3 10 8 10 11 0 2 -4 4 -10 4 -5 0 -10
-5 -10 -11z"/>
<path d="M1715 5300 c-3 -5 1 -10 9 -10 8 0 18 5 21 10 3 6 -1 10 -9 10 -8 0
-18 -4 -21 -10z"/>
<path d="M960 4649 c0 -5 5 -7 10 -4 6 3 10 8 10 11 0 2 -4 4 -10 4 -5 0 -10
-5 -10 -11z"/>
<path d="M771 4374 c0 -11 3 -14 6 -6 3 7 2 16 -1 19 -3 4 -6 -2 -5 -13z"/>
<path d="M5290 4299 c0 -5 5 -7 10 -4 6 3 10 8 10 11 0 2 -4 4 -10 4 -5 0 -10
-5 -10 -11z"/>
<path d="M5440 4241 c0 -6 4 -13 10 -16 6 -3 7 1 4 9 -7 18 -14 21 -14 7z"/>
<path d="M515 3739 c-4 -6 -5 -12 -2 -15 2 -3 7 2 10 11 7 17 1 20 -8 4z"/>
<path d="M361 3564 c0 -11 3 -14 6 -6 3 7 2 16 -1 19 -3 4 -6 -2 -5 -13z"/>
<path d="M486 2475 c-3 -9 -6 -22 -5 -28 0 -7 5 -1 10 12 5 13 8 26 5 28 -2 2
-6 -3 -10 -12z"/>
<path d="M471 2364 c0 -11 3 -14 6 -6 3 7 2 16 -1 19 -3 4 -6 -2 -5 -13z"/>
<path d="M571 2204 c0 -11 3 -14 6 -6 3 7 2 16 -1 19 -3 4 -6 -2 -5 -13z"/>
<path d="M5416 2075 c-3 -8 -1 -15 4 -15 6 0 10 7 10 15 0 8 -2 15 -4 15 -2 0
-6 -7 -10 -15z"/>
<path d="M1040 1370 c0 -5 5 -10 11 -10 5 0 7 5 4 10 -3 6 -8 10 -11 10 -2 0
-4 -4 -4 -10z"/>
<path d="M1150 1250 c0 -5 5 -10 11 -10 5 0 7 5 4 10 -3 6 -8 10 -11 10 -2 0
-4 -4 -4 -10z"/>
<path d="M1240 1160 c0 -5 5 -10 11 -10 5 0 7 5 4 10 -3 6 -8 10 -11 10 -2 0
-4 -4 -4 -10z"/>
<path d="M1147 1119 c7 -7 15 -10 18 -7 3 3 -2 9 -12 12 -14 6 -15 5 -6 -5z"/>
<path d="M1310 1059 c0 -5 5 -7 10 -4 6 3 10 8 10 11 0 2 -4 4 -10 4 -5 0 -10
-5 -10 -11z"/>
<path d="M4075 660 c-3 -5 -1 -10 4 -10 6 0 11 5 11 10 0 6 -2 10 -4 10 -3 0
-8 -4 -11 -10z"/>
<path d="M2713 489 c14 -8 22 -8 30 0 8 8 3 11 -18 11 -26 -1 -28 -2 -12 -11z"/>
<path d="M3148 473 c6 -2 18 -2 25 0 6 3 1 5 -13 5 -14 0 -19 -2 -12 -5z"/>
</g>
</svg>
