<?xml version="1.0" standalone="no"?>
<!DOCTYPE svg PUBLIC "-//W3C//DTD SVG 20010904//EN"
 "http://www.w3.org/TR/2001/REC-SVG-20010904/DTD/svg10.dtd">
<svg version="1.0" xmlns="http://www.w3.org/2000/svg"
 width="600.000000pt" height="600.000000pt" viewBox="0 0 600.000000 600.000000"
 preserveAspectRatio="xMidYMid meet">
<g transform="translate(0.000000,600.000000) scale(0.100000,-0.100000)"
fill="#000000" stroke="none">
<path d="M2890 5794 c-453 -38 -765 -121 -1115 -298 -594 -301 -1067 -822
-1329 -1464 -25 -59 -54 -138 -66 -177 -12 -38 -39 -106 -60 -150 -69 -145
-97 -304 -79 -445 6 -47 13 -157 14 -245 2 -88 8 -216 15 -285 7 -69 12 -144
11 -167 -3 -58 42 -318 85 -492 36 -147 74 -256 115 -326 27 -47 115 -162 133
-172 6 -5 40 -51 75 -103 107 -159 206 -278 370 -440 264 -263 523 -440 853
-584 631 -275 1291 -307 1948 -94 313 101 646 282 880 476 535 445 837 957
954 1622 20 113 26 130 60 174 57 74 86 140 103 230 28 147 2 244 -84 315
l-38 31 0 133 c0 122 -2 136 -26 187 -15 30 -39 107 -54 170 -245 1028 -1071
1838 -2090 2049 -195 40 -526 67 -675 55z m193 -31 c-7 -2 -19 -2 -25 0 -7 3
-2 5 12 5 14 0 19 -2 13 -5z m-226 -9 c-3 -3 -12 -4 -19 -1 -8 3 -5 6 6 6 11
1 17 -2 13 -5z m-210 -20 c-3 -3 -12 -4 -19 -1 -8 3 -5 6 6 6 11 1 17 -2 13
-5z m729 -19 c568 -84 1075 -335 1484 -736 337 -330 589 -752 709 -1189 18
-63 36 -125 41 -137 11 -28 13 -28 -35 -3 -22 11 -56 20 -76 20 -33 0 -37 3
-43 31 -3 17 -6 92 -6 165 0 108 -4 144 -19 184 -28 73 -63 114 -122 144 -46
23 -56 34 -104 119 -170 301 -412 576 -690 782 -151 112 -237 165 -395 244
-332 166 -640 244 -1015 257 -791 29 -1559 -320 -2066 -939 -145 -177 -293
-414 -374 -598 -27 -62 -32 -68 -80 -88 -29 -12 -71 -37 -93 -56 -49 -42 -57
-44 -38 -7 7 15 27 61 44 102 194 484 535 922 950 1218 403 289 834 450 1337
502 126 12 460 4 591 -15z m-813 8 c-7 -2 -19 -2 -25 0 -7 3 -2 5 12 5 14 0
19 -2 13 -5z m1039 -25 c-4 -4 -21 -3 -37 1 -30 9 -30 9 7 8 20 -1 34 -5 30
-9z m106 -23 c4 -3 -9 -3 -28 0 -45 8 -55 18 -12 12 19 -3 37 -8 40 -12z
m-1428 -15 c-8 -5 -19 -10 -25 -10 -5 0 -3 5 5 10 8 5 20 10 25 10 6 0 3 -5
-5 -10z m-50 -15 c-7 -9 -15 -13 -19 -10 -3 3 1 10 9 15 21 14 24 12 10 -5z
m-185 -65 c-3 -5 -16 -10 -28 -9 -20 1 -20 2 3 9 14 4 26 8 28 9 2 1 0 -3 -3
-9z m1965 -5 c17 -9 30 -18 30 -21 0 -2 -12 2 -27 9 -16 8 -35 17 -43 20 -10
4 -11 6 -2 6 7 1 26 -6 42 -14z m-758 -9 c7 -3 47 -7 88 -11 71 -6 182 -28
299 -60 29 -8 58 -12 62 -9 5 3 9 1 9 -3 0 -9 89 -39 103 -35 4 1 7 -3 7 -9 0
-6 6 -9 14 -6 8 3 16 2 18 -3 2 -6 15 -11 31 -12 15 -1 27 -5 27 -9 0 -3 19
-12 43 -19 23 -8 47 -17 53 -22 6 -4 14 -5 17 -1 4 3 7 1 7 -6 0 -7 5 -9 10
-6 6 3 10 1 10 -4 0 -6 7 -11 15 -11 8 0 15 -5 15 -12 0 -6 3 -9 6 -5 7 7 106
-40 115 -55 3 -5 10 -10 15 -10 19 0 84 -45 77 -53 -5 -4 -3 -5 4 -1 11 6 74
-31 147 -87 16 -12 42 -28 58 -36 15 -7 26 -16 24 -20 -2 -3 2 -12 10 -19 8
-7 14 -10 14 -7 0 3 36 -25 81 -61 70 -59 78 -68 62 -77 -48 -25 -46 -69 4
-102 13 -9 21 -20 18 -25 -5 -9 14 -14 36 -12 4 1 12 -12 19 -28 7 -17 15 -30
19 -30 4 0 12 -13 18 -30 6 -16 7 -30 2 -30 -5 0 -11 11 -15 24 -3 14 -17 32
-30 41 -13 8 -24 22 -24 31 0 8 -4 13 -8 10 -5 -3 -19 5 -33 17 -50 47 -118
70 -217 75 -55 3 -97 0 -105 -6 -6 -5 -31 -15 -54 -21 -23 -6 -48 -17 -55 -24
-7 -6 -25 -18 -39 -25 -14 -8 -47 -34 -74 -58 -26 -25 -49 -43 -51 -41 -2 2 5
22 15 44 38 77 49 211 27 311 -3 13 -16 48 -30 78 -14 30 -23 54 -20 54 3 0
-4 13 -15 29 -123 173 -332 261 -522 220 -60 -13 -176 -71 -201 -101 -10 -11
-18 -17 -18 -13 0 3 -12 -8 -27 -26 -43 -52 -67 -74 -76 -71 -5 1 -6 -2 -3 -7
4 -5 -7 -36 -23 -68 -49 -95 -69 -247 -47 -348 12 -54 40 -135 46 -135 3 0 6
-10 7 -22 1 -19 -2 -17 -15 10 -17 34 -42 41 -62 17 -21 -25 -30 -17 -30 28 0
23 -7 69 -15 100 -8 32 -15 67 -15 78 0 11 -7 22 -15 25 -8 4 -12 10 -9 15 3
5 0 9 -6 9 -6 0 -8 5 -5 10 3 6 2 10 -3 10 -4 0 -18 18 -30 39 -13 22 -35 50
-50 63 -16 13 -26 30 -24 37 3 8 0 11 -7 7 -6 -4 -11 0 -11 9 0 9 -4 13 -10
10 -5 -3 -10 -1 -10 4 0 6 8 11 19 11 20 0 44 23 47 45 1 7 -6 22 -16 33 -11
11 -17 23 -14 26 2 3 1 4 -3 1 -3 -3 -11 -1 -17 4 -29 22 -52 18 -65 -10 -7
-16 -19 -29 -27 -29 -8 0 -14 -5 -14 -11 0 -6 9 -8 20 -4 13 4 20 2 20 -7 0
-7 9 -19 20 -26 11 -7 20 -17 20 -22 0 -5 -24 5 -52 23 -29 18 -65 39 -80 46
-16 8 -28 19 -28 24 0 5 7 4 15 -3 8 -6 19 -9 25 -5 5 3 10 0 10 -7 1 -17 40
30 40 48 0 23 -22 63 -39 70 -9 3 -27 8 -41 10 -14 2 -37 7 -50 12 -30 11 -67
-3 -75 -30 -8 -23 3 -60 16 -53 5 4 9 1 9 -5 0 -6 10 -15 23 -20 16 -6 17 -9
5 -9 -9 -1 -19 3 -22 7 -7 11 -166 5 -232 -8 -29 -6 -71 -20 -94 -31 -35 -17
-44 -18 -58 -7 -15 12 -16 11 -3 -4 12 -16 10 -19 -15 -29 -16 -7 -33 -11 -37
-10 -5 1 -6 -3 -3 -8 4 -5 -2 -12 -12 -15 -17 -6 -85 -80 -109 -121 -31 -50
-63 -123 -69 -152 -9 -46 -19 -41 -20 10 -1 23 -5 68 -9 100 -6 41 -5 57 4 57
6 0 11 8 11 18 0 9 7 26 15 36 8 11 15 28 15 39 0 10 4 16 9 12 5 -3 9 8 9 24
-1 17 -5 28 -9 25 -5 -3 -11 6 -15 20 -8 34 -61 79 -93 78 -14 0 -31 4 -36 9
-19 14 -56 7 -50 -10 3 -9 3 -12 -1 -9 -4 4 -16 2 -28 -4 -11 -7 -24 -11 -28
-10 -5 1 -8 -3 -8 -8 0 -5 -3 -9 -8 -7 -12 4 -57 -47 -54 -61 2 -8 -1 -11 -7
-7 -10 6 -15 -14 -14 -52 1 -7 -3 -10 -8 -7 -11 6 -12 -89 -1 -100 4 -4 7 -20
7 -34 0 -16 5 -26 12 -25 7 2 15 -8 19 -21 3 -13 26 -38 50 -56 26 -19 42 -36
38 -43 -4 -7 -4 -9 1 -5 7 7 69 -12 108 -33 10 -5 23 -7 29 -3 7 5 8 2 3 -7
-5 -8 1 -5 13 5 21 18 27 15 22 -9 -1 -5 -2 -30 -2 -55 0 -25 -3 -39 -5 -32
-8 21 -53 62 -68 62 -8 0 -15 5 -15 10 0 6 -7 10 -16 10 -9 0 -12 5 -8 12 4 7
3 8 -5 4 -6 -4 -23 0 -37 9 -14 9 -32 14 -40 11 -9 -3 -12 -1 -9 4 7 12 13 11
-100 11 -97 0 -137 -3 -145 -11 -11 -11 -70 -50 -75 -50 -3 0 -3 6 0 13 4 6
-2 3 -12 -8 -10 -12 -30 -27 -46 -35 -20 -10 -24 -16 -15 -22 12 -7 4 -12 -15
-9 -4 0 -6 -3 -5 -8 2 -5 -9 -22 -24 -39 -14 -17 -24 -33 -21 -36 4 -3 2 -6
-3 -6 -18 0 -50 -91 -60 -167 -4 -30 8 -128 21 -183 6 -24 5 -23 -22 7 -29 33
-137 88 -154 78 -5 -4 -9 -2 -9 3 0 21 -144 -17 -162 -43 -4 -5 -8 -7 -8 -3 0
26 -73 -80 -75 -109 -1 -23 -14 -25 -40 -5 -31 25 -45 21 -68 -17 -16 -27 -16
-29 8 -51 28 -26 50 -21 67 15 17 39 25 30 24 -29 -1 -30 2 -52 6 -50 8 5 22
-36 14 -43 -3 -4 -6 2 -6 13 0 12 -3 15 -8 8 -4 -6 -36 -13 -72 -14 -98 -3
-100 -4 -100 -11 0 -4 -15 -11 -32 -14 -18 -4 -45 -16 -60 -27 -16 -11 -28
-16 -28 -12 0 4 -10 -2 -23 -13 -12 -11 -30 -23 -40 -26 -10 -4 -16 -11 -13
-15 3 -5 -6 -15 -19 -22 -14 -7 -25 -16 -25 -20 0 -4 -9 -18 -20 -31 -12 -12
-30 -38 -41 -56 -11 -18 -23 -33 -26 -33 -3 0 2 11 11 25 9 14 14 25 11 25 -3
0 2 16 10 36 8 20 15 42 15 50 0 7 5 25 11 41 l10 28 17 -28 c9 -15 20 -27 25
-27 4 0 6 4 3 9 -6 8 75 71 97 75 7 1 26 10 43 19 17 9 34 14 37 11 2 -3 11 9
18 25 8 17 18 31 22 31 5 0 5 4 2 10 -3 5 4 29 17 52 12 24 21 50 19 58 -2 8
0 12 5 8 4 -4 24 27 45 69 22 42 44 81 49 88 5 6 6 16 2 20 -4 5 -2 5 5 1 7
-3 14 2 18 14 3 11 11 20 16 20 6 0 7 5 4 10 -4 6 10 31 30 55 20 25 33 45 29
45 -4 0 7 16 26 35 19 19 31 35 27 35 -4 0 1 10 13 22 11 12 20 26 20 30 0 5
4 6 10 3 5 -3 10 -1 10 4 0 13 65 99 90 121 10 8 27 21 37 28 10 7 11 10 3 6
-16 -7 13 26 69 79 19 17 50 47 68 65 19 17 36 32 39 32 4 0 15 11 26 25 11
14 24 23 29 20 5 -4 9 0 9 7 0 8 12 21 27 31 16 9 45 32 67 52 21 19 43 35 50
35 6 0 23 11 38 25 15 14 30 25 34 25 4 0 17 8 28 19 12 10 46 31 76 47 30 16
62 35 71 42 8 7 53 30 100 51 46 21 104 47 129 59 25 11 58 24 73 27 15 4 27
12 27 17 0 6 8 8 18 6 10 -3 23 0 29 7 14 15 165 57 209 58 18 1 31 4 29 7 -6
9 55 27 133 39 34 5 66 12 71 15 4 3 39 8 77 11 38 3 105 10 149 15 75 8 388
5 417 -4z m-1267 -6 c-3 -5 -11 -10 -16 -10 -6 0 -7 5 -4 10 3 6 11 10 16 10
6 0 7 -4 4 -10z m-155 -74 c-15 -14 -100 -53 -87 -39 8 7 88 51 97 52 2 1 -2
-5 -10 -13z m2376 -2 c18 -14 18 -14 -6 -3 -31 14 -36 19 -24 19 6 0 19 -7 30
-16z m94 -46 c0 -4 -4 -8 -9 -8 -6 0 -12 4 -15 8 -3 5 1 9 9 9 8 0 15 -4 15
-9z m-2585 -17 c-6 -5 -21 -11 -35 -15 -21 -5 -20 -3 5 9 35 17 42 18 30 6z
m2615 -6 c11 -13 10 -14 -4 -9 -9 3 -16 10 -16 15 0 13 6 11 20 -6z m-2690
-35 c0 -5 -7 -10 -16 -10 -8 0 -12 5 -9 10 3 6 10 10 16 10 5 0 9 -4 9 -10z
m2129 -11 c125 -28 262 -141 320 -264 90 -189 43 -416 -117 -572 -101 -99
-253 -163 -385 -163 -47 0 -58 -3 -54 -14 3 -8 9 -31 13 -51 l7 -37 -44 4 -44
3 -3 -42 c-2 -32 -7 -41 -18 -36 -19 7 -18 53 3 82 9 14 12 21 6 18 -13 -8
-73 11 -73 23 0 9 52 55 72 63 10 4 8 9 -5 17 -101 64 -196 183 -238 298 -33
93 -33 259 0 345 56 143 134 233 253 291 103 51 190 61 307 35z m666 -9 c3 -6
-1 -7 -9 -4 -18 7 -21 14 -7 14 6 0 13 -4 16 -10z m73 -54 c57 -34 83 -54 74
-60 -5 -3 -17 3 -27 14 -10 11 -38 31 -61 45 -24 14 -44 31 -44 37 0 6 9 3 20
-7 11 -10 28 -23 38 -29z m-1758 -44 c35 -14 56 -40 43 -53 -8 -8 -29 -6 -69
6 -33 10 -65 19 -71 21 -7 2 -13 12 -13 23 0 11 6 21 13 24 13 4 58 -5 97 -21z
m-1295 -2 c-10 -11 -21 -17 -24 -14 -3 3 3 12 13 20 28 20 32 17 11 -6z m432
-26 c-3 -3 -12 -4 -19 -1 -8 3 -5 6 6 6 11 1 17 -2 13 -5z m-527 -39 c-7 -9
-15 -13 -19 -10 -3 3 1 10 9 15 21 14 24 12 10 -5z m594 5 c62 -23 81 -110 37
-166 -30 -39 -41 -87 -29 -131 5 -21 13 -41 17 -46 9 -9 -11 -97 -22 -97 -4 0
-41 16 -82 35 -93 44 -149 104 -164 176 -27 123 59 239 176 239 23 0 53 -4 67
-10z m2728 -15 c16 -14 26 -25 21 -25 -11 1 -70 50 -59 50 4 0 21 -11 38 -25z
m-1765 -17 c21 -20 32 -58 17 -58 -12 0 -74 41 -74 49 0 8 21 31 29 31 3 0 15
-10 28 -22z m-264 -3 c181 -38 343 -181 409 -361 26 -72 31 -241 9 -316 -13
-47 -14 -48 -56 -48 -79 0 -148 -71 -148 -153 0 -34 6 -46 34 -70 19 -16 27
-26 19 -21 -13 7 -13 5 -1 -9 7 -9 17 -15 21 -12 4 3 13 -1 19 -9 7 -8 27 -17
47 -20 19 -4 32 -11 30 -15 -6 -9 -86 9 -86 19 0 5 -69 4 -162 -3 -27 -2 -48
-3 -48 -1 0 2 19 8 42 15 46 12 98 44 98 60 0 5 -19 -1 -42 -15 -32 -18 -70
-27 -147 -36 -58 -6 -122 -19 -143 -27 -36 -14 -46 -14 -116 1 -118 27 -169
53 -248 131 -112 110 -164 232 -164 385 0 264 166 455 445 514 43 8 123 5 188
-9z m-1354 -18 c-2 -1 -15 -11 -29 -22 l-25 -20 19 23 c11 12 24 22 29 22 6 0
8 -1 6 -3z m3581 -155 c0 -10 -51 42 -72 73 -12 18 -2 10 26 -19 25 -26 46
-51 46 -54z m-3790 -46 c0 -2 -8 -10 -17 -17 -16 -13 -17 -12 -4 4 13 16 21
21 21 13z m3854 -12 c5 -14 4 -15 -9 -4 -17 14 -19 20 -6 20 5 0 12 -7 15 -16z
m30 -30 c3 -8 2 -12 -4 -9 -6 3 -10 10 -10 16 0 14 7 11 14 -7z m36 -34 c6
-11 8 -20 6 -20 -3 0 -10 9 -16 20 -6 11 -8 20 -6 20 3 0 10 -9 16 -20z m-183
-75 c64 -73 92 -145 68 -169 -22 -22 -30 -15 -60 49 -27 57 -54 89 -120 142
-38 31 -39 33 -21 48 17 13 23 12 59 -8 22 -12 55 -40 74 -62z m-3843 34 c-20
-23 -36 -25 -28 -4 4 8 12 15 20 15 8 0 13 3 13 8 -3 16 3 26 8 14 3 -7 -3
-22 -13 -33z m3605 -36 c28 -9 63 -28 78 -42 15 -14 23 -19 18 -11 -4 8 13 -5
39 -30 134 -129 104 -358 -56 -424 -75 -32 -153 -10 -195 53 -27 40 -29 82 -6
122 33 55 116 59 141 5 l11 -21 0 23 c1 12 -2 22 -6 22 -5 0 -19 17 -33 37
-13 20 -39 42 -57 49 -37 16 -151 18 -173 4 -10 -6 10 -7 58 -3 58 5 80 2 112
-12 72 -32 47 -50 -66 -47 -101 3 -168 -19 -241 -80 -50 -42 -144 -170 -158
-217 -7 -22 -11 -23 -65 -18 -108 9 -264 -39 -321 -99 l-22 -24 -24 27 -25 26
22 51 c11 27 34 71 51 97 24 39 36 48 68 53 21 3 76 25 122 48 64 32 102 60
159 118 41 41 84 93 95 115 23 47 49 72 128 121 117 73 237 93 346 57z m-3639
3 c0 -2 -7 -9 -15 -16 -13 -11 -14 -10 -9 4 5 14 24 23 24 12z m4127 -18 c-3
-8 -6 -5 -6 6 -1 11 2 17 5 13 3 -3 4 -12 1 -19z m20 -30 c-3 -8 -6 -5 -6 6
-1 11 2 17 5 13 3 -3 4 -12 1 -19z m-4192 -8 c-10 -11 -21 -17 -24 -14 -3 3 3
12 13 20 28 20 32 17 11 -6z m876 6 c57 -18 103 -40 147 -73 24 -18 32 -32 32
-56 0 -53 28 -146 66 -225 40 -81 140 -196 198 -227 20 -11 36 -22 36 -25 -1
-3 -20 -14 -43 -25 -23 -11 -56 -39 -73 -62 l-32 -41 -33 34 c-19 19 -55 41
-86 51 l-54 18 28 37 c15 20 40 43 55 52 28 17 42 21 34 8 -2 -4 12 -6 32 -3
33 5 34 6 10 9 -16 2 -28 6 -28 10 0 4 -16 7 -35 8 -19 0 -35 -3 -35 -8 0 -5
6 -6 13 -2 6 4 -7 -9 -29 -29 -23 -20 -44 -47 -48 -60 -5 -21 -13 -25 -59 -30
-73 -7 -148 -47 -185 -98 -17 -23 -33 -46 -34 -50 -2 -5 -25 3 -53 16 -27 14
-72 29 -100 34 -42 8 -58 18 -101 64 -54 58 -88 121 -103 189 -11 51 -5 179
10 228 21 67 117 190 142 182 4 -1 6 4 5 11 -2 6 5 11 14 11 10 -1 15 3 11 9
-4 6 0 8 10 4 10 -4 16 -2 14 5 -3 17 100 46 168 47 33 0 81 -6 106 -13z
m-911 -50 c0 -2 -8 -10 -17 -17 -16 -13 -17 -12 -4 4 13 16 21 21 21 13z m-48
-59 c-12 -13 -22 -29 -22 -35 0 -7 -5 -12 -11 -12 -5 0 -7 6 -3 13 10 17 46
57 52 57 3 0 -4 -10 -16 -23z m4148 -22 c0 -6 18 -29 40 -50 22 -21 40 -45 40
-52 0 -7 5 -13 10 -13 6 0 10 -6 10 -14 0 -7 7 -20 16 -27 24 -20 69 -94 142
-232 8 -16 27 -33 43 -39 17 -6 26 -15 22 -21 -4 -7 0 -8 11 -4 10 4 15 3 11
-3 -3 -6 1 -10 10 -10 20 0 54 -38 54 -60 0 -9 -10 -3 -27 17 -57 66 -174 94
-253 60 -37 -16 -123 -102 -115 -115 2 -4 -4 -19 -14 -32 l-19 -25 -7 33 c-4
17 -10 32 -15 32 -5 0 -9 7 -9 15 0 8 -7 15 -15 15 -8 0 -14 5 -13 11 2 6 -5
13 -14 14 -10 2 -29 13 -44 24 l-27 21 26 0 c21 0 25 -4 20 -17 -4 -11 -3 -14
5 -9 7 4 22 0 34 -8 30 -21 65 -20 77 1 9 17 11 16 30 -1 12 -11 21 -16 21
-13 0 17 -3 22 -11 19 -15 -4 -10 25 7 39 21 18 55 85 69 139 12 46 7 77 -22
133 -8 15 -11 27 -7 27 3 0 1 7 -6 15 -7 9 -15 13 -17 11 -8 -7 -42 27 -37 36
3 4 -4 8 -16 8 -12 0 -18 5 -15 10 3 6 1 10 -4 10 -6 0 -11 -5 -11 -11 0 -11
-25 -8 -63 7 -8 3 -24 -4 -35 -16 l-19 -21 -7 40 c-3 21 -8 46 -11 53 -4 9 0
15 9 15 8 0 13 -4 10 -8 -6 -10 31 -31 40 -22 3 3 6 1 6 -7 0 -19 28 6 46 43
15 27 16 28 29 10 8 -10 15 -23 15 -28z m224 29 c3 -8 2 -12 -4 -9 -6 3 -10
10 -10 16 0 14 7 11 14 -7z m-1094 -7 c0 -2 -9 -14 -20 -27 -11 -13 -20 -29
-20 -37 0 -8 -4 -12 -9 -9 -4 3 -13 -6 -19 -19 -7 -14 -17 -25 -24 -25 -9 0
-8 3 2 10 8 5 11 10 5 10 -6 0 -6 3 0 8 6 4 25 26 44 50 29 38 41 49 41 39z
m-795 -191 c40 -40 64 -71 57 -74 -16 -5 -40 -54 -35 -70 3 -7 22 -21 43 -32
29 -15 37 -24 33 -39 -4 -17 -14 -19 -88 -20 l-83 -1 -7 37 c-10 54 -50 128
-84 155 l-30 23 14 55 c8 30 15 74 15 97 0 31 4 42 18 45 12 3 25 -12 47 -52
17 -30 61 -86 100 -124z m-2534 111 c-10 -9 -11 -8 -5 6 3 10 9 15 12 12 3 -3
0 -11 -7 -18z m1248 -64 c11 -29 18 -53 15 -53 -6 0 -44 88 -44 102 0 18 7 6
29 -49z m2955 13 c77 -45 108 -144 76 -241 -7 -22 -36 -63 -63 -92 -50 -53
-50 -53 -71 -34 -42 38 -89 54 -161 55 -59 0 -78 -4 -122 -28 -29 -16 -60 -40
-68 -53 l-16 -24 -31 31 c-30 31 -108 76 -108 64 0 -4 -3 -4 -7 -1 -3 4 13 24
36 46 l42 39 36 -19 c70 -36 181 -17 241 40 l22 22 27 -20 c71 -56 155 15 96
82 -9 9 -19 17 -23 17 -13 0 -61 -42 -56 -48 3 -3 14 2 24 12 33 29 73 -5 52
-45 -13 -24 -51 -25 -80 -1 l-21 17 25 50 c15 28 29 74 33 103 6 52 6 52 41
52 19 0 54 -11 76 -24z m320 -18 c9 -17 16 -34 16 -37 0 -8 -26 32 -33 52 -10
28 0 19 17 -15z m-1304 12 c-8 -5 -11 -10 -6 -10 6 0 -10 -13 -35 -28 -67 -42
-69 -44 -69 -38 0 3 19 18 43 33 23 15 46 33 50 40 4 7 13 13 20 13 7 0 6 -4
-3 -10z m433 -51 c-17 -34 -13 -82 11 -130 8 -16 12 -37 9 -45 -10 -27 -87
-71 -138 -78 -27 -4 -69 -18 -92 -31 -24 -13 -45 -19 -48 -15 -3 5 -24 15 -45
21 -22 7 -40 13 -40 14 0 10 61 109 89 147 57 74 178 146 248 148 21 0 21 -1
6 -31z m-3723 11 c0 -5 -5 -10 -11 -10 -5 0 -7 5 -4 10 3 6 8 10 11 10 2 0 4
-4 4 -10z m2395 -19 c3 -16 -1 -21 -18 -21 -19 1 -20 2 -6 13 9 7 14 19 11 27
-3 8 -2 12 2 9 4 -4 8 -16 11 -28z m265 -11 c0 -5 -2 -10 -4 -10 -3 0 -8 5
-11 10 -3 6 -1 10 4 10 6 0 11 -4 11 -10z m-2680 -14 c0 -3 -4 -8 -10 -11 -5
-3 -10 -1 -10 4 0 6 5 11 10 11 6 0 10 -2 10 -4z m2730 -11 c0 -2 -7 -5 -15
-9 -9 -3 -15 0 -15 9 0 9 6 12 15 9 8 -4 15 -7 15 -9z m470 0 c0 -2 -9 -3 -19
-2 -11 0 -18 5 -15 9 4 6 34 0 34 -7z m931 -12 c-12 -20 -14 -14 -5 12 4 9 9
14 11 11 3 -2 0 -13 -6 -23z m-1721 -13 c42 -21 71 -57 88 -109 18 -52 15 -59
-30 -66 -24 -4 -62 -15 -86 -26 -43 -18 -44 -18 -81 1 -48 24 -71 59 -71 107
1 42 16 67 57 95 36 23 74 23 123 -2z m740 16 c0 -3 -4 -8 -10 -11 -5 -3 -10
-1 -10 4 0 6 5 11 10 11 6 0 10 -2 10 -4z m-3177 -21 c-3 -9 -8 -14 -10 -11
-3 3 -2 9 2 15 9 16 15 13 8 -4z m3114 -11 c-3 -3 -12 -4 -19 -1 -8 3 -5 6 6
6 11 1 17 -2 13 -5z m-90 -38 c-14 -13 -28 -33 -32 -44 -3 -12 -11 -22 -16
-22 -5 0 -9 -9 -9 -20 0 -11 -4 -20 -9 -20 -8 0 -25 -53 -24 -77 0 -7 -3 -10
-8 -7 -18 11 -8 -10 15 -31 14 -13 22 -25 19 -28 -4 -5 -55 25 -73 43 -8 8
-69 41 -75 40 -25 -2 -27 3 -8 18 12 9 23 28 25 42 2 21 9 26 40 28 39 3 55
25 44 60 -9 29 7 41 64 44 71 4 76 1 47 -26z m-316 -9 c-10 -9 -11 -8 -5 6 3
10 9 15 12 12 3 -3 0 -11 -7 -18z m2033 7 c3 -8 2 -12 -4 -9 -6 3 -10 10 -10
16 0 14 7 11 14 -7z m-4774 -4 c0 -5 -2 -10 -4 -10 -3 0 -8 5 -11 10 -3 6 -1
10 4 10 6 0 11 -4 11 -10z m558 -59 c44 -23 81 -62 107 -114 23 -43 99 -131
91 -103 -6 17 -4 16 16 -3 13 -12 32 -27 43 -35 11 -8 18 -16 15 -19 -10 -9
-140 -14 -140 -6 0 5 3 8 8 8 4 -1 22 -1 41 0 28 1 31 3 22 15 -15 17 -63 12
-136 -15 -62 -23 -58 -24 -51 7 9 33 -26 106 -57 123 -59 32 -138 -15 -123
-73 8 -31 43 -53 59 -37 8 8 6 11 -6 11 -24 0 -40 35 -27 59 31 60 130 13 130
-61 0 -43 -16 -74 -50 -95 -40 -25 -86 -21 -159 14 -44 22 -57 35 -73 71 -22
48 -18 123 8 173 18 36 79 88 112 95 15 3 32 7 37 10 21 8 97 -6 133 -25z
m1027 -41 c11 -18 -2 -10 -36 21 l-34 31 32 -21 c18 -12 35 -26 38 -31z m3223
25 c-3 -3 -9 2 -12 12 -6 14 -5 15 5 6 7 -7 10 -15 7 -18z m-4882 -63 c-17
-16 -18 -16 -5 5 7 12 15 20 18 17 3 -2 -3 -12 -13 -22z m2743 5 c21 3 41 1
44 -3 7 -12 -94 -12 -112 0 -9 6 -12 5 -8 -1 4 -6 1 -13 -7 -16 -22 -9 -28 5
-10 24 14 16 19 17 36 5 12 -9 34 -12 57 -9z m-1019 -9 c19 -12 44 -23 54 -25
28 -5 33 -13 16 -24 -11 -7 -6 -8 14 -3 21 5 27 4 22 -5 -4 -6 -31 -11 -60
-11 -28 0 -57 -5 -63 -11 -8 -8 -13 -7 -18 2 -5 7 -4 10 3 5 6 -3 21 8 33 26
13 17 18 28 11 24 -7 -4 -12 -3 -12 2 0 5 -15 17 -32 26 -18 8 -26 16 -18 16
8 0 31 -10 50 -22z m1154 1 c5 -4 -7 -6 -25 -4 -52 4 -56 7 -24 14 17 4 32 5
35 2 3 -3 9 -9 14 -12z m-273 -6 c13 -16 12 -17 -3 -4 -17 13 -22 21 -14 21 2
0 10 -8 17 -17z m1277 -18 c-2 -2 -25 -1 -52 2 -45 5 -47 7 -26 18 18 10 28 9
52 -2 16 -9 28 -16 26 -18z m1040 10 c-3 -3 -9 2 -12 12 -6 14 -5 15 5 6 7 -7
10 -15 7 -18z m-1570 4 c-2 -6 -21 -13 -42 -15 -21 -2 -43 -8 -50 -13 -11 -9
-17 -11 -34 -11 -5 0 -18 -9 -30 -20 -12 -12 -22 -17 -22 -13 0 4 -4 3 -8 -2
-14 -21 -72 -56 -82 -50 -18 11 -10 25 15 25 13 0 32 8 42 18 45 46 222 114
211 81z m191 -10 c20 -10 41 -19 47 -19 7 0 15 -7 18 -16 6 -15 8 -15 26 1 11
10 23 15 26 12 4 -3 13 0 21 8 8 8 20 15 26 15 7 -1 2 -9 -11 -20 -13 -11 -30
-16 -39 -13 -10 4 -14 2 -9 -5 16 -26 -20 -21 -83 11 -45 23 -76 33 -93 30
-15 -3 -33 -1 -41 4 -34 19 76 11 112 -8z m226 11 c4 -6 -6 -10 -22 -9 -25 0
-26 1 -8 9 11 5 21 9 22 9 1 1 5 -3 8 -9z m485 0 c0 -5 -2 -10 -4 -10 -3 0 -8
5 -11 10 -3 6 -1 10 4 10 6 0 11 -4 11 -10z m-1680 -9 c-25 -14 -76 -24 -65
-13 10 10 38 19 65 21 13 0 13 -1 0 -8z m-400 -10 c0 -7 -49 -20 -100 -26 -8
-1 -17 -3 -20 -4 -3 -1 -16 -5 -30 -7 -13 -2 -27 -8 -30 -12 -3 -4 -14 -15
-26 -24 -20 -17 -21 -17 -45 8 l-24 26 40 -3 c24 -1 54 5 75 16 19 10 50 18
67 17 18 -1 43 3 55 8 30 12 38 12 38 1z m1980 2 c-65 -22 -138 -81 -122 -99
4 -4 1 -4 -5 0 -8 4 -13 1 -13 -7 0 -8 -8 -21 -17 -28 -10 -7 -15 -10 -11 -5
4 5 -4 25 -18 45 -16 23 -20 37 -12 40 6 2 17 -4 23 -13 17 -23 28 -20 53 14
13 17 27 30 33 30 6 0 17 7 25 15 9 8 30 15 47 14 18 0 25 -3 17 -6z m546 -8
c27 -8 61 -27 75 -42 49 -53 52 -76 44 -292 l-7 -198 81 -6 c129 -10 189 -52
210 -149 25 -110 -34 -220 -132 -248 -57 -15 -386 3 -428 24 -25 13 -32 12
-66 -6 -28 -14 -52 -18 -91 -15 -64 5 -100 28 -127 85 -18 37 -24 41 -56 42
-30 0 -38 -4 -43 -23 -14 -59 -95 -117 -161 -117 -16 1 -48 9 -70 19 -39 17
-41 17 -80 0 -77 -35 -178 -13 -219 49 l-18 28 -61 -31 c-107 -53 -264 -46
-361 15 -53 34 -56 35 -56 16 0 -23 -77 -84 -121 -96 -74 -20 -154 8 -194 69
l-19 30 -21 -36 c-39 -71 -148 -103 -230 -69 -31 14 -39 13 -77 -3 -60 -26
-330 -49 -380 -32 -34 11 -39 10 -81 -20 -78 -55 -196 -41 -246 30 -12 16 -21
34 -21 40 0 16 -6 14 -33 -13 -47 -47 -141 -51 -189 -8 -17 14 -18 13 -18 -8
0 -36 -35 -84 -82 -110 -82 -46 -199 -24 -240 45 l-18 32 -38 -35 c-20 -19
-66 -49 -102 -66 -60 -29 -73 -31 -170 -31 -98 0 -109 2 -167 32 l-63 31 -16
-33 c-9 -19 -35 -52 -59 -74 -79 -73 -178 -111 -291 -111 -131 0 -245 50 -336
148 -102 111 -151 241 -151 397 1 305 210 545 476 545 121 0 232 -48 276 -120
l17 -29 39 39 c21 21 67 54 104 72 63 31 71 33 176 33 98 0 116 -3 165 -26 31
-14 72 -40 92 -57 l35 -32 6 46 c5 52 26 83 81 128 50 41 151 49 213 18 48
-25 55 -34 97 -112 l33 -61 16 58 c9 32 28 75 42 95 59 88 210 115 285 51 l30
-25 34 30 c37 32 55 37 206 52 147 15 210 13 250 -9 35 -18 36 -18 59 0 32 26
79 36 197 44 180 12 306 -33 378 -137 l16 -22 16 23 c27 38 128 97 199 116
104 28 244 5 307 -51 15 -15 19 -14 45 10 38 35 85 49 150 44 57 -5 92 -25
127 -72 17 -22 22 -47 26 -129 l5 -102 28 90 c16 50 38 106 48 125 65 116 248
120 313 7 13 -23 36 -80 51 -127 16 -47 32 -89 37 -95 4 -5 8 37 8 93 0 146
26 191 128 228 48 17 58 17 118 -1z m-4441 -31 c0 -32 -21 -39 -38 -12 -8 12
-7 21 3 32 19 24 35 14 35 -20z m3680 7 c3 -5 0 -13 -6 -17 -7 -4 -9 -3 -5 4
3 6 -3 13 -14 17 -11 3 -20 11 -20 16 0 11 35 -5 45 -20z m-2045 -5 c0 -9 -8
-12 -25 -8 -14 2 -25 8 -25 13 0 5 11 9 25 9 14 0 25 -6 25 -14z m-1927 -21
c-3 -9 -8 -14 -10 -11 -3 3 -2 9 2 15 9 16 15 13 8 -4z m1717 -15 c0 -5 -8
-11 -18 -15 -19 -5 -82 -94 -82 -114 0 -15 -15 -14 -27 2 -15 17 -12 47 4 47
7 0 13 -5 13 -11 0 -5 5 -7 10 -4 6 4 8 11 5 16 -4 5 -1 9 5 9 6 0 8 5 4 12
-4 6 -3 8 4 4 6 -3 14 3 17 14 4 12 18 25 31 31 15 5 22 14 18 21 -4 7 -3 8 4
4 7 -4 12 -11 12 -16z m-262 1 c7 -1 11 -5 8 -10 -3 -5 -22 -5 -42 -1 -20 5
-43 6 -50 3 -8 -3 -14 0 -14 6 0 7 16 9 43 7 23 -2 48 -4 55 -5z m-108 -13 c0
-4 -7 -9 -15 -9 -28 -3 -33 -4 -41 -11 -10 -10 -24 -10 -24 0 0 9 46 28 68 28
6 1 12 -3 12 -8z m3547 -19 c-3 -11 -1 -19 5 -19 5 0 8 -12 7 -28 -2 -15 0
-32 4 -38 4 -7 5 -61 2 -122 -5 -113 3 -146 43 -190 18 -20 16 -20 -32 -20
l-44 0 5 199 c4 128 2 199 -4 199 -6 0 -9 10 -8 23 3 29 3 29 16 21 6 -3 9
-15 6 -25z m-3353 -21 c34 -32 28 -38 -6 -8 -13 10 -32 26 -43 35 l-20 15 20
-7 c11 -3 33 -19 49 -35z m3466 11 c0 -6 -4 -7 -10 -4 -5 3 -10 11 -10 16 0 6
5 7 10 4 6 -3 10 -11 10 -16z m-3783 -39 c-20 -22 -43 -56 -52 -75 -15 -38
-27 -38 -46 -3 -7 12 -7 18 -1 14 15 -9 42 4 42 21 0 8 4 12 9 9 5 -3 12 2 16
12 3 9 5 18 3 19 -2 0 10 13 26 28 42 39 44 22 3 -25z m3801 -5 c-3 -3 -9 2
-12 12 -6 14 -5 15 5 6 7 -7 10 -15 7 -18z m-5077 -8 c-10 -9 -11 -8 -5 6 3
10 9 15 12 12 3 -3 0 -11 -7 -18z m1033 0 c16 -12 16 -13 -3 -13 -11 0 -18 3
-15 7 2 4 -2 10 -8 12 -7 3 -8 6 -2 6 5 1 18 -5 28 -12z m-240 -22 c-4 -8 -12
-15 -20 -15 -8 0 -14 -3 -14 -8 0 -4 -15 -14 -32 -21 -18 -8 -46 -27 -63 -43
-16 -15 -32 -23 -33 -18 -2 6 -7 8 -11 6 -4 -3 -8 1 -8 8 0 7 8 11 17 9 10 -3
32 11 53 32 20 20 48 38 63 40 14 1 30 7 37 14 15 15 17 14 11 -4z m337 -11
c6 -8 9 -14 6 -14 -13 0 -57 24 -57 31 0 11 38 -1 51 -17z m-1147 -29 c-4 -8
-10 -12 -15 -9 -11 6 -2 24 11 24 5 0 7 -7 4 -15z m5106 -290 c0 3 11 -2 24
-10 23 -15 26 -15 45 4 l20 20 7 -46 c4 -26 15 -55 24 -65 18 -20 53 -158 45
-180 -10 -29 -13 -133 -3 -157 5 -14 29 -44 53 -66 42 -38 75 -95 55 -95 -5 0
-12 10 -16 23 -8 28 -89 107 -109 107 -24 0 -29 1 -50 13 -11 6 -33 10 -50 9
l-30 -2 35 34 c42 41 63 66 55 66 -3 0 2 14 10 30 17 33 20 180 3 180 -5 0 -7
4 -4 9 3 5 -1 12 -10 15 -8 3 -13 10 -9 15 3 6 -3 14 -12 20 -10 6 -14 11 -10
11 14 0 -16 26 -38 33 -56 17 -95 34 -89 40 3 3 17 2 30 -3 13 -5 24 -7 24 -5z
m-5247 -82 c-3 -21 -10 -42 -15 -48 -9 -10 -6 25 7 65 10 32 14 23 8 -17z
m-13 -73 c0 -5 -5 -10 -11 -10 -5 0 -7 5 -4 10 3 6 8 10 11 10 2 0 4 -4 4 -10z
m-2 -77 c-1 -102 4 -153 14 -147 5 3 8 0 7 -7 -1 -8 1 -23 5 -34 4 -11 13 -33
19 -50 14 -38 86 -155 96 -155 4 0 14 -11 21 -25 7 -13 16 -22 20 -20 4 3 15
-6 24 -20 9 -14 23 -25 31 -25 8 0 15 -4 15 -10 0 -5 6 -10 14 -10 8 0 16 -6
19 -13 2 -7 26 -19 53 -26 l49 -15 -65 -6 c-36 -4 -78 -12 -93 -19 -16 -6 -33
-8 -39 -5 -6 4 -8 3 -5 -3 6 -10 -44 -53 -63 -53 -5 0 -9 -3 -9 -7 3 -20 -2
-27 -10 -14 -7 10 3 25 35 54 24 22 44 44 44 48 0 5 -18 26 -41 49 -22 22 -38
40 -35 40 3 0 -3 9 -15 21 -17 17 -18 23 -7 37 12 15 11 16 -4 3 -15 -11 -19
-11 -24 5 -13 35 -25 44 -45 34 -17 -10 -18 -6 -15 65 1 41 -1 75 -5 75 -3 0
-5 18 -3 40 2 21 -1 42 -6 45 -7 4 -6 14 1 27 7 12 7 18 1 14 -7 -4 -9 16 -6
56 3 35 5 73 6 86 0 12 4 22 8 22 5 0 8 -26 8 -57z m4487 -115 c4 -13 17 -34
29 -46 24 -27 90 -63 107 -60 6 2 14 -4 17 -12 2 -8 1 -12 -3 -8 -8 7 -21 -2
-64 -45 -24 -23 -30 -25 -41 -13 -6 9 -9 19 -6 24 3 5 -1 9 -9 9 -8 0 -12 -4
-9 -9 3 -4 -11 2 -31 13 -24 15 -60 23 -106 27 -41 3 -65 8 -58 13 7 4 16 6
20 4 3 -3 15 4 26 15 12 10 24 16 27 13 3 -4 6 1 6 10 0 10 4 17 8 17 5 0 17
16 28 35 21 40 49 46 59 13z m-1022 -48 c20 -11 46 -20 56 -20 11 0 22 -4 26
-9 3 -6 13 -10 23 -11 105 -5 145 0 211 23 25 9 49 13 54 10 6 -3 7 -1 4 4 -4
6 0 14 9 17 21 8 26 8 20 -2 -5 -8 22 -36 37 -39 4 -1 20 -10 35 -20 35 -23
149 -23 182 0 20 14 26 13 67 -5 30 -13 56 -18 76 -14 29 6 30 5 12 -8 -11 -9
-24 -16 -30 -16 -5 0 -24 -13 -41 -30 -18 -16 -35 -26 -39 -22 -5 4 -5 2 -1
-5 3 -6 1 -15 -7 -20 -12 -8 -34 -49 -35 -67 0 -5 -5 -12 -11 -15 -6 -4 -12
-16 -14 -28 -1 -11 -10 -31 -20 -44 -9 -13 -16 -17 -14 -9 1 8 9 21 17 27 13
11 13 12 -2 7 -15 -5 -18 0 -18 23 0 16 -6 35 -12 42 -10 11 -10 12 -1 7 7 -4
3 9 -10 28 -12 19 -28 35 -36 36 -8 0 -11 3 -8 7 4 3 -12 17 -35 31 -46 26
-153 36 -193 18 -11 -5 -23 -10 -26 -10 -10 -2 -75 -61 -91 -85 l-16 -22 -23
33 c-13 18 -30 39 -39 46 -79 67 -236 70 -298 5 -12 -13 -27 -21 -34 -17 -7 4
-8 3 -4 -4 4 -7 3 -19 -1 -27 -8 -13 -15 -11 -48 13 -65 47 -126 61 -250 58
-93 -2 -117 -6 -155 -26 -25 -13 -51 -23 -57 -23 -7 0 -13 -4 -13 -8 0 -4 -8
-10 -17 -13 -10 -3 -36 -22 -58 -41 -22 -19 -46 -40 -53 -46 -11 -9 -17 -6
-28 10 -8 11 -35 35 -60 52 -38 26 -55 31 -107 32 -101 2 -139 -12 -178 -63
-13 -18 -30 -38 -37 -46 -7 -8 -11 -14 -7 -14 4 0 -1 -7 -9 -16 -9 -8 -13 -21
-9 -27 4 -7 -1 -6 -10 2 -9 7 -17 19 -17 25 -1 16 -36 56 -50 56 -6 0 -8 6 -4
13 4 6 4 9 0 5 -4 -3 -22 0 -40 7 -53 22 -154 13 -204 -19 -23 -14 -42 -31
-42 -37 0 -5 -4 -8 -9 -5 -5 3 -16 -10 -25 -28 l-16 -34 -67 35 c-83 44 -191
59 -293 40 -19 -4 -60 -10 -90 -13 -30 -4 -59 -10 -65 -14 -5 -4 -21 -10 -35
-13 -47 -10 -99 -33 -121 -52 -21 -20 -21 -20 -38 1 -31 38 -81 57 -154 58
l-68 1 40 37 c21 20 37 39 35 41 -3 2 2 10 10 16 12 10 29 8 87 -13 93 -33
152 -34 286 -3 12 3 39 17 60 31 21 14 43 26 49 26 6 0 18 10 26 22 l15 22 24
-25 c88 -87 233 -79 320 18 35 39 37 40 92 35 31 -2 63 -2 72 2 8 3 19 6 23 6
4 1 15 9 25 18 17 15 20 15 45 -14 43 -49 79 -63 158 -60 88 4 98 7 127 34 19
18 29 21 48 14 27 -9 46 -9 199 3 58 5 121 9 142 9 20 1 35 4 33 7 -2 3 12 11
31 18 29 10 39 10 57 -2 12 -8 45 -13 74 -13 29 1 46 -2 40 -7 -14 -10 -4 -7
44 16 20 9 49 31 66 50 28 32 53 38 53 14 0 -7 19 -23 42 -36 78 -44 190 -27
253 39 34 35 39 36 88 10z m1337 -40 c8 -5 11 -10 5 -10 -5 0 -17 5 -25 10 -8
5 -10 10 -5 10 6 0 17 -5 25 -10z m305 -26 c38 -3 71 -7 74 -9 2 -2 -8 -9 -22
-16 -14 -6 -40 -32 -58 -58 -18 -25 -43 -58 -57 -73 l-25 -27 -31 46 c-17 26
-35 54 -41 62 -16 25 -68 72 -90 82 -19 8 92 5 250 -7z m-255 -22 c40 -22 95
-90 131 -162 13 -27 26 -50 30 -50 3 0 29 31 58 70 98 129 165 170 254 156
148 -24 230 -171 167 -300 -11 -23 -83 -117 -161 -210 l-141 -168 -18 -177
c-18 -186 -32 -232 -82 -278 -76 -71 -230 -72 -305 -1 -13 12 -23 27 -23 35 0
18 -17 17 -27 -2 -17 -29 -85 -55 -146 -55 -102 0 -160 45 -190 145 l-14 50
-66 5 -67 5 -27 -55 c-40 -80 -91 -113 -175 -112 -89 0 -154 37 -179 101 l-9
23 -33 -24 c-67 -50 -114 -63 -227 -63 -94 0 -111 3 -160 27 -30 15 -75 47
-99 72 l-44 45 -48 -53 c-87 -96 -218 -143 -367 -133 -117 8 -209 53 -288 140
l-58 63 -23 -47 c-70 -139 -203 -219 -365 -219 -71 0 -166 26 -198 55 -24 22
-27 20 -33 -26 -15 -112 -191 -208 -286 -155 -13 7 -47 37 -77 66 -53 52 -53
52 -52 23 3 -106 -98 -193 -224 -193 -51 0 -120 39 -143 81 l-20 36 -19 -41
c-25 -52 -105 -137 -167 -177 -107 -68 -284 -90 -403 -49 -174 60 -288 210
-355 472 -42 163 -91 431 -91 500 0 140 108 239 260 240 65 0 95 -10 139 -47
48 -41 67 -88 90 -225 66 -383 85 -460 116 -460 22 0 19 52 -10 221 -67 383
-68 388 -55 434 7 23 25 59 42 79 83 101 258 114 342 27 l28 -29 42 29 c26 19
79 40 137 55 231 60 384 49 491 -36 l37 -30 10 33 c33 98 173 156 274 113 42
-17 84 -67 96 -114 6 -20 15 -127 21 -236 12 -209 19 -246 39 -208 9 17 9 76
1 241 -12 237 -9 263 43 320 48 52 155 76 224 50 43 -16 92 -69 99 -106 6 -30
24 -47 24 -23 0 18 71 88 125 125 97 64 210 90 323 74 74 -11 163 -50 190 -84
l19 -24 16 34 c34 72 134 115 223 95 64 -14 103 -45 126 -97 18 -41 19 -59 12
-278 -5 -178 -4 -235 5 -235 18 0 20 13 30 241 12 270 25 308 116 350 95 44
216 5 262 -84 12 -24 15 -57 14 -136 -1 -58 -4 -116 -8 -130 -11 -47 13 -9 46
74 58 147 113 247 154 280 35 27 47 30 120 33 71 2 88 -1 122 -20 22 -13 49
-37 60 -54 l21 -31 22 38 c34 58 111 99 187 99 40 0 72 -6 95 -18z m-4722
-280 c32 -29 34 -35 20 -43 -35 -19 -79 -63 -96 -93 l-17 -31 -6 95 c-4 52 -7
124 -8 159 l-1 65 36 -60 c19 -32 52 -74 72 -92z m5420 97 c-3 -20 -5 -19 -9
9 -3 20 -2 29 4 23 5 -5 7 -19 5 -32z m-1 -61 c-3 -8 -6 -5 -6 6 -1 11 2 17 5
13 3 -3 4 -12 1 -19z m-5550 -50 c-3 -7 -5 -2 -5 12 0 14 2 19 5 13 2 -7 2
-19 0 -25z m5537 -10 c-11 -73 -35 -131 -74 -183 -58 -78 -69 -97 -73 -138 -5
-45 -17 -62 -17 -23 0 33 -8 28 -76 -49 -14 -16 -31 -29 -36 -27 -5 1 -7 -2
-4 -7 4 -5 2 -11 -4 -13 -6 -2 -12 -19 -14 -38 -10 -83 -17 -159 -21 -213 -2
-33 -9 -65 -15 -72 -7 -8 -9 -23 -5 -34 3 -10 1 -22 -5 -26 -5 -3 -10 -1 -10
4 0 6 -5 11 -11 11 -7 0 -9 -11 -6 -29 5 -24 -1 -37 -30 -70 -19 -23 -41 -41
-48 -41 -19 0 -95 -75 -95 -94 0 -10 -5 -14 -10 -11 -6 4 -9 3 -8 -2 4 -14
-48 -93 -57 -86 -4 5 -5 3 -2 -3 10 -17 -13 -75 -26 -67 -5 3 -7 1 -3 -5 3 -6
1 -16 -6 -24 -7 -7 -26 -33 -43 -58 -16 -25 -34 -48 -40 -52 -5 -4 -6 -8 -2
-8 5 0 -3 -15 -17 -32 -56 -71 -82 -102 -113 -134 -18 -19 -30 -34 -26 -34 3
0 -6 -9 -21 -21 -14 -11 -24 -25 -20 -30 3 -5 1 -8 -4 -7 -5 2 -51 -38 -103
-89 -82 -80 -116 -111 -165 -152 -7 -5 -15 -7 -20 -3 -4 4 -4 2 -1 -4 8 -13
-16 -37 -26 -27 -4 3 -7 1 -7 -5 0 -11 -38 -28 -55 -23 -5 1 -7 -1 -2 -5 8 -8
-21 -44 -36 -44 -8 0 -25 -13 -84 -60 -6 -5 -23 -12 -37 -16 -15 -3 -30 -12
-34 -19 -4 -7 -25 -20 -47 -31 -22 -10 -42 -20 -45 -23 -3 -4 -23 -15 -45 -26
-22 -11 -43 -24 -46 -28 -3 -5 -9 -8 -13 -7 -4 1 -30 -9 -59 -23 -79 -37 -121
-52 -136 -49 -7 2 -10 -1 -7 -7 8 -12 -58 -26 -75 -15 -9 5 -10 2 -6 -10 4
-10 3 -15 -4 -11 -5 4 -20 0 -32 -8 -12 -8 -52 -20 -89 -27 -37 -8 -65 -17
-62 -22 3 -4 -5 -7 -18 -6 -13 0 -51 -6 -84 -16 -34 -9 -72 -16 -85 -16 -13 1
-71 -9 -129 -20 -95 -19 -128 -21 -355 -16 -241 5 -319 11 -311 25 2 3 -21 7
-52 8 -72 2 -172 24 -172 38 0 5 -4 5 -8 -2 -6 -9 -14 -9 -37 1 -31 14 -121
38 -142 39 -7 0 -13 3 -13 7 0 3 -29 14 -65 25 -36 10 -65 21 -65 24 0 4 -10
7 -23 9 -12 1 -56 18 -97 39 -41 20 -77 37 -80 37 -13 2 -125 62 -128 69 -2 4
-9 7 -17 7 -7 0 -18 7 -25 15 -7 9 -19 14 -27 11 -8 -3 -11 -1 -8 4 6 9 -8 14
-19 8 -3 -2 -21 13 -41 32 -20 19 -37 33 -38 31 -5 -12 -175 110 -256 184
-124 112 -168 153 -190 179 -14 16 -45 48 -68 72 -24 24 -43 47 -43 52 0 4
-12 21 -28 38 -15 16 -34 40 -42 52 -8 12 -24 24 -35 26 -11 3 -40 9 -64 15
-25 5 -49 7 -55 4 -5 -3 -6 -1 -2 5 4 7 -4 14 -21 18 -15 3 -32 7 -38 9 -5 1
-18 -4 -27 -13 -14 -12 -20 -12 -33 -2 -8 7 -15 19 -15 26 0 8 -5 14 -11 14
-5 0 -8 4 -5 8 3 5 -11 24 -30 43 -52 49 -117 135 -152 201 -32 61 -78 187
-73 202 1 6 -4 28 -12 50 -24 65 -39 144 -31 157 4 8 3 9 -4 5 -7 -4 -12 0
-13 11 -1 22 -4 43 -18 113 -16 85 -22 137 -26 243 -2 54 -7 107 -11 119 -5
17 -3 20 12 14 12 -5 24 1 40 21 26 32 32 15 8 -22 -9 -13 -13 -29 -9 -35 3
-5 1 -10 -5 -10 -12 0 -9 -159 4 -210 3 -14 11 -53 16 -87 6 -34 14 -73 20
-87 5 -13 7 -26 4 -29 -3 -2 7 -47 21 -98 15 -52 28 -101 30 -109 15 -64 46
-151 64 -180 11 -19 21 -44 21 -55 0 -15 2 -17 9 -7 6 11 10 8 14 -10 7 -28
136 -158 157 -158 5 0 19 -9 30 -20 11 -11 20 -18 20 -15 0 3 17 -2 37 -10 41
-17 100 -26 173 -25 42 0 105 6 105 10 0 1 10 3 23 6 20 4 89 35 170 78 18 10
38 29 44 42 6 13 14 22 17 20 7 -4 37 25 35 34 -1 3 9 18 22 35 l23 29 37 -39
c20 -22 33 -33 29 -25 -8 13 -7 13 9 0 25 -20 202 -18 189 3 -2 4 7 7 21 7 15
0 30 8 36 20 6 11 16 20 23 20 14 0 57 71 57 94 0 24 13 19 50 -19 18 -19 35
-33 38 -31 2 2 20 -2 40 -11 88 -37 240 36 281 135 7 17 17 32 22 32 18 0 24
-2 22 -8 -1 -4 8 -8 20 -9 12 -1 56 -8 97 -17 65 -13 82 -12 140 1 36 8 90 27
120 41 30 15 59 26 63 24 5 -1 5 2 2 8 -4 6 1 14 11 16 21 6 91 92 86 107 -1
5 2 6 8 2 6 -3 14 3 18 15 8 21 10 20 52 -24 24 -25 52 -48 62 -52 10 -3 15
-10 12 -16 -4 -6 -2 -8 4 -4 6 3 16 0 24 -7 7 -7 18 -14 23 -15 30 -6 75 -25
71 -30 -2 -4 45 -8 104 -10 78 -1 122 2 157 14 58 19 116 44 123 54 3 4 24 17
47 29 24 12 49 35 58 52 l16 30 41 -36 c22 -21 58 -45 79 -54 21 -10 36 -21
32 -24 -3 -4 -2 -7 3 -8 5 0 20 -3 34 -6 40 -10 223 -8 245 1 11 5 26 8 33 7
6 -1 12 3 12 9 0 6 5 8 10 5 6 -3 10 -3 10 2 0 4 11 16 24 25 23 17 25 16 59
-17 19 -19 32 -36 29 -39 -3 -3 2 -6 12 -6 9 0 19 -7 23 -16 3 -10 8 -12 12
-5 5 7 15 6 32 -3 14 -7 34 -11 45 -10 10 2 41 4 67 6 42 3 54 9 93 48 25 25
55 60 67 79 17 26 30 35 55 37 33 3 61 -16 63 -42 1 -8 2 -18 3 -23 2 -19 62
-91 75 -91 8 0 11 -3 8 -7 -11 -10 44 -34 90 -39 60 -7 148 11 173 36 l20 20
34 -34 c41 -43 69 -51 171 -51 72 0 85 3 125 30 25 16 48 29 53 30 4 0 7 5 8
10 1 6 10 27 20 47 10 21 19 45 19 56 0 10 4 22 9 28 5 5 12 41 15 79 3 39 8
110 12 158 7 83 9 90 41 120 18 17 33 37 33 44 0 7 4 13 10 13 5 0 20 16 32
35 13 19 28 35 33 35 6 0 15 8 20 19 11 20 92 129 111 148 6 7 15 9 19 5 4 -4
5 -2 3 3 -3 10 21 75 28 75 2 0 1 -19 -2 -42z m-4894 -12 c0 -8 -5 -18 -10
-21 -20 -12 -42 -81 -42 -133 -1 -54 -5 -62 -13 -22 -6 32 -45 110 -55 110 -5
0 -24 14 -42 30 l-32 30 69 1 c39 0 79 4 90 9 29 12 35 12 35 -4z m-621 -86
c0 -10 -3 -8 -9 5 -12 27 -12 43 0 25 5 -8 9 -22 9 -30z m578 -192 c-3 -8 -6
-5 -6 6 -1 11 2 17 5 13 3 -3 4 -12 1 -19z m4738 -185 c-89 -428 -270 -811
-533 -1123 -425 -505 -991 -831 -1645 -946 -217 -38 -566 -45 -774 -15 -752
108 -1398 485 -1841 1076 -41 55 -79 105 -84 112 -6 7 18 1 53 -12 35 -14 79
-25 99 -25 33 0 42 -7 112 -93 270 -327 644 -603 1033 -760 692 -280 1413
-256 2080 68 489 238 899 628 1147 1092 40 76 57 97 87 113 41 21 102 83 125
129 23 44 43 139 57 278 12 111 15 125 42 155 15 18 36 43 44 56 9 12 17 21
19 19 2 -2 -8 -58 -21 -124z m42 55 c-3 -7 -5 -2 -5 12 0 14 2 19 5 13 2 -7 2
-19 0 -25z m-4740 -80 c-3 -7 -5 -2 -5 12 0 14 2 19 5 13 2 -7 2 -19 0 -25z
m4486 -673 c-3 -9 -8 -14 -10 -11 -3 3 -2 9 2 15 9 16 15 13 8 -4z m-4632
-282 c13 -16 12 -17 -3 -4 -17 13 -22 21 -14 21 2 0 10 -8 17 -17z m29 -33 c0
-5 -2 -10 -4 -10 -3 0 -8 5 -11 10 -3 6 -1 10 4 10 6 0 11 -4 11 -10z m4387
-25 c0 -8 -4 -12 -9 -9 -5 3 -6 10 -3 15 9 13 12 11 12 -6z m-4353 -21 c3 -8
2 -12 -4 -9 -6 3 -10 10 -10 16 0 14 7 11 14 -7z m4284 -64 c-7 -10 -14 -17
-17 -15 -4 4 18 35 25 35 2 0 -1 -9 -8 -20z m-4137 -107 c13 -17 13 -17 -6 -3
-11 8 -22 16 -24 17 -2 2 0 3 6 3 6 0 17 -8 24 -17z m200 -200 c13 -16 12 -17
-3 -4 -10 7 -18 15 -18 17 0 8 8 3 21 -13z m130 -110 c13 -17 13 -17 -6 -3
-11 8 -22 16 -24 17 -2 2 0 3 6 3 6 0 17 -8 24 -17z m44 -33 c3 -6 -1 -7 -9
-4 -18 7 -21 14 -7 14 6 0 13 -4 16 -10z m355 -226 c0 -2 -9 0 -20 6 -11 6
-20 13 -20 16 0 2 9 0 20 -6 11 -6 20 -13 20 -16z m90 -38 c0 -11 -19 -15 -25
-6 -3 5 1 10 9 10 9 0 16 -2 16 -4z m255 -116 c13 -6 15 -9 5 -9 -8 0 -22 4
-30 9 -18 12 -2 12 25 0z m1680 -70 c-3 -5 -12 -10 -18 -10 -7 0 -6 4 3 10 19
12 23 12 15 0z m-472 -97 c-7 -2 -19 -2 -25 0 -7 3 -2 5 12 5 14 0 19 -2 13
-5z"/>
<path d="M2755 5665 c-205 -25 -409 -68 -520 -109 -65 -24 -33 -18 113 20 427
113 858 119 1272 17 58 -14 111 -30 118 -35 6 -6 12 -8 12 -5 0 21 442 -160
470 -192 3 -3 12 -7 20 -9 8 -2 22 -9 30 -15 8 -7 26 -18 39 -25 13 -8 38 -22
55 -31 38 -22 205 -141 264 -189 23 -19 45 -33 47 -30 8 7 -301 238 -319 238
-3 0 -35 18 -70 39 -261 160 -651 287 -1006 327 -107 12 -424 12 -525 -1z"/>
<path d="M3630 5570 c0 -5 5 -10 10 -10 6 0 10 5 10 10 0 6 -4 10 -10 10 -5 0
-10 -4 -10 -10z"/>
<path d="M2100 5511 c-177 -66 -377 -169 -535 -275 -174 -117 -247 -177 -406
-336 -221 -220 -400 -472 -532 -750 -61 -128 -75 -166 -58 -156 6 4 11 14 11
22 0 16 66 145 71 139 2 -2 5 6 6 18 1 23 73 153 145 265 31 47 44 60 50 50 7
-9 8 -8 4 5 -9 27 52 111 204 285 128 146 133 152 147 152 7 0 13 7 13 15 0 8
3 15 8 15 7 0 54 40 112 94 41 38 150 119 226 168 76 50 317 188 328 188 3 0
40 16 82 35 41 19 79 35 83 35 8 0 20 5 101 43 55 25 22 19 -60 -12z"/>
<path d="M1775 5390 c-3 -6 1 -7 9 -4 18 7 21 14 7 14 -6 0 -13 -4 -16 -10z"/>
<path d="M1860 5370 c0 -5 5 -10 11 -10 5 0 7 5 4 10 -3 6 -8 10 -11 10 -2 0
-4 -4 -4 -10z"/>
<path d="M4501 5154 c0 -11 3 -14 6 -6 3 7 2 16 -1 19 -3 4 -6 -2 -5 -13z"/>
<path d="M4768 4968 c170 -164 328 -350 315 -372 -3 -5 -2 -6 4 -3 6 4 26 -17
44 -45 19 -29 42 -64 51 -78 10 -14 27 -41 38 -60 11 -19 24 -42 29 -50 6 -8
29 -50 52 -92 51 -92 64 -97 18 -7 -112 224 -315 496 -509 682 -61 59 -115
107 -120 107 -4 0 31 -37 78 -82z"/>
<path d="M930 4690 c-9 -6 -10 -10 -3 -10 6 0 15 5 18 10 8 12 4 12 -15 0z"/>
<path d="M995 4680 c-3 -5 -1 -10 4 -10 6 0 11 5 11 10 0 6 -2 10 -4 10 -3 0
-8 -4 -11 -10z"/>
<path d="M5140 4590 c0 -5 5 -10 11 -10 5 0 7 5 4 10 -3 6 -8 10 -11 10 -2 0
-4 -4 -4 -10z"/>
<path d="M5475 3870 c12 -61 42 -160 49 -167 12 -12 -3 50 -30 126 -13 36 -22
55 -19 41z"/>
<path d="M2832 5510 c0 -14 2 -19 5 -12 2 6 2 18 0 25 -3 6 -5 1 -5 -13z"/>
<path d="M2881 5514 c0 -11 3 -14 6 -6 3 7 2 16 -1 19 -3 4 -6 -2 -5 -13z"/>
<path d="M2836 5471 c-9 -10 -16 -23 -16 -29 0 -18 -22 -62 -29 -57 -4 2 -7
-5 -8 -15 -2 -22 16 -39 47 -45 13 -2 30 -11 40 -20 9 -8 24 -15 33 -15 20 0
41 36 33 56 -3 9 -1 12 4 9 6 -3 15 -3 21 1 8 5 8 9 -1 14 -9 6 -7 13 9 29 11
11 16 21 11 21 -6 0 -24 10 -39 21 -17 13 -34 18 -42 14 -7 -5 -10 -4 -6 2 4
6 -4 15 -17 21 -20 9 -27 7 -40 -7z m82 -41 c29 0 37 -18 18 -39 -9 -10 -16
-29 -16 -44 0 -36 -17 -43 -44 -18 -12 12 -34 21 -49 21 -30 0 -35 11 -12 30
8 7 20 30 27 51 l11 39 22 -20 c12 -11 31 -20 43 -20z"/>
<path d="M3265 5480 c3 -5 0 -10 -8 -10 -32 0 -26 -70 7 -92 22 -15 56 -7 81
17 30 31 30 30 4 66 -16 23 -28 29 -55 29 -21 0 -33 -4 -29 -10z m56 -20 c37
-20 17 -70 -28 -70 -27 0 -42 42 -23 65 15 18 25 19 51 5z"/>
<path d="M2396 5461 c-15 -10 -33 -27 -41 -38 -16 -22 -16 -85 -1 -75 5 3 6
-2 3 -12 -4 -10 -3 -15 3 -11 6 3 10 2 10 -4 0 -15 68 -53 81 -45 7 4 9 3 6
-3 -7 -11 21 -37 46 -41 10 -2 25 2 33 9 20 16 19 127 -2 157 -8 12 -13 22
-10 22 3 0 -5 10 -17 23 -12 13 -27 21 -34 19 -6 -2 -20 1 -30 7 -15 7 -26 5
-47 -8z m95 -39 c26 -23 31 -36 36 -89 3 -34 3 -69 -1 -79 -6 -16 -8 -16 -21
2 -7 11 -33 29 -57 39 -62 27 -78 43 -78 81 0 23 7 38 26 53 36 28 58 26 95
-7z"/>
<path d="M2411 5406 c-26 -28 -17 -35 13 -13 11 8 17 19 15 26 -3 8 -13 3 -28
-13z"/>
<path d="M3085 5403 c-11 -3 -34 -21 -52 -41 -54 -59 -57 -166 -9 -299 19 -55
35 -71 63 -65 24 4 28 13 38 77 9 50 36 115 49 115 5 0 7 3 4 6 -3 3 5 17 18
31 13 14 21 29 18 34 -3 5 -1 9 3 9 8 0 9 27 4 65 0 6 -15 25 -32 43 -30 32
-54 37 -104 25z m86 -42 c39 -40 38 -75 -6 -137 -35 -49 -58 -107 -70 -176 -3
-21 -9 -38 -13 -38 -11 0 -52 107 -63 163 -16 89 13 175 71 204 37 19 48 16
81 -16z"/>
<path d="M3082 5337 c-6 -7 -15 -26 -21 -42 -9 -25 -8 -27 2 -11 6 11 23 30
36 43 17 17 20 23 9 23 -9 0 -20 -6 -26 -13z"/>
<path d="M2170 5368 c-64 -23 -93 -114 -51 -159 37 -40 69 -50 106 -35 67 28
86 118 35 166 -35 33 -58 40 -90 28z m53 -27 c32 -13 53 -64 39 -96 -26 -56
-95 -68 -127 -22 -24 35 -19 72 16 101 34 29 38 30 72 17z"/>
<path d="M2165 5300 c-3 -5 -1 -10 4 -10 6 0 11 5 11 10 0 6 -2 10 -4 10 -3 0
-8 -4 -11 -10z"/>
<path d="M4227 5193 c-4 -3 -7 -13 -7 -22 1 -13 3 -13 11 2 11 19 8 33 -4 20z"/>
<path d="M4250 5192 c0 -5 7 -15 15 -22 8 -7 15 -8 15 -2 0 5 -7 15 -15 22 -8
7 -15 8 -15 2z"/>
<path d="M4233 5143 c9 -2 23 -2 30 0 6 3 -1 5 -18 5 -16 0 -22 -2 -12 -5z"/>
<path d="M4288 5099 c-6 -4 -17 -5 -23 -2 -5 4 -7 3 -3 -2 4 -4 1 -14 -7 -22
-8 -8 -15 -32 -15 -53 0 -21 -4 -50 -10 -65 -7 -19 -7 -24 2 -19 8 5 9 0 5
-15 -3 -13 -3 -21 -1 -18 3 3 19 1 35 -3 16 -5 27 -5 24 -1 -2 5 17 9 43 9 26
1 48 6 50 12 2 5 7 8 12 5 10 -6 29 41 33 87 6 55 -28 84 -105 92 -15 2 -33
-1 -40 -5z m87 -25 c28 -11 46 -58 34 -92 -11 -32 -57 -59 -85 -48 -8 3 -25
-1 -37 -9 -32 -22 -38 -19 -33 18 3 17 8 53 11 79 5 38 10 48 28 51 36 7 64 7
82 1z"/>
<path d="M4307 5041 c-16 -10 -24 -21 -19 -25 6 -3 23 5 39 19 33 29 20 33
-20 6z"/>
<path d="M1518 4965 c-9 -20 -18 -25 -49 -25 -50 0 -99 -38 -77 -61 8 -7 27
-38 43 -66 15 -29 31 -53 34 -53 4 0 16 6 27 14 25 18 55 23 73 12 10 -6 12
-5 7 2 -4 7 0 13 11 14 10 1 25 2 33 4 8 1 22 2 31 3 17 1 34 41 17 41 -5 0
-6 6 -2 13 4 6 4 9 -1 5 -4 -4 -13 -2 -19 5 -20 20 -61 91 -48 83 7 -4 12 -2
12 3 0 6 -7 11 -15 11 -8 0 -15 5 -15 10 0 6 -11 10 -25 10 -17 0 -29 -8 -37
-25z m60 -24 c6 -16 27 -47 47 -70 l37 -41 -28 0 c-25 0 -86 -15 -156 -37 -13
-4 -19 2 -24 23 -4 16 -16 39 -27 51 -29 33 -9 53 53 53 43 0 49 3 54 25 9 34
32 32 44 -4z"/>
<path d="M1219 4737 c-33 -35 -33 -56 -3 -88 33 -34 38 -35 74 -9 15 11 30 17
34 15 3 -3 2 0 -3 6 -5 6 -7 17 -4 24 7 21 -25 62 -53 68 -17 3 -32 -2 -45
-16z m71 -22 c20 -24 -3 -65 -34 -65 -27 0 -41 27 -31 60 8 24 47 27 65 5z"/>
<path d="M1071 4585 c-38 -21 -64 -69 -56 -105 9 -40 63 -81 103 -78 17 1 28
6 26 10 -3 4 2 8 10 8 20 0 54 50 51 75 -4 35 -23 73 -42 83 -33 17 -68 20
-92 7z m89 -37 c29 -32 27 -81 -6 -107 -34 -27 -57 -26 -88 2 -36 32 -38 70
-6 105 27 29 73 29 100 0z"/>
<path d="M1090 4532 c0 -5 7 -17 15 -28 13 -17 14 -17 15 -1 0 9 -5 17 -11 17
-5 0 -7 5 -4 10 3 6 1 10 -4 10 -6 0 -11 -4 -11 -8z"/>
<path d="M3608 5348 c-12 -10 -14 -19 -7 -35 7 -20 16 -23 66 -23 44 0 54 -3
43 -11 -12 -9 -12 -10 3 -5 11 3 24 3 30 -1 7 -4 21 -9 32 -10 10 -2 22 -8 26
-14 3 -6 12 -11 20 -12 24 -4 40 -18 33 -30 -4 -7 -4 -9 0 -5 11 9 46 -23 39
-36 -3 -6 -3 -8 2 -4 4 4 14 1 22 -7 11 -12 18 -12 33 -3 18 11 18 13 -5 58
-41 81 -136 136 -253 146 -49 4 -72 2 -84 -8z m180 -28 c24 -11 57 -29 73 -41
31 -22 89 -94 89 -111 0 -18 -22 -6 -52 28 -59 67 -163 114 -250 114 -38 0
-54 21 -25 34 22 9 121 -5 165 -24z"/>
<path d="M3430 5301 c-44 -24 -132 -116 -154 -162 -9 -19 -11 -26 -4 -15 43
63 103 127 146 155 58 37 61 37 95 8 26 -22 26 -23 10 -47 -19 -28 -42 -47
-87 -72 -21 -12 -25 -18 -13 -18 32 0 95 48 117 90 9 17 7 26 -10 50 -25 35
-50 37 -100 11z"/>
<path d="M3445 5258 c-87 -46 -186 -177 -198 -263 l-6 -40 17 45 c26 68 52
112 83 143 16 15 29 31 29 35 1 12 90 67 103 64 7 -2 9 0 5 4 -4 4 0 13 10 20
26 20 2 16 -43 -8z"/>
<path d="M3247 5093 c-4 -3 -7 -13 -7 -22 1 -13 3 -13 11 2 11 19 8 33 -4 20z"/>
<path d="M4031 5074 c0 -11 3 -14 6 -6 3 7 2 16 -1 19 -3 4 -6 -2 -5 -13z"/>
<path d="M3356 5039 c-34 -27 -51 -68 -36 -83 8 -8 19 -2 38 22 47 56 102 40
102 -30 0 -31 4 -38 19 -38 28 0 37 50 16 93 -27 57 -91 74 -139 36z"/>
<path d="M4042 4979 c-1 -25 -6 -59 -11 -75 -17 -52 -23 -90 -13 -79 15 17 34
118 30 160 l-5 40 -1 -46z"/>
<path d="M3233 4933 c3 -13 1 -25 -3 -28 -14 -9 0 -39 28 -59 29 -22 79 -23
100 -2 14 14 25 69 12 61 -4 -3 -13 2 -20 10 -7 8 -21 15 -32 15 -10 0 -17 4
-13 9 3 6 -7 6 -27 0 -23 -6 -34 -5 -41 4 -6 8 -7 4 -4 -10z m109 -30 c41 -37
8 -72 -51 -54 -37 11 -53 32 -44 59 7 18 73 15 95 -5z"/>
<path d="M3709 4937 c-25 -19 -51 -65 -44 -77 11 -17 32 -11 49 14 21 34 52
41 82 21 21 -13 25 -23 22 -53 -2 -31 0 -37 17 -37 18 0 20 7 20 53 -1 45 -5
57 -25 73 -28 21 -97 25 -121 6z"/>
<path d="M4078 4858 c-5 -75 -73 -229 -93 -210 -5 4 -5 2 -1 -5 9 -15 -54 -85
-102 -115 -21 -12 -39 -25 -42 -28 -11 -13 -82 -50 -98 -51 -9 0 -35 -9 -57
-20 -32 -15 -34 -18 -12 -14 176 34 347 184 400 352 21 64 32 153 19 153 -5 0
-12 -28 -14 -62z"/>
<path d="M3449 4839 c-15 -29 -2 -86 26 -115 38 -37 105 -34 145 7 16 18 30
43 30 56 0 22 -2 23 -54 17 -52 -6 -57 -5 -86 25 -37 37 -46 38 -61 10z m41
-35 c0 6 6 1 14 -9 10 -14 26 -19 64 -19 45 0 50 -2 41 -18 -10 -18 -49 -33
-84 -30 -27 2 -55 38 -55 71 0 20 2 23 10 11 5 -8 10 -11 10 -6z"/>
<path d="M3994 4793 c-11 -36 -29 -69 -55 -103 -39 -53 -44 -69 -9 -30 17 19
44 58 58 85 36 67 35 65 23 65 -7 0 -14 -8 -17 -17z"/>
<path d="M3752 4774 c-12 -8 -22 -20 -22 -26 0 -6 8 -4 18 5 10 10 31 17 46
17 16 0 25 4 21 10 -9 15 -37 12 -63 -6z"/>
<path d="M3850 4745 c19 -20 21 -27 10 -40 -18 -21 -63 -19 -94 6 -19 15 -26
17 -26 6 0 -13 23 -28 63 -41 25 -8 64 10 72 33 8 26 -11 61 -32 61 -13 0 -12
-5 7 -25z"/>
<path d="M3251 4734 c0 -11 3 -14 6 -6 3 7 2 16 -1 19 -3 4 -6 -2 -5 -13z"/>
<path d="M3880 4611 c0 -6 4 -13 10 -16 6 -3 7 1 4 9 -7 18 -14 21 -14 7z"/>
<path d="M3820 4565 c-8 -9 -8 -15 -2 -15 12 0 26 19 19 26 -2 2 -10 -2 -17
-11z"/>
<path d="M3341 4534 c0 -5 17 -22 37 -39 20 -16 33 -24 28 -17 -4 7 -2 12 6
13 7 0 1 6 -13 12 -14 7 -33 18 -43 26 -9 7 -16 10 -15 5z"/>
<path d="M3755 4523 c-16 -10 -66 -27 -110 -39 -44 -12 -69 -23 -55 -23 44 -1
200 54 200 71 0 10 1 10 -35 -9z"/>
<path d="M3470 4469 c0 -5 5 -7 10 -4 6 3 10 8 10 11 0 2 -4 4 -10 4 -5 0 -10
-5 -10 -11z"/>
<path d="M3618 4403 c7 -3 16 -2 19 1 4 3 -2 6 -13 5 -11 0 -14 -3 -6 -6z"/>
<path d="M3475 4370 c-3 -5 0 -13 8 -16 9 -3 14 -16 12 -30 -1 -13 3 -24 10
-24 8 0 10 11 6 37 -6 37 -24 53 -36 33z"/>
<path d="M3430 4335 c-11 -13 -10 -14 4 -9 9 3 16 10 16 15 0 13 -6 11 -20 -6z"/>
<path d="M1843 5156 c-58 -32 -106 -107 -84 -129 8 -8 11 -3 11 16 0 26 49 87
70 87 5 0 10 5 10 10 0 6 9 10 20 10 11 0 20 5 20 10 0 13 -19 11 -47 -4z"/>
<path d="M2400 5097 c-177 -60 -288 -187 -327 -375 -13 -63 -13 -88 -4 -145
12 -74 47 -167 63 -167 10 0 1 38 -13 56 -5 6 -12 33 -15 60 -3 27 -8 56 -11
64 -11 28 -13 90 -3 90 6 0 10 21 10 48 0 26 7 55 14 65 16 21 26 22 26 2 0
-19 16 -20 23 -1 3 8 -1 17 -9 20 -22 8 -17 47 13 91 33 49 52 64 80 65 41 0
38 -36 -8 -98 -23 -31 -49 -61 -56 -65 -20 -12 -16 -27 8 -27 11 0 17 5 14 10
-3 6 1 13 9 16 9 3 16 13 16 21 0 8 5 11 13 7 6 -4 9 -4 5 0 -4 5 -2 13 3 20
5 6 17 20 25 31 9 11 12 13 8 5 -4 -8 -3 -12 1 -7 5 4 10 24 12 44 1 20 8 40
14 43 6 4 -4 10 -21 14 -38 7 -36 30 3 34 15 2 27 9 27 16 0 14 30 26 68 26
13 0 21 4 18 9 -11 16 71 31 163 28 63 -2 96 -7 99 -15 2 -7 8 -10 13 -7 4 3
29 -3 53 -15 25 -11 49 -20 53 -20 18 0 117 -87 124 -109 3 -8 11 -12 18 -10
21 7 -44 76 -113 121 -123 79 -283 101 -416 55z"/>
<path d="M2956 4887 c3 -10 9 -15 12 -12 3 3 0 11 -7 18 -10 9 -11 8 -5 -6z"/>
<path d="M2728 4839 c-39 -15 -62 -70 -48 -114 24 -73 94 -96 149 -49 25 21
31 33 31 66 0 52 -14 77 -55 94 -39 16 -40 16 -77 3z m28 -27 c35 -24 15 -76
-27 -70 -31 4 -39 46 -13 65 20 15 25 16 40 5z m69 -22 c3 -5 0 -20 -6 -32
-11 -21 -11 -22 5 -9 9 8 18 12 20 10 8 -8 -7 -59 -15 -53 -5 3 -9 -2 -9 -10
0 -10 -6 -13 -15 -10 -8 4 -15 1 -15 -4 0 -8 -9 -8 -30 -1 -16 6 -30 15 -30
21 0 5 4 7 8 4 10 -6 72 51 72 66 0 5 -4 6 -10 3 -6 -3 -7 1 -4 9 7 18 20 21
29 6z"/>
<path d="M3001 4800 c0 -8 4 -24 8 -34 6 -15 10 -16 16 -7 4 7 3 16 -2 20 -6
3 -13 13 -16 21 -5 13 -5 13 -6 0z"/>
<path d="M2261 4723 c-71 -59 -20 -194 68 -179 70 11 106 77 76 139 -26 55
-100 75 -144 40z m102 -18 c5 0 14 -13 21 -30 14 -35 0 -89 -21 -81 -7 3 -12
0 -10 -7 2 -13 -3 -13 -43 -3 l-25 7 25 -15 c14 -9 19 -15 12 -16 -8 0 -26 10
-40 22 -15 12 -19 18 -9 15 9 -4 17 -2 17 4 0 6 4 8 9 5 5 -3 12 1 15 10 3 8
10 12 16 9 5 -3 10 1 10 10 0 9 5 13 10 10 16 -10 7 39 -10 61 -13 16 -13 17
0 9 8 -6 19 -10 23 -10z m-43 -14 c13 -26 3 -50 -26 -57 -30 -8 -44 2 -44 30
0 44 50 63 70 27z"/>
<path d="M2863 4665 c-33 -14 -45 -46 -23 -60 7 -4 9 2 4 19 -5 20 -2 26 11
26 12 0 15 -5 10 -20 -9 -28 38 -39 65 -15 22 20 23 25 12 41 -13 20 -46 23
-79 9z m67 -24 c0 -23 -37 -38 -53 -22 -8 8 -7 11 2 11 11 0 11 3 1 15 -11 13
-8 15 19 15 24 0 31 -4 31 -19z"/>
<path d="M3041 4658 c-5 -13 -16 -40 -25 -62 -14 -33 -14 -37 -1 -26 8 7 15
19 15 26 0 8 4 14 9 14 5 0 11 16 13 35 5 40 1 44 -11 13z"/>
<path d="M2626 4602 c-33 -23 -48 -27 -102 -26 -58 2 -64 0 -64 -18 0 -23 28
-86 43 -95 5 -3 14 2 19 12 21 37 115 58 137 31 9 -11 6 -19 -16 -36 -22 -18
-37 -21 -73 -17 -40 5 -43 4 -25 -9 10 -8 25 -14 32 -14 29 0 80 29 97 55 23
35 26 109 6 130 -14 13 -20 12 -54 -13z m34 -65 c-9 -9 -15 -8 -23 4 -9 15
-14 15 -44 2 -19 -7 -39 -11 -45 -7 -7 4 -8 3 -4 -4 3 -6 -3 -16 -15 -23 -19
-10 -25 -9 -36 7 -7 10 -13 23 -13 28 0 6 4 5 9 -2 10 -16 21 -17 30 -3 4 6
21 12 39 14 18 2 35 7 39 10 3 4 14 7 24 7 9 0 20 8 24 18 6 14 9 12 17 -11 7
-21 7 -32 -2 -40z"/>
<path d="M2965 4620 c-3 -5 -1 -10 4 -10 6 0 11 5 11 10 0 6 -2 10 -4 10 -3 0
-8 -4 -11 -10z"/>
<path d="M3027 4562 c-13 -15 -14 -21 -4 -31 10 -11 8 -11 -9 -3 -18 9 -25 7
-41 -11 -37 -43 -45 -61 -11 -26 35 35 35 35 52 15 12 -15 16 -16 17 -6 1 20
6 42 14 63 9 22 2 22 -18 -1z"/>
<path d="M2220 4540 c0 -5 5 -10 11 -10 5 0 7 5 4 10 -3 6 -8 10 -11 10 -2 0
-4 -4 -4 -10z"/>
<path d="M2222 4504 c-28 -19 -28 -40 -1 -54 44 -24 127 22 99 55 -7 8 -17 15
-22 15 -5 0 -2 -7 6 -16 21 -20 21 -21 -12 -38 -32 -16 -72 -11 -72 9 0 15 24
37 32 29 3 -3 9 -1 13 5 9 16 -17 13 -43 -5z"/>
<path d="M2329 4453 c-13 -16 -12 -17 4 -4 9 7 17 15 17 17 0 8 -8 3 -21 -13z"/>
<path d="M2880 4415 c-19 -22 -8 -25 13 -3 9 10 13 18 8 18 -5 0 -14 -7 -21
-15z"/>
<path d="M2822 4374 c-13 -6 -28 -16 -34 -22 -16 -16 22 -4 46 14 26 18 17 24
-12 8z"/>
<path d="M2197 4320 c50 -49 67 -60 95 -60 31 1 32 1 14 15 -11 8 -30 15 -42
15 -12 0 -32 9 -45 20 -27 22 -22 25 16 10 17 -7 24 -7 20 0 -3 6 -12 10 -18
10 -7 0 -29 11 -49 25 -60 41 -57 29 9 -35z"/>
<path d="M2740 4330 c-13 -8 -13 -10 2 -10 9 0 20 5 23 10 8 13 -5 13 -25 0z"/>
<path d="M2610 4289 c-25 -4 -73 -8 -108 -8 -44 -1 -61 -4 -56 -12 9 -15 141
-3 219 20 37 11 7 11 -55 0z"/>
<path d="M2345 4281 c21 -10 82 -15 73 -6 -3 3 -25 7 -49 10 -32 4 -38 2 -24
-4z"/>
<path d="M4352 4751 c-30 -11 -72 -31 -95 -45 -45 -26 -108 -86 -90 -86 11 0
64 38 75 55 4 5 11 10 15 11 4 0 35 14 68 29 43 21 75 29 115 29 74 0 129 -7
123 -16 -2 -5 5 -8 15 -8 24 0 73 -25 67 -33 -3 -4 -2 -5 1 -3 7 5 50 -38 64
-64 5 -10 10 -30 10 -43 0 -14 7 -30 15 -37 13 -10 15 -9 15 11 -1 66 -71 156
-150 191 -66 30 -180 34 -248 9z"/>
<path d="M4735 4673 c14 -21 28 -55 31 -75 4 -21 10 -38 14 -38 14 0 -8 71
-34 111 -15 21 -29 39 -32 39 -2 0 7 -17 21 -37z"/>
<path d="M4275 4548 c-26 -14 -35 -23 -25 -26 7 -3 16 0 18 7 2 6 9 11 16 11
7 0 21 7 32 15 28 21 5 17 -41 -7z"/>
<path d="M4170 4465 c-30 -30 -52 -57 -49 -60 3 -2 29 20 59 50 29 31 51 58
48 60 -2 3 -28 -20 -58 -50z"/>
<path d="M4501 4454 c-23 -29 -27 -44 -12 -44 5 0 12 9 16 19 7 24 52 36 71
20 19 -16 30 -4 14 16 -20 24 -66 19 -89 -11z"/>
<path d="M4740 4410 c-15 -28 -53 -66 -62 -62 -5 1 -8 -2 -8 -7 0 -5 -10 -12
-22 -14 -22 -4 -22 -4 -2 -6 26 -1 100 56 108 84 8 27 0 31 -14 5z"/>
<path d="M4025 4310 c-43 -44 -75 -80 -71 -80 11 0 160 149 155 155 -3 2 -40
-31 -84 -75z"/>
<path d="M3874 4345 c-10 -8 -14 -15 -8 -15 6 0 17 7 24 15 16 19 9 19 -16 0z"/>
<path d="M3805 4310 l-30 -8 27 -1 c15 0 30 4 33 9 3 6 5 9 3 9 -2 -1 -16 -5
-33 -9z"/>
<path d="M4548 4313 c6 -2 18 -2 25 0 6 3 1 5 -13 5 -14 0 -19 -2 -12 -5z"/>
<path d="M4590 4310 c0 -5 7 -10 15 -10 8 0 15 5 15 10 0 6 -7 10 -15 10 -8 0
-15 -4 -15 -10z"/>
<path d="M3708 4283 c7 -3 16 -2 19 1 4 3 -2 6 -13 5 -11 0 -14 -3 -6 -6z"/>
<path d="M1685 4740 c33 -6 73 -14 89 -20 16 -6 31 -8 34 -5 10 9 -50 25 -115
29 l-68 5 60 -9z"/>
<path d="M1588 4733 c7 -3 16 -2 19 1 4 3 -2 6 -13 5 -11 0 -14 -3 -6 -6z"/>
<path d="M1530 4720 c-18 -12 -2 -12 25 0 13 6 15 9 5 9 -8 0 -22 -4 -30 -9z"/>
<path d="M1578 4697 c-126 -48 -201 -130 -234 -257 -20 -79 -13 -153 21 -227
32 -72 45 -70 15 2 -16 37 -28 120 -25 166 4 61 34 151 48 142 6 -3 7 -1 3 5
-12 20 85 109 144 133 84 33 102 35 210 25 54 -5 62 -4 45 6 -30 18 -182 21
-227 5z"/>
<path d="M1630 4508 c-62 -32 -94 -93 -85 -163 10 -83 11 -90 21 -90 5 0 23
-10 41 -23 78 -55 187 -28 231 58 12 24 22 58 22 75 0 54 -40 117 -90 143 -24
12 -56 22 -70 22 -14 0 -46 -10 -70 -22z m126 -27 c65 -29 92 -107 59 -171
-34 -66 -107 -94 -170 -64 -98 46 -98 169 0 229 48 29 58 30 111 6z"/>
<path d="M1643 4435 c-42 -29 -51 -117 -14 -139 8 -6 6 40 -4 70 -7 21 25 53
60 60 20 3 38 10 41 15 9 15 -60 10 -83 -6z"/>
<path d="M1395 4470 c3 -5 8 -10 11 -10 2 0 4 5 4 10 0 6 -5 10 -11 10 -5 0
-7 -4 -4 -10z"/>
<path d="M1495 4303 c3 -15 7 -32 8 -36 4 -17 61 -77 74 -77 7 0 13 -4 13 -10
0 -5 10 -10 23 -10 21 1 21 1 2 12 -43 23 -95 83 -101 115 -3 18 -11 33 -16
33 -6 0 -7 -11 -3 -27z"/>
<path d="M1301 4304 c0 -11 3 -14 6 -6 3 7 2 16 -1 19 -3 4 -6 -2 -5 -13z"/>
<path d="M1530 4301 c0 -6 4 -13 10 -16 6 -3 7 1 4 9 -7 18 -14 21 -14 7z"/>
<path d="M1311 4274 c-1 -18 27 -82 40 -89 6 -4 2 10 -9 31 -11 22 -22 46 -25
54 -3 8 -6 10 -6 4z"/>
<path d="M2081 4176 c2 -2 18 -6 34 -10 22 -5 26 -4 15 4 -14 9 -59 15 -49 6z"/>
<path d="M1994 4148 c-5 -7 -2 -9 9 -5 9 3 17 1 20 -6 4 -13 77 -11 91 3 13
13 0 13 -41 1 -24 -7 -35 -6 -44 5 -14 17 -25 18 -35 2z"/>
<path d="M2155 4150 c3 -5 10 -10 16 -10 5 0 9 5 9 10 0 6 -7 10 -16 10 -8 0
-12 -4 -9 -10z"/>
<path d="M4908 4563 c6 -2 18 -2 25 0 6 3 1 5 -13 5 -14 0 -19 -2 -12 -5z"/>
<path d="M4906 4493 c-11 -11 15 -32 31 -26 10 4 14 2 9 -5 -3 -6 2 -13 12
-16 22 -7 52 -71 52 -112 1 -24 2 -26 10 -12 15 24 -3 95 -32 125 -27 29 -73
55 -82 46z"/>
<path d="M4961 4344 c0 -11 3 -14 6 -6 3 7 2 16 -1 19 -3 4 -6 -2 -5 -13z"/>
<path d="M4327 4415 c-66 -25 -182 -132 -142 -132 8 0 12 4 10 7 -3 4 7 16 21
26 14 11 38 29 52 42 15 12 47 30 72 39 25 9 49 20 55 25 14 12 -25 8 -68 -7z"/>
<path d="M4252 4263 c-17 -6 -46 -63 -32 -63 5 0 10 6 10 14 0 8 15 23 33 35
29 18 22 28 -11 14z"/>
<path d="M4140 4241 c0 -6 4 -13 10 -16 6 -3 7 1 4 9 -7 18 -14 21 -14 7z"/>
<path d="M2971 4344 c-22 -18 -31 -34 -31 -57 0 -36 10 -29 25 16 8 27 17 33
53 41 27 6 46 6 50 0 7 -9 42 -15 42 -7 0 7 -69 33 -89 33 -11 0 -33 -12 -50
-26z"/>
<path d="M3040 4326 c0 -2 7 -7 16 -10 8 -3 12 -2 9 4 -6 10 -25 14 -25 6z"/>
<path d="M3050 4243 c0 -12 -7 -29 -16 -37 -14 -15 -14 -16 1 -16 22 0 42 47
27 62 -9 9 -12 7 -12 -9z"/>
<path d="M1016 4245 c-53 -20 -75 -41 -98 -94 -15 -32 -18 -52 -12 -80 4 -20
8 -40 8 -45 1 -5 9 -10 19 -12 17 -2 17 -1 4 14 -24 29 -13 142 14 142 5 0 9
8 9 17 0 9 3 14 6 10 3 -3 15 3 26 13 22 20 73 31 126 26 20 -2 29 1 24 6 -17
17 -86 18 -126 3z"/>
<path d="M1073 4083 c-13 -5 -19 -33 -7 -33 7 0 34 27 34 34 0 7 -10 7 -27 -1z"/>
<path d="M1380 4020 c0 -5 5 -10 11 -10 5 0 7 5 4 10 -3 6 -8 10 -11 10 -2 0
-4 -4 -4 -10z"/>
<path d="M940 3980 c8 -5 20 -10 25 -10 6 0 3 5 -5 10 -8 5 -19 10 -25 10 -5
0 -3 -5 5 -10z"/>
<path d="M3205 4051 c-95 -9 -108 -14 -131 -49 -16 -24 -16 -48 -4 -351 l13
-326 28 -27 c39 -40 90 -38 131 2 30 31 30 31 26 125 -3 81 -2 95 12 95 8 0
49 -47 90 -105 85 -122 107 -140 157 -130 50 9 83 45 83 90 0 30 -12 53 -65
121 l-65 84 45 46 c95 98 91 274 -9 362 -70 61 -151 77 -311 63z m216 -33
c159 -47 204 -259 80 -379 -55 -52 -56 -43 33 -158 39 -49 49 -71 48 -95 -3
-37 -11 -46 -56 -61 -34 -12 -36 -11 -76 28 -26 26 -39 46 -35 56 3 9 3 12 -1
9 -6 -6 -21 10 -94 101 -44 56 -83 34 -80 -46 3 -90 -1 -127 -15 -143 -8 -9
-13 -19 -10 -21 8 -9 -40 -7 -67 3 -42 15 -39 -1 -56 328 -13 251 -10 334 12
358 10 12 30 23 45 25 59 9 236 6 272 -5z"/>
<path d="M3175 4001 c-50 -9 -68 -19 -61 -37 3 -8 1 -14 -4 -14 -6 0 -9 -15
-9 -32 1 -25 3 -27 6 -10 3 13 11 26 19 29 8 3 12 9 9 13 -3 4 2 14 11 21 11
9 56 13 161 12 107 0 140 3 126 11 -21 12 -201 18 -258 7z"/>
<path d="M3165 3960 c-3 -5 -2 -10 4 -10 5 0 13 5 16 10 3 6 2 10 -4 10 -5 0
-13 -4 -16 -10z"/>
<path d="M3289 3945 c-4 -3 -19 -7 -33 -9 -15 -1 -26 -6 -26 -9 0 -9 8 -10 57
-2 54 8 113 -8 148 -41 25 -23 27 -30 23 -85 -4 -51 -9 -64 -38 -94 -19 -19
-50 -40 -70 -45 -47 -13 -103 -13 -117 1 -6 6 -19 9 -29 6 -16 -4 -15 -5 4 -6
12 0 22 -5 22 -11 0 -5 19 -10 43 -10 31 0 38 -3 27 -10 -19 -12 -5 -13 18 -1
9 6 28 12 42 15 32 7 96 54 108 81 4 11 10 43 11 72 3 58 -15 102 -53 126 -26
18 -126 34 -137 22z"/>
<path d="M3238 3890 c-14 -9 -16 -23 -12 -103 3 -50 7 -98 9 -104 7 -21 86
-15 135 10 71 35 90 117 41 178 -16 19 -30 24 -87 26 -38 2 -77 -1 -86 -7z
m136 -31 c30 -14 47 -58 37 -95 -10 -39 -51 -66 -109 -72 l-50 -4 -4 83 c-2
46 -2 87 0 92 5 11 98 8 126 -4z"/>
<path d="M3300 3786 c0 -39 6 -43 36 -22 15 12 17 18 8 33 -6 10 -19 19 -28
21 -12 3 -16 -4 -16 -32z"/>
<path d="M3138 3423 c7 -3 16 -2 19 1 4 3 -2 6 -13 5 -11 0 -14 -3 -6 -6z"/>
<path d="M5113 4036 l-28 -24 -6 -314 c-3 -172 -2 -323 2 -335 17 -46 45 -53
233 -60 191 -7 214 -2 235 44 17 38 14 108 -8 134 -20 25 -82 37 -210 38 l-73
1 5 33 c3 17 9 127 13 244 l6 211 -25 26 c-36 36 -104 36 -144 2z m128 -17
c21 -21 22 -27 15 -183 -3 -89 -9 -200 -13 -248 l-6 -88 69 0 c38 -1 100 -5
139 -10 78 -10 95 -24 95 -80 0 -51 -41 -85 -101 -85 -24 0 -46 3 -49 7 -3 3
-63 8 -134 11 -123 3 -130 5 -145 27 -14 20 -16 60 -13 264 3 300 9 363 33
387 26 26 83 25 110 -2z"/>
<path d="M5149 4001 c-19 -15 -24 -30 -27 -87 -5 -80 6 -82 14 -3 7 68 27 92
68 83 27 -6 29 -5 17 10 -18 21 -43 20 -72 -3z"/>
<path d="M5270 3471 c14 -4 70 -8 125 -8 91 -1 95 0 40 7 -79 10 -199 11 -165
1z"/>
<path d="M3866 4034 c-99 -32 -168 -94 -216 -196 -84 -177 -20 -395 140 -482
103 -56 243 -44 324 27 67 58 65 144 -4 181 l-35 19 -59 -28 c-88 -42 -159
-22 -198 56 -24 45 -23 91 2 140 38 73 125 100 205 62 45 -22 81 -10 112 36
44 65 22 125 -61 166 -67 33 -145 40 -210 19z m181 -27 c77 -29 108 -85 77
-138 -24 -41 -53 -52 -89 -33 -65 34 -145 24 -199 -24 -28 -25 -56 -92 -56
-136 0 -48 40 -120 78 -140 57 -30 96 -30 162 0 52 23 63 25 71 13 5 -8 9 -10
9 -5 0 5 9 1 20 -9 32 -29 27 -81 -11 -116 -17 -16 -35 -29 -41 -29 -5 0 -6
-4 -3 -10 4 -6 -1 -7 -11 -3 -11 4 -15 3 -10 -5 3 -6 1 -14 -5 -18 -8 -4 -9
-3 -5 4 11 17 -35 14 -58 -3 -22 -17 -50 -20 -41 -5 6 9 -19 13 -97 14 -15 0
-25 3 -23 7 3 3 -16 17 -40 30 -87 46 -137 146 -138 274 -1 67 4 90 26 140 15
32 39 74 53 92 28 37 94 85 139 101 40 14 152 13 192 -1z m-27 -651 c0 -2 -7
-6 -15 -10 -8 -3 -15 -1 -15 4 0 6 7 10 15 10 8 0 15 -2 15 -4z"/>
<path d="M3890 3991 c-104 -34 -189 -118 -214 -211 -4 -17 0 -12 14 13 12 21
29 46 38 57 9 10 23 26 30 35 7 8 19 12 25 9 7 -4 9 -3 4 1 -9 10 33 56 44 49
5 -3 9 0 9 5 0 6 3 10 8 9 4 -1 30 4 58 11 39 9 66 10 110 2 74 -14 75 -14 39
5 -35 19 -129 27 -165 15z"/>
<path d="M4034 3515 c-17 -13 -16 -14 14 -4 33 11 41 19 19 19 -7 0 -22 -7
-33 -15z"/>
<path d="M3860 3500 c20 -13 33 -13 25 0 -3 6 -14 10 -23 10 -15 0 -15 -2 -2
-10z"/>
<path d="M3978 3493 c6 -2 18 -2 25 0 6 3 1 5 -13 5 -14 0 -19 -2 -12 -5z"/>
<path d="M4284 4031 c-53 -23 -54 -31 -54 -369 0 -193 4 -321 10 -332 6 -11
28 -24 49 -31 52 -15 106 9 120 54 5 18 11 168 13 334 3 296 3 303 -18 323
-24 24 -87 35 -120 21z m90 -22 c33 -15 40 -58 32 -212 -3 -67 -8 -189 -12
-272 -6 -175 -16 -199 -77 -201 -20 0 -34 3 -31 7 2 4 -4 12 -13 18 -17 9 -18
33 -18 321 l0 312 24 19 c26 22 59 24 95 8z"/>
<path d="M4284 3965 c-22 -33 -12 -43 15 -16 12 12 30 21 40 21 11 0 23 5 26
10 4 6 -8 10 -29 10 -27 0 -40 -6 -52 -25z"/>
<path d="M4277 3914 c-4 -4 -7 -17 -7 -28 1 -19 1 -20 11 -3 11 19 8 43 -4 31z"/>
<path d="M4703 4030 c-12 -5 -29 -19 -37 -32 -22 -34 -206 -593 -206 -626 0
-41 37 -72 87 -72 48 0 70 21 92 88 l16 47 91 3 91 3 22 -61 c12 -33 30 -64
41 -70 50 -27 123 4 134 58 5 19 -18 102 -80 287 -106 318 -124 362 -159 375
-31 12 -62 12 -92 0z m108 -39 c20 -25 199 -559 199 -595 0 -29 -26 -76 -42
-76 -5 0 -6 5 -3 10 3 6 2 10 -4 10 -5 0 -11 -6 -13 -12 -7 -20 -67 47 -74 81
-4 17 -10 31 -15 31 -5 0 -8 5 -7 12 4 14 -125 21 -179 10 -32 -6 -39 -12 -41
-35 -2 -17 -8 -25 -14 -21 -7 4 -8 2 -4 -5 4 -6 2 -18 -4 -26 -6 -8 -8 -20 -4
-26 4 -7 3 -9 -4 -5 -6 3 -18 -1 -26 -10 -27 -26 -96 3 -96 40 0 30 169 544
197 599 8 15 24 32 36 37 31 13 79 4 98 -19z"/>
<path d="M4714 3982 c-17 -11 -31 -42 -75 -164 -56 -155 -70 -200 -59 -193 4
3 11 19 15 35 4 16 11 32 16 35 5 4 9 14 9 23 0 9 6 29 14 43 7 14 16 37 20
52 3 15 10 27 15 27 5 0 7 9 4 20 -3 11 0 20 6 20 6 0 11 9 11 19 0 11 6 26
13 33 8 7 12 18 10 25 -4 12 54 29 64 19 4 -3 1 -6 -6 -6 -7 0 -9 -5 -5 -11 4
-8 9 -7 15 2 4 7 5 17 3 21 -6 10 -55 10 -70 0z"/>
<path d="M4729 3737 c-27 -67 -49 -144 -48 -164 0 -10 3 -13 6 -5 3 7 26 12
62 12 32 0 60 3 63 6 7 6 -54 194 -62 194 -3 0 -12 -19 -21 -43z m45 -72 c10
-33 17 -62 15 -64 -2 -2 -23 -4 -47 -5 -35 -2 -41 1 -37 14 4 8 14 41 22 73 9
32 19 54 23 50 3 -4 14 -35 24 -68z"/>
<path d="M4718 3553 c12 -2 30 -2 40 0 9 3 -1 5 -23 4 -22 0 -30 -2 -17 -4z"/>
<path d="M2715 4016 c-143 -17 -165 -33 -165 -123 0 -76 50 -576 60 -600 5
-12 20 -29 34 -38 23 -15 37 -15 182 -1 171 17 185 23 204 81 13 40 -6 97 -40
115 -20 11 -134 8 -196 -5 -20 -4 -22 0 -26 43 -2 26 0 50 5 53 5 3 41 9 80
12 88 8 112 27 112 91 0 30 -6 51 -20 66 -18 21 -27 22 -107 17 l-86 -4 -4 48
-3 48 35 5 c19 3 65 8 102 12 85 8 113 33 113 101 0 37 -5 49 -28 69 -32 28
-81 30 -252 10z m245 -22 c10 -11 13 -28 11 -72 -1 -28 -7 -35 -36 -48 -19 -7
-56 -14 -82 -15 -26 0 -66 -3 -88 -7 l-40 -7 3 -65 c2 -36 5 -67 8 -71 2 -3
45 -4 97 -1 90 4 93 4 103 -19 5 -13 8 -37 6 -52 -4 -36 -50 -57 -120 -57 -73
0 -84 -12 -74 -85 l7 -60 109 3 c123 3 146 -7 146 -62 0 -57 -21 -73 -102 -81
-76 -6 -128 -11 -215 -20 -29 -2 -52 -1 -51 3 1 4 -4 18 -10 32 -12 26 -62
499 -62 583 0 80 19 90 200 107 105 9 177 7 190 -6z"/>
<path d="M2760 3974 c-152 -15 -171 -25 -169 -93 0 -20 3 -29 6 -21 2 8 11 29
19 47 15 33 31 39 139 47 85 7 155 19 161 27 3 5 -1 8 -8 8 -7 -1 -74 -7 -148
-15z"/>
<path d="M2780 3680 c-21 -5 -3 -6 45 -3 44 3 82 7 84 9 8 7 -93 2 -129 -6z"/>
<path d="M2820 3411 c-43 -4 -59 -9 -47 -14 11 -4 22 -5 25 -3 4 2 43 7 87 11
44 4 82 9 84 11 5 5 -61 3 -149 -5z"/>
<path d="M2321 3990 c-18 -4 -42 -17 -53 -28 -18 -18 -101 -235 -117 -307 -6
-28 -12 -20 -84 116 -45 87 -87 153 -102 163 -51 34 -139 11 -166 -43 -10 -20
-14 -110 -17 -363 l-3 -337 25 -26 c19 -19 36 -25 66 -25 95 0 110 32 110 227
l0 147 61 -119 c34 -66 66 -126 71 -132 15 -18 68 -16 89 3 10 9 37 72 61 140
42 122 58 149 58 99 0 -14 9 -79 21 -143 25 -140 39 -162 107 -162 35 0 49 6
73 29 34 35 37 64 14 210 -79 517 -74 494 -103 522 -32 31 -64 39 -111 29z
m101 -38 c19 -19 70 -331 72 -439 0 -40 4 -64 8 -55 4 9 7 15 7 12 20 -145 21
-176 10 -202 -22 -53 -84 -66 -122 -26 -11 12 -28 82 -42 173 -12 77 -39 174
-46 169 -5 -3 -9 -11 -9 -18 0 -7 -7 -26 -15 -43 -8 -16 -32 -76 -54 -133 -38
-103 -54 -123 -91 -113 -15 4 -60 73 -60 91 0 6 -24 51 -54 102 l-55 92 -5
-44 c-6 -42 -18 -251 -17 -296 1 -13 -4 -20 -9 -17 -6 3 -10 -3 -10 -14 0 -12
-2 -21 -4 -21 -2 0 -12 -3 -22 -7 -10 -3 -15 -2 -12 3 4 5 -5 10 -18 10 -13 1
-21 -2 -18 -7 11 -18 -13 -9 -32 12 -18 20 -19 41 -19 349 0 316 1 330 21 356
26 36 65 46 112 30 30 -11 42 -23 66 -72 16 -32 31 -61 35 -64 3 -3 16 -26 28
-52 40 -84 74 -133 83 -117 4 8 29 73 55 144 59 165 71 190 98 204 25 12 104
8 119 -7z"/>
<path d="M2306 3927 c-20 -21 -94 -193 -110 -257 l-6 -25 12 25 c7 14 16 28
21 31 4 3 7 10 5 15 -1 5 7 30 19 56 12 25 24 57 28 70 15 47 54 88 86 88 18
0 28 4 24 10 -11 18 -55 11 -79 -13z"/>
<path d="M1851 3874 c-17 -21 -21 -39 -19 -88 1 -42 3 -49 5 -23 2 20 8 37 12
37 5 0 6 11 3 25 -2 15 0 25 7 25 7 0 10 4 6 10 -3 5 13 14 35 20 49 13 51 20
6 20 -25 0 -40 -7 -55 -26z"/>
<path d="M722 3850 c-99 -21 -205 -107 -256 -209 -144 -283 0 -636 278 -681
150 -24 313 55 347 169 10 34 9 44 -7 77 -23 46 -64 77 -101 77 -16 0 -48 -14
-72 -31 -119 -86 -258 -20 -269 128 -5 72 10 120 52 164 44 48 101 62 168 42
44 -13 56 -13 84 -1 63 26 90 136 47 193 -43 58 -172 92 -271 72z m175 -34
c30 -6 72 -35 83 -57 6 -10 10 -37 10 -61 0 -36 -6 -50 -30 -73 -28 -27 -30
-27 -74 -15 -153 43 -271 -48 -269 -206 1 -91 38 -155 110 -190 67 -33 124
-28 189 16 59 39 95 39 128 -1 31 -36 33 -73 7 -113 -11 -17 -18 -33 -15 -38
3 -4 -5 -8 -16 -8 -15 0 -20 -5 -17 -14 4 -9 -6 -20 -28 -30 -41 -20 -59 -20
-25 -1 20 11 21 14 7 15 -10 0 -28 -11 -41 -25 -13 -14 -27 -25 -32 -25 -5 0
-2 5 6 11 12 8 10 9 -10 5 -14 -3 -47 -6 -75 -7 l-50 -2 45 -7 45 -7 -55 -1
c-30 0 -66 4 -80 9 -23 8 -22 8 8 5 19 -1 29 1 24 6 -5 5 -23 10 -41 10 -17 1
-31 6 -31 12 0 6 -5 4 -10 -4 -6 -10 -10 -11 -10 -2 0 6 -5 12 -11 12 -5 0 -7
-6 -3 -12 9 -16 -102 97 -133 135 -13 15 -21 27 -18 27 3 0 -1 10 -9 23 -8 12
-22 49 -30 82 -60 227 69 483 269 536 30 8 140 5 182 -5z"/>
<path d="M694 3779 c-60 -23 -123 -74 -163 -133 -33 -47 -72 -152 -70 -188 1
-14 8 -2 18 30 9 29 21 49 25 45 5 -4 5 3 1 16 -5 16 -4 21 4 17 7 -4 11 1 11
13 0 11 5 23 10 26 6 4 7 12 3 18 -4 7 1 6 10 -2 15 -12 17 -12 12 1 -3 8 1
21 10 28 8 7 15 19 15 26 0 8 4 14 9 14 4 0 20 12 35 26 14 15 26 24 26 20 0
-4 14 2 30 14 17 12 50 24 73 26 23 3 51 6 62 7 11 2 39 -2 63 -9 48 -14 58
-1 11 15 -48 17 -138 12 -195 -10z"/>
<path d="M450 3421 c0 -6 4 -12 8 -15 5 -3 9 1 9 9 0 8 -4 15 -9 15 -4 0 -8
-4 -8 -9z"/>
<path d="M951 3227 c-6 -8 -32 -24 -57 -37 -25 -14 -41 -26 -35 -28 6 -2 30 7
54 21 23 13 49 22 57 19 8 -2 12 -1 8 3 -4 5 -3 14 3 22 9 10 8 13 -4 13 -8 0
-20 -6 -26 -13z"/>
<path d="M730 3170 c14 -9 119 -15 109 -6 -2 2 -31 6 -64 9 -39 4 -54 3 -45
-3z"/>
<path d="M1313 3846 c-127 -41 -218 -155 -244 -305 -29 -164 64 -347 209 -414
66 -30 188 -30 254 0 64 29 137 105 173 178 28 56 30 68 30 175 0 104 -3 121
-27 172 -57 123 -162 198 -286 204 -39 2 -84 -2 -109 -10z m220 -41 c63 -28
117 -82 153 -154 21 -43 28 -74 32 -141 4 -77 2 -93 -23 -151 -15 -35 -28 -72
-28 -81 -1 -9 -4 -16 -7 -15 -4 1 -29 -20 -55 -48 -27 -27 -46 -44 -41 -37 7
11 4 11 -13 0 -12 -7 -21 -15 -21 -18 0 -3 -17 -6 -37 -8 -21 -1 -42 -7 -48
-13 -7 -7 -4 -8 10 -3 11 4 17 4 13 0 -4 -5 -24 -10 -45 -12 -30 -3 -34 -2
-18 6 16 8 12 9 -19 6 -22 -2 -46 -1 -55 4 -9 4 -36 17 -61 28 -105 49 -171
153 -178 281 -6 99 11 167 58 239 88 137 238 182 383 117z"/>
<path d="M1340 3801 c-126 -41 -211 -146 -226 -277 -4 -32 -4 -56 0 -53 4 4 9
24 11 44 2 21 9 42 17 46 8 5 9 9 2 9 -16 0 14 58 56 109 19 22 38 37 43 34 6
-3 7 -2 4 4 -4 6 17 23 46 39 42 23 65 28 122 28 70 1 106 -4 115 -15 3 -4 16
-9 30 -13 16 -5 9 3 -19 20 -34 21 -59 28 -110 30 -36 2 -77 0 -91 -5z"/>
<path d="M1324 3650 c-103 -67 -122 -213 -41 -302 66 -72 163 -73 233 -4 79
79 81 191 5 277 -36 41 -41 43 -102 46 -52 3 -70 0 -95 -17z m165 -27 c35 -25
71 -99 71 -143 -1 -160 -199 -230 -279 -98 -56 91 -22 211 73 254 39 18 101
12 135 -13z"/>
<path d="M1522 3320 c-18 -17 -27 -30 -21 -30 11 0 23 11 48 43 20 25 10 20
-27 -13z"/>
<path d="M1357 3268 c2 -5 26 -8 53 -8 27 0 51 3 53 8 3 4 -21 7 -53 7 -32 0
-56 -3 -53 -7z"/>
<path d="M1150 3810 c0 -5 5 -10 10 -10 6 0 10 5 10 10 0 6 -4 10 -10 10 -5 0
-10 -4 -10 -10z"/>
<path d="M4969 3057 c-76 -51 -76 -112 1 -243 29 -49 78 -131 109 -182 l57
-93 -19 -167 c-21 -193 -18 -235 17 -270 30 -30 116 -41 155 -20 54 29 62 54
83 254 l20 188 129 154 c162 195 189 234 189 284 0 74 -84 129 -165 107 -34
-10 -67 -46 -195 -216 -51 -68 -70 -85 -70 -64 0 20 -144 253 -167 271 -36 28
-100 26 -144 -3z m143 -24 c11 -10 28 -32 37 -50 28 -56 136 -233 141 -233 3
0 56 65 119 145 118 152 132 163 195 151 71 -13 100 -58 77 -119 -9 -22 -100
-141 -172 -222 -64 -73 -131 -151 -137 -160 -10 -15 -11 -21 -17 -136 -3 -57
-8 -111 -10 -119 -2 -8 -7 -37 -11 -65 -13 -103 -54 -142 -138 -128 -33 5 -41
13 -37 36 1 5 -3 6 -8 2 -6 -3 -13 6 -17 20 -6 26 0 178 10 245 19 120 13 160
-34 230 -83 123 -164 267 -171 305 -9 48 9 87 49 110 34 19 96 13 124 -12z"/>
<path d="M4991 3013 c-23 -19 -46 -83 -30 -83 5 0 9 7 9 16 0 20 54 74 74 74
8 0 18 -4 21 -10 3 -5 12 -10 18 -10 8 0 7 3 -2 9 -11 7 -11 9 0 14 8 3 -5 6
-27 6 -26 1 -50 -6 -63 -16z"/>
<path d="M5550 3016 c-21 -12 -64 -61 -150 -170 -8 -10 -28 -35 -45 -55 -17
-21 -21 -28 -8 -18 12 11 26 16 32 12 6 -3 9 0 6 8 -3 7 5 25 17 39 13 14 43
51 67 81 29 36 50 53 60 50 13 -4 13 -3 2 5 -24 17 24 41 72 35 29 -4 39 -2
32 5 -17 18 -59 22 -85 8z"/>
<path d="M4596 3050 c-15 -5 -36 -16 -46 -25 -23 -21 -84 -159 -200 -450 -133
-335 -135 -339 -120 -374 33 -80 154 -91 198 -18 11 18 25 50 32 72 7 22 16
44 20 48 4 4 63 5 132 1 l125 -7 18 -71 c24 -92 56 -126 117 -126 59 0 104 29
118 77 12 40 10 46 -174 648 -60 195 -75 216 -158 229 -18 3 -46 1 -62 -4z
m100 -26 c37 -10 53 -49 154 -384 17 -58 40 -134 51 -169 10 -35 19 -70 19
-76 0 -7 6 -25 14 -41 21 -43 40 -146 32 -177 -3 -15 -13 -27 -22 -27 -8 0
-13 -4 -10 -9 9 -14 -47 -23 -89 -15 -20 3 -33 9 -30 12 3 3 -1 15 -8 26 -8
12 -24 54 -36 93 -25 85 -22 84 -168 80 -57 -1 -96 2 -90 6 8 6 5 7 -6 3 -10
-3 -24 -6 -31 -6 -7 0 -21 -7 -32 -15 -18 -14 -18 -15 0 -9 16 6 17 4 11 -17
-4 -13 -12 -27 -17 -30 -5 -3 -10 -12 -12 -20 -9 -55 -47 -89 -98 -89 -29 0
-38 7 -66 47 -19 27 -21 36 -11 54 6 12 28 70 49 128 21 58 52 140 70 181 17
41 48 118 70 170 66 163 109 251 132 270 23 19 81 26 124 14z"/>
<path d="M4584 2978 c-18 -21 -34 -53 -120 -243 -28 -63 -48 -122 -37 -111 4
3 18 33 33 66 15 33 30 57 35 53 4 -5 5 -3 2 3 -8 14 11 74 24 74 5 0 9 9 9
20 0 28 55 122 65 112 4 -4 5 -2 1 5 -8 15 3 21 49 27 54 7 56 16 3 16 -34 0
-49 -5 -64 -22z"/>
<path d="M4620 2732 c0 -6 -15 -44 -34 -84 -38 -82 -60 -147 -53 -154 2 -3 41
-7 86 -11 l81 -6 0 30 c0 33 -56 212 -71 228 -6 5 -9 5 -9 -3z m36 -115 c12
-45 25 -90 29 -99 6 -16 0 -18 -65 -18 -65 0 -71 2 -65 18 4 9 21 54 37 100
17 45 33 82 37 82 3 0 15 -37 27 -83z"/>
<path d="M4618 2453 c18 -2 45 -2 60 0 15 2 0 4 -33 4 -33 0 -45 -2 -27 -4z"/>
<path d="M4281 2264 c0 -11 3 -14 6 -6 3 7 2 16 -1 19 -3 4 -6 -2 -5 -13z"/>
<path d="M3653 3026 c-60 -27 -64 -42 -70 -288 -5 -188 -3 -236 11 -299 40
-183 158 -279 326 -267 144 11 244 109 285 280 17 73 42 470 31 511 -8 34 -59
67 -104 67 -41 0 -88 -23 -102 -51 -6 -11 -16 -118 -21 -237 -10 -226 -16
-265 -50 -300 -29 -32 -88 -30 -120 4 l-24 26 0 254 0 253 -26 26 c-32 32 -91
41 -136 21z m113 -24 c30 -20 33 -50 27 -274 -5 -173 -3 -234 7 -258 31 -74
122 -96 174 -41 38 39 44 76 55 301 6 107 15 209 21 226 19 54 81 69 139 33
l34 -20 -7 -147 c-9 -199 -25 -336 -46 -398 -10 -29 -15 -56 -12 -60 4 -4 2
-4 -4 -1 -7 4 -14 -3 -18 -18 -4 -14 -11 -25 -17 -25 -6 0 -7 -5 -4 -10 3 -6
-1 -13 -9 -16 -9 -3 -13 -10 -10 -15 3 -5 -2 -9 -11 -9 -9 0 -14 -4 -11 -9 4
-5 -4 -7 -16 -4 -16 3 -19 2 -10 -5 10 -7 10 -11 -3 -22 -9 -7 -15 -9 -14 -4
4 21 -2 26 -16 14 -8 -7 -12 -17 -8 -23 4 -6 -2 -8 -15 -5 -12 4 -20 2 -17 -2
5 -8 -5 -10 -68 -10 -15 -1 -25 -5 -22 -9 3 -5 -4 -7 -15 -4 -11 3 -20 12 -20
19 0 11 -9 13 -38 8 -29 -5 -41 -2 -52 12 -14 16 -13 16 7 6 12 -7 25 -12 30
-12 4 1 -3 7 -17 15 -16 9 -29 10 -37 4 -7 -7 -14 -6 -19 2 -4 8 -3 9 4 5 27
-16 9 11 -18 29 -37 24 -86 119 -100 194 -11 59 -12 241 -1 393 5 83 9 100 30
122 20 21 34 26 70 26 25 0 51 -4 57 -8z"/>
<path d="M3679 2979 c-31 -11 -49 -47 -48 -92 l1 -32 11 35 c18 55 32 72 58
75 13 1 35 3 49 5 l25 2 -25 8 c-33 10 -40 10 -71 -1z"/>
<path d="M4087 2968 c-9 -7 -18 -26 -22 -43 -3 -16 -2 -23 1 -15 4 8 16 25 27
37 17 19 28 22 61 18 29 -4 37 -2 26 5 -21 14 -73 12 -93 -2z"/>
<path d="M4061 2874 c0 -11 3 -14 6 -6 3 7 2 16 -1 19 -3 4 -6 -2 -5 -13z"/>
<path d="M3177 3010 c-160 -27 -293 -170 -332 -355 -19 -89 -19 -109 1 -202
34 -165 121 -268 263 -309 136 -39 317 17 390 122 19 28 21 43 21 182 0 143
-1 152 -23 177 -22 26 -25 27 -136 26 -154 -2 -191 -22 -191 -106 0 -27 8 -44
29 -66 26 -26 34 -28 73 -23 l45 6 -6 -43 c-5 -33 -12 -46 -31 -56 -37 -19
-80 -16 -130 10 -135 67 -127 317 11 388 46 23 119 23 175 -1 86 -37 167 78
119 169 -18 36 -84 69 -161 81 -33 6 -61 9 -64 9 -3 -1 -27 -5 -53 -9z m168
-35 c100 -29 131 -94 79 -162 -18 -24 -33 -33 -54 -33 -16 0 -31 4 -34 9 -6 9
-83 27 -98 23 -3 -1 -21 -4 -40 -7 -105 -19 -177 -138 -165 -273 12 -125 80
-196 188 -197 77 0 114 26 115 81 1 72 -3 77 -58 72 -64 -7 -93 18 -84 71 9
59 23 66 154 69 159 5 155 10 150 -182 l-3 -145 -35 -31 c-19 -17 -28 -28 -20
-24 10 5 8 0 -4 -15 -11 -12 -26 -19 -33 -16 -8 2 -12 1 -9 -4 3 -5 -1 -12
-10 -15 -9 -4 -13 -2 -8 5 8 13 -35 2 -51 -12 -5 -5 -17 -9 -26 -9 -9 0 -19
-7 -23 -15 -3 -8 -13 -15 -23 -15 -15 0 -16 2 -3 10 11 7 4 10 -25 9 -31 0
-36 -2 -20 -9 16 -7 11 -9 -20 -9 -22 1 -34 3 -27 6 6 2 12 9 12 14 0 6 -9 5
-21 -2 -15 -8 -19 -8 -15 0 7 11 3 13 -47 16 -16 1 -33 8 -37 15 -4 7 -13 9
-20 5 -9 -5 -11 -4 -6 3 4 7 3 12 -3 12 -22 0 -96 88 -124 149 -25 53 -32 82
-35 151 -15 311 219 531 483 455z"/>
<path d="M3180 2957 c-139 -31 -255 -153 -288 -304 -6 -24 -6 -43 -1 -43 4 0
11 16 15 35 3 19 10 38 15 41 5 3 9 16 9 30 0 15 4 23 10 19 6 -4 9 -3 8 2 -3
10 44 94 50 88 3 -2 13 7 24 20 11 14 26 25 34 25 7 0 19 9 26 20 7 11 17 20
23 20 5 0 24 7 40 16 36 19 166 22 209 5 16 -6 31 -9 34 -6 8 8 -59 32 -108
38 -25 3 -70 0 -100 -6z"/>
<path d="M3250 2599 c-30 -12 -27 -8 -36 -44 l-7 -30 26 31 c25 29 31 31 102
33 115 3 140 20 30 20 -49 0 -101 -5 -115 -10z"/>
<path d="M3325 2340 c-3 -5 -20 -13 -38 -18 -20 -5 -26 -10 -17 -14 8 -3 31 5
50 18 19 13 29 24 23 24 -7 0 -15 -4 -18 -10z"/>
<path d="M3220 2300 c0 -5 5 -10 11 -10 5 0 7 5 4 10 -3 6 -8 10 -11 10 -2 0
-4 -4 -4 -10z"/>
<path d="M2598 2934 c-54 -29 -57 -49 -49 -279 4 -115 4 -226 1 -247 -14 -74
-74 -112 -131 -83 -48 25 -57 61 -72 305 l-13 223 -29 24 c-25 22 -36 25 -84
21 -46 -4 -59 -10 -83 -37 -33 -37 -34 -57 -18 -291 16 -237 45 -336 119 -413
62 -66 103 -82 206 -82 78 0 97 4 140 27 105 55 166 152 186 294 13 91 4 440
-12 492 -18 56 -100 80 -161 46z m100 -15 c17 -6 34 -18 38 -27 13 -31 22
-326 13 -422 -5 -52 -9 -105 -9 -117 0 -31 -46 -118 -78 -149 -15 -15 -20 -23
-12 -19 19 10 -19 -25 -46 -43 -34 -22 -65 -32 -76 -26 -7 4 -8 2 -4 -4 10
-16 -7 -15 -23 1 -9 8 -12 8 -7 0 7 -13 -12 -20 -61 -22 -18 -1 -33 3 -33 7 0
5 -14 9 -32 10 -17 0 -34 4 -37 9 -3 4 -15 15 -25 23 -18 13 -19 13 -11 0 8
-13 7 -13 -8 -1 -10 8 -15 16 -13 19 3 2 -5 13 -17 22 -35 28 -76 112 -92 186
-8 37 -19 147 -26 245 -13 199 -8 228 42 255 35 18 99 11 116 -12 17 -24 21
-51 32 -272 8 -137 15 -201 26 -222 34 -66 123 -87 171 -39 48 48 53 84 47
322 -7 237 -3 258 46 276 35 13 43 13 79 0z"/>
<path d="M2610 2880 c-14 -14 -20 -32 -19 -62 1 -26 3 -33 6 -18 2 14 5 30 7
35 2 6 5 15 6 20 2 6 16 16 33 23 35 15 40 15 32 2 -3 -6 1 -7 9 -4 28 11 17
24 -19 24 -22 0 -43 -8 -55 -20z"/>
<path d="M2180 2832 c-14 -11 -23 -32 -26 -62 -4 -31 -3 -41 4 -31 6 8 8 20 5
28 -3 7 0 13 6 13 6 0 11 10 11 22 0 12 3 18 7 15 3 -4 13 -1 22 7 9 8 27 16
41 19 19 3 16 5 -11 6 -22 0 -46 -6 -59 -17z"/>
<path d="M1665 2839 c-91 -13 -196 -40 -236 -60 -62 -31 -66 -56 -41 -248 36
-272 91 -621 102 -640 14 -27 55 -51 86 -51 46 0 110 37 125 71 10 26 9 51 -4
147 -13 91 -14 118 -4 124 8 6 50 -31 127 -111 148 -153 158 -158 236 -121 51
25 79 75 70 125 -5 26 -29 55 -103 124 l-96 91 36 36 c56 57 81 116 85 205 4
67 0 85 -23 137 -61 137 -187 196 -360 171z m169 -28 c21 -5 60 -24 86 -42
136 -93 144 -306 16 -428 -20 -19 -36 -39 -36 -43 0 -4 39 -47 88 -95 48 -48
93 -98 100 -111 15 -29 16 -62 2 -62 -5 0 -10 -5 -10 -11 0 -7 -8 -18 -17 -26
-11 -9 -12 -12 -3 -7 9 4 12 3 7 -2 -5 -5 -27 -14 -49 -19 l-41 -10 -73 75
c-191 195 -197 200 -238 184 -8 -3 -13 -11 -10 -18 3 -7 1 -31 -4 -54 -6 -23
-6 -40 -2 -37 11 7 20 -20 27 -84 3 -31 5 -58 5 -61 1 -3 -3 -20 -7 -37 -6
-26 -14 -35 -41 -42 -18 -5 -43 -7 -55 -4 -16 5 -20 3 -14 -6 4 -8 -2 -7 -17
3 -36 23 -46 49 -62 161 -9 55 -24 152 -35 215 -58 341 -67 456 -36 490 48 53
305 97 419 71z m-134 -605 c0 -2 -7 -7 -16 -10 -8 -3 -12 -2 -9 4 6 10 25 14
25 6z"/>
<path d="M1650 2789 c-25 -5 -80 -19 -124 -31 -88 -24 -118 -54 -108 -106 5
-22 7 -24 10 -7 7 33 42 75 63 75 10 0 19 5 19 11 0 7 15 9 43 5 25 -3 37 -2
28 3 -16 10 1 24 21 16 8 -3 33 1 57 10 24 8 46 13 50 10 4 -2 40 -5 79 -6 40
-1 72 -5 72 -9 0 -4 7 -7 15 -7 32 0 13 17 -37 32 -57 16 -119 18 -188 4z"/>
<path d="M1647 2645 c-26 -6 -50 -15 -54 -19 -4 -3 2 -61 13 -129 l19 -122 52
2 c130 6 217 111 167 202 -39 70 -101 91 -197 66z m129 -30 c39 -16 69 -72 60
-111 -11 -42 -55 -83 -109 -99 -84 -25 -83 -26 -96 73 -6 48 -14 97 -17 109
-5 19 0 22 48 31 75 14 75 14 114 -3z"/>
<path d="M1848 2435 c-14 -21 -44 -46 -73 -61 -36 -18 -42 -23 -21 -19 41 9
80 39 105 80 27 46 18 45 -11 0z"/>
<path d="M1655 2340 c-19 -8 -19 -9 2 -9 12 -1 25 4 28 9 7 12 -2 12 -30 0z"/>
<path d="M1087 2796 c-49 -18 -67 -34 -84 -73 -14 -34 -2 -127 57 -447 11 -61
20 -129 20 -153 0 -46 -22 -99 -49 -120 -23 -18 -93 -16 -119 3 -49 34 -62 80
-128 433 -19 107 -42 207 -49 221 -16 31 -70 60 -112 60 -65 -1 -145 -59 -159
-117 -11 -43 56 -410 102 -563 66 -216 170 -328 336 -361 113 -23 263 26 344
113 76 81 96 140 101 293 5 118 1 152 -37 380 -23 137 -48 262 -56 277 -29 56
-100 79 -167 54z m113 -31 c33 -17 53 -69 69 -185 6 -41 20 -136 31 -210 20
-131 26 -375 9 -386 -6 -3 -20 -60 -23 -89 -2 -16 -27 -58 -49 -82 -23 -25
-47 -32 -27 -8 11 13 10 14 -4 9 -10 -4 -14 -13 -11 -24 4 -12 -5 -22 -32 -35
-21 -10 -50 -24 -65 -32 -16 -8 -28 -11 -28 -7 0 5 -5 3 -12 -4 -15 -15 -48
-16 -48 -1 0 6 7 9 15 5 8 -3 15 -1 15 4 0 16 -30 11 -36 -5 -4 -10 -20 -15
-53 -15 -47 0 -75 11 -69 25 3 9 -53 27 -60 20 -2 -2 8 -7 23 -11 17 -4 22 -9
15 -14 -6 -4 -28 1 -48 11 -42 22 -62 39 -45 39 7 0 15 -4 18 -10 3 -5 11 -10
18 -10 6 0 2 7 -10 15 -12 8 -29 12 -39 8 -13 -5 -16 -3 -11 10 3 9 2 17 -3
17 -21 0 -26 4 -44 34 -10 17 -22 33 -26 36 -4 3 -23 39 -42 80 -59 125 -129
439 -132 582 -1 82 1 89 25 113 25 25 79 44 127 45 38 0 78 -48 86 -105 4 -28
16 -94 27 -149 11 -54 26 -137 34 -185 32 -185 75 -268 151 -287 43 -11 96 12
123 51 43 64 42 107 -14 420 -34 192 -37 275 -11 304 35 38 109 51 156 26z"/>
<path d="M1093 2734 c-33 -16 -43 -39 -42 -89 l1 -30 8 33 c11 47 46 81 76 76
13 -2 24 0 24 5 0 5 10 7 23 4 18 -4 19 -3 7 6 -21 15 -60 13 -97 -5z"/>
<path d="M575 2646 c-35 -15 -55 -53 -54 -99 0 -18 3 -26 6 -19 2 6 9 10 14 7
5 -4 6 1 3 9 -12 30 43 100 70 90 9 -3 16 -1 16 6 0 6 4 9 8 6 4 -2 14 -1 22
5 24 14 -50 10 -85 -5z"/>
<path d="M1260 1885 c-11 -13 -10 -14 4 -9 9 3 16 10 16 15 0 13 -6 11 -20 -6z"/>
<path d="M1135 1770 c-3 -5 -1 -10 4 -10 6 0 11 5 11 10 0 6 -2 10 -4 10 -3 0
-8 -4 -11 -10z"/>
<path d="M1070 1740 c-8 -5 -10 -10 -5 -10 6 0 17 5 25 10 8 5 11 10 5 10 -5
0 -17 -5 -25 -10z"/>
<path d="M908 1713 c7 -3 16 -2 19 1 4 3 -2 6 -13 5 -11 0 -14 -3 -6 -6z"/>
<path d="M376 2850 c8 -43 14 -51 14 -19 0 13 -5 31 -10 39 -7 11 -8 5 -4 -20z"/>
<path d="M2825 2031 c-33 -9 -77 -29 -97 -45 -32 -24 -39 -36 -44 -78 -5 -33
-10 -45 -15 -36 -6 9 -9 7 -9 -9 0 -13 4 -23 8 -23 13 0 1 -58 -13 -64 -20 -7
-49 0 -53 14 -3 7 0 10 7 6 7 -5 9 -1 4 10 -4 11 -2 15 4 11 9 -6 10 8 4 46 0
5 -6 5 -11 2 -6 -3 -17 1 -25 9 -27 26 -75 -5 -75 -49 0 -30 31 -55 68 -55 36
0 39 -6 18 -29 -15 -16 -11 -55 9 -103 6 -15 2 -18 -20 -18 -36 0 -59 26 -59
68 0 19 -2 29 -4 22 -3 -7 -12 9 -21 35 -25 75 -45 85 -186 87 -139 2 -155 -2
-177 -40 -19 -32 -19 -49 4 -84 18 -27 16 -27 142 -30 l89 -3 13 -44 c7 -24
12 -47 11 -50 0 -3 9 -36 21 -72 13 -37 22 -70 20 -75 -1 -5 3 -19 10 -32 7
-12 10 -28 6 -34 -4 -7 -3 -8 4 -4 8 4 12 -1 13 -13 2 -24 3 -30 13 -53 4 -9
4 -22 0 -29 -4 -8 -3 -9 4 -5 8 5 12 -1 12 -14 0 -12 4 -30 10 -40 5 -10 11
-31 12 -48 1 -17 6 -28 10 -26 4 3 8 -2 8 -10 0 -16 36 -137 51 -171 5 -11 11
-31 13 -45 2 -14 9 -38 15 -53 6 -16 8 -33 5 -39 -4 -7 -2 -8 4 -4 7 4 12 2
12 -4 0 -15 40 -49 58 -50 10 0 10 -4 0 -19 -7 -11 -16 -17 -22 -14 -5 3 -6 1
-2 -5 4 -6 0 -26 -7 -44 -12 -28 -12 -41 1 -86 14 -49 19 -55 65 -79 39 -19
61 -24 95 -20 70 8 134 83 128 152 -3 36 -30 91 -48 98 -14 6 54 8 266 8 70 0
130 -2 133 -5 3 -3 -4 -18 -16 -34 -26 -37 -28 -108 -3 -151 23 -41 89 -73
141 -68 40 3 116 54 120 79 13 89 12 108 -8 137 -28 38 -27 53 2 46 17 -5 31
1 50 21 33 32 34 65 5 99 l-22 25 -397 0 c-219 0 -404 3 -413 6 -9 3 -16 10
-16 15 0 5 190 9 422 9 360 0 424 2 438 15 9 8 20 12 25 8 4 -5 5 -3 2 3 -4 7
0 17 8 24 20 17 46 70 39 82 -3 5 -1 15 5 22 6 7 13 26 15 42 5 46 28 114 38
114 5 0 6 4 3 10 -8 13 26 121 36 115 4 -3 5 3 2 14 -2 10 5 50 16 89 17 57
19 75 10 96 -7 14 -16 23 -22 19 -6 -4 -7 -1 -2 7 4 7 2 15 -4 19 -6 4 -9 15
-5 24 3 9 10 14 15 11 5 -3 6 1 4 9 -3 7 -2 24 3 38 10 27 -3 66 -28 86 -8 6
-32 16 -53 23 -21 6 -35 15 -31 21 3 5 9 23 14 39 12 42 -20 82 -64 79 -17 -1
-53 8 -80 21 -42 19 -52 20 -75 9 -14 -7 -30 -12 -34 -10 -5 1 -6 -3 -3 -8 4
-5 1 -21 -5 -35 -13 -27 -37 -33 -67 -17 -44 22 -70 21 -101 -5 -28 -24 -58
-91 -52 -121 1 -7 -3 -13 -9 -13 -5 0 -10 -7 -10 -16 0 -8 -4 -12 -10 -9 -5 3
-10 17 -10 30 0 13 -4 26 -9 29 -5 3 -12 21 -15 39 -10 52 -33 78 -64 72 -15
-3 -39 -7 -54 -10 -21 -4 -28 -1 -28 10 0 8 -4 15 -10 15 -5 0 -10 6 -10 13
-1 20 -42 63 -78 81 -18 9 -30 21 -27 26 4 6 5 10 3 9 -2 -1 -30 -8 -63 -18z
m97 -47 c27 -19 43 -41 55 -75 10 -27 21 -49 25 -49 4 0 28 7 53 15 25 9 50
13 55 10 17 -11 71 -194 64 -220 l-6 -25 -273 0 -272 0 -7 31 c-12 61 -9 68
42 82 l47 14 -3 64 c-2 35 1 76 7 91 32 83 137 114 213 62z m631 -45 c20 -5
37 -16 37 -24 0 -23 -20 -28 -36 -9 -13 18 -14 17 -8 -11 4 -16 8 -31 9 -33 1
-1 19 11 40 28 45 35 60 37 75 9 9 -15 9 -28 0 -50 -14 -32 -49 -67 -37 -36 6
17 -3 20 -58 19 -11 -1 -4 5 15 12 19 7 46 17 60 24 23 10 23 11 4 11 -11 1
-41 -9 -66 -22 l-45 -23 -26 31 c-21 23 -27 26 -27 13 0 -11 -8 -18 -21 -18
-17 0 -19 4 -13 23 23 74 27 76 97 56z m-201 -64 c35 -8 109 -29 163 -46 55
-17 111 -33 125 -35 26 -3 146 -50 144 -56 0 -1 -6 -25 -13 -53 l-12 -50 -281
3 c-222 2 -283 0 -289 -10 -6 -9 -9 -9 -9 -1 0 6 4 15 10 18 5 3 23 47 39 98
36 112 49 147 55 147 3 0 33 -7 68 -15z m-758 -37 c8 -14 7 -21 -6 -34 -30
-30 -75 9 -48 42 16 18 39 15 54 -8z m-151 -48 c17 -14 33 -46 52 -107 l27
-88 601 0 c331 0 612 -3 625 -7 51 -17 49 -36 -32 -311 -41 -141 -80 -266 -86
-277 -22 -42 -38 -43 -467 -47 -404 -3 -474 2 -457 28 4 7 -2 19 -14 28 -14
11 -22 31 -26 66 -2 28 -5 51 -5 53 -1 2 -5 0 -11 -3 -5 -3 -10 3 -10 13 0 11
-7 39 -16 63 -14 41 -40 131 -49 172 -5 21 -24 82 -36 114 -5 14 -4 25 5 32
16 14 1106 15 1106 1 0 -6 5 -10 11 -10 5 0 7 5 4 10 -3 6 5 10 18 10 16 0 26
-7 30 -20 3 -11 2 -18 -3 -15 -4 2 -10 -18 -14 -45 -4 -28 -12 -50 -18 -50 -6
0 -8 -11 -6 -25 3 -13 1 -22 -3 -19 -10 6 -11 3 -15 -41 -1 -16 -10 -52 -20
-80 -9 -27 -18 -59 -19 -71 -4 -30 -46 -124 -56 -124 -5 0 -6 -6 -3 -14 5 -13
-23 -28 -71 -40 -11 -2 2 -4 29 -3 40 2 52 7 67 27 29 40 159 501 148 522 -9
17 -46 18 -610 18 -518 0 -600 -2 -605 -15 -3 -8 28 -128 69 -267 90 -302 92
-308 112 -308 9 0 20 -17 27 -45 l12 -45 423 0 c417 0 422 0 433 -21 9 -16 8
-26 -5 -45 l-15 -24 -426 0 c-356 0 -430 2 -454 15 -28 14 -33 27 -80 180 -28
93 -157 517 -186 613 l-35 112 -97 0 c-72 0 -103 4 -120 16 -26 18 -28 50 -5
76 14 15 32 18 133 18 102 0 121 -3 143 -20z m412 -1044 c62 -26 89 -98 60
-160 -21 -44 -59 -66 -116 -66 -33 0 -47 6 -75 34 -29 29 -34 41 -34 79 0 52
27 92 74 113 40 17 49 17 91 0z m601 4 c5 0 25 -14 42 -31 28 -27 32 -38 32
-81 0 -44 -4 -54 -34 -84 -29 -29 -41 -34 -80 -34 -39 0 -52 6 -83 33 -32 30
-36 40 -36 81 0 31 6 56 20 74 22 30 77 54 108 47 11 -3 25 -5 31 -5z"/>
<path d="M2750 1950 c-6 -11 -8 -20 -6 -20 3 0 10 9 16 20 6 11 8 20 6 20 -3
0 -10 -9 -16 -20z"/>
<path d="M2802 1955 c-43 -19 -66 -66 -57 -121 4 -28 11 -44 20 -44 14 0 177
49 183 55 8 7 -20 74 -37 89 -30 27 -74 35 -109 21z m71 -27 c62 -43 68 -68
16 -68 -17 0 -28 -4 -25 -9 3 -4 -7 -14 -22 -20 -19 -9 -27 -10 -30 -1 -3 7
-9 4 -18 -7 -13 -17 -13 -17 -14 0 0 9 -4 17 -10 17 -5 0 -10 7 -10 15 0 9 6
12 18 9 14 -5 14 -4 3 4 -27 19 12 73 57 81 2 1 18 -9 35 -21z"/>
<path d="M2815 1920 c-4 -6 3 -10 14 -10 25 0 27 6 6 13 -8 4 -17 2 -20 -3z"/>
<path d="M2980 1836 c0 -2 7 -7 16 -10 8 -3 12 -2 9 4 -6 10 -25 14 -25 6z"/>
<path d="M2965 1794 c0 -37 29 -54 52 -31 16 16 16 18 1 34 -16 15 -17 15 -11
-7 4 -17 2 -21 -8 -18 -8 3 -14 13 -14 23 0 10 -5 20 -10 22 -6 2 -11 -9 -10
-23z"/>
<path d="M2767 1709 c-3 -12 -10 -18 -16 -14 -6 3 -9 11 -6 16 4 5 1 9 -4 9
-16 0 -13 -26 4 -40 19 -16 45 3 45 31 0 26 -16 24 -23 -2z"/>
<path d="M3300 1851 c8 -6 18 -7 22 -5 4 3 8 1 8 -4 0 -5 29 -24 65 -41 64
-32 70 -40 57 -73 -5 -13 -11 -15 -22 -8 -19 13 -30 12 -30 0 0 -5 9 -10 19
-10 13 0 21 -8 23 -24 2 -20 7 -14 24 29 l21 53 -82 46 c-45 25 -90 46 -101
46 -15 0 -16 -2 -4 -9z"/>
<path d="M3267 1750 c-3 -11 -1 -20 4 -20 5 0 9 9 9 20 0 11 -2 20 -4 20 -2 0
-6 -9 -9 -20z"/>
<path d="M3500 1749 c0 -10 13 -14 42 -13 24 0 76 -2 116 -6 91 -7 95 5 5 14
-38 4 -89 9 -115 13 -37 4 -48 2 -48 -8z"/>
<path d="M3485 1701 c-13 -12 -2 -17 31 -13 19 2 32 7 29 11 -8 7 -54 9 -60 2z"/>
<path d="M3568 1703 c7 -3 16 -2 19 1 4 3 -2 6 -13 5 -11 0 -14 -3 -6 -6z"/>
<path d="M2380 1762 c0 -5 10 -13 23 -18 15 -5 -12 -10 -83 -14 -58 -3 -103
-7 -100 -8 3 -2 46 -4 97 -5 50 -1 94 -5 97 -8 3 -3 7 -14 9 -25 1 -10 6 -25
11 -33 5 -8 9 -27 8 -42 0 -21 4 -29 17 -29 16 0 15 6 -6 78 -14 42 -28 84
-32 92 -9 17 -41 26 -41 12z"/>
<path d="M2797 1410 c-59 -47 -56 -143 7 -181 76 -46 156 4 156 98 -1 83 -99
133 -163 83z m61 -22 c18 -18 14 -45 -10 -62 -39 -28 -79 13 -52 53 17 23 44
27 62 9z m61 -22 c25 -39 27 -69 6 -86 -8 -7 -13 -16 -10 -20 7 -11 -41 -30
-64 -25 -21 4 -75 54 -67 62 2 3 13 0 23 -5 36 -20 97 35 91 80 -3 16 -3 28
-2 28 1 0 12 -15 23 -34z"/>
<path d="M3318 1410 c-61 -48 -59 -142 5 -180 48 -30 83 -26 123 14 28 28 34
42 34 76 0 34 -6 48 -34 76 -40 40 -89 46 -128 14z m60 -22 c19 -19 14 -45
-10 -62 -19 -13 -25 -14 -43 -2 -26 18 -30 40 -10 60 19 19 46 21 63 4z m42 2
c0 -5 -2 -10 -4 -10 -3 0 -8 5 -11 10 -3 6 -1 10 4 10 6 0 11 -4 11 -10z m27
-28 c8 -38 4 -72 -13 -97 -14 -21 -23 -25 -55 -23 -39 2 -89 41 -69 53 6 4 10
2 10 -2 0 -5 11 -8 25 -8 30 2 65 36 65 65 0 11 7 20 16 20 9 0 12 5 8 13 -4
6 -3 8 1 4 5 -4 10 -15 12 -25z"/>
<path d="M2610 1271 c0 -6 4 -13 10 -16 6 -3 7 1 4 9 -7 18 -14 21 -14 7z"/>
<path d="M2991 1216 c-17 -20 -4 -82 25 -114 19 -22 23 -23 24 -10 0 24 31 38
84 38 36 0 48 -5 65 -26 l20 -25 21 41 c12 24 20 55 18 73 -3 36 -12 37 -85
16 -42 -13 -61 -11 -144 17 -8 3 -21 -1 -28 -10z m82 -30 c9 0 17 -3 17 -6 0
-3 15 -5 33 -3 17 2 41 4 52 4 11 0 23 5 27 12 6 9 8 9 8 -1 0 -7 4 -11 9 -8
5 4 6 -5 2 -21 -8 -29 -39 -40 -48 -17 -6 17 -79 18 -100 1 -7 -5 -13 -6 -13
-2 0 4 -7 2 -16 -6 -13 -10 -17 -10 -25 2 -20 31 -7 65 20 53 9 -4 24 -7 34
-8z"/>
<path d="M2850 1171 c0 -5 5 -13 10 -16 6 -3 10 -2 10 4 0 5 -4 13 -10 16 -5
3 -10 2 -10 -4z"/>
<path d="M3448 1113 c6 -2 18 -2 25 0 6 3 1 5 -13 5 -14 0 -19 -2 -12 -5z"/>
<path d="M3065 1065 c23 -19 99 -16 118 5 10 10 8 11 -8 4 -25 -10 -84 -10
-110 0 l-20 8 20 -17z"/>
<path d="M2793 993 c15 -2 37 -2 50 0 12 2 0 4 -28 4 -27 0 -38 -2 -22 -4z"/>
<path d="M2918 993 c6 -2 18 -2 25 0 6 3 1 5 -13 5 -14 0 -19 -2 -12 -5z"/>
<path d="M2968 993 c7 -3 16 -2 19 1 4 3 -2 6 -13 5 -11 0 -14 -3 -6 -6z"/>
<path d="M3063 993 c37 -2 97 -2 135 0 37 2 6 3 -68 3 -74 0 -105 -1 -67 -3z"/>
<path d="M3283 993 c9 -2 25 -2 35 0 9 3 1 5 -18 5 -19 0 -27 -2 -17 -5z"/>
<path d="M3350 996 c0 -2 7 -6 15 -10 8 -3 15 -1 15 4 0 6 -7 10 -15 10 -8 0
-15 -2 -15 -4z"/>
<path d="M2642 947 c10 -8 24 -27 33 -43 12 -24 15 -26 15 -8 0 25 -19 49 -45
58 -18 6 -19 5 -3 -7z"/>
<path d="M2710 853 c0 -11 20 -20 60 -30 8 -3 179 -4 379 -4 215 0 371 -4 382
-9 22 -12 39 8 18 21 -8 5 -194 9 -414 9 -298 0 -404 3 -413 12 -9 9 -12 9
-12 1z"/>
<path d="M2760 680 c-26 -26 -25 -60 0 -88 40 -43 110 -14 110 46 0 57 -69 83
-110 42z m74 -13 c24 -17 17 -48 -14 -64 -20 -10 -27 -9 -42 4 -25 22 -22 52
5 63 30 12 31 12 51 -3z"/>
<path d="M3373 685 c-41 -29 -17 -115 32 -115 30 0 66 24 72 49 15 59 -53 102
-104 66z m69 -22 c11 -12 13 -25 8 -39 -12 -30 -26 -37 -49 -25 -28 15 -34 41
-15 62 21 24 37 24 56 2z"/>
<path d="M2720 2009 c0 -5 5 -7 10 -4 6 3 10 8 10 11 0 2 -4 4 -10 4 -5 0 -10
-5 -10 -11z"/>
<path d="M4566 1935 c-20 -19 -44 -35 -54 -35 -44 0 -82 -73 -45 -87 12 -5 14
-16 9 -49 -7 -57 11 -76 63 -68 26 4 48 1 69 -10 30 -15 31 -15 51 10 12 15
21 39 21 54 0 15 9 35 20 45 32 29 26 61 -13 74 -23 8 -39 23 -50 46 -9 19
-22 35 -27 35 -6 0 -8 5 -5 10 12 20 -4 9 -39 -25z m50 -35 c9 -28 20 -37 54
-48 l44 -15 -32 -28 c-26 -23 -32 -36 -32 -69 0 -44 -7 -47 -51 -24 -24 12
-37 13 -62 5 -39 -14 -49 -4 -37 39 8 29 7 39 -10 62 -28 38 -25 48 14 48 37
0 61 17 71 51 9 28 28 19 41 -21z"/>
<path d="M3877 1919 c-10 -11 -21 -18 -25 -15 -4 2 -8 -11 -9 -30 -1 -19 3
-34 8 -34 5 0 9 -10 9 -22 0 -12 3 -18 7 -15 3 4 12 -1 19 -11 12 -16 68 -26
58 -10 -3 4 0 8 5 8 6 0 10 3 9 8 -2 4 7 17 20 30 29 29 28 34 -13 76 -39 40
-61 44 -88 15z m73 -29 l32 -30 -38 -35 c-42 -40 -44 -41 -44 -20 0 8 -9 24
-20 35 -25 25 -25 37 -1 45 11 3 22 12 25 20 7 20 9 19 46 -15z"/>
<path d="M4174 1899 c-3 -5 -14 -9 -25 -9 -10 0 -19 -5 -19 -11 0 -6 -9 -9
-20 -6 -10 3 -19 2 -18 -2 3 -25 -4 -32 -24 -26 -16 4 -19 4 -9 -3 15 -10 6
-36 -9 -27 -5 3 -15 -3 -22 -15 -7 -11 -19 -20 -26 -20 -8 0 -12 -6 -9 -15 4
-8 2 -17 -4 -20 -5 -4 -8 -3 -7 2 2 4 -1 9 -7 10 -5 1 -9 -7 -7 -18 2 -11 -5
-28 -15 -37 -27 -24 -72 -117 -79 -163 -5 -31 -3 -40 11 -46 12 -4 24 1 37 16
10 13 18 21 18 17 0 -6 28 15 56 42 8 7 14 11 14 7 0 -3 16 6 35 21 22 16 43
24 55 21 13 -3 20 0 20 9 0 8 6 11 15 8 8 -3 22 1 30 10 10 10 33 16 59 16 28
0 52 7 68 20 14 10 28 17 31 14 3 -3 13 9 23 28 21 41 26 152 6 136 -10 -9
-14 -6 -18 9 -4 13 -18 24 -37 28 -48 12 -117 14 -123 4z m139 -39 c49 -39 43
-111 -13 -151 -14 -10 -61 -26 -104 -34 -94 -19 -174 -58 -250 -120 -31 -25
-58 -45 -60 -45 -11 0 45 123 78 173 47 70 134 153 188 177 57 26 128 26 161
0z"/>
<path d="M4938 1853 c7 -3 16 -2 19 1 4 3 -2 6 -13 5 -11 0 -14 -3 -6 -6z"/>
<path d="M4883 1816 c-19 -15 -23 -24 -18 -45 4 -14 9 -36 10 -47 2 -12 8 -30
14 -41 5 -11 8 -23 6 -27 -3 -3 -2 -4 2 -1 3 3 16 -1 28 -9 44 -29 85 -24 130
15 30 27 35 37 35 74 0 33 -5 47 -21 59 -12 8 -19 21 -16 28 8 23 -140 18
-170 -6z m165 -28 c52 -50 9 -138 -68 -138 -53 0 -85 30 -76 72 4 22 3 29 -7
25 -9 -3 -13 5 -12 27 0 29 2 31 37 31 20 1 40 4 45 8 11 12 55 -2 81 -25z"/>
<path d="M4915 1779 c-4 -6 -5 -12 -2 -15 2 -3 7 2 10 11 7 17 1 20 -8 4z"/>
<path d="M4935 1769 c-4 -6 -5 -12 -2 -15 2 -3 7 2 10 11 7 17 1 20 -8 4z"/>
<path d="M1880 1679 c-25 -3 -64 -15 -87 -27 -24 -12 -43 -20 -43 -16 0 3 -23
-22 -52 -56 -65 -78 -88 -142 -76 -216 19 -122 88 -181 215 -186 18 -1 39 4
45 10 6 6 24 8 39 5 17 -3 29 -1 29 5 0 10 15 15 78 27 13 2 20 0 17 -6 -4 -5
-1 -9 4 -9 6 0 11 4 11 10 0 9 29 7 93 -9 20 -5 37 -7 37 -5 0 3 14 -2 30 -11
53 -28 37 -27 -62 0 -45 13 -63 13 -132 -1 -74 -16 -132 -82 -122 -139 7 -35
44 -85 64 -85 6 0 9 -6 6 -13 -3 -10 5 -12 31 -9 20 2 34 7 30 10 -19 20 185
63 230 49 83 -27 120 -45 118 -58 -2 -9 8 -15 28 -16 30 -2 31 -1 15 16 -25
28 -105 67 -163 81 -60 14 -129 3 -190 -30 -48 -25 -83 -25 -116 0 -56 45 -37
124 39 161 36 17 58 20 112 17 117 -7 217 -68 304 -186 21 -29 43 -50 47 -47
5 2 14 -2 21 -10 39 -47 53 52 25 174 -9 35 -13 66 -11 69 3 2 -1 14 -9 24 -7
11 -11 27 -8 34 3 8 1 14 -3 14 -5 0 -15 15 -22 33 -24 58 -50 105 -97 173
-35 50 -160 162 -177 157 -4 -2 -7 0 -5 5 1 4 -2 9 -8 11 -94 37 -138 50 -146
46 -5 -4 -9 -2 -9 3 0 10 -58 10 -130 1z m213 -49 c76 -29 169 -100 229 -174
54 -67 117 -192 143 -281 21 -71 45 -234 36 -240 -4 -2 -17 20 -30 48 -35 76
-152 189 -236 229 -98 45 -186 49 -299 14 -129 -40 -182 -32 -243 37 -62 71
-66 160 -13 254 34 59 78 96 147 124 64 26 184 21 266 -11z m187 -464 c0 -3
-4 -8 -10 -11 -5 -3 -10 -1 -10 4 0 6 5 11 10 11 6 0 10 -2 10 -4z m70 -64 c0
-8 -49 32 -54 44 -3 9 7 3 24 -13 16 -15 30 -29 30 -31z"/>
<path d="M1855 1626 c-71 -22 -121 -61 -145 -112 -26 -53 -32 -115 -12 -122
11 -3 12 0 2 17 -13 26 -4 62 13 55 8 -3 12 -19 10 -42 -2 -29 -1 -33 6 -17 5
11 10 30 10 43 1 20 11 27 34 23 5 -1 6 2 3 7 -8 14 57 76 68 65 3 -4 6 -1 6
5 0 6 7 9 17 5 12 -5 14 -3 8 7 -6 10 0 12 24 8 17 -2 31 -2 31 2 0 7 59 4
121 -6 23 -4 39 -2 44 6 27 44 -151 85 -240 56z m210 -26 c35 -13 33 -34 -2
-26 -127 31 -214 14 -287 -56 -57 -55 -82 -51 -46 6 54 89 209 124 335 76z"/>
<path d="M2012 1322 c-7 -5 4 -8 27 -8 22 1 43 4 47 9 10 10 -58 9 -74 -1z"/>
<path d="M2147 1309 c7 -7 15 -10 18 -7 3 3 -2 9 -12 12 -14 6 -15 5 -6 -5z"/>
<path d="M4309 1645 c-3 -2 -23 -6 -47 -9 -23 -3 -48 -8 -55 -13 -6 -4 -14 -8
-17 -8 -31 -5 -103 -34 -135 -54 -22 -14 -43 -24 -47 -23 -5 1 -8 -3 -8 -9 0
-5 -4 -7 -10 -4 -5 3 -10 -1 -10 -9 0 -8 -8 -17 -19 -21 -10 -3 -45 -34 -77
-70 -70 -76 -124 -142 -107 -132 6 4 2 -10 -10 -32 -18 -33 -19 -41 -8 -55 7
-9 17 -13 22 -10 23 14 5 -21 -25 -51 -19 -18 -32 -36 -29 -39 4 -3 0 -14 -8
-23 -25 -32 -35 -57 -35 -88 1 -25 5 -30 24 -28 16 2 21 -1 16 -10 -5 -6 6 1
23 17 17 16 33 28 37 27 3 -1 20 6 38 15 39 20 138 20 178 -1 17 -9 30 -19 30
-23 0 -19 79 -92 116 -107 36 -14 48 -15 85 -4 24 8 49 13 56 12 7 0 12 2 11
6 -2 20 4 31 14 25 6 -4 8 -3 4 4 -3 5 -3 12 2 14 4 1 17 22 29 46 24 49 24
121 0 160 -5 6 -5 12 -1 12 4 0 -3 9 -16 20 -13 11 -20 20 -16 20 4 0 -4 11
-16 24 -13 13 -25 22 -27 20 -2 -2 -12 6 -22 18 -11 11 -19 18 -19 13 0 -4 -7
-2 -15 5 -8 6 -30 12 -48 13 -25 1 -31 4 -23 12 11 13 43 9 64 -8 8 -6 24 -13
35 -14 12 -2 25 -10 30 -18 4 -8 15 -15 22 -15 8 0 15 -5 15 -12 0 -6 3 -9 6
-5 3 3 20 -13 38 -36 45 -59 104 -90 173 -89 31 0 60 5 66 11 6 6 20 11 31 11
10 0 17 3 14 6 -3 3 4 16 16 29 34 37 51 59 52 67 1 5 2 15 3 24 0 8 5 13 9
10 8 -5 7 68 -1 140 -5 38 -71 125 -119 156 -21 12 -38 26 -38 31 0 4 -6 7
-12 7 -7 0 -24 6 -38 13 -38 20 -189 44 -201 32z m133 -39 c80 -17 116 -35
170 -84 84 -75 111 -193 66 -282 -44 -86 -131 -127 -211 -101 -21 7 -59 36
-89 68 -66 69 -110 97 -184 119 -114 33 -247 5 -367 -78 -33 -21 -60 -38 -62
-36 -1 2 16 34 39 72 100 169 278 295 459 325 76 13 105 12 179 -3z m-333
-290 c-2 -2 -22 -6 -44 -9 -28 -5 -34 -4 -20 3 19 8 73 14 64 6z m65 -51 c99
-29 166 -110 166 -202 0 -163 -179 -220 -271 -87 -35 52 -72 73 -138 81 -59 7
-132 -15 -191 -58 -23 -17 -44 -28 -47 -26 -2 3 10 33 27 67 91 180 282 275
454 225z m-265 1 c-2 -2 -15 -9 -29 -15 -24 -11 -24 -11 -6 3 16 13 49 24 35
12z"/>
<path d="M4394 1579 c118 -16 211 -72 252 -151 21 -40 15 -122 -8 -126 -15 -3
-17 2 -12 26 8 38 -22 107 -64 148 -41 42 -113 74 -176 80 l-51 4 47 -13 c26
-8 54 -19 62 -27 9 -7 16 -9 16 -6 0 4 13 -2 29 -13 16 -12 34 -21 41 -21 6 0
9 -3 6 -8 -2 -4 2 -16 10 -27 8 -10 14 -13 14 -6 0 7 4 10 10 6 5 -3 7 -12 3
-20 -3 -8 0 -15 6 -15 6 0 11 -9 11 -19 0 -11 5 -23 11 -27 6 -3 8 -15 6 -26
-12 -45 25 -65 58 -31 13 13 16 27 11 60 -17 129 -124 213 -275 219 l-76 3 69
-10z"/>
<path d="M4094 1391 c19 -7 96 -5 104 4 3 3 -24 5 -59 4 -38 0 -57 -3 -45 -8z"/>
<path d="M4230 1380 c8 -5 22 -9 30 -9 10 0 8 3 -5 9 -27 12 -43 12 -25 0z"/>
<path d="M4321 1333 c13 -16 27 -32 32 -38 4 -5 5 -1 1 10 -8 21 -38 55 -50
55 -4 0 3 -12 17 -27z"/>
<path d="M4165 1238 c93 -33 161 -125 134 -182 -10 -21 -10 -21 6 -1 8 11 13
26 10 33 -3 8 -5 22 -5 32 0 43 -108 131 -157 129 -11 0 -6 -5 12 -11z"/>
<path d="M4090 1223 c8 -3 31 -12 50 -21 19 -8 38 -14 42 -14 14 3 78 -83 78
-105 0 -13 5 -23 11 -23 15 0 4 56 -16 87 -21 31 -93 72 -140 77 -22 3 -33 3
-25 -1z"/>
<path d="M4696 1615 c-13 -19 -13 -27 -3 -37 59 -65 59 -66 48 -90 -9 -19 -9
-20 1 -6 10 14 14 10 28 -30 9 -26 17 -67 19 -92 1 -24 8 -52 16 -60 14 -16
56 -25 53 -12 -1 4 6 22 15 40 10 17 13 32 8 32 -5 0 -7 9 -4 19 5 18 7 18 28
-7 l23 -27 27 25 c24 22 26 30 21 70 -4 25 -8 57 -9 71 -1 15 -8 26 -16 25 -8
-1 -17 9 -20 21 -6 20 -8 21 -44 8 -49 -17 -53 -21 -37 -40 10 -12 11 -18 1
-28 -10 -9 -11 -9 -6 4 3 9 -3 23 -14 33 -15 14 -18 23 -11 37 7 12 6 20 -2
25 -7 4 -8 3 -4 -4 10 -17 -6 -15 -32 4 -12 8 -19 20 -16 26 4 7 2 8 -4 4 -6
-4 -20 -2 -31 3 -15 9 -22 6 -35 -14z m76 -42 c46 -49 63 -84 78 -161 10 -48
10 -69 1 -88 -19 -43 -36 -23 -42 52 -7 76 -31 133 -79 187 -28 33 -30 47 -5
47 6 0 27 -17 47 -37z m161 -65 c10 -20 19 -56 20 -80 2 -37 -1 -43 -19 -46
-18 -3 -22 3 -26 41 -3 25 -13 59 -22 77 -21 44 -20 52 7 48 14 -2 29 -16 40
-40z m-47 -67 c0 -11 -4 -17 -8 -15 -4 3 -8 12 -8 20 0 8 4 14 8 14 4 0 8 -9
8 -19z"/>
<path d="M1496 1588 c-28 -43 -29 -72 -4 -94 28 -25 58 -37 58 -23 0 6 4 8 8
5 14 -9 52 42 52 69 0 18 -10 31 -32 45 -43 26 -64 25 -82 -2z m67 -18 c35
-17 33 -48 -6 -70 -26 -14 -29 -14 -47 10 -17 23 -17 26 -2 52 9 16 19 27 22
25 3 -1 18 -9 33 -17z"/>
<path d="M3840 1560 c0 -5 5 -10 10 -10 6 0 10 5 10 10 0 6 -4 10 -10 10 -5 0
-10 -4 -10 -10z"/>
<path d="M1204 1502 c-7 -4 -12 -34 -12 -67 -1 -33 -3 -78 -5 -101 -2 -23 1
-41 8 -42 5 -1 22 -4 38 -8 16 -4 27 -2 27 4 0 7 11 8 32 1 51 -14 67 -11 94
18 23 25 25 33 21 100 -3 59 -7 76 -23 87 -20 14 -161 21 -180 8z m172 -25 c3
-2 7 -36 9 -75 3 -60 0 -73 -16 -88 -17 -15 -24 -16 -53 -6 -25 9 -41 10 -62
2 -21 -9 -31 -8 -42 4 -13 12 -13 20 -2 45 8 19 10 47 6 72 -4 22 -4 44 -2 48
5 8 154 7 162 -2z"/>
<path d="M1252 1410 c0 -14 2 -19 5 -12 2 6 2 18 0 25 -3 6 -5 1 -5 -13z"/>
<path d="M1162 1368 c0 -29 3 -37 8 -24 6 18 2 66 -6 66 -1 0 -2 -19 -2 -42z"/>
<path d="M1416 1215 c-10 -8 -23 -12 -28 -9 -5 3 -8 2 -7 -3 1 -4 -1 -24 -5
-45 -9 -43 -3 -67 25 -96 24 -27 84 -30 111 -5 14 13 18 13 18 2 1 -8 8 1 16
20 16 38 11 104 -9 131 -16 21 -96 24 -121 5z m112 -20 c1 -1 3 -23 4 -50 2
-39 -2 -51 -21 -66 -42 -34 -104 -20 -115 26 -16 63 28 109 94 98 19 -3 36 -7
38 -8z"/>
<path d="M1432 1169 c-7 -10 -12 -27 -11 -36 0 -11 3 -13 6 -5 2 6 10 9 15 6
7 -4 8 -2 4 5 -4 6 -3 18 4 26 6 7 7 16 2 18 -4 3 -13 -3 -20 -14z"/>
<path d="M1674 1042 c-47 -40 -57 -93 -24 -135 37 -46 105 -45 151 3 18 18 31
93 15 83 -5 -4 -7 1 -3 11 4 10 3 15 -3 11 -6 -3 -10 -2 -10 4 0 14 -54 41
-82 41 -13 -1 -32 -9 -44 -18z m86 -17 c78 -40 24 -155 -59 -127 -51 17 -54
99 -3 126 34 19 28 19 62 1z"/>
<path d="M1701 996 c-13 -13 -21 -32 -19 -43 4 -15 7 -13 18 10 7 15 19 26 26
23 7 -3 10 2 7 15 -7 24 -5 24 -32 -5z"/>
<path d="M2209 946 c-2 -2 -19 -6 -37 -9 -36 -6 -82 -48 -82 -75 0 -15 -2 -15
-11 -2 -9 12 -10 12 -5 -3 3 -10 6 -30 6 -43 0 -58 96 -107 134 -68 9 8 16 12
16 8 0 -4 9 5 21 19 11 15 26 26 32 24 7 -1 11 4 10 10 -2 7 10 25 25 40 15
16 27 34 26 41 -1 6 -2 15 -3 20 -3 22 -115 54 -132 38z m104 -38 c15 -12 11
-19 -40 -74 -32 -33 -67 -65 -77 -71 -49 -27 -112 39 -88 92 18 40 69 65 133
65 30 0 63 -6 72 -12z"/>
<path d="M2145 861 c-3 -5 -2 -12 3 -15 5 -3 9 1 9 9 0 17 -3 19 -12 6z"/>
<path d="M3845 942 c-28 -4 -65 -32 -65 -49 0 -14 113 -122 142 -138 17 -8 30
-10 34 -4 3 5 9 7 14 4 13 -8 57 33 64 60 9 36 -20 92 -57 112 -32 16 -83 22
-132 15z m134 -48 c39 -33 43 -84 9 -108 -36 -25 -57 -19 -106 32 -26 27 -56
54 -67 60 -20 12 -20 12 -1 27 12 9 41 15 77 15 47 0 63 -5 88 -26z"/>
<path d="M1931 849 c-13 -11 -30 -18 -38 -15 -25 10 -21 -56 6 -83 44 -44 86
-53 96 -21 4 11 11 18 16 15 5 -3 6 1 3 9 -4 11 0 16 10 16 15 0 15 3 1 30 -9
17 -21 30 -27 30 -6 0 -9 3 -5 6 7 7 -17 34 -30 34 -4 -1 -19 -10 -32 -21z
m49 -24 c0 -8 7 -18 16 -23 15 -8 14 -13 -7 -41 -12 -17 -26 -31 -30 -31 -6 0
-79 76 -79 83 0 1 12 3 26 4 15 0 33 8 42 17 17 17 32 13 32 -9z"/>
<path d="M2400 797 c-33 -16 -62 -45 -80 -82 -14 -27 -13 -33 2 -66 23 -48 64
-64 112 -44 29 12 35 21 42 57 4 24 7 47 6 51 -1 4 2 16 6 25 5 9 6 28 2 42
l-7 25 -12 -28 c-6 -16 -11 -47 -11 -70 0 -55 -22 -87 -60 -87 -32 0 -60 31
-60 66 0 34 46 82 91 95 21 7 39 16 39 21 0 12 -40 9 -70 -5z"/>
<path d="M3703 748 c-32 -23 -38 -38 -34 -90 1 -16 -3 -28 -9 -28 -6 0 -8 -5
-4 -11 4 -8 10 -6 17 6 9 17 11 17 26 -2 10 -13 32 -23 58 -26 36 -4 42 -2 47
16 4 16 8 18 20 8 11 -9 16 -9 22 0 5 8 3 9 -6 4 -10 -6 -12 1 -7 38 4 28 2
49 -4 52 -6 5 -5 13 3 23 11 15 11 15 -3 5 -13 -11 -19 -9 -34 7 -24 26 -53
25 -92 -2z m92 -23 c29 -28 31 -51 10 -82 -32 -46 -115 -23 -115 33 0 28 41
74 65 74 9 0 27 -11 40 -25z"/>
<path d="M3745 710 c-3 -6 1 -7 9 -4 18 7 21 14 7 14 -6 0 -13 -4 -16 -10z"/>
<path d="M2386 729 c-14 -17 -26 -38 -25 -47 0 -14 3 -12 16 6 8 12 23 22 32
23 10 0 11 2 4 6 -9 3 -10 10 -3 24 16 28 5 23 -24 -12z"/>
<path d="M5375 1820 c-10 -23 -21 -36 -25 -30 -4 6 -7 -3 -7 -20 0 -18 -4 -35
-10 -38 -6 -4 -13 -17 -17 -30 -4 -12 -12 -20 -17 -17 -5 3 -7 0 -4 -7 3 -7
-19 -49 -47 -92 -29 -43 -61 -92 -71 -108 -42 -70 -99 -138 -109 -132 -7 4 -8
3 -4 -4 11 -19 -93 -131 -116 -127 -17 4 -18 2 -7 -12 12 -13 9 -20 -20 -44
-19 -15 -38 -26 -43 -23 -4 3 -8 -2 -8 -11 0 -18 -54 -71 -180 -178 -8 -6 -21
-12 -30 -12 -8 -1 -14 -6 -13 -13 2 -6 -9 -19 -23 -29 -14 -10 -41 -30 -59
-45 -18 -16 -38 -28 -44 -28 -6 0 -11 -4 -11 -10 0 -5 -6 -10 -13 -10 -7 0
-37 -18 -66 -40 -30 -22 -56 -38 -59 -35 -3 2 -10 -2 -16 -10 -6 -8 -46 -32
-89 -55 -43 -22 -85 -44 -95 -49 -80 -43 -125 -61 -135 -55 -7 4 -9 3 -4 -1 6
-8 -83 -51 -123 -59 -8 -2 -23 -6 -32 -10 -9 -4 -21 -5 -26 -2 -5 3 -9 -2 -9
-10 0 -9 6 -13 16 -9 9 4 43 16 76 27 81 28 266 116 378 179 230 131 374 243
582 453 154 156 224 241 333 406 61 93 178 317 169 326 -2 2 -12 -14 -22 -36z"/>
<path d="M867 1418 c18 -36 193 -238 283 -326 52 -52 136 -126 185 -166 86
-69 277 -206 288 -206 3 0 34 -17 68 -39 147 -88 480 -234 497 -216 3 2 -1 7
-9 9 -145 49 -373 151 -459 205 -8 6 -60 37 -115 70 -55 33 -117 75 -137 94
-21 19 -40 32 -42 29 -3 -2 -12 2 -20 9 -8 8 -46 39 -85 69 -45 36 -68 60 -65
70 3 8 2 11 -2 8 -10 -11 -45 12 -38 24 4 7 3 8 -4 4 -11 -7 -17 6 -13 27 1 5
-3 6 -9 2 -13 -8 -42 14 -34 26 3 5 0 8 -7 7 -7 -2 -18 7 -24 20 -7 13 -15 22
-18 20 -3 -2 -23 17 -44 42 -21 24 -47 53 -58 65 -11 11 -38 43 -60 70 -57 70
-88 103 -78 83z"/>
<path d="M950 1266 c0 -2 8 -10 18 -17 15 -13 16 -12 3 4 -13 16 -21 21 -21
13z"/>
<path d="M4970 1250 c-6 -11 -8 -20 -6 -20 3 0 10 9 16 20 6 11 8 20 6 20 -3
0 -10 -9 -16 -20z"/>
<path d="M4745 1030 c-3 -5 -1 -10 4 -10 6 0 11 5 11 10 0 6 -2 10 -4 10 -3 0
-8 -4 -11 -10z"/>
<path d="M1220 996 c0 -2 8 -10 18 -17 15 -13 16 -12 3 4 -13 16 -21 21 -21
13z"/>
<path d="M1505 840 c-3 -5 -1 -10 4 -10 6 0 11 5 11 10 0 6 -2 10 -4 10 -3 0
-8 -4 -11 -10z"/>
<path d="M1744 626 c11 -9 24 -16 30 -16 12 0 7 5 -24 19 -24 11 -24 11 -6 -3z"/>
<path d="M3776 458 c3 -4 -8 -10 -23 -13 -15 -3 -48 -12 -73 -20 -25 -8 -71
-19 -103 -24 -32 -6 -62 -13 -66 -15 -13 -9 -217 -37 -248 -34 -16 1 -33 -1
-39 -5 -6 -4 -99 -7 -205 -9 -133 -1 -182 -4 -155 -10 38 -8 317 -4 366 5 14
3 57 8 95 12 39 4 77 8 85 10 118 20 172 32 265 57 61 17 120 33 133 35 31 7
27 18 -7 18 -16 0 -27 -3 -25 -7z"/>
<path d="M2235 444 c63 -24 235 -66 248 -61 7 3 -1 8 -18 12 -16 3 -79 20
-138 36 -115 31 -157 37 -92 13z"/>
<path d="M3568 413 c7 -3 16 -2 19 1 4 3 -2 6 -13 5 -11 0 -14 -3 -6 -6z"/>
<path d="M3768 413 c7 -3 16 -2 19 1 4 3 -2 6 -13 5 -11 0 -14 -3 -6 -6z"/>
<path d="M2590 360 c115 -21 244 -34 215 -21 -11 5 -38 10 -60 10 -22 1 -78 8
-125 16 -47 8 -94 15 -105 14 -11 -1 23 -9 75 -19z"/>
<path d="M3258 313 c7 -3 16 -2 19 1 4 3 -2 6 -13 5 -11 0 -14 -3 -6 -6z"/>
</g>
</svg>
